<?xml version="1.0" encoding="utf-8"?>
<!-- Generator: Adobe Illustrator 26.0.1, SVG Export Plug-In . SVG Version: 6.00 Build 0)  -->
<svg version="1.1" id="Livello_1" xmlns="http://www.w3.org/2000/svg" xmlns:xlink="http://www.w3.org/1999/xlink" x="0px" y="0px"
	 width="175.4px" height="102.6px" viewBox="0 0 175.4 102.6" style="enable-background:new 0 0 175.4 102.6;" xml:space="preserve"
	>
<style type="text/css">
	.st0{fill:#8E1C15;}
	.st1{fill:#2F2A17;}
	.st2{fill:none;stroke:#2F2A17;stroke-width:0.3;stroke-miterlimit:10;}
	.st3{fill-rule:evenodd;clip-rule:evenodd;fill:#2F2A17;}
</style>
<g>
	<g>
		<g>
			<path class="st0" d="M7.9,75.5v-9.3h3.3c1.1,0,2,0.2,2.6,0.6c0.6,0.4,0.9,1.1,0.9,1.9c0,0.5-0.1,0.9-0.4,1.2
				c-0.2,0.3-0.6,0.6-1,0.8c0.5,0.1,0.9,0.4,1.1,0.7c0.3,0.4,0.4,0.8,0.4,1.3c0,0.9-0.3,1.6-0.9,2c-0.6,0.5-1.4,0.7-2.4,0.7H7.9z
				 M9.8,70.1h1.4c1,0,1.5-0.4,1.5-1.2c0-0.4-0.1-0.7-0.4-0.9c-0.2-0.2-0.6-0.3-1.2-0.3H9.8V70.1z M9.8,71.4v2.5h1.6
				c0.5,0,0.8-0.1,1.1-0.3c0.3-0.2,0.4-0.5,0.4-0.9c0-0.9-0.4-1.3-1.3-1.3H9.8z"/>
			<path class="st0" d="M18.4,75.5h-1.9v-9.3h1.9V75.5z"/>
			<path class="st0" d="M20.3,75.5v-9.3h3.3c1.1,0,2,0.2,2.6,0.6c0.6,0.4,0.9,1.1,0.9,1.9c0,0.5-0.1,0.9-0.4,1.2
				c-0.2,0.3-0.6,0.6-1,0.8c0.5,0.1,0.9,0.4,1.1,0.7c0.3,0.4,0.4,0.8,0.4,1.3c0,0.9-0.3,1.6-0.9,2c-0.6,0.5-1.4,0.7-2.4,0.7H20.3z
				 M22.2,70.1h1.4c1,0,1.5-0.4,1.5-1.2c0-0.4-0.1-0.7-0.4-0.9c-0.2-0.2-0.6-0.3-1.2-0.3h-1.3V70.1z M22.2,71.4v2.5h1.6
				c0.5,0,0.8-0.1,1.1-0.3c0.3-0.2,0.4-0.5,0.4-0.9c0-0.9-0.4-1.3-1.3-1.3H22.2z"/>
			<path class="st0" d="M30.7,73.9h4.1v1.5h-6v-9.3h1.9V73.9z"/>
			<path class="st0" d="M38.1,75.5h-1.9v-9.3h1.9V75.5z"/>
			<path class="st0" d="M47.6,71c0,0.9-0.2,1.7-0.5,2.4s-0.8,1.2-1.4,1.6c-0.6,0.4-1.3,0.6-2.1,0.6c-0.8,0-1.5-0.2-2.1-0.6
				s-1.1-0.9-1.4-1.6c-0.3-0.7-0.5-1.5-0.5-2.4v-0.5c0-0.9,0.2-1.7,0.5-2.4c0.3-0.7,0.8-1.2,1.4-1.6s1.3-0.6,2.1-0.6
				s1.5,0.2,2.1,0.6s1.1,0.9,1.4,1.6s0.5,1.5,0.5,2.4V71z M45.7,70.6c0-1-0.2-1.7-0.5-2.2c-0.3-0.5-0.8-0.8-1.5-0.8
				c-0.6,0-1.1,0.2-1.5,0.8c-0.3,0.5-0.5,1.2-0.5,2.2V71c0,1,0.2,1.7,0.5,2.2S43,74,43.7,74c0.6,0,1.1-0.3,1.5-0.8
				c0.3-0.5,0.5-1.2,0.5-2.2V70.6z"/>
			<path class="st0" d="M56.2,67.7h-2.9v7.8h-1.9v-7.8h-2.8v-1.6h7.6V67.7z"/>
			<path class="st0" d="M65,75.5H63v-4h-3.7v4h-1.9v-9.3h1.9v3.8H63v-3.8H65V75.5z"/>
			<path class="st0" d="M72.4,71.4h-3.7v2.5H73v1.5h-6.2v-9.3H73v1.6h-4.3v2.2h3.7V71.4z"/>
			<path class="st0" d="M81.6,72.4c-0.1,1-0.4,1.8-1.1,2.4c-0.7,0.6-1.5,0.9-2.6,0.9c-1.2,0-2.1-0.4-2.8-1.2c-0.7-0.8-1-1.9-1-3.3
				v-0.6c0-0.9,0.2-1.7,0.5-2.4c0.3-0.7,0.8-1.2,1.4-1.6c0.6-0.4,1.3-0.5,2-0.5c1.1,0,1.9,0.3,2.6,0.9c0.7,0.6,1,1.4,1.1,2.4h-1.9
				c0-0.6-0.2-1-0.5-1.3c-0.3-0.3-0.7-0.4-1.3-0.4c-0.6,0-1.1,0.2-1.4,0.7c-0.3,0.5-0.5,1.2-0.5,2.1v0.7c0,1,0.2,1.7,0.5,2.2
				c0.3,0.5,0.8,0.7,1.4,0.7c0.6,0,1-0.1,1.3-0.4c0.3-0.3,0.5-0.7,0.5-1.3H81.6z"/>
			<path class="st0" d="M88.2,73.6h-3.4l-0.6,1.9h-2l3.5-9.3h1.8l3.5,9.3h-2L88.2,73.6z M85.4,72h2.3l-1.2-3.5L85.4,72z"/>
			<path class="st0" d="M102.9,75.5H101v-4h-3.7v4h-1.9v-9.3h1.9v3.8h3.7v-3.8h1.9V75.5z"/>
			<path class="st0" d="M110.3,71.4h-3.7v2.5h4.3v1.5h-6.2v-9.3h6.2v1.6h-4.3v2.2h3.7V71.4z"/>
			<path class="st0" d="M115.6,72.1h-1.5v3.4h-1.9v-9.3h3.5c1.1,0,1.9,0.2,2.5,0.7c0.6,0.5,0.9,1.2,0.9,2.1c0,0.6-0.1,1.2-0.4,1.6
				s-0.7,0.8-1.2,1l2,3.8v0.1h-2.1L115.6,72.1z M114.1,70.5h1.5c0.5,0,0.9-0.1,1.1-0.4c0.3-0.2,0.4-0.6,0.4-1c0-0.4-0.1-0.8-0.4-1
				c-0.2-0.3-0.6-0.4-1.1-0.4h-1.5V70.5z"/>
			<path class="st0" d="M127.7,67.7h-2.9v7.8h-1.9v-7.8h-2.8v-1.6h7.6V67.7z"/>
			<path class="st0" d="M131,73.9h4.7v1.5h-7.1v-1.1l4.6-6.6h-4.6v-1.6h7v1.1L131,73.9z"/>
			<path class="st0" d="M139,75.5h-1.9v-9.3h1.9V75.5z"/>
			<path class="st0" d="M146.2,73.6h-3.4l-0.6,1.9h-2l3.5-9.3h1.8l3.5,9.3h-2L146.2,73.6z M143.4,72h2.3l-1.2-3.5L143.4,72z"/>
			<path class="st0" d="M157.5,75.5h-1.9l-3.7-6.1v6.1h-1.9v-9.3h1.9l3.7,6.1v-6.1h1.9V75.5z"/>
			<path class="st0" d="M164.5,73.6h-3.4l-0.6,1.9h-2l3.5-9.3h1.8l3.5,9.3h-2L164.5,73.6z M161.7,72h2.3l-1.2-3.5L161.7,72z"/>
		</g>
	</g>
	<g>
		<g>
			<path class="st1" d="M89.5,91.7h-3v3.1h-0.6v-6.5h4v0.5h-3.5v2.5h3V91.7z"/>
			<path class="st1" d="M96.3,91.9c0,0.6-0.1,1.1-0.3,1.6c-0.2,0.5-0.5,0.8-0.9,1s-0.8,0.4-1.3,0.4c-0.8,0-1.4-0.3-1.8-0.8
				c-0.5-0.5-0.7-1.3-0.7-2.2v-0.7c0-0.6,0.1-1.1,0.3-1.6s0.5-0.8,0.9-1.1c0.4-0.2,0.8-0.4,1.3-0.4c0.5,0,0.9,0.1,1.3,0.4
				c0.4,0.2,0.7,0.6,0.9,1c0.2,0.4,0.3,1,0.3,1.5V91.9z M95.8,91.2c0-0.8-0.2-1.4-0.5-1.8c-0.4-0.4-0.8-0.7-1.5-0.7
				c-0.6,0-1.1,0.2-1.5,0.7c-0.4,0.4-0.5,1.1-0.5,1.9v0.7c0,0.8,0.2,1.4,0.5,1.8c0.4,0.5,0.8,0.7,1.5,0.7c0.6,0,1.1-0.2,1.5-0.7
				c0.4-0.4,0.5-1.1,0.5-1.9V91.2z"/>
			<path class="st1" d="M100.6,92h-1.9v2.7h-0.6v-6.5h2.1c0.7,0,1.2,0.2,1.6,0.5s0.6,0.8,0.6,1.4c0,0.4-0.1,0.8-0.4,1.1
				s-0.6,0.5-1,0.7l1.6,2.8v0.1h-0.6L100.6,92z M98.7,91.6h1.7c0.5,0,0.8-0.1,1.1-0.4c0.3-0.3,0.4-0.6,0.4-1c0-0.5-0.1-0.8-0.4-1.1
				c-0.3-0.3-0.7-0.4-1.2-0.4h-1.6V91.6z"/>
			<path class="st1" d="M110.7,92.9h-3l-0.7,1.8h-0.6l2.5-6.5h0.5l2.5,6.5h-0.6L110.7,92.9z M107.9,92.5h2.6l-1.3-3.6L107.9,92.5z"
				/>
			<path class="st1" d="M115.8,92h-1.9v2.7h-0.6v-6.5h2.1c0.7,0,1.2,0.2,1.6,0.5s0.6,0.8,0.6,1.4c0,0.4-0.1,0.8-0.4,1.1
				s-0.6,0.5-1,0.7l1.6,2.8v0.1h-0.6L115.8,92z M113.9,91.6h1.7c0.5,0,0.8-0.1,1.1-0.4c0.3-0.3,0.4-0.6,0.4-1c0-0.5-0.1-0.8-0.4-1.1
				c-0.3-0.3-0.7-0.4-1.2-0.4h-1.6V91.6z"/>
			<path class="st1" d="M124.1,88.7h-2.2v6.1h-0.6v-6.1h-2.2v-0.5h5V88.7z"/>
			<path class="st1" d="M133.1,94.8h-0.6v-3.1h-3.7v3.1h-0.6v-6.5h0.6v2.9h3.7v-2.9h0.6V94.8z"/>
			<path class="st1" d="M135.9,94.8h-0.6v-6.5h0.6V94.8z"/>
			<path class="st1" d="M141.8,93.2c0-0.4-0.1-0.6-0.4-0.9c-0.3-0.2-0.7-0.4-1.4-0.6c-0.7-0.2-1.2-0.4-1.5-0.6
				c-0.4-0.3-0.7-0.7-0.7-1.2c0-0.5,0.2-0.9,0.6-1.2s0.9-0.5,1.6-0.5c0.4,0,0.8,0.1,1.2,0.3c0.3,0.2,0.6,0.4,0.8,0.7
				c0.2,0.3,0.3,0.6,0.3,1h-0.6c0-0.4-0.2-0.8-0.5-1.1c-0.3-0.3-0.7-0.4-1.2-0.4c-0.5,0-0.9,0.1-1.2,0.3c-0.3,0.2-0.4,0.5-0.4,0.9
				c0,0.3,0.1,0.6,0.4,0.8c0.3,0.2,0.7,0.4,1.3,0.6s1,0.3,1.3,0.5c0.3,0.2,0.5,0.4,0.7,0.6c0.2,0.2,0.2,0.5,0.2,0.8
				c0,0.5-0.2,0.9-0.6,1.2c-0.4,0.3-1,0.5-1.6,0.5c-0.5,0-0.9-0.1-1.3-0.2c-0.4-0.2-0.7-0.4-0.9-0.7c-0.2-0.3-0.3-0.6-0.3-1h0.6
				c0,0.5,0.2,0.8,0.5,1.1c0.3,0.3,0.8,0.4,1.4,0.4c0.5,0,0.9-0.1,1.2-0.3C141.7,93.8,141.8,93.5,141.8,93.2z"/>
			<path class="st1" d="M148.5,88.7h-2.2v6.1h-0.6v-6.1h-2.2v-0.5h5V88.7z"/>
			<path class="st1" d="M154.8,91.9c0,0.6-0.1,1.1-0.3,1.6c-0.2,0.5-0.5,0.8-0.9,1s-0.8,0.4-1.3,0.4c-0.8,0-1.4-0.3-1.8-0.8
				c-0.5-0.5-0.7-1.3-0.7-2.2v-0.7c0-0.6,0.1-1.1,0.3-1.6s0.5-0.8,0.9-1.1c0.4-0.2,0.8-0.4,1.3-0.4c0.5,0,0.9,0.1,1.3,0.4
				c0.4,0.2,0.7,0.6,0.9,1c0.2,0.4,0.3,1,0.3,1.5V91.9z M154.3,91.2c0-0.8-0.2-1.4-0.5-1.8c-0.4-0.4-0.8-0.7-1.5-0.7
				c-0.6,0-1.1,0.2-1.5,0.7c-0.4,0.4-0.5,1.1-0.5,1.9v0.7c0,0.8,0.2,1.4,0.5,1.8c0.4,0.5,0.8,0.7,1.5,0.7c0.6,0,1.1-0.2,1.5-0.7
				c0.4-0.4,0.5-1.1,0.5-1.9V91.2z"/>
			<path class="st1" d="M159.1,92h-1.9v2.7h-0.6v-6.5h2.1c0.7,0,1.2,0.2,1.6,0.5s0.6,0.8,0.6,1.4c0,0.4-0.1,0.8-0.4,1.1
				s-0.6,0.5-1,0.7l1.6,2.8v0.1h-0.6L159.1,92z M157.2,91.6h1.7c0.5,0,0.8-0.1,1.1-0.4c0.3-0.3,0.4-0.6,0.4-1c0-0.5-0.1-0.8-0.4-1.1
				c-0.3-0.3-0.7-0.4-1.2-0.4h-1.6V91.6z"/>
			<path class="st1" d="M164.9,91.8l2-3.6h0.6l-2.4,4.1v2.5h-0.6v-2.5l-2.4-4.1h0.7L164.9,91.8z"/>
		</g>
	</g>
	<g>
		<g>
			<path class="st1" d="M55.3,78.6l1.7,4.7l1.7-4.7h1.8v6.5H59v-1.8l0.1-3.1l-1.8,4.9h-0.9l-1.8-4.9l0.1,3.1v1.8h-1.3v-6.5H55.3z"/>
			<path class="st1" d="M65.7,83.8h-2.4l-0.4,1.3h-1.4l2.4-6.5h1.2l2.4,6.5h-1.4L65.7,83.8z M63.7,82.7h1.6l-0.8-2.4L63.7,82.7z"/>
			<path class="st1" d="M71,80.9l1.2-2.3h1.5l-1.9,3.2l2,3.3h-1.6L71,82.9l-1.3,2.3h-1.6l2-3.3l-1.9-3.2h1.5L71,80.9z"/>
			<path class="st1" d="M79,82.8v2.3h-1.3v-6.5h2.5c0.5,0,0.9,0.1,1.3,0.3c0.4,0.2,0.7,0.4,0.9,0.8s0.3,0.7,0.3,1.1
				c0,0.6-0.2,1.1-0.7,1.5c-0.4,0.4-1,0.6-1.8,0.6H79z M79,81.8h1.2c0.4,0,0.6-0.1,0.8-0.3c0.2-0.2,0.3-0.4,0.3-0.7
				c0-0.3-0.1-0.6-0.3-0.8s-0.4-0.3-0.8-0.3H79V81.8z"/>
			<path class="st1" d="M85.4,84.1h2.9v1.1h-4.2v-6.5h1.3V84.1z"/>
			<path class="st1" d="M93.2,83.8h-2.4l-0.4,1.3h-1.4l2.4-6.5h1.2l2.4,6.5h-1.4L93.2,83.8z M91.2,82.7h1.6L92,80.3L91.2,82.7z"/>
			<path class="st1" d="M101.5,85.1h-1.3l-2.6-4.3v4.3h-1.3v-6.5h1.3l2.6,4.3v-4.3h1.3V85.1z"/>
			<path class="st1" d="M108.2,83c-0.1,0.7-0.3,1.3-0.8,1.7c-0.5,0.4-1.1,0.6-1.9,0.6c-0.8,0-1.5-0.3-2-0.8
				c-0.5-0.6-0.7-1.3-0.7-2.3v-0.4c0-0.6,0.1-1.2,0.3-1.7s0.5-0.8,0.9-1.1c0.4-0.3,0.9-0.4,1.4-0.4c0.8,0,1.4,0.2,1.8,0.6
				c0.5,0.4,0.7,1,0.8,1.7h-1.3c0-0.4-0.2-0.7-0.4-0.9c-0.2-0.2-0.5-0.3-0.9-0.3c-0.4,0-0.8,0.2-1,0.5s-0.3,0.8-0.3,1.5v0.5
				c0,0.7,0.1,1.2,0.3,1.5s0.6,0.5,1,0.5c0.4,0,0.7-0.1,0.9-0.3c0.2-0.2,0.3-0.5,0.4-0.9H108.2z"/>
			<path class="st1" d="M111.6,82.5l-0.7,0.8v1.9h-1.3v-6.5h1.3v3l0.6-0.8l1.7-2.1h1.7l-2.3,2.9l2.4,3.6h-1.6L111.6,82.5z"/>
			<path class="st1" d="M120,85.1h-1.3v-6.5h1.3V85.1z"/>
			<path class="st1" d="M127,85.1h-1.3l-2.6-4.3v4.3h-1.3v-6.5h1.3l2.6,4.3v-4.3h1.3V85.1z"/>
			<path class="st1" d="M132.1,83.4c0-0.3-0.1-0.5-0.3-0.6c-0.2-0.1-0.5-0.3-1-0.4c-0.5-0.2-0.8-0.3-1.1-0.4
				c-0.7-0.4-1.1-0.9-1.1-1.6c0-0.4,0.1-0.7,0.3-0.9s0.5-0.5,0.9-0.6c0.4-0.2,0.8-0.2,1.3-0.2c0.5,0,0.9,0.1,1.2,0.3
				c0.4,0.2,0.6,0.4,0.9,0.7c0.2,0.3,0.3,0.7,0.3,1h-1.3c0-0.3-0.1-0.5-0.3-0.7c-0.2-0.2-0.5-0.2-0.8-0.2c-0.3,0-0.6,0.1-0.8,0.2
				c-0.2,0.1-0.3,0.3-0.3,0.5c0,0.2,0.1,0.4,0.3,0.5s0.5,0.3,0.9,0.4c0.8,0.2,1.3,0.5,1.7,0.9c0.4,0.3,0.5,0.8,0.5,1.3
				c0,0.6-0.2,1-0.6,1.3c-0.4,0.3-1,0.5-1.7,0.5c-0.5,0-1-0.1-1.4-0.3c-0.4-0.2-0.7-0.4-0.9-0.8c-0.2-0.3-0.3-0.7-0.3-1.1h1.4
				c0,0.7,0.4,1.1,1.3,1.1c0.3,0,0.6-0.1,0.7-0.2C132,83.9,132.1,83.7,132.1,83.4z"/>
			<path class="st1" d="M139.7,79.7h-2v5.4h-1.3v-5.4h-2v-1.1h5.3V79.7z"/>
			<path class="st1" d="M142.4,85.1H141v-6.5h1.3V85.1z"/>
			<path class="st1" d="M149,79.7h-2v5.4h-1.3v-5.4h-2v-1.1h5.3V79.7z"/>
			<path class="st1" d="M155.2,78.6v4.3c0,0.7-0.2,1.3-0.7,1.7c-0.4,0.4-1.1,0.6-1.8,0.6c-0.8,0-1.4-0.2-1.8-0.6
				c-0.4-0.4-0.7-1-0.7-1.7v-4.4h1.3v4.3c0,0.4,0.1,0.7,0.3,0.9c0.2,0.2,0.5,0.3,0.8,0.3c0.8,0,1.1-0.4,1.2-1.2v-4.3H155.2z"/>
			<path class="st1" d="M161.6,79.7h-2v5.4h-1.3v-5.4h-2v-1.1h5.3V79.7z"/>
			<path class="st1" d="M166.8,82.3h-2.6v1.7h3v1.1h-4.4v-6.5h4.4v1.1h-3v1.6h2.6V82.3z"/>
		</g>
	</g>
	<g>
		<g>
			<g>
				<path class="st1" d="M142.9,7.7c-13,0-23.7,10.6-23.7,23.6c0,13,10.6,23.7,23.7,23.7c13,0,23.6-10.6,23.6-23.7
					C166.6,18.3,156,7.7,142.9,7.7 M142.9,54.4c-12.7,0-23-10.3-23-23c0-12.7,10.3-23,23-23c12.7,0,23,10.3,23,23
					C165.9,44,155.6,54.4,142.9,54.4"/>
				<path class="st1" d="M156.8,29.6c-0.3-0.7-0.1-1.1-0.2-1.6c-0.1-0.4-0.6-1.6-1-2.4c-0.2-0.4,0.8-0.3,0.1-1.7c0,0,1-0.4,0-1.2
					c-0.6-0.5-1-1-1.3-1.5c0-0.1-0.1-0.2,0-0.3c0.6-0.5,0.6-1.3,0-1.7c-0.5-0.3-1,0-1.5,0.3c-0.2,0.1-0.2,0.2-0.4,0.1
					c-0.1,0-0.3-0.2-0.4-0.3c0.6-0.6,0.7-1.2,0.7-1.3c0-0.1-1-0.3-2.3,0.2c0,0-0.1,0-0.1,0c0.5-0.9,0.2-1.5,0.2-1.6c0,0,0,0,0,0
					c0.9-1.3,1.9-2.2,2.8-3l0,0c0.1-0.1,0.1-0.1,0-0.2c-0.1-0.1-0.1-0.1-0.2-0.1c-3.1-1.7-6.6-2.6-10.1-2.6
					c-11.5,0-20.8,9.3-20.8,20.8c0,6.6,3.4,13,8.9,17c0.4,0.3,0.6,0.4,0.6,0.4c0.1,0,0.2,0,0.2,0l0.1-0.1c0.1-0.1,0.1-0.1,0.1-0.2
					c0-0.2-0.2-0.3-0.5-0.7c-0.7-1.1-1.1-2.4-1.1-3.4c0-1.1,0.4-2.2,1-3.1c0.8,0.9,2.6,2.5,2.6,3.9c0,1.6-1.6,1.5-1.2,2.8
					c0.2,0.8,0.8,0.4,0.9,1c0.2,1,1.5,1.6,2.1,1.6c0.1,0,0.3,0.1,0.5,0.4c0.4,0.4,1.4,0.4,1.8,0.3c0.4-0.1,0.9,0.3,1.8,0.2
					c1.1-0.1,1.4-0.2,1.8-0.2c0.8,0,5.1-0.1,8.1,0.4c0.5,0.1,0.7-0.2,0.5-0.6c-1.1-1.9-1.3-3.6-0.6-5.6c1.1,0.1,2.7,0.4,4.9-0.9
					c0.8-0.5,1.2-1.4,1.1-2.1c0-0.5-0.2-1.1-0.1-1.5c0.2-0.6,0.3-0.6,0.5-0.7c0.8-0.6,0.2-1,0.1-1.1c0.2-0.1,0.5-0.6,0.2-1
					c-0.1-0.2-0.6-1.4-0.1-1.7c0.6-0.3,1.2-0.4,1.8-0.7c0.4-0.2,0.8-0.7,0.5-1.4C158.5,33.5,156.9,29.7,156.8,29.6 M133.9,48.1
					c-0.2,0-0.7,0.1-0.6-0.6c0.1-0.4,0.5-0.6,0.7-0.4C134,47.4,133.9,47.7,133.9,48.1 M153.5,19.7c0.3-0.2,0.6-0.2,0.7-0.1
					c0.6,0.6-0.6,0.9-0.4,1.4c0.4,0.7,1.1,1.4,1.7,1.9c0.3,0.2,0.3,0.7-0.7,0.9c-1.1,0.2-5.3,1.3-7.6,3.7c-2.8,3-4.6,6.8-4.8,6.3
					c-0.2-0.5-0.8-0.6-0.7-0.8C145.6,26.1,152,20.6,153.5,19.7 M155.3,24.6c-0.2,0.7-2.1,1.3-2,0.8c0-0.2,0-0.5,0.1-0.5
					c0.2,0,0.8-0.2,1.7-0.5C155.2,24.4,155.4,24.4,155.3,24.6 M150.7,25.8c0-0.3,1.9-0.9,2-0.7c0.1,0.4-0.4,1.3-1.1,1.6
					c-0.7,0.3-1.1,0.2-1,0.1C150.6,26.5,150.7,26,150.7,25.8 M146.1,36.1c-0.9,0.6-1.4-0.5-1.5-0.7c-0.1-0.1-0.2-0.3-0.1-0.7
					c0.1-0.3,0.1-0.7-0.1-2.1c-0.1-0.6,1.1-2.1,1.4-2.3c0.3-0.3,0.7,0.1,0.7,0.6c0.1,0.8-0.4,1.3-0.9,1.6c-0.6,0.4-0.7,1-0.6,1.2
					c0,0.1,0.3,0.1,0.4-0.2c0.4-0.7,1.4-1.1,1.5-1.5c0.3-0.6,0.1-1,0-1.3c0-0.2,0.2-0.3,0.4-0.3c0.2,0,0.3,0.3,0.4,0.6
					c0.6,1.7-1,2.7-1.2,3.1C146.4,34.2,146.8,35.6,146.1,36.1 M147.5,29.5c-0.5,0.3-1.2-0.1-1-0.3c0.9-1.3,2.1-2.2,2.6-2.5
					c0.8-0.5,0.9-0.5,0.9-0.2c0,0.2,0,1-0.6,1.7c-0.5,0.6-1,0.5-1.3,0.6C147.8,28.8,147.8,29.2,147.5,29.5 M143.1,35.3
					c-0.2,0-0.3-0.5-0.3-0.7c0.1-0.4,0.7-1.2,0.9-1.5c0.1-0.1,0.2,0,0.2,0.1C144.1,34.2,143.9,35.4,143.1,35.3 M150.4,18.6
					c0.8-0.4,1.6-0.4,1.7-0.4c0.2,0-0.4,1.1-1.5,1.5c-1.1,0.5-1.9,0.6-2,0.5C148.4,20.2,149.5,19,150.4,18.6 M131.6,36.2
					c-0.3-0.4-0.6-0.6-0.7-0.6c-0.1,0.1-0.6,1-0.8,2c-1-2-1.6-3.9-1.7-6.3c-0.3-8,6.4-14.4,14.5-14.4c1.9,0,3.4,0.3,5.1,1
					c-0.4,0.5-0.6,1-0.8,1.5c0-0.4-0.1-0.8-0.1-1c0-0.2-1.2,0.2-2.2,1.9c-0.2,0.4-0.4,0.8-0.5,1.2c0-0.6-0.2-1.1-0.2-1.1
					c-0.1,0-1.3,0.5-1.9,2c-0.1,0.3-0.2,0.5-0.2,0.8c-0.1-0.4-0.2-0.7-0.2-0.7c-0.1,0-1.3,0.5-1.9,2c-0.1,0.3-0.2,0.7-0.3,1
					c-0.1-0.5-0.3-0.8-0.4-0.8c-0.4,0.5-1.3,0.8-1.7,2.2c-0.1,0.3-0.1,0.6-0.2,0.9c-0.2-0.5-0.4-0.7-0.5-0.7c-0.1,0-1.4,1.2-1.6,2.5
					c-0.1,0.5,0,0.9,0,1.3c-0.2-0.4-0.6-0.7-0.7-1.1c-0.2,0.1-1.3,1.1-1.3,2.4c0,0.5,0.1,1,0.2,1.4c-0.4-0.7-0.9-1-0.9-0.9
					c-0.1,0.1-0.9,0.9-1.1,2.5C131.5,35.5,131.5,35.9,131.6,36.2 M148.3,18.3c0.6-0.8,1.7-1.4,1.9-1.3c0.1,0.1-0.2,1.3-0.9,1.9
					c-0.7,0.7-1.8,1.4-1.9,1.4C147.2,20.3,147.7,18.9,148.3,18.3 M146.2,21.2c-0.6,0.5-0.9,0.8-1.3,1.4c-0.1,0.2-0.4-1.1,0.4-2.4
					c0.5-0.8,1.5-1.5,1.5-1.4C146.7,19.2,147.3,20.3,146.2,21.2 M143.9,22.9c-0.8,1.1-0.8,0.7-1.6,1.9c0,0.1-0.1-1.4,0.2-2.1
					c0.5-1,1.3-1.7,1.4-1.7C144,20.9,144.3,22.2,143.9,22.9 M141.4,25.1c-0.4,0.7-0.7,0.5-1.4,1.5c-0.1,0.1-0.2-0.8,0.1-2
					c0.3-0.9,1.2-1.5,1.3-1.6C141.7,23,141.9,24.3,141.4,25.1 M139.1,27.6c-0.4,0.9-0.7,0.9-1.1,1.4c-0.1,0.1-0.4-0.8-0.1-2
					c0.3-0.9,0.9-1.3,1.2-1.6C139.2,25.3,139.5,26.6,139.1,27.6 M137.2,29c0,0.3,0,0.4-0.1,0.7c-0.3,1-0.9,1.4-1.2,1.8
					c-0.1-0.3-0.4-0.7-0.4-1.3c0-1.2,0.7-2.2,1.2-2.5C136.9,27.7,137.2,28.4,137.2,29 M135.3,31.9c0,1.4-0.9,2.2-1.1,2.4
					c-0.2-0.3-0.5-1-0.5-1.7c0-1.4,0.5-1.9,0.8-2.2C134.6,30.9,135.3,31.2,135.3,31.9 M132.6,33.3c0.4,0.2,0.9,0.8,0.9,1.8
					c0,1.1-0.7,2-1,2.1c-0.2-0.8-0.6-1-0.6-1.8C131.9,34.6,132.3,33.6,132.6,33.3 M134.2,36.2c1-0.4,2.2-0.4,2.2-0.3
					c0,0-0.3,1.3-1.3,1.9c-1,0.5-2.1,0.6-2.2,0.5C132.8,38.1,133.2,36.6,134.2,36.2 M134.1,35.4c0.1-0.3,0.7-1.5,1.6-1.9
					c0.9-0.4,2-0.4,2.1-0.3c0.1,0-0.4,1.3-1.3,1.7C135.5,35.4,135.1,35.1,134.1,35.4 M135.7,32.7c0-0.1,0.8-1.5,1.7-1.9
					c0.9-0.4,1.9-0.3,2-0.3c0.1,0-0.4,1.2-1.4,1.7C137,32.8,135.6,32.9,135.7,32.7 M137.7,30.1c-0.1-0.1,1-1.4,1.9-1.9
					c0.8-0.4,1.8-0.3,1.9-0.2c0.1,0.1-0.4,1.2-1.4,1.7C139,30.1,137.8,30.1,137.7,30.1 M140.1,27.4c-0.1,0,0.8-1.4,1.7-1.8
					c0.9-0.3,1.7,0,2,0c0.2,0-0.3,1-1.5,1.5C141.3,27.4,140.2,27.5,140.1,27.4 M142.8,24.8c0-0.1,0.9-1.3,1.8-1.6
					c0.9-0.3,1.9-0.1,2.1-0.1c0.1,0-0.6,1.1-1.7,1.5C143.9,24.9,142.8,24.9,142.8,24.8 M145.5,22.6c-0.1-0.1,1-1.3,1.8-1.6
					c0.9-0.3,1.8-0.3,1.9-0.2c0.1,0-0.6,1.1-1.6,1.5C146.7,22.7,145.6,22.7,145.5,22.6 M130.6,47.2c-4.9-3.9-7.8-9.7-7.8-15.8
					c0-11.1,9-20.1,20.1-20.1c3.2,0,6.5,0.8,9.3,2.3c0.1,0,0.1,0.1,0,0.2c-0.8,0.7-2,2.2-2.3,2.6c-2.2-1-4.6-1.6-7.1-1.6
					c-9.2,0-16.7,7.5-16.7,16.7c0,4.1,1.4,7.8,4,10.9c-0.2,0.3-0.4,1.1-0.4,2.1C129.8,45.2,130,46.1,130.6,47.2 M130.6,41.6
					C130.6,41.6,130.6,41.6,130.6,41.6c-2.4-2.8-3.7-6.4-3.7-10.2c0-8.8,7.2-16,16-16c2.3,0,4.6,0.5,6.7,1.4
					c-0.3,0.1-0.6,0.3-0.9,0.6c-1.8-0.8-3.7-1.1-5.7-1.1c-8.3,0-15.1,6.8-15.1,15.1c0,3.6,1.1,6.8,3.3,9.5
					C131,41,130.8,41.3,130.6,41.6 M131.4,40.4c-0.3-0.3-0.9-1-1-1.9c0,0,0-0.1,0-0.1c0-1,0.4-1.9,0.5-2c0.1-0.1,1.2,0.7,1.2,2
					C132.2,39.3,131.7,39.9,131.4,40.4 M133.2,38.7c0.9-0.4,2.2-0.3,2.1-0.3c-0.1,0.1-0.4,1.3-1.4,1.8c-1,0.5-1.6,0.4-2,0.3
					C132.5,40,132.4,39.1,133.2,38.7 M134.4,49.2c-0.1-0.6-0.1-1.4,0.1-1.6c0.4-0.2,1.1-0.3,1.1,0c0,0.4-0.2,1.2,0.1,2.3
					C135.6,50,134.7,49.9,134.4,49.2 M134.5,46.7c-0.1-0.4,0.4-0.9,0.3-1.9c0-1.2-1.5-2.8-2.5-3.9c0.5,0,1.1-0.1,1.8-0.4
					c1.5-0.7,1.8-2.3,1.8-2.3c0,0-0.3-0.1-0.8-0.1c0.1,0,0.1-0.1,0.2-0.1c1.5-0.8,1.8-2.5,1.8-2.5c0,0-0.4-0.1-0.9-0.1
					c0.1,0,0.3-0.1,0.4-0.2c1.5-0.6,2-2.3,1.9-2.4c0,0-0.3-0.1-0.8-0.1c0.1-0.1,0.3-0.1,0.4-0.2c1.4-0.7,1.9-2.3,1.8-2.3
					c0,0-0.3-0.1-0.7-0.1c0.3-0.1,0.7-0.2,1-0.3c1.5-0.7,2-2.1,1.9-2.2c0,0-0.3-0.1-0.7-0.1c0.3-0.1,0.6-0.2,1-0.3
					c1.5-0.5,2.1-1.9,2-1.9c-0.2,0-0.5-0.1-0.8-0.2c0.4,0,0.9-0.1,1.5-0.3c1.6-0.5,2.2-1.5,2.2-1.9c0,0-0.2-0.1-0.5-0.2
					c0.4-0.1,0.7-0.2,1-0.3c1.5-0.6,2.1-2.1,2.2-2.2c0.3-0.1,0.6-0.2,0.9-0.3c0.2-0.1,0.3-0.1,0.4-0.2c0.1,0.1,0.2,0.1,0.4,0.3
					c0.2,0.1,0.3,0.2,0.2,0.3c-5.1,4.4-8.9,9.9-10.6,12.5c0,0.1-0.1,0.1-0.3,0.1c-1.8-0.1-2.8,2-2,4c-0.1,0.4-1,1.2-1,1.2
					c-0.1,0.1-0.2,0.3,0.1,0.3c0.4,0,1-0.7,1.2-1c0.1,0.1,0.5,0.5,0.3,0.6c-1.5,1.5-3,2.3-3.1,2.4c-0.6,0.3,1,0.5,3.5-1.9
					c0.2-0.1,0.3,0.5,0.6,0.8c-0.4,1.5,0.7,4.3,0.5,5.2c0,0.2-0.1,0.6-0.6,0.6c-2.6,0.1-2.8-0.1-4.1,0.3c-0.6,0.2-0.4,0.6,0,0.5
					c0.5-0.1,1-0.3,3.8-0.2c0.7,0,1.5-0.1,1.5-1.3c0-1-0.8-4.1-0.5-4.6c0.4,0.3,0.6,0.3,0.8,0.3c0,1,1.6,4.3,0.9,6.1
					c-0.3,0.7-1.5,0.6-3.5,0.4C135.7,46.4,134.5,47.1,134.5,46.7 M142.4,48.9c-1.3,0.5-1.9-1.1-1.6-1.4c0.1-0.2,1,0.2,1.6-0.2
					C142.9,47,143.1,48.7,142.4,48.9 M136.3,49.9c-0.2-0.8-0.3-2.3,0.1-2.6c0.1-0.1,1.1-0.2,1.1,0c-0.1,1-0.5,2.1,0.3,3.2
					C138,50.9,136.5,51,136.3,49.9 M138.8,50.9c-0.4-0.1-1.4-1.7-0.5-3.6c0.1-0.2,1.3-0.1,1.5,0c0.2,0.1-0.2,1.5,1.5,2.2
					C141.5,49.6,141.4,51.5,138.8,50.9 M149.5,45.6c-0.6,2-0.9,2.8,0,4.9c0.1,0.3,0.2,0.5-0.1,0.5c-1.7-0.3-2.1-0.6-7.6-0.1
					c-0.4,0,0.1-0.8,0.1-1.3c0.5-0.1,1.3-0.3,1.5-1.1c0.2-1-0.5-1.7-0.4-1.9c0.8-1.5-0.1-3.2-0.7-6c-0.1-0.3,0.1-0.4,0.2-0.3
					c3.5,3.8,5.7,4.6,7,4.9C149.6,45.3,149.5,45.5,149.5,45.6 M158.5,35.2c-0.7,0.6-1.9,0.7-2.3,1.1c-0.2,0.2-0.3,0.6-0.1,1.2
					c0.1,0.3,0.2,0.4-0.3,0.5c-0.8,0.2-0.9,1.3-2,1.1c-0.4-0.1-0.1,0.2,0,0.2c0.6,0.1,0.8-0.1,1-0.3c0.2-0.2,0.5-0.5,0.8-0.7
					c0.3-0.1,0.7-0.1,0.7,0.1c0,0.2-0.4,0.5-0.6,0.6c0.2,0.1,0.9,0.4,0.3,0.8c-0.4,0.3-1-0.1-1.1-0.2c-0.1-0.1-0.4,0-0.3,0.1
					c0.3,0.4,1.2,0.3,1,0.5c-0.8,1.1-0.1,1.7-0.4,2.8c-0.2,1.1-1.7,1.7-2.9,1.9c-3.9,0.7-7.7-2.6-9.9-5.1c0.2-0.5,0.2-1.1,0-0.9
					c-0.2,0.2-0.2,0.6-0.6,0.7c-0.9,0.2-1.3-1.3-1.6-1.6c-1.1-1.1-1.5-2.6-0.9-3.9c0.7-1.3,2-1.1,2.6-0.3c0.7,1,0.4,1.6,0.7,1.9
					c0.5,0.4,1.1,0,1.2,0c0.4-0.1,0.4,1,1.8,0.9c1.5-0.1,1.3-2.4,1.6-2.6c1.9-1.9,0.9-3.6,0.6-4c-0.1-0.1,0.2-0.8,0.3-0.8
					c1.1-0.3,1.8-1,2.1-1.7c0,0,1.9,0,2.6-1.4c0.2-0.4,0.7,0.4,2-0.6c0.1-0.1,0.3-0.1,0.3,0.1c0.8,2,1.2,2.5,1.1,3.6
					c0,0.7,2,4.8,2.1,5.2C158.6,34.7,158.7,35,158.5,35.2"/>
				<path class="st1" d="M153.9,28c-1.1,0-2.4,1.4-2.8,1.6c-0.4,0.2-0.3,0.3,0,0.2c0.5-0.2,1.3-1,2.4-1.4c0.9-0.3,0.8,0.4,1.1,0.4
					C154.8,28.7,154.6,28,153.9,28"/>
				<path class="st1" d="M154.2,29.1c-0.1,0,0.1,0.5-0.4,0.5c-1,0.1-1.9,1-2.5,1.3c-0.6,0.3-0.8,0.3-0.9,0.3c-0.1,0-0.1,0.1,0,0.1
					c2.6,0.4,3.7,0.3,3.7,0.2c0-0.2-0.1-0.3-0.1-0.4c0.1-0.3,0.2-0.9,0-1.2c0-0.2,0.4-0.1,0.4-0.3C154.5,29.5,154.3,29,154.2,29.1
					 M153.8,31.2c-0.1,0.2-1.2,0.1-1.9,0.1c-0.2,0-0.4,0,0.1-0.3c0.4-0.2,0.9-0.6,1.6-0.8c0.1,0,0.2,0,0.2,0.1
					C153.8,30.6,153.8,30.9,153.8,31.2"/>
				<path class="st1" d="M157.2,34.9c-0.2,0-1,0.4-1.3,0.6c-0.2,0.1-1,0.6-0.9-0.2c0-0.3,0.2-1,0.2-1.2c0-0.3-0.2-0.2-0.2,0
					c0,0.4-0.1,0.7-0.2,1.2c-0.1,0.4,0.3,0.9,0.8,0.6c0.5-0.2,1.1-0.7,1.6-0.8C157.3,35.1,157.3,34.9,157.2,34.9"/>
				<path class="st1" d="M141.9,37.8c-0.2-0.1-0.1,0.3-0.3,0.2c-0.3,0,0-0.3-0.4-0.7c-0.2-0.2-0.6-0.3-1-0.8
					c-0.5-0.8-0.1-2.7,0.7-2.4c0.4,0.1,0.4,1.1,0.2,1.8c-0.1,0.4,0.6,0.6,0.6,0.5c0.1-0.2-0.2-0.2-0.3-0.4c-0.1-0.3,0.8-1.7-0.4-2.1
					c-0.9-0.3-1.4,0.8-1.3,2c0.1,1,0.8,1.4,1.2,1.6c0.5,0.2,0.1,0.9,0.8,0.9C142,38.3,142.1,37.9,141.9,37.8"/>
				<path class="st1" d="M148.9,15.2c0,0,0.1,0,0.1,0l1.5-1.9c0,0,0-0.1,0-0.1c-0.1,0-0.2-0.1-0.2-0.1c0,0-0.1,0-0.1,0l-1.5,1.9
					c0,0,0,0.1,0,0.1C148.7,15.2,148.8,15.2,148.9,15.2"/>
				<path class="st1" d="M146.1,14.5c0.1,0,0.2,0,0.3,0.1c0,0,0.1,0,0.1-0.1l0.9-2.1c0-0.1,0-0.1-0.1-0.1c-0.1,0-0.2,0-0.3-0.1
					c0,0-0.1,0-0.1,0c-0.1,0.3-0.7,1.7-0.9,2.2C146,14.4,146.1,14.5,146.1,14.5"/>
				<path class="st1" d="M143.1,14.2c0.1,0,0.2,0,0.3,0c0,0,0.1,0,0.1-0.1l0.2-2.3c0-0.1,0-0.1-0.1-0.1l-0.3,0c0,0-0.1,0-0.1,0.1
					l-0.2,2.3C143,14.1,143.1,14.2,143.1,14.2"/>
				<path class="st1" d="M140.2,14.4c0.1,0,0.2,0,0.3,0c0.1,0,0.1-0.1,0.1-0.1l-0.4-2.2c0,0-0.1-0.1-0.1-0.1c-0.1,0-0.2,0-0.3,0
					c-0.1,0-0.1,0.1-0.1,0.1l0.4,2.2C140.1,14.4,140.1,14.4,140.2,14.4"/>
				<path class="st1" d="M137.2,15.1c0,0,0.1,0.1,0.1,0c0.1,0,0.2-0.1,0.2-0.1c0.1,0,0.1-0.1,0.1-0.1l-1-2c0,0-0.1-0.1-0.1,0
					c-0.1,0-0.2,0.1-0.2,0.1c-0.1,0-0.1,0.1-0.1,0.1L137.2,15.1z"/>
				<path class="st1" d="M134.4,16.4c0,0,0.1,0,0.1,0c0.1,0,0.2-0.1,0.2-0.1c0.1,0,0.1-0.1,0-0.1l-1.5-1.7c0,0-0.1,0-0.1,0
					c-0.1,0-0.2,0.1-0.2,0.1c0,0-0.1,0.1,0,0.1L134.4,16.4z"/>
				<path class="st1" d="M131.8,18.2c0,0,0.1,0,0.1,0c0.1-0.1,0.1-0.1,0.2-0.2c0,0,0-0.1,0-0.1l-1.9-1.3c0,0-0.1,0-0.1,0
					c-0.1,0.1-0.1,0.1-0.2,0.2c0,0,0,0.1,0,0.1L131.8,18.2z"/>
				<path class="st1" d="M129.5,20.6c0,0,0.1,0,0.1,0c0.1-0.1,0.1-0.1,0.2-0.2c0,0,0-0.1,0-0.1l-2.2-0.9c0,0-0.1,0-0.1,0
					c-0.1,0.1-0.1,0.1-0.2,0.2c0,0,0,0.1,0,0.1L129.5,20.6z"/>
				<path class="st1" d="M125.3,23l2.4,0.3c0,0,0.1,0,0.1,0c0-0.1,0.1-0.2,0.1-0.2c0-0.1,0-0.1-0.1-0.1l-2.4-0.3c0,0-0.1,0-0.1,0
					c0,0.1-0.1,0.2-0.1,0.2C125.2,22.9,125.3,23,125.3,23"/>
				<path class="st1" d="M124,26.6l2.4-0.2c0,0,0.1,0,0.1-0.1c0-0.1,0.1-0.2,0.1-0.3c0-0.1,0-0.1-0.1-0.1l-2.4,0.2
					c0,0-0.1,0-0.1,0.1c0,0.1,0,0.2-0.1,0.3C123.9,26.5,124,26.6,124,26.6"/>
				<path class="st1" d="M125.9,29.4c0-0.1,0-0.2,0-0.3c0-0.1-0.1-0.1-0.1-0.1l-2.4,0.8c0,0-0.1,0-0.1,0.1c0,0.1,0,0.2,0,0.3
					c0,0.1,0.1,0.1,0.1,0.1L125.9,29.4C125.8,29.5,125.9,29.5,125.9,29.4"/>
				<path class="st1" d="M125.8,32.7c0-0.1,0-0.2,0-0.3c0-0.1-0.1-0.1-0.1-0.1l-2.1,1.4c0,0,0,0.1,0,0.1c0,0.1,0,0.2,0,0.3
					c0,0.1,0.1,0.1,0.1,0.1L125.8,32.7C125.8,32.7,125.8,32.7,125.8,32.7"/>
				<path class="st1" d="M126.3,35.9c0-0.1-0.1-0.2-0.1-0.3c0-0.1-0.1-0.1-0.2,0l-1.7,1.9c0,0,0,0.1,0,0.1c0,0.1,0.1,0.2,0.1,0.3
					c0,0.1,0.1,0.1,0.2,0L126.3,35.9C126.3,35.9,126.3,35.9,126.3,35.9"/>
				<path class="st1" d="M127.2,38.7l-1.2,2.3c0,0,0,0.1,0,0.1c0.1,0.1,0.1,0.2,0.2,0.3c0,0.1,0.1,0.1,0.2,0l1.2-2.3
					c0,0,0-0.1,0-0.1c0-0.1-0.1-0.2-0.1-0.3C127.3,38.7,127.3,38.7,127.2,38.7"/>
				<path class="st1" d="M128.9,41.3c0-0.1-0.1,0-0.2,0l-0.7,2.7c0,0,0,0.1,0,0.1c0.1,0.1,0.1,0.2,0.2,0.2c0,0.1,0.1,0,0.2,0
					l0.6-2.7c0,0,0-0.1,0-0.1C129.1,41.5,129,41.4,128.9,41.3"/>
			</g>
			<line class="st2" x1="111.3" y1="7.7" x2="111.3" y2="55.1"/>
			<g>
				<path class="st3" d="M85.7,55c-0.3,0-0.6,0-0.8,0c-0.1,0-0.3,0-0.4,0c-0.4-0.1-0.9-0.1-1.3-0.2c-0.6-0.1-1.2-0.3-1.7-0.5
					c-0.4-0.1-0.7-0.3-1.1-0.4c-0.3-0.1-0.6-0.3-0.8-0.4c-0.4-0.2-0.8-0.4-1.2-0.7c-0.4-0.3-0.9-0.6-1.3-0.9
					c-0.4-0.3-0.8-0.7-1.2-1.1c-0.4-0.3-0.7-0.7-1-1c-0.2-0.2-0.5-0.5-0.7-0.8c-0.2-0.3-0.4-0.5-0.6-0.8c-0.5-0.6-0.9-1.2-1.3-1.9
					c-0.2-0.4-0.4-0.8-0.7-1.2c-0.3-0.5-0.5-1-0.7-1.5c-0.2-0.4-0.3-0.8-0.5-1.2c-0.2-0.6-0.5-1.2-0.7-1.9c-0.2-0.7-0.4-1.3-0.5-2
					c-0.1-0.3-0.1-0.6-0.2-0.8c-0.1-0.4-0.2-0.9-0.2-1.3c-0.1-0.7-0.2-1.3-0.2-2c-0.1-0.6-0.1-1.2-0.1-1.7c0-0.3,0-0.7,0-1
					c0-0.3,0-0.7,0-1c0-0.4,0-0.7,0-1.1c0-0.3,0-0.6,0.1-0.9c0-0.3,0-0.6,0.1-0.9c0-0.4,0.1-0.8,0.2-1.2c0-0.3,0.1-0.6,0.2-0.9
					c0.1-0.5,0.2-1,0.3-1.5c0.1-0.7,0.3-1.4,0.6-2.1c0.2-0.7,0.5-1.4,0.7-2.1c0.2-0.5,0.4-1,0.7-1.5c0.1-0.1,0.1-0.3,0.2-0.4
					c0.2-0.4,0.4-0.8,0.6-1.2c0.2-0.3,0.3-0.6,0.5-0.8c0.2-0.3,0.5-0.7,0.7-1c0.3-0.5,0.7-0.9,1-1.3c0.2-0.2,0.4-0.4,0.6-0.6
					c0.3-0.3,0.6-0.6,0.9-0.9c0.2-0.2,0.4-0.4,0.6-0.6c0.3-0.2,0.5-0.5,0.8-0.7c0.3-0.2,0.5-0.4,0.8-0.6c0.3-0.2,0.7-0.5,1-0.7
					c0.4-0.2,0.7-0.4,1.1-0.6c0.5-0.3,1-0.5,1.6-0.7c0.6-0.2,1.3-0.4,1.9-0.5c0.4-0.1,0.8-0.1,1.2-0.2c0.4,0,0.9,0,1.3-0.1
					c0.4,0,0.7,0,1.1,0c0.2,0,0.5,0.1,0.7,0.1c0.5,0.1,1.1,0.2,1.6,0.3c0.6,0.2,1.3,0.4,1.9,0.7c0.4,0.2,0.9,0.4,1.3,0.6
					c0.2,0.1,0.3,0.2,0.5,0.3c0.4,0.3,0.8,0.5,1.2,0.8c0.3,0.2,0.7,0.5,1,0.8c0.3,0.3,0.7,0.5,1,0.9c0.3,0.3,0.7,0.6,1,0.9
					c0.3,0.4,0.7,0.8,1,1.2c0.3,0.4,0.6,0.8,0.9,1.3c0.2,0.3,0.4,0.6,0.6,1c0.2,0.3,0.4,0.7,0.6,1c0.2,0.5,0.5,1,0.8,1.5
					c0.1,0.2,0.2,0.5,0.3,0.7c0.1,0.2,0.2,0.5,0.3,0.7c0.2,0.4,0.3,0.9,0.4,1.3c0.2,0.7,0.4,1.4,0.6,2.1c0.2,0.8,0.3,1.5,0.5,2.3
					c0.1,0.5,0.2,1.1,0.2,1.6c0.1,0.4,0.1,0.9,0.1,1.3c0.1,1,0.1,2.1,0.1,3.1c0,0.4,0,0.9-0.1,1.3c0,0.6-0.1,1.2-0.2,1.7
					c-0.1,0.9-0.2,1.8-0.4,2.6c-0.1,0.5-0.2,1-0.3,1.5c-0.2,0.8-0.5,1.6-0.7,2.4c-0.1,0.3-0.3,0.7-0.4,1c-0.1,0.3-0.3,0.7-0.4,1
					c-0.2,0.4-0.3,0.7-0.5,1.1c-0.2,0.3-0.3,0.6-0.5,0.9c0,0.1-0.1,0.1-0.1,0.2c-0.3,0.5-0.6,0.9-0.9,1.4c-0.3,0.5-0.7,1-1.1,1.4
					c-0.3,0.3-0.5,0.6-0.8,0.9c-0.2,0.2-0.3,0.4-0.5,0.5c-0.2,0.2-0.4,0.4-0.7,0.6c-0.3,0.3-0.7,0.6-1,0.9c-0.2,0.2-0.4,0.3-0.6,0.5
					c-0.1,0.1-0.2,0.2-0.4,0.2c-0.4,0.3-0.9,0.6-1.4,0.8c-0.5,0.3-0.9,0.5-1.4,0.7c-0.7,0.3-1.3,0.5-2,0.7c-0.6,0.1-1.1,0.3-1.7,0.3
					c-0.2,0-0.5,0.1-0.7,0.1C86.2,55,85.9,55,85.7,55L85.7,55z M85.6,54.7C85.6,54.7,85.6,54.7,85.6,54.7c0.3,0,0.7,0,1,0
					c0.3,0,0.5,0,0.8-0.1c0.7-0.1,1.4-0.3,2.1-0.5c0.4-0.2,0.9-0.3,1.3-0.5c0.5-0.2,1-0.5,1.5-0.8c0.5-0.3,1-0.6,1.4-0.9
					c0.4-0.3,0.7-0.5,1.1-0.8c0.2-0.2,0.5-0.4,0.8-0.6c0.3-0.2,0.5-0.5,0.7-0.7c0.3-0.3,0.6-0.7,0.9-1c0.4-0.5,0.8-1,1.1-1.5
					c0.4-0.6,0.9-1.3,1.2-2c0.2-0.4,0.4-0.8,0.6-1.2c0.2-0.4,0.4-0.9,0.6-1.3c0.1-0.3,0.3-0.6,0.4-0.9c0.2-0.5,0.3-1,0.5-1.4
					c0.2-0.5,0.3-1,0.4-1.6c0.1-0.5,0.2-1.1,0.3-1.6c0.1-0.4,0.2-0.7,0.2-1.1c0.1-0.7,0.2-1.4,0.2-2.1c0-0.2,0.1-0.5,0.1-0.7
					c0-0.1,0-0.3,0-0.4c0.1-0.3,0-0.6,0-0.9c0-0.6,0-1.2,0-1.9c0-0.3,0-0.6,0-0.9c0-0.3,0-0.6-0.1-0.9c0-0.4-0.1-0.8-0.1-1.2
					c0-0.3-0.1-0.6-0.1-0.8c0-0.3-0.1-0.5-0.1-0.8c-0.1-0.4-0.2-0.7-0.2-1.1c-0.1-0.2-0.1-0.5-0.2-0.7c-0.1-0.4-0.2-0.9-0.4-1.3
					c-0.2-0.5-0.3-1.1-0.5-1.6c-0.2-0.6-0.5-1.1-0.7-1.7c-0.4-0.7-0.7-1.5-1.2-2.2c-0.3-0.5-0.6-0.9-0.9-1.4
					c-0.1-0.2-0.3-0.5-0.4-0.7c-0.3-0.3-0.5-0.7-0.8-1c-0.2-0.3-0.4-0.5-0.7-0.8c-0.3-0.3-0.6-0.6-0.9-0.9c-0.1-0.1-0.1-0.1-0.2-0.2
					c-0.4-0.3-0.8-0.7-1.2-1c-0.3-0.2-0.5-0.4-0.8-0.6c-0.2-0.1-0.3-0.2-0.5-0.3c-0.4-0.2-0.8-0.5-1.2-0.7c-0.7-0.4-1.4-0.6-2.1-0.9
					c-0.7-0.2-1.3-0.4-2.1-0.5C87,8.1,86.4,8,85.9,8c-0.4,0-0.8,0-1.2,0c-0.5,0-0.9,0.1-1.4,0.2c-0.5,0.1-1,0.2-1.5,0.4
					c-0.3,0.1-0.5,0.2-0.8,0.3c-0.5,0.2-1,0.4-1.5,0.7c-0.5,0.3-0.9,0.6-1.4,0.9c-0.3,0.2-0.6,0.4-0.8,0.6c-0.3,0.3-0.6,0.5-1,0.8
					c-0.3,0.3-0.7,0.6-1,0.9c-0.3,0.4-0.7,0.7-1,1.1c-0.2,0.2-0.4,0.5-0.6,0.8c-0.3,0.4-0.5,0.8-0.8,1.2c-0.2,0.4-0.5,0.7-0.7,1.1
					c-0.3,0.5-0.5,0.9-0.8,1.4c-0.2,0.4-0.4,0.7-0.5,1.1c-0.2,0.6-0.5,1.2-0.7,1.8c-0.2,0.6-0.4,1.2-0.6,1.9
					c-0.2,0.8-0.4,1.6-0.5,2.4c-0.1,0.9-0.3,1.8-0.4,2.7c-0.1,0.4-0.1,0.7-0.1,1.1c0,0.2,0,0.4,0,0.6c0,0.3,0,0.7,0,1
					c0,0.2,0,0.3,0,0.5c0,0.3,0,0.6,0,0.9c0,0.6,0,1.2,0.1,1.8c0.1,0.7,0.1,1.4,0.3,2c0.1,0.7,0.3,1.4,0.4,2.1
					c0.1,0.6,0.3,1.2,0.5,1.9c0.1,0.3,0.2,0.7,0.3,1c0.1,0.3,0.2,0.6,0.3,0.9c0.3,0.7,0.6,1.4,0.9,2.2c0.2,0.5,0.5,1,0.8,1.5
					c0.4,0.6,0.7,1.2,1.1,1.7c0.2,0.3,0.4,0.7,0.7,1c0.2,0.2,0.3,0.4,0.5,0.6c0.2,0.2,0.4,0.5,0.7,0.7c0.2,0.2,0.5,0.5,0.7,0.7
					c0.3,0.3,0.7,0.6,1,0.9c0.3,0.2,0.6,0.5,0.9,0.7c0.5,0.4,1.1,0.7,1.6,1c0.4,0.2,0.9,0.5,1.3,0.7c0.3,0.1,0.6,0.3,1,0.4
					c0.5,0.1,1,0.3,1.5,0.4c0.7,0.1,1.5,0.2,2.2,0.2C85.5,54.7,85.5,54.7,85.6,54.7z"/>
				<path class="st3" d="M74.2,35.3c0-0.1,0-0.1,0-0.2c0-0.2,0.1-0.4,0.2-0.6c0.2-0.2,0.4-0.3,0.7-0.4c0,0,0.1,0,0.1,0c0,0,0,0,0,0
					c0-0.1,0-0.1-0.1-0.2c-0.1-0.2-0.1-0.4,0-0.7c0.1-0.2,0.2-0.4,0.4-0.6c0.1-0.1,0.1-0.1,0.1-0.2c0-0.4,0.2-0.7,0.5-0.9
					c0.1-0.1,0.2-0.1,0.3-0.1c0.2-0.1,0.5-0.1,0.7-0.1c0.1,0,0.1,0.1,0.1,0.2c0,0.1,0,0.1-0.1,0.2c-0.2,0.2-0.2,0.5-0.3,0.8
					c-0.2,0.6,0,1.1,0.2,1.6c0.2,0.3,0.4,0.6,0.7,0.9c0.4,0.3,0.5,0.8,0.4,1.2c0,0.1,0,0.2-0.1,0.3c0.2,0,0.3,0.1,0.5,0.1
					c0.3,0.1,0.6,0.3,0.7,0.6c0.2,0.3,0.3,0.6,0.3,0.9c0,0.1,0,0.1,0.1,0.2c0.1-0.1,0.1-0.2,0.1-0.3c0.1-0.4,0.2-0.8,0.2-1.2
					c0.1-0.5,0.2-0.9,0.2-1.4c0.1-0.4,0.2-0.9,0.3-1.3c0.1-0.4,0.2-0.9,0.3-1.3c0-0.1,0-0.2,0.1-0.2c0.1-0.3,0.1-0.7,0-1
					c-0.1-0.3-0.2-0.5-0.4-0.8c0,0-0.1-0.1-0.1-0.1c-0.2,0.1-0.5,0.1-0.7,0.1c-0.2,0-0.4-0.2-0.5-0.4c0-0.1-0.1-0.3-0.1-0.4
					c0,0,0,0-0.1,0C78.8,30,78.6,30,78.4,30c-0.2,0-0.4-0.1-0.6-0.2c-0.2-0.2-0.4-0.3-0.7-0.4c-0.3-0.1-0.7-0.2-1-0.1
					c-0.4,0.1-0.7,0.2-1,0.4c0,0-0.1,0-0.1,0.1c-0.1,0.1-0.2,0-0.2-0.1c0-0.4,0.1-0.8,0.3-1.1c0.1-0.1,0.3-0.2,0.4-0.3
					c0.1-0.1,0.1-0.1,0.1-0.3c0-0.6,0.6-1,1-0.9c0,0,0.1,0,0.1,0c0-0.2,0-0.3,0.1-0.5c0.1-0.3,0.2-0.6,0.4-0.9
					c0.2-0.4,0.6-0.6,1-0.8c0.1-0.1,0.3-0.1,0.5-0.1c0.1,0,0.2,0.1,0.1,0.2c-0.1,0.2-0.2,0.3-0.2,0.5c-0.2,0.6-0.2,1.1,0,1.7
					c0.1,0.2,0.2,0.4,0.3,0.6c0.1,0.1,0.2,0.2,0.3,0.4c0.2,0.2,0.4,0.5,0.3,0.8c0,0.1,0,0.2,0,0.2c0.1,0,0.1,0,0.1,0
					c0.4-0.1,0.8,0.1,1,0.4c0.1,0.2,0.2,0.4,0.3,0.6c0.1,0.1,0.1,0.3,0.1,0.5c0,0.1,0,0.1,0,0.2c0,0,0,0,0,0c0-0.1,0.1-0.1,0.1-0.2
					c0.1-0.4,0.2-0.8,0.3-1.3c0.1-0.6,0.3-1.1,0.4-1.7c0.1-0.4,0.2-0.9,0.3-1.3c0.1-0.2,0.1-0.4,0.2-0.6c0.1-0.3,0-0.5-0.1-0.7
					c0-0.1-0.1-0.2-0.2-0.4c0-0.1-0.1-0.1-0.2-0.1c-0.2,0-0.4,0-0.5-0.1c-0.1,0-0.1-0.1-0.2-0.1c-0.1-0.1-0.2-0.2-0.3-0.3
					C81,24,81,23.8,81,23.5c0,0,0-0.1,0-0.2c-0.1,0-0.1,0-0.2,0c-0.3,0-0.6-0.1-0.8-0.3c-0.2-0.2-0.4-0.4-0.6-0.5
					c-0.2-0.1-0.3-0.2-0.5-0.2c-0.4-0.1-0.7-0.1-1,0.1c-0.2,0.1-0.4,0.2-0.5,0.3c0,0-0.1,0.1-0.1,0.1c-0.1,0.1-0.2,0-0.2-0.1
					c0-0.4,0.1-0.8,0.4-1.2c0.1-0.2,0.3-0.3,0.5-0.3c0.1,0,0.2-0.1,0.2-0.2c0-0.1,0.1-0.2,0.3-0.3c0.4-0.2,0.8-0.2,1.2-0.1
					c0,0,0.1,0,0.1,0c0-0.1,0-0.1,0-0.2c0-0.1,0-0.2-0.1-0.3c-0.1-0.4,0-0.8,0.4-0.9c0.1,0,0.1-0.1,0.2-0.1c0.1,0,0.2-0.1,0.2-0.2
					c0.1-0.5,0.5-0.6,0.9-0.7c0.1,0,0.2,0,0.3,0.2c-0.1,0.1-0.1,0.2-0.2,0.3c-0.2,0.3-0.3,0.7-0.3,1.1c0,0.3,0.1,0.6,0.2,0.9
					c0.2,0.3,0.3,0.7,0.4,1c0.1,0.3,0.1,0.6,0,0.9c0,0,0,0.1,0,0.2c0,0,0.1,0,0.1,0c0.4,0,0.6,0.2,0.7,0.5c0.2,0.4,0.4,0.8,0.4,1.2
					c0,0,0,0.1,0,0.1c0.1-0.1,0.2-0.2,0.2-0.3c0.2-0.3,0.3-0.7,0.5-1c0.2-0.4,0.5-0.8,0.8-1.1c0.2-0.2,0.3-0.4,0.5-0.6
					c0.2-0.1,0.2-0.3,0.2-0.5c0-0.4,0-0.7,0-1.1c0-0.1,0-0.1,0-0.2c-0.1,0-0.2-0.1-0.3-0.1c-0.2,0-0.4-0.2-0.6-0.3
					c-0.2-0.2-0.2-0.7,0-0.8c0.2-0.1,0.3-0.2,0.5-0.3c0.1,0,0.2-0.1,0.3-0.1c0,0-0.1-0.1-0.1-0.1c-0.2-0.2-0.5-0.4-0.6-0.7
					c-0.1-0.2-0.1-0.4-0.1-0.6c-0.1-0.6-0.4-1-0.8-1.3c-0.5-0.3-1-0.4-1.5-0.3c-0.1,0-0.1,0-0.2,0c-0.1,0-0.2-0.1-0.1-0.2
					c0.1-0.1,0.2-0.2,0.4-0.3c0.2-0.2,0.5-0.3,0.8-0.4c0,0,0.1,0,0.1-0.1c0.2-0.2,0.5-0.2,0.7-0.3c0.2,0,0.2,0,0.2-0.2
					c0-0.3,0.2-0.5,0.4-0.8c0.1-0.1,0.1-0.1,0.2-0.2c0.1-0.1,0.2-0.2,0.3-0.4c0-0.1,0.1-0.2,0.1-0.4c0.1-0.3,0.5-0.5,0.9-0.5
					c0.1,0,0.3,0.1,0.4,0.2c0.4,0.3,0.6,0.7,0.5,1.2c0,0.1,0,0.2,0.2,0.3c0.3,0.1,0.5,0.4,0.6,0.7c0,0.1,0,0.2,0.1,0.3
					c0.1,0,0.1,0,0.2,0c0.3-0.1,0.6-0.1,0.9,0c0.4,0.1,0.6,0.4,0.8,0.7c0.1,0.1,0,0.2-0.1,0.2c-0.1,0-0.3,0-0.4,0.1
					c-0.4,0.1-0.8,0.3-1.1,0.6c-0.4,0.4-0.6,0.9-0.6,1.4c0,0.4-0.2,0.7-0.5,0.9c-0.1,0.1-0.2,0.1-0.3,0.2c0.1,0.1,0.2,0.1,0.4,0.2
					c0.2,0.1,0.3,0.2,0.4,0.3c0.2,0.3,0.1,0.6-0.2,0.7c-0.2,0.1-0.4,0.2-0.6,0.3c-0.2,0-0.2,0.1-0.2,0.3c0,0.4,0,0.7,0,1.1
					c0,0.1,0,0.1,0,0.2c0,0.2,0,0.3,0.2,0.4c0,0,0.1,0,0.1,0.1c0.5,0.6,1,1.2,1.4,1.9c0.1,0.2,0.3,0.5,0.4,0.7
					c0,0.1,0.1,0.1,0.1,0.2c0-0.1,0.1-0.1,0.1-0.1c0-0.1,0.1-0.2,0.1-0.3c0.1-0.3,0.2-0.5,0.4-0.7c0.2-0.2,0.4-0.4,0.7-0.4
					c0,0,0,0,0.1,0c0,0,0,0,0,0c0-0.1-0.1-0.2-0.1-0.4c0-0.2,0-0.4,0.1-0.6c0.1-0.3,0.2-0.5,0.3-0.8c0.2-0.4,0.3-0.8,0.3-1.2
					c0-0.4-0.1-0.7-0.3-1c0-0.1-0.1-0.1-0.1-0.2c0-0.1,0-0.2,0.1-0.2c0.3,0,0.5,0.1,0.7,0.3c0.1,0.1,0.3,0.3,0.3,0.5
					c0,0,0.1,0.1,0.1,0.1c0.2,0,0.4,0.1,0.5,0.3c0.1,0.2,0.2,0.4,0.1,0.7c0,0.1-0.1,0.2-0.1,0.3c0,0,0,0.1,0,0.1c0.1,0,0.1,0,0.2,0
					c0.4-0.1,0.7,0,1,0.1c0.1,0,0.3,0.2,0.3,0.3c0,0.1,0.1,0.1,0.1,0.2c0.3,0.1,0.5,0.3,0.7,0.5c0.1,0.2,0.2,0.4,0.3,0.6
					c0,0.1,0,0.3,0,0.4c0,0,0,0.1-0.1,0.1c0,0-0.1,0-0.1,0c-0.1,0-0.1-0.1-0.2-0.1c-0.4-0.4-0.9-0.5-1.4-0.4c-0.3,0-0.6,0.1-0.9,0.4
					c-0.1,0.1-0.2,0.2-0.2,0.3c-0.3,0.4-0.7,0.6-1.2,0.5c0,0,0,0,0,0c0,0.1,0,0.3,0,0.4c-0.1,0.4-0.4,0.6-0.8,0.5
					c-0.1,0-0.3-0.1-0.4-0.1c-0.1,0.1-0.2,0.3-0.2,0.5c-0.1,0.5,0,0.9,0.1,1.3c0.2,0.6,0.3,1.2,0.4,1.8c0.1,0.4,0.2,0.8,0.3,1.2
					c0.1,0.4,0.1,0.8,0.2,1.2c0,0.2,0,0.3,0.2,0.5c0.1-0.3,0.2-0.6,0.3-0.9c0.1-0.2,0.2-0.3,0.3-0.5c0.1-0.1,0.2-0.2,0.4-0.3
					c0.2,0,0.4-0.1,0.6-0.1c0,0,0,0,0-0.1c-0.1-0.5,0-1,0.4-1.3c0.3-0.2,0.5-0.5,0.6-0.8c0.2-0.4,0.3-0.9,0.2-1.3
					c0-0.3-0.2-0.6-0.3-0.9c-0.1-0.2,0-0.2,0.2-0.2c0.3,0,0.6,0.1,0.8,0.3c0.3,0.2,0.5,0.5,0.7,0.8c0.1,0.2,0.2,0.4,0.2,0.7
					c0,0.1,0,0.3,0,0.4c0,0,0,0,0,0c0.3,0,0.5,0.2,0.6,0.4c0.1,0.1,0.1,0.2,0.1,0.3c0,0,0,0.1,0,0.1c0,0.2,0.1,0.3,0.3,0.4
					c0.4,0.2,0.7,0.6,0.8,1.1c0,0.2,0,0.3,0,0.5c0,0.2-0.1,0.2-0.2,0.1c-0.1-0.1-0.3-0.2-0.4-0.3c-0.5-0.3-0.9-0.3-1.5-0.2
					c-0.3,0.1-0.5,0.2-0.8,0.3c-0.3,0.2-0.6,0.3-1,0.3c0,0-0.1,0-0.1,0c0,0,0,0-0.1,0c0.1,0.4,0,0.8-0.4,1C91.7,31,91.3,31,91,30.7
					c0,0,0,0-0.1,0c-0.1,0.2-0.2,0.4-0.3,0.7c0,0.2-0.1,0.4-0.1,0.6c-0.1,0.3,0,0.6,0.1,0.9c0.1,0.4,0.1,0.8,0.2,1.2
					c0.1,0.3,0.1,0.7,0.2,1c0.1,0.5,0.2,1,0.3,1.5c0.1,0.4,0.2,0.9,0.2,1.3c0,0.1,0.1,0.2,0.1,0.3c0,0,0,0,0,0
					c0-0.1,0.1-0.2,0.1-0.3c0.2-0.6,0.5-0.9,1-1.2c0.1-0.1,0.3,0,0.5,0c0.1,0,0.1,0,0.2,0c0-0.1,0-0.1-0.1-0.1
					c-0.2-0.3-0.3-0.7-0.2-1.1c0.1-0.2,0.1-0.3,0.1-0.5c0.1-0.2,0.2-0.4,0.4-0.6c0.3-0.4,0.5-0.8,0.6-1.2c0.1-0.3,0.2-0.6,0.1-0.9
					c-0.1-0.3-0.2-0.6-0.2-0.9c0-0.2,0-0.2,0.2-0.2c0.1,0,0.3,0,0.4,0.1c0.7,0.2,1.1,0.7,1.2,1.4c0.1,0.3,0,0.5,0,0.8
					c0,0.3-0.1,0.5-0.2,0.7c0,0,0,0,0,0.1c0.1,0,0.1,0,0.2,0c0.2,0,0.4,0,0.6,0.1c0.3,0.1,0.5,0.4,0.5,0.7c0,0,0,0.1,0,0.1
					c0,0,0.1,0,0.1,0.1c0.2,0.1,0.3,0.2,0.5,0.3c0.2,0.2,0.3,0.4,0.4,0.7c0.1,0.2,0.1,0.5,0,0.7c-0.1,0.2-0.2,0.2-0.3,0.1
					c-0.2-0.2-0.3-0.3-0.5-0.4c-0.4-0.2-0.9-0.3-1.4-0.1c-0.3,0.1-0.5,0.3-0.7,0.4c-0.4,0.3-0.8,0.3-1.3,0.2c0,0,0,0-0.1,0
					c0,0.1,0,0.1,0.1,0.2c0.2,0.4,0,0.8-0.2,1c-0.3,0.2-0.7,0.2-0.9-0.2c0,0,0-0.1,0-0.1c-0.1,0-0.1,0-0.2,0.1
					c-0.2,0.2-0.4,0.5-0.5,0.8c-0.1,0.3-0.1,0.6-0.2,0.9c0,0.3,0,0.5,0.1,0.8c0.1,0.4,0.2,0.9,0.2,1.3c0.1,0.6,0.2,1.2,0.3,1.8
					c0.1,0.4,0.1,0.7,0.1,1.1c0.1,0.6,0.2,1.2,0.3,1.8c0,0.2,0,0.3,0,0.5c0,0.2-0.2,0.4-0.4,0.4c-0.2,0-0.4,0-0.6,0.1
					c-0.2,0-0.4,0-0.6,0.1c-0.5,0.1-1,0.1-1.5,0.2c-0.1,0-0.3,0-0.4,0c-0.5,0-1,0.1-1.5,0.1c-0.5,0-0.9,0-1.4,0c-0.4,0-0.9,0-1.3,0
					c-0.2,0-0.3,0-0.5,0c-0.5,0-0.9,0-1.4-0.1c-0.6,0-1.1-0.1-1.7-0.1c-0.4,0-0.9-0.1-1.3-0.1c-0.5-0.1-1-0.1-1.5-0.2
					c-0.1,0-0.1,0-0.2,0c-0.1,0-0.2-0.1-0.2-0.3c0-0.1,0-0.2,0-0.2c0.1-0.5,0.1-1,0.2-1.5c0.1-0.6,0.2-1.2,0.3-1.8
					c0-0.3,0.1-0.6,0.1-0.9c0.1-0.4,0.1-0.8,0.2-1.2c0-0.2,0-0.3,0.1-0.5c0-0.4,0-0.8-0.1-1.2c0-0.2-0.1-0.5-0.1-0.7
					c0-0.2-0.1-0.3-0.2-0.5c-0.1,0-0.1,0.1-0.2,0.1c-0.3,0.1-0.6,0.1-0.9-0.1c-0.3-0.2-0.4-0.5-0.4-0.8c0-0.1,0-0.2,0-0.3
					c0,0-0.1,0-0.1,0c-0.3,0.1-0.6,0-0.9-0.2c-0.4-0.2-0.8-0.4-1.2-0.4c-0.3,0-0.6,0-0.9,0.1c-0.4,0.1-0.8,0.4-1.1,0.7
					c-0.1,0.1-0.2,0.1-0.3,0.1c-0.1-0.5,0-1,0.2-1.4C73.3,35.7,73.7,35.4,74.2,35.3z M92.2,46.3c0-0.1,0-0.2,0-0.2
					c0-0.4-0.1-0.8-0.1-1.2c0-0.3-0.1-0.5-0.1-0.8c0-0.3-0.1-0.6-0.1-0.9c0-0.3-0.1-0.6-0.1-0.9c0-0.3-0.1-0.6-0.1-0.9
					c-0.1-0.6-0.2-1.3-0.3-1.9c-0.1-0.3-0.1-0.7-0.2-1c-0.1-0.3-0.1-0.6-0.2-0.9c-0.1-0.3-0.1-0.7-0.2-1c-0.1-0.3-0.1-0.6-0.2-0.9
					c0-0.3-0.1-0.5-0.2-0.8c-0.1-0.4-0.1-0.8-0.2-1.2c-0.1-0.6-0.2-1.3-0.4-1.9c0-0.2-0.1-0.3-0.1-0.5c0-0.2-0.1-0.4-0.1-0.6
					c-0.1-0.3-0.1-0.5-0.2-0.8c-0.1-0.4-0.1-0.8-0.2-1.2c-0.1-0.5-0.2-1-0.3-1.5c-0.1-0.5-0.3-1-0.5-1.5c-0.3-0.7-0.6-1.5-1-2.1
					c-0.2-0.3-0.3-0.5-0.5-0.7c-0.2-0.3-0.4-0.5-0.6-0.8c-0.1-0.1-0.2-0.2-0.3-0.3c-0.1-0.1-0.1-0.1-0.1-0.2c0-0.5,0-0.9,0-1.4
					c0-0.1,0-0.1,0-0.2c0-0.1,0-0.1-0.2-0.1c-0.1,0-0.1,0-0.1,0.1c0,0.2,0,0.3,0,0.5c0,0.3,0,0.7,0,1c0,0.1,0,0.2-0.2,0.3
					c-0.1,0-0.2,0.1-0.2,0.2c-0.3,0.4-0.6,0.8-0.9,1.2c-0.1,0.2-0.3,0.4-0.4,0.6c-0.1,0.1-0.2,0.3-0.3,0.5c-0.3,0.5-0.5,1-0.7,1.5
					c-0.2,0.5-0.4,1-0.5,1.6c-0.2,0.7-0.4,1.5-0.5,2.2c-0.2,0.8-0.4,1.7-0.6,2.5c-0.1,0.3-0.1,0.6-0.2,1c-0.1,0.4-0.1,0.8-0.2,1.1
					c-0.1,0.5-0.2,1-0.3,1.6c-0.1,0.3-0.1,0.7-0.2,1c-0.1,0.7-0.3,1.3-0.4,2c-0.1,0.4-0.2,0.9-0.2,1.3c-0.1,0.3-0.1,0.6-0.2,0.9
					c-0.1,0.5-0.2,1-0.3,1.6c-0.1,0.3-0.1,0.7-0.2,1c-0.1,0.5-0.1,1-0.2,1.5c-0.1,0.4-0.1,0.8-0.2,1.2c0,0.2,0,0.2,0.2,0.2
					c0.7-0.1,1.4-0.2,2.2-0.3c0.6-0.1,1.2-0.1,1.8-0.2c0.2,0,0.5,0,0.7,0c0.3,0,0.6-0.1,1-0.1c0.5,0,1.1,0,1.6,0c0.5,0,1.1,0,1.6,0
					c0.4,0,0.8,0,1.2,0c0.3,0,0.5,0,0.8,0.1c0.1,0,0.2,0,0.2,0c0.1,0,0.1,0,0.2,0c0.1,0,0.3,0,0.4,0.1c0.4,0.1,0.8,0.1,1.2,0.1
					C91.9,46.3,92,46.3,92.2,46.3z M89.1,14.7C89,14.7,89,14.7,89.1,14.7c-0.4-0.4-0.9-0.5-1.4-0.2c-0.2,0.1-0.4,0.2-0.6,0.1
					c0,0-0.1,0-0.1,0c-0.5,0.1-0.9,0.3-1.1,0.7c-0.1,0.1-0.1,0.2,0,0.3c0.1,0.1,0.1,0.3,0.2,0.4c0,0.3,0,0.6-0.2,0.8
					c-0.1,0.1-0.2,0.1-0.3,0c-0.1-0.1-0.1-0.2-0.1-0.4c-0.1-0.2,0-0.5,0-0.7c0.1-0.2,0-0.3-0.1-0.5c0,0-0.1-0.1-0.1-0.1
					c-0.2-0.2-0.4-0.4-0.6-0.5c-0.4-0.3-0.8-0.4-1.2-0.4c-0.4,0-0.8,0.2-1.2,0.4c-0.1,0.1-0.2,0.1-0.2,0.2c0.1,0,0.2,0.1,0.3,0.1
					c0.6,0,1,0.3,1.5,0.7c0.4,0.3,0.5,0.8,0.6,1.3c0,0.2,0.1,0.5,0.2,0.7c0.3,0.5,0.9,0.8,1.4,0.5c0.2-0.1,0.4-0.3,0.5-0.5
					c0.1-0.2,0.1-0.4,0.1-0.6c0-0.4,0.1-0.8,0.3-1.1c0.2-0.2,0.4-0.5,0.6-0.6c0.2-0.1,0.3-0.2,0.5-0.3
					C88.5,14.8,88.8,14.8,89.1,14.7z M94.5,31.4c0,0.1,0.1,0.3,0.1,0.4c0.1,0.3,0.1,0.5,0.1,0.8c0,0.1,0,0.2,0,0.3
					c0,0.1,0,0.2-0.1,0.3c-0.1,0.2-0.2,0.4-0.3,0.7c-0.1,0.3-0.3,0.6-0.5,0.8c-0.4,0.4-0.4,0.9-0.2,1.3c0.2,0.4,0.8,0.6,1.1,0.5
					c0.2-0.1,0.4-0.2,0.6-0.3c0.2-0.1,0.3-0.2,0.5-0.3c0.3-0.1,0.6-0.1,0.9,0c0.3,0.1,0.6,0.2,0.9,0.5c0.1,0.1,0.2,0.1,0.3,0.2
					c0-0.1,0-0.2,0-0.2c0-0.2-0.1-0.4-0.2-0.5c-0.2-0.3-0.4-0.5-0.7-0.6c-0.2-0.1-0.2-0.1-0.1-0.3c0.1-0.2,0-0.4-0.2-0.5
					c-0.1,0-0.1,0-0.2-0.1c-0.4-0.1-0.8-0.1-1.2,0.2c-0.4,0.2-0.6,0.6-0.7,1c0,0.1,0,0.1-0.1,0.2C94.6,36,94.5,36,94.3,36
					c-0.1,0-0.2-0.1-0.2-0.3c0-0.1,0-0.1,0.1-0.1c0.2-0.4,0.5-0.7,0.9-1c0.2-0.2,0.4-0.3,0.6-0.5c0.3-0.5,0.4-1.1,0.2-1.6
					c0-0.1-0.1-0.1-0.1-0.2c-0.2-0.4-0.4-0.6-0.8-0.8C94.8,31.4,94.7,31.4,94.5,31.4z M75.7,32.9c-0.2,0.2-0.3,0.4-0.3,0.7
					c0,0,0,0,0,0.1c0,0.3,0.2,0.6,0.5,0.7c0.2,0.1,0.4,0.3,0.5,0.4c0.3,0.3,0.5,0.6,0.7,1c0.1,0.2,0.1,0.3,0.1,0.5
					c0,0.1,0,0.3-0.1,0.3c-0.2,0.1-0.4,0-0.4-0.2c0-0.1,0-0.2,0-0.3c0-0.2-0.1-0.4-0.1-0.6c-0.1-0.2-0.1-0.4-0.3-0.5
					c-0.2-0.1-0.3-0.3-0.5-0.4c-0.1-0.1-0.3-0.2-0.5-0.2c-0.2,0-0.4,0-0.6,0.2c-0.2,0.2-0.4,0.4-0.3,0.7c0,0,0,0,0,0.1
					c0,0.2,0,0.2-0.2,0.3c-0.1,0-0.2,0.1-0.4,0.1c-0.4,0.2-0.6,0.4-0.8,0.8C73,36.6,73,36.8,73,37.1c0.1-0.1,0.2-0.2,0.3-0.3
					c0.4-0.4,0.9-0.6,1.5-0.6c0.7-0.1,1.3,0.1,1.9,0.6c0.2,0.2,0.4,0.3,0.7,0.1c0.1,0,0.1-0.1,0.2-0.2c0.2-0.3,0.3-0.7,0.2-1
					c-0.1-0.3-0.2-0.5-0.4-0.7c-0.4-0.4-0.7-0.8-0.8-1.3c0-0.2-0.1-0.4-0.1-0.6c0-0.3,0-0.7,0.1-1c0.1-0.2,0.1-0.4,0.2-0.6
					c-0.3,0-0.5,0.1-0.7,0.2c-0.3,0.3-0.4,0.7-0.3,1.2C75.8,33,75.7,33,75.7,32.9z M94.7,27c0,0.1-0.1,0.2-0.1,0.2
					c0,0.1,0,0.1-0.1,0.2c-0.2,0.4-0.5,0.8-1,0.9c-0.1,0-0.1,0-0.2,0c-0.1-0.1,0-0.1,0-0.2c0.2-0.3,0.4-0.6,0.6-0.9
					c0.1-0.1,0.3-0.3,0.4-0.4c0,0,0.1-0.1,0.1-0.2c0-0.4-0.1-0.7-0.3-1c-0.2-0.4-0.5-0.6-0.9-0.8c-0.1,0-0.2-0.1-0.3-0.1
					c0.2,0.4,0.2,0.8,0.2,1.3c0,0.7-0.3,1.4-0.8,1.9c-0.4,0.4-0.4,0.6-0.2,1c0.1,0.2,0.3,0.4,0.6,0.4c0.2,0,0.4-0.1,0.6-0.2
					c0.2-0.1,0.3-0.2,0.5-0.3c0.3-0.1,0.6-0.2,1-0.2c0.4,0,0.8,0.1,1.2,0.2c0.1,0,0.1,0,0.2,0.1c-0.1-0.3-0.3-0.7-0.6-0.8
					c-0.2-0.1-0.3-0.2-0.3-0.4c0,0,0,0,0,0C95.4,27.4,95.2,27.1,94.7,27z M94.4,22.4c0,0,0-0.1,0-0.1c-0.2-0.3-0.4-0.5-0.8-0.7
					c-0.1,0-0.2-0.1-0.2-0.2c-0.1-0.2-0.2-0.3-0.3-0.3c-0.4-0.1-0.7-0.1-1,0c-0.1,0-0.1,0.1-0.2,0.2c-0.2,0.4-0.5,0.8-0.8,1.1
					c0,0.1-0.1,0.1-0.2,0.1c-0.1,0-0.1-0.1-0.1-0.2c0.1-0.4,0.3-0.8,0.7-1.1c0.1-0.1,0.3-0.2,0.3-0.3c0-0.2,0.1-0.4,0.1-0.6
					c0-0.3-0.1-0.5-0.4-0.6c-0.1,0-0.1,0-0.2-0.1c-0.1,0-0.1-0.1-0.1-0.1c-0.1-0.3-0.3-0.4-0.4-0.5c-0.1,0-0.1,0-0.2-0.1
					c0,0.1,0,0.1,0,0.1c0.1,0.3,0.2,0.7,0.2,1c0,0.5-0.1,1-0.4,1.5c-0.2,0.3-0.2,0.6-0.3,1c-0.1,0.3,0.1,0.7,0.4,0.8
					c0.4,0.2,0.9,0.1,1.1-0.3c0.2-0.2,0.3-0.3,0.5-0.5c0.4-0.2,0.7-0.4,1.2-0.4c0.3,0,0.6,0,0.9,0.1C94.2,22.4,94.3,22.4,94.4,22.4z
					 M78.5,25c-0.4,0.1-0.8,0.3-1,0.6c-0.3,0.3-0.5,0.8-0.5,1.2c0,0.2,0,0.3,0.2,0.4c0.3,0.2,0.5,0.4,0.8,0.6
					c0.3,0.3,0.5,0.6,0.7,0.9c0,0.1,0.1,0.1,0,0.2c-0.1,0.1-0.1,0-0.2,0c-0.1,0-0.1-0.1-0.2-0.1c-0.3-0.2-0.6-0.4-0.9-0.8
					c-0.2-0.2-0.3-0.4-0.4-0.7c-0.1-0.1-0.2-0.2-0.3-0.2c-0.2,0-0.3,0.1-0.4,0.2c-0.2,0.2-0.4,0.4-0.3,0.7c0,0.1,0,0.2-0.1,0.2
					c-0.2,0.1-0.3,0.2-0.4,0.3c-0.2,0.1-0.2,0.3-0.3,0.5c0,0,0.1,0,0.1,0c0,0,0,0,0.1,0c0.3-0.2,0.6-0.2,0.9-0.3
					c0.3,0,0.6,0,0.9,0.1c0.4,0.1,0.7,0.3,1,0.5c0.4,0.3,0.9,0.3,1.2-0.2c0.2-0.3,0.2-0.6,0-0.9c-0.3-0.3-0.5-0.6-0.6-1
					c-0.2-0.4-0.2-0.7-0.2-1.1c0-0.1,0-0.2,0-0.3c0-0.2,0.1-0.4,0.1-0.6C78.5,25.2,78.5,25.1,78.5,25z M77.2,22.1
					C77.2,22.1,77.3,22.1,77.2,22.1c0.1,0,0.2,0,0.2,0c0.1,0,0.3-0.1,0.4-0.1c0.2,0,0.4,0,0.7,0c0.3,0,0.7,0.1,0.9,0.3
					c0.2,0.1,0.4,0.3,0.5,0.5c0.2,0.3,0.5,0.4,0.9,0.4c0.2,0,0.4-0.1,0.6-0.3c0.1-0.2,0.2-0.5,0.1-0.8c-0.2-0.5-0.4-0.9-0.5-1.4
					c-0.1-0.3-0.1-0.6-0.1-0.9c0-0.3,0.1-0.7,0.3-1c0,0,0-0.1,0-0.1c0,0-0.1,0-0.1,0c-0.3,0.1-0.5,0.2-0.6,0.5
					c0,0.2-0.1,0.3-0.3,0.3c-0.1,0-0.1,0-0.2,0.1c0,0-0.1,0-0.1,0.1c-0.1,0.2-0.2,0.4-0.1,0.6c0,0.1,0.1,0.2,0.1,0.4
					c0,0.2,0.1,0.3,0.3,0.4c0.4,0.3,0.6,0.7,0.7,1.1c0,0.1,0,0.1-0.1,0.2c-0.1,0-0.1,0-0.2,0c-0.3-0.3-0.6-0.7-0.7-1.1
					c0-0.1-0.1-0.1-0.1-0.2c-0.4-0.2-0.8-0.2-1.2-0.1c-0.1,0.1-0.3,0.2-0.3,0.3c0,0.1-0.1,0.2-0.2,0.2
					C77.7,21.5,77.4,21.7,77.2,22.1z M85.7,15.2c0,0,0.1-0.1,0.1-0.1c0.2-0.3,0.4-0.5,0.7-0.6c0.2-0.1,0.4-0.1,0.6-0.1
					c0.2,0,0.2-0.1,0.2-0.2c0-0.4-0.2-0.6-0.5-0.8c0,0-0.1,0-0.1,0c0,0-0.1-0.1-0.1-0.1c0-0.1-0.1-0.2-0.1-0.4
					c0-0.4-0.2-0.7-0.5-0.9c-0.2-0.2-0.5-0.2-0.7,0c-0.1,0.1-0.2,0.3-0.2,0.4c0,0.3-0.2,0.5-0.4,0.6c-0.3,0.2-0.4,0.4-0.5,0.7
					c0,0.1,0,0.2,0.1,0.2c0.3,0.1,0.5,0.3,0.7,0.5c0.1,0.1,0.2,0.3,0.3,0.5C85.5,15,85.5,15.1,85.7,15.2z M87.2,19.1
					c0-0.1,0-0.2-0.1-0.2c-0.2-0.2-0.5-0.3-0.8-0.4c-0.3-0.1-0.7,0-1,0c-0.3,0-0.5,0.1-0.7,0.3c-0.1,0.1-0.1,0.1-0.2,0.2
					C85.1,19.7,86.3,19.7,87.2,19.1z M79.4,39.5C79.4,39.5,79.5,39.5,79.4,39.5c0.1-0.1,0.1-0.2,0.1-0.3c0-0.3,0-0.6-0.1-0.9
					c-0.1-0.4-0.2-0.7-0.4-1c-0.2-0.3-0.4-0.5-0.8-0.5c-0.4,0-0.6,0.1-0.7,0.5c0,0.2,0,0.3,0.2,0.4c0.2,0.2,0.4,0.2,0.6,0.1
					c0.1-0.1,0.2,0,0.3,0c0.2,0.2,0.3,0.4,0.4,0.6c0.1,0.3,0.2,0.6,0.2,0.8C79.4,39.3,79.4,39.4,79.4,39.5z M82.7,24.8
					c0-0.1,0-0.1,0-0.2c-0.1-0.5-0.2-0.9-0.5-1.3c-0.1-0.2-0.3-0.2-0.5-0.2c-0.3,0-0.6,0.2-0.6,0.5c0,0.3,0.2,0.6,0.5,0.6
					c0.1,0,0.2,0,0.2,0c0.2-0.1,0.3,0,0.3,0.1C82.4,24.5,82.5,24.6,82.7,24.8z M80.9,31.1c0-0.1,0-0.1,0-0.1
					c-0.1-0.4-0.2-0.8-0.4-1.2c-0.1-0.1-0.2-0.3-0.4-0.3c-0.3-0.2-0.7,0-0.8,0.3c-0.1,0.3,0.2,0.7,0.5,0.6c0.1,0,0.2-0.1,0.3-0.2
					c0.1-0.1,0.2-0.1,0.3,0c0.1,0.2,0.2,0.4,0.4,0.6C80.8,30.9,80.9,31,80.9,31.1z M91.9,38.3c0.1-0.2,0.2-0.3,0.4-0.5
					c0.2-0.2,0.4-0.3,0.6-0.3c0.2-0.1,0.2-0.1,0.4,0.2c0,0,0,0,0,0c0.1,0.1,0.2,0.1,0.3,0.1c0.1,0,0.1-0.1,0.2-0.2
					c0.1-0.2,0-0.5-0.2-0.6c-0.2-0.2-0.4-0.2-0.7-0.1C92.4,37.1,91.9,37.6,91.9,38.3z M90.6,30.8c0-0.1,0.1-0.2,0.1-0.2
					c0.1-0.3,0.5-0.3,0.7-0.1c0,0,0.1,0.1,0.2,0.1c0.2,0,0.4-0.1,0.5-0.3c0.1-0.3,0.1-0.5-0.1-0.7c0,0-0.1-0.1-0.2-0.1
					c-0.2,0-0.4,0.1-0.6,0.1c-0.1,0.1-0.2,0.2-0.3,0.3C90.8,30.2,90.7,30.5,90.6,30.8z M88.9,24.6c0.2-0.3,0.4-0.5,0.6-0.7
					c0.1,0.1,0.2,0.2,0.2,0.3c0.1,0.1,0.1,0.1,0.2,0.1c0.3,0,0.4-0.3,0.3-0.5c-0.1-0.3-0.5-0.4-0.8-0.3c-0.2,0.1-0.3,0.3-0.4,0.5
					C89,24.1,88.9,24.3,88.9,24.6z M94.4,27.2c-0.2,0.2-0.4,0.4-0.6,0.7C94,27.9,94.3,27.5,94.4,27.2z M94.5,35.6
					c-0.1,0.2-0.1,0.2,0,0.2C94.5,35.7,94.5,35.7,94.5,35.6z"/>
				<path class="st3" d="M99,21.8c0-0.1,0-0.1,0-0.2c0-0.2-0.1-0.3-0.2-0.3c-0.1,0-0.3,0-0.4,0.1c-0.2,0.2-0.2,0.5-0.1,0.8
					c0.1,0.3,0.4,0.4,0.7,0.4c0.3,0,0.5-0.1,0.7-0.3c0.1-0.1,0.2-0.2,0.2-0.4c0.1-0.4,0.2-0.8,0-1.2c-0.1-0.2-0.2-0.4-0.3-0.6
					c-0.1-0.3-0.3-0.6-0.4-0.8c-0.1-0.3-0.3-0.6-0.5-0.9c-0.1-0.3-0.3-0.5-0.4-0.8c-0.3-0.4-0.5-0.8-0.8-1.2
					c-0.2-0.3-0.4-0.5-0.6-0.8c-0.2-0.3-0.5-0.6-0.7-0.9c-0.1-0.1-0.2-0.2-0.2-0.2c-0.2-0.2-0.4-0.5-0.6-0.7
					c-0.2-0.2-0.4-0.4-0.6-0.6c-0.7-0.6-1.4-1.1-2.1-1.7c-0.2-0.2-0.4-0.3-0.7-0.4c-0.4-0.2-0.8-0.5-1.2-0.6
					c-0.7-0.3-1.4-0.6-2.1-0.8c-0.3-0.1-0.6-0.1-0.9-0.2c-0.3-0.1-0.7-0.1-1-0.1c-0.3,0-0.7,0-1-0.1c-0.2,0-0.3,0-0.5,0
					c-0.2,0-0.4,0-0.6,0.1c-0.3,0-0.7,0.1-1,0.1c-0.8,0.1-1.5,0.4-2.2,0.6c-0.5,0.2-1,0.4-1.5,0.7c-0.2,0.1-0.5,0.3-0.7,0.4
					c-0.4,0.3-0.8,0.5-1.2,0.8c-0.3,0.2-0.5,0.4-0.8,0.6c-0.2,0.2-0.4,0.4-0.6,0.5c-0.3,0.3-0.6,0.5-0.9,0.8
					c-0.2,0.2-0.3,0.3-0.5,0.5c-0.3,0.4-0.6,0.8-0.9,1.2c-0.3,0.4-0.6,0.8-0.8,1.2c-0.2,0.3-0.3,0.6-0.5,0.8
					c-0.1,0.1-0.2,0.3-0.3,0.4c-0.3,0.5-0.5,1-0.8,1.6c-0.1,0.1-0.1,0.3-0.2,0.5c-0.2,0.4-0.2,0.9-0.3,1.3c-0.1,0.6,0.5,1.2,1.2,1
					c0.5-0.2,0.6-0.9,0.3-1.2c0,0-0.1-0.1-0.1-0.1c-0.1-0.1-0.2-0.1-0.3,0c-0.1,0.1-0.1,0.2-0.1,0.3c0,0.2,0,0.3-0.2,0.3
					c-0.1,0-0.1-0.1-0.2-0.1c-0.1-0.5,0.1-1,0.8-1c0.4,0,0.7,0.3,0.7,0.7c0,0.3,0,0.6-0.1,0.9c-0.1,0.2-0.2,0.3-0.3,0.4
					c-0.1,0.1-0.2,0.1-0.3,0.2c-0.1,0-0.2,0.1-0.3,0c0,0-0.1,0-0.1,0c-0.2,0.1-0.4,0-0.5-0.1c-0.1,0-0.2-0.1-0.3-0.2
					c0,0-0.1-0.1-0.1-0.1c-0.2-0.2-0.3-0.5-0.3-0.7c0-0.3,0.1-0.7,0.1-1c0.1-0.6,0.4-1.2,0.6-1.7c0.2-0.4,0.4-0.8,0.7-1.2
					c0.3-0.5,0.6-1,0.9-1.5c0.3-0.5,0.6-1,1-1.4c0.2-0.2,0.3-0.4,0.5-0.6c0.3-0.3,0.6-0.6,0.9-0.9c0.2-0.2,0.4-0.4,0.6-0.6
					c0.2-0.2,0.4-0.4,0.6-0.5c0.2-0.1,0.3-0.3,0.5-0.4c0.3-0.2,0.6-0.5,0.9-0.7c0.3-0.2,0.6-0.4,0.9-0.5c0.5-0.3,1.1-0.6,1.7-0.8
					c0.5-0.2,0.9-0.3,1.4-0.5c0.5-0.1,1-0.2,1.5-0.3C84.7,9,85.1,9,85.6,9c0.2,0,0.5,0,0.7,0c0.1,0,0.2,0,0.2,0
					c0.6,0,1.2,0.1,1.8,0.2c0.3,0.1,0.6,0.1,0.9,0.2c0.5,0.1,0.9,0.3,1.4,0.5c0.3,0.1,0.6,0.3,0.9,0.4c0.3,0.2,0.6,0.3,0.9,0.5
					c0.3,0.2,0.5,0.4,0.8,0.5c0.4,0.3,0.9,0.6,1.3,1c0.5,0.4,0.9,0.8,1.4,1.2c0.3,0.3,0.7,0.7,1,1.1c0.3,0.3,0.5,0.7,0.7,1
					c0.5,0.6,0.9,1.3,1.3,2c0.1,0.2,0.3,0.5,0.4,0.7c0.3,0.5,0.5,1.1,0.8,1.6c0.1,0.2,0.2,0.5,0.3,0.8c0,0.1,0,0.2,0,0.3
					c0,0.1,0,0.1,0,0.2c0.1,0.4-0.1,0.7-0.3,1c-0.2,0.3-0.5,0.4-0.8,0.5c-0.2,0-0.4,0.1-0.6,0c-0.2-0.1-0.4-0.3-0.6-0.4
					c-0.2-0.3-0.3-0.7-0.2-1.1c0.1-0.3,0.5-0.6,0.8-0.6c0.4,0,0.7,0.4,0.7,0.7C99.4,21.7,99.3,21.8,99,21.8z"/>
				<path class="st3" d="M83.6,51.7c0-0.1,0-0.1,0-0.2c0-0.1,0-0.2,0.1-0.2c0.1,0,0.2,0,0.3,0.1c0.2,0.2,0.1,0.4,0,0.6
					c-0.1,0.2-0.2,0.3-0.4,0.3c-0.3,0-0.5-0.1-0.5-0.5c-0.1-0.5,0.1-0.9,0.5-1.1c0.4-0.3,0.8-0.2,1.2,0c0.2,0.1,0.4,0.4,0.4,0.6
					c0.1,0.4,0,0.8-0.2,1.2c-0.1,0.2-0.3,0.3-0.5,0.4c-0.4,0.2-0.9,0.3-1.4,0.3c-0.3,0-0.5,0-0.8,0c-0.3,0-0.5-0.1-0.8-0.2
					c-0.4-0.2-0.8-0.3-1.3-0.5c-0.4-0.2-0.8-0.4-1.2-0.7c-0.4-0.3-0.8-0.5-1.2-0.8c-0.2-0.2-0.4-0.4-0.7-0.5
					c-0.3-0.2-0.5-0.4-0.7-0.7c-0.2-0.2-0.4-0.4-0.7-0.6c-0.3-0.3-0.6-0.6-0.8-1c-0.1-0.2-0.3-0.3-0.4-0.5c-0.2-0.3-0.5-0.7-0.7-1
					c-0.3-0.4-0.5-0.9-0.8-1.3c-0.3-0.5-0.6-0.9-0.8-1.4c0-0.1-0.1-0.2-0.1-0.2c-0.3-0.6-0.5-1.2-0.8-1.7c-0.2-0.5-0.4-1-0.5-1.5
					c-0.2-0.7-0.4-1.5-0.6-2.2c-0.2-0.7-0.3-1.4-0.4-2.1c0-0.3-0.1-0.6-0.1-0.9c0-0.2,0-0.5-0.1-0.7c0-0.3-0.1-0.6-0.1-0.9
					c0-0.2,0-0.5,0-0.7c0-0.5,0-0.9,0-1.4c0-0.6,0-1.3,0-1.9c0-0.6,0.1-1.2,0.2-1.9c0-0.3,0-0.6,0.1-0.9c0.1-0.5,0.2-0.9,0.3-1.4
					c0.1-0.3,0.2-0.7,0.4-1c0.1-0.1,0.1-0.3,0.3-0.4c0.2-0.2,0.4-0.3,0.6-0.4c0.2-0.1,0.4-0.1,0.6-0.1c0.3,0.1,0.6,0.2,0.8,0.5
					c0.1,0.1,0.1,0.3,0.2,0.4c0.1,0.3,0.1,0.5,0,0.8c-0.1,0.2-0.1,0.3-0.3,0.4c-0.3,0.3-0.7,0.3-1,0.1c-0.2-0.1-0.4-0.3-0.4-0.6
					c0-0.1,0-0.2,0-0.3c0-0.1,0.1-0.3,0.2-0.4c0,0,0,0,0,0c0.1-0.1,0.3,0,0.3,0c0,0.1,0,0.2-0.1,0.3c-0.1,0.1-0.1,0.2-0.1,0.3
					c0.1,0.2,0.4,0.3,0.6,0.2c0.3-0.2,0.4-0.5,0.3-0.9c0-0.1-0.1-0.2-0.2-0.3c-0.3-0.3-0.7-0.2-1,0c-0.3,0.2-0.5,0.5-0.6,0.8
					c-0.2,0.4-0.3,0.9-0.4,1.3c-0.2,0.6-0.2,1.1-0.3,1.7c0,0.2-0.1,0.3-0.1,0.5c0,0.1,0,0.2,0,0.4c0,0.2,0,0.3-0.1,0.5
					c0,0.1,0,0.3,0,0.4c0,0.5-0.1,0.9-0.1,1.4c0,0.2,0,0.5,0,0.7c0,0.3,0,0.6,0,0.8c0,0.5,0.1,1,0.1,1.5c0,0.4,0.1,0.8,0.1,1.2
					c0.1,0.5,0.1,0.9,0.2,1.4c0.1,0.6,0.2,1.2,0.3,1.7c0.1,0.4,0.2,0.8,0.3,1.2c0.1,0.3,0.2,0.7,0.3,1c0.1,0.4,0.3,0.8,0.4,1.2
					c0.2,0.5,0.4,1,0.6,1.4c0.2,0.4,0.4,0.7,0.5,1c0.3,0.6,0.6,1.1,0.9,1.6c0.3,0.5,0.7,1,1,1.5c0.3,0.4,0.7,0.8,1,1.2
					c0.1,0.1,0.2,0.3,0.4,0.4c0.2,0.2,0.4,0.3,0.5,0.5c0.2,0.2,0.4,0.4,0.6,0.6c0.5,0.4,0.9,0.8,1.5,1.1c0.4,0.2,0.7,0.5,1.1,0.7
					c0.2,0.1,0.4,0.2,0.7,0.3c0.4,0.2,0.9,0.4,1.3,0.6c0.3,0.1,0.6,0.1,0.9,0.1c0.4,0,0.8,0,1.1-0.1c0.2-0.1,0.4-0.1,0.6-0.2
					c0.2-0.1,0.3-0.3,0.4-0.5c0.2-0.4-0.1-0.9-0.3-1.1c-0.2-0.1-0.4-0.1-0.6,0c-0.2,0.1-0.3,0.3-0.3,0.6
					C83.5,51.7,83.5,51.7,83.6,51.7z"/>
				<path class="st3" d="M87.5,51.8c0.1,0,0.1,0,0.2-0.1c0-0.2,0-0.3-0.1-0.5c-0.2-0.3-0.6-0.4-0.8-0.2c-0.3,0.2-0.6,0.7-0.3,1.1
					c0.1,0.3,0.3,0.5,0.6,0.6c0.3,0.1,0.6,0.2,0.9,0.2c0.4,0,0.7,0,1.1-0.1c0.3-0.1,0.5-0.1,0.8-0.2c0.2,0,0.3-0.1,0.4-0.2
					c0.4-0.2,0.8-0.4,1.1-0.6c0.4-0.2,0.8-0.5,1.2-0.7c0.5-0.4,1-0.8,1.5-1.1c0.3-0.3,0.7-0.5,1-0.8c0.2-0.2,0.4-0.4,0.6-0.7
					c0.4-0.5,0.8-0.9,1.2-1.4c0.2-0.3,0.4-0.6,0.7-0.9c0.2-0.2,0.3-0.5,0.5-0.7c0.3-0.5,0.5-1,0.8-1.4c0.1-0.3,0.3-0.5,0.4-0.8
					c0.2-0.4,0.3-0.7,0.5-1.1c0.2-0.6,0.5-1.2,0.7-1.8c0-0.1,0-0.1,0.1-0.2c0.1-0.5,0.3-1,0.4-1.4c0.1-0.4,0.2-0.8,0.3-1.2
					c0.1-0.4,0.2-0.8,0.2-1.2c0.1-0.6,0.2-1.2,0.2-1.9c0-0.4,0.1-0.8,0.1-1.2c0-0.4,0-0.9,0-1.3c0-0.2,0-0.5,0.1-0.7
					c0-0.1,0-0.3,0-0.4c0-0.2,0-0.5,0-0.7c0-0.3,0-0.6,0-1c0-0.3,0-0.6-0.1-0.8c-0.1-0.6-0.1-1.2-0.2-1.8c-0.1-0.5-0.2-0.9-0.3-1.4
					c0-0.3-0.1-0.5-0.3-0.8c-0.2-0.3-0.5-0.6-1-0.6c-0.2,0-0.3,0-0.5,0.1c-0.2,0.1-0.4,0.3-0.5,0.5c-0.1,0.1-0.1,0.2,0,0.3
					c0.1,0.3,0.2,0.5,0.5,0.6c0.3,0.1,0.5-0.1,0.5-0.4c0,0,0-0.1,0-0.1c0,0,0,0,0,0c-0.1-0.1-0.2-0.2-0.1-0.3c0.1-0.1,0.3-0.1,0.4,0
					c0,0,0.1,0.1,0.1,0.2c0.2,0.5,0.1,0.9-0.4,1.1c-0.3,0.2-0.7,0-0.9-0.2c-0.3-0.3-0.4-0.7-0.3-1.2c0.1-0.5,0.4-0.7,0.9-0.9
					c0.1,0,0.2,0,0.2-0.1c0.3-0.1,0.6,0.1,0.9,0.3c0.3,0.2,0.5,0.4,0.6,0.7c0,0.1,0.1,0.1,0.1,0.2c0.1,0.5,0.2,1,0.3,1.5
					c0.1,0.6,0.2,1.3,0.3,2c0.1,0.5,0.1,1,0.1,1.5c0,0.8,0,1.7,0,2.5c0,0.4,0,0.8,0,1.2c0,0.4-0.1,0.7-0.1,1.1c0,0.3,0,0.5-0.1,0.8
					c0,0.3-0.1,0.6-0.1,1c0,0.2,0,0.4-0.1,0.6c-0.1,0.4-0.2,0.9-0.3,1.3c-0.1,0.4-0.2,0.8-0.3,1.3c-0.1,0.4-0.2,0.8-0.3,1.1
					c-0.2,0.6-0.4,1.2-0.7,1.8c-0.2,0.5-0.5,1.1-0.7,1.6c-0.2,0.5-0.5,1-0.8,1.5c-0.1,0.2-0.2,0.5-0.4,0.7c-0.1,0.2-0.2,0.3-0.3,0.4
					c-0.2,0.3-0.4,0.5-0.6,0.8c-0.2,0.2-0.4,0.4-0.5,0.6c-0.2,0.3-0.4,0.5-0.7,0.8c-0.3,0.3-0.6,0.7-1,1c-0.2,0.1-0.4,0.3-0.5,0.5
					c-0.4,0.3-0.8,0.7-1.3,1c-0.3,0.2-0.5,0.4-0.8,0.6c-0.5,0.3-1,0.6-1.5,0.8c-0.3,0.1-0.6,0.3-0.8,0.4C90.1,52.9,90,53,89.9,53
					c-0.4,0.1-0.8,0.2-1.2,0.2c-0.4,0.1-0.8,0-1.2-0.1c-0.2,0-0.3-0.1-0.5-0.1c-0.4-0.1-0.7-0.4-0.9-0.8c0-0.1,0-0.2-0.1-0.3
					c-0.1-0.4,0-0.8,0.3-1.1c0.2-0.3,0.6-0.4,1-0.3c0.2,0,0.3,0.1,0.5,0.2c0.2,0.2,0.3,0.4,0.4,0.7c0,0.1,0,0.2,0,0.4
					c0,0.3-0.2,0.4-0.4,0.5c-0.2,0.1-0.4,0-0.5-0.2c-0.1-0.1-0.1-0.5,0-0.6c0.1-0.1,0.2-0.1,0.3,0c0.1,0.1,0.1,0.1,0.1,0.2
					C87.5,51.7,87.5,51.7,87.5,51.8z"/>
				<path class="st3" d="M82.9,30.1c0-0.1,0.1-0.1,0.1-0.2c0.1-0.2,0.3-0.4,0.5-0.6c0.2-0.1,0.4-0.2,0.6-0.1
					c0.2,0.1,0.2,0.3,0.1,0.4c-0.3,0.2-0.4,0.5-0.6,0.8c0,0,0,0.1-0.1,0.1c-0.1,0.4-0.2,0.7-0.2,1.1c0,0.6,0,1.2,0,1.8
					c0,0.1,0,0.3,0,0.4c0,0.2,0.1,0.2,0.3,0.2c0.3,0,0.5,0,0.8,0c0-0.1,0-0.1,0-0.2c0-0.6,0-1.2,0-1.8c0-0.4,0-0.7,0-1.1
					c0-0.1-0.1-0.3-0.1-0.4c0-0.1,0-0.1,0-0.2c0-0.1,0-0.2,0.2-0.2c0.1,0,0.2,0,0.3,0c0.4,0,0.7,0,1.1,0c0.2,0,0.4,0.1,0.6,0.2
					c0.1,0.1,0.3,0.3,0.4,0.4c0,0,0.1,0.1,0.1,0.2c0.1,0.4,0.2,0.9,0,1.3c-0.1,0.3-0.3,0.4-0.6,0.6c0,0.1,0,0.2,0.1,0.2
					c0.2,0.2,0.4,0.5,0.5,0.8C87,34,87,34,87.1,34c0.2,0,0.4,0,0.6,0c0.1,0,0.2,0,0.2-0.2c0-0.1,0-0.2,0-0.3c0-0.5,0-1,0-1.5
					c0-0.3,0-0.6,0-0.9c0-0.2,0-0.5-0.1-0.7c-0.1-0.2-0.2-0.4-0.3-0.6c-0.1-0.1-0.1-0.2-0.3-0.1c-0.1,0-0.3,0-0.3-0.1
					c-0.1-0.1,0-0.3,0-0.4c0.1-0.1,0.2-0.2,0.3-0.1c0.2,0,0.3,0.1,0.4,0.2c0.3,0.2,0.5,0.4,0.7,0.6c0,0,0,0,0.1,0.1
					c0,0,0.1-0.1,0.1-0.1c0.1-0.1,0.3-0.1,0.5-0.1c0.2,0,0.2,0.1,0.1,0.2c0,0-0.1,0.1-0.1,0.1c-0.2,0.1-0.3,0.3-0.3,0.5
					c0,0.6,0,1.3,0,1.9c0,0.7,0,1.4,0,2.2c0,0.7,0,1.3,0,2c0,0.3,0.1,0.6,0.2,0.8c0.1,0.3,0.4,0.6,0.7,0.7c0.1,0,0.2,0,0.3,0.1
					c0.1,0,0.2,0,0.3,0.1c0.1,0,0.2,0.2,0.1,0.3c0,0.1-0.1,0.2-0.2,0.2c-0.4,0.1-0.8,0.1-1.1-0.1c-0.3-0.2-0.5-0.4-0.7-0.7
					c-0.1,0.1-0.1,0.1-0.2,0.2c-0.2,0.1-0.4,0.3-0.6,0.4c-0.1,0.1-0.2,0-0.3,0c-0.1-0.1-0.1-0.2,0-0.3c0.2-0.1,0.3-0.3,0.4-0.5
					c0.2-0.3,0.3-0.6,0.3-0.9c0-0.5,0-1.1,0-1.6c0-0.2,0-0.5,0-0.7c0-0.2,0-0.2-0.2-0.2c-0.1,0-0.3,0-0.4,0
					c-0.1,0.1-0.1,0.1-0.1,0.2c0.1,0.5,0.1,1.1-0.1,1.6c-0.1,0.3-0.2,0.5-0.4,0.7c-0.2,0.2-0.4,0.5-0.6,0.6
					c-0.2,0.1-0.4,0.2-0.6,0.3c-0.3,0.1-0.6,0-1-0.1c0,0-0.1,0-0.1-0.1c-0.2-0.1-0.3-0.3-0.1-0.4c0.2-0.2,0.2-0.4,0.2-0.7
					c0-0.6,0-1.2,0-1.8c0,0,0-0.1,0-0.1c0-0.2,0-0.3-0.3-0.3c-0.1,0-0.3,0-0.4,0c-0.1,0-0.1,0-0.2,0c-0.2,0-0.3,0.2-0.3,0.3
					c0,0.4,0,0.9,0,1.3c0,0.3,0,0.5,0,0.8c0,0.5,0.2,0.9,0.5,1.3c0,0.1,0.1,0.1,0.1,0.2c0,0.1,0.1,0.2,0,0.2
					c-0.1,0.1-0.1,0.1-0.2,0.1c-0.1,0-0.1,0-0.2-0.1c-0.1-0.1-0.3-0.2-0.4-0.2c0,0-0.1,0-0.1-0.1c-0.2,0.2-0.3,0.3-0.5,0.4
					c-0.2,0.2-0.4,0.3-0.7,0.4c-0.1,0-0.1,0-0.2,0c-0.1,0-0.2,0-0.2-0.1c0-0.1,0-0.2,0.1-0.3c0.2-0.1,0.3-0.2,0.5-0.3
					c0.4-0.3,0.6-0.7,0.6-1.2c0-0.3,0.1-0.6,0.1-0.9c0-0.2,0-0.4,0-0.6c0-0.2,0-0.4,0-0.5c0-1.3,0-2.6,0-3.9c0-0.2,0-0.3-0.1-0.5
					c0-0.2-0.2-0.2-0.3-0.3c0,0,0,0,0,0c-0.1,0-0.2-0.1-0.2-0.2c0-0.1,0.1-0.2,0.3-0.2C82.5,30,82.7,30,82.9,30.1z M85.7,34.4
					C85.7,34.4,85.7,34.4,85.7,34.4c-0.2,0-0.4,0-0.5,0c-0.2,0-0.2,0-0.2,0.2c0,0.3,0,0.7,0,1c0,0.4,0.1,0.7,0.1,1.1
					c0,0.2,0.2,0.4,0.4,0.4c0.2,0,0.4,0,0.5-0.2c0.2-0.3,0.3-0.7,0.4-1c0.1-0.4,0.1-0.9,0-1.3c0-0.1,0-0.1-0.2-0.1
					C86.1,34.4,85.9,34.4,85.7,34.4z M85,32.6c0.3,0,0.5,0,0.8,0c0.1,0,0.1,0,0.2-0.1c0.1-0.1,0.2-0.3,0.3-0.5
					c0.2-0.4,0-0.8-0.2-1.2c-0.1-0.1-0.2-0.2-0.3-0.2c-0.1,0-0.2,0-0.3,0c-0.3,0-0.5,0.2-0.5,0.6c0,0.3,0,0.6,0,0.9
					C85,32.3,85,32.4,85,32.6z M85,34c0.4,0,0.9,0,1.3,0c0-0.1,0-0.1,0-0.1c-0.1-0.2-0.2-0.4-0.3-0.5c0,0-0.1-0.1-0.1-0.1
					c-0.2-0.1-0.4-0.2-0.7-0.1c-0.1,0-0.3,0.1-0.3,0.2C84.9,33.6,85,33.8,85,34z"/>
				<path class="st3" d="M89.7,43.7c0,0.2-0.1,0.3-0.1,0.5c0,0.2,0,0.3,0.2,0.3c0.1,0,0.1,0.2,0.1,0.2c0,0.1-0.1,0.1-0.2,0.1
					c-0.1,0-0.2,0-0.3,0c-0.1,0-0.2,0-0.3,0c-0.1,0-0.2,0-0.3-0.1c-0.1,0-0.2,0-0.4,0c-0.2,0-0.4,0-0.7,0c-0.2,0-0.2-0.1-0.2-0.2
					c0-0.1,0-0.2,0.1-0.2c0.2-0.1,0.3-0.2,0.3-0.4c0-0.5,0-1,0-1.5c0-0.1,0-0.1,0-0.2c-0.1,0.1-0.1,0.1-0.1,0.1
					c-0.2,0.4-0.3,0.8-0.5,1.2c-0.1,0.2-0.1,0.3-0.3,0.3c-0.1-0.2-0.2-0.5-0.4-0.7c-0.1-0.2-0.2-0.5-0.4-0.7c0,0.1,0,0.2,0,0.3
					c0,0.4,0,0.8,0,1.1c0,0.1,0,0.2,0.1,0.2c0,0.1,0.1,0.2,0.2,0.2c0.1,0,0.2,0.1,0.2,0.2c0,0.1,0,0.2-0.2,0.2c-0.3,0-0.6,0-0.9,0
					c0,0-0.1,0-0.1,0c0-0.2,0-0.2,0.1-0.3c0.1-0.1,0.2-0.1,0.2-0.2c0-0.7,0-1.5,0-2.2c0-0.2,0-0.3-0.2-0.4c0,0-0.1-0.1-0.1-0.1
					c-0.1-0.1,0-0.2,0.1-0.2c0,0,0,0,0,0c0.3,0,0.5,0,0.8,0.1c0.1,0,0.1,0,0.2,0.1c0.2,0.4,0.4,0.8,0.6,1.2c0,0,0.1,0.1,0.1,0.1
					c0.1-0.2,0.2-0.4,0.3-0.6c0.1-0.2,0.2-0.5,0.3-0.7c0,0,0.1-0.1,0.1-0.1c0.1,0,0.2,0,0.2,0c0.2,0,0.4,0,0.6,0
					c0.2,0,0.2,0.1,0.1,0.3c-0.1,0.1-0.1,0.1-0.2,0.2c-0.2,0.2-0.2,0.5-0.2,0.8c0,0.3,0,0.6,0,1c0,0.2,0,0.4,0,0.6
					c0,0.2,0.1,0.3,0.2,0.4c0.2,0.2,0.3,0.1,0.5-0.1c0.1-0.1,0.1-0.2,0.1-0.3c0.1-0.6,0.3-1.1,0.4-1.7c0.1-0.3,0.1-0.5,0.2-0.8
					c0-0.1,0-0.1,0.1-0.1c0.1,0,0.2,0,0.3,0c0,0.1,0.1,0.2,0.1,0.3c0.3,0.8,0.5,1.6,0.8,2.4c0,0.2,0.1,0.3,0.1,0.5
					c0,0.1,0.1,0.3,0.2,0.4c0.1,0,0.1,0.3,0.1,0.4c0,0-0.1,0.1-0.2,0.1c-0.1,0-0.1,0-0.2-0.1C91,45,90.7,45,90.4,45
					c-0.1,0-0.2,0-0.2-0.1c0-0.1,0-0.2,0.1-0.3c0.3-0.2,0.3-0.2,0.2-0.5c0-0.1-0.1-0.2-0.1-0.3c0,0,0-0.1-0.1-0.1
					C90.3,43.6,89.9,43.6,89.7,43.7z M90.1,42.6c-0.1,0.1-0.2,0.4-0.2,0.6c0.2,0,0.2,0,0.4,0C90.2,43,90.2,42.8,90.1,42.6z"/>
				<path class="st3" d="M85.3,26.6c-0.2,0.1-0.4,0.3-0.5,0.4c-0.1,0.1-0.3,0.2-0.4,0.3c-0.1,0-0.1,0.1-0.2,0c-0.1-0.1,0-0.1,0-0.2
					c0.1-0.2,0.3-0.4,0.4-0.6c0.1-0.1,0.1-0.2,0.2-0.3c-0.1,0-0.1-0.1-0.2-0.1c-0.3-0.1-0.5-0.1-0.8-0.2c-0.1,0-0.2,0-0.3-0.2
					c0-0.1,0.1-0.1,0.2-0.2c0.3-0.1,0.6-0.1,0.9-0.2c0,0,0.1,0,0.1,0c-0.1-0.1-0.1-0.2-0.2-0.3c-0.1-0.2-0.3-0.4-0.4-0.6
					c-0.1-0.1-0.1-0.2,0-0.2c0-0.1,0.2-0.1,0.3,0c0.2,0.1,0.5,0.3,0.7,0.5c0.1,0,0.1,0.1,0.2,0.1c0-0.1,0.1-0.2,0.1-0.2
					c0.1-0.3,0.1-0.5,0.1-0.8c0,0,0-0.1,0-0.1c0,0,0.1-0.1,0.2-0.1c0.1,0,0.1,0.1,0.1,0.1c0.1,0.3,0.1,0.6,0.2,0.9
					c0,0.1,0,0.2,0.1,0.2c0.1-0.1,0.2-0.1,0.3-0.2c0.2-0.1,0.4-0.3,0.6-0.4c0,0,0,0,0.1,0c0.1,0,0.1,0,0.2,0c0.1,0.1,0,0.1,0,0.2
					c-0.1,0.2-0.2,0.3-0.3,0.5c-0.1,0.1-0.2,0.3-0.3,0.4c0.2,0,0.3,0.1,0.5,0.1c0.2,0.1,0.5,0.1,0.7,0.2c0.1,0,0.1,0,0.1,0.1
					c0,0.1,0,0.1-0.1,0.1c-0.1,0-0.2,0.1-0.2,0.1c-0.2,0-0.4,0.1-0.7,0.1c-0.1,0-0.2,0-0.2,0.2c0.2,0.2,0.3,0.5,0.5,0.7
					c0,0.1,0.1,0.1,0.1,0.2c0,0,0,0.1,0,0.2c0,0-0.1,0-0.2,0c-0.2-0.1-0.3-0.2-0.4-0.3c-0.1-0.1-0.3-0.2-0.4-0.3
					c-0.1-0.1-0.2,0-0.2,0.1c0,0.2-0.1,0.4-0.1,0.7c0,0.1,0,0.2-0.1,0.3c0,0.1-0.1,0.2-0.2,0.2c-0.1,0-0.1-0.1-0.1-0.2
					c0-0.2-0.1-0.5-0.1-0.7C85.4,26.9,85.4,26.7,85.3,26.6z M86.1,25.7c0-0.2-0.2-0.4-0.4-0.4c-0.2,0-0.4,0.2-0.4,0.4
					c0,0.2,0.1,0.4,0.4,0.4C86,26.1,86.1,25.9,86.1,25.7z"/>
				<path class="st3" d="M81.7,43.2c0.1,0.1,0.1,0.2,0.2,0.2c0.2,0.2,0.3,0.4,0.5,0.6c0.1,0.1,0.1,0.2,0.2,0.3c0,0,0.1,0.1,0.2,0.1
					c0.1,0.1,0.2,0.1,0.1,0.2c0,0.1-0.1,0.1-0.2,0.1c-0.2,0-0.5,0.1-0.7,0.1c0,0-0.1,0-0.2,0c-0.1,0-0.2-0.1-0.1-0.2
					c0.1-0.2,0-0.3-0.1-0.4c-0.2-0.3-0.4-0.6-0.6-0.8c0,0,0-0.1-0.1-0.1c-0.1-0.1-0.2-0.1-0.2,0.1c0,0.1,0,0.2,0,0.3
					c0,0.2,0,0.4-0.1,0.5c0,0.2,0,0.3,0.2,0.4c0.1,0,0.1,0.1,0.1,0.2c0,0.1-0.1,0.1-0.2,0.1c-0.3,0-0.5,0.1-0.8,0.2
					c-0.2,0.1-0.3,0.1-0.3,0c-0.1-0.1,0-0.2,0.1-0.3c0.2-0.1,0.2-0.3,0.3-0.5c0.1-0.3,0-0.6,0.1-0.8c0-0.3,0.1-0.5,0.1-0.8
					c0-0.2,0-0.5,0.1-0.7c0-0.1,0-0.3-0.2-0.4c-0.1-0.1-0.1-0.3,0.1-0.4c0.1,0,0.2,0,0.3-0.1c0.2,0,0.4,0,0.6,0c0.1,0,0.3,0,0.4,0
					c0.2,0,0.4,0,0.6,0.1c0.2,0.1,0.3,0.3,0.3,0.5c0,0.3,0,0.5-0.1,0.7c-0.1,0.1-0.1,0.2-0.2,0.3C81.9,43.1,81.8,43.2,81.7,43.2z
					 M80.8,43c0.3,0.1,0.3,0.1,0.5,0c0.1,0,0.2-0.1,0.3-0.2c0.3-0.3,0.2-0.5,0.1-0.8c0-0.1-0.1-0.1-0.2-0.1c-0.1,0-0.2,0-0.4,0
					c-0.1,0-0.1,0.1-0.2,0.2c0,0.1,0,0.2,0,0.3C80.8,42.6,80.8,42.8,80.8,43z"/>
				<path class="st3" d="M85.3,42.6c0,0.3,0,0.6-0.1,0.9c-0.1,0.4-0.4,0.8-0.7,1c-0.4,0.2-0.8,0.2-1.2-0.1c-0.3-0.3-0.4-0.6-0.5-1
					c-0.1-0.2-0.1-0.5,0-0.7c0-0.2,0-0.3,0.1-0.5c0.1-0.3,0.2-0.6,0.4-0.8c0.2-0.3,0.5-0.5,0.9-0.5c0.1,0,0.2,0,0.3,0
					c0.4,0.1,0.7,0.4,0.8,0.8C85.3,42,85.3,42.3,85.3,42.6z M84.7,42.7c0-0.3-0.1-0.6-0.1-0.9c0-0.1-0.1-0.2-0.2-0.3
					c-0.1-0.2-0.3-0.2-0.5,0c-0.3,0.2-0.4,0.6-0.5,0.9c0,0.1,0,0.1,0,0.2c-0.1,0.2-0.1,0.5,0,0.7c0,0.3,0.1,0.5,0.3,0.8
					c0.2,0.2,0.4,0.3,0.6,0c0.1-0.1,0.2-0.3,0.3-0.5C84.6,43.4,84.6,43,84.7,42.7z"/>
			</g>
		</g>
		<g>
			<path class="st1" d="M103.3,29.1c0-0.2,0-0.4-0.1-0.6c0-0.2,0-0.4-0.1-0.7l0-0.1c-0.1-0.5-0.1-1-0.2-1.6
				c-0.1-0.7-0.3-1.4-0.5-2.3c-0.2-0.7-0.4-1.4-0.6-2.1c-0.1-0.2-0.1-0.3-0.2-0.5c-0.1-0.3-0.2-0.5-0.3-0.8
				c-0.1-0.2-0.2-0.4-0.3-0.6l-0.1-0.2c-0.1-0.2-0.2-0.4-0.3-0.6c-0.1-0.2-0.2-0.4-0.3-0.6c-0.2-0.3-0.3-0.6-0.5-0.9
				c-0.2-0.3-0.3-0.6-0.5-0.9l-0.1-0.1c-0.2-0.3-0.3-0.5-0.5-0.8l-0.1-0.2c-0.3-0.4-0.6-0.9-0.9-1.3c-0.1-0.1-0.2-0.2-0.3-0.3
				c-0.2-0.3-0.5-0.6-0.7-0.8c-0.2-0.2-0.4-0.4-0.5-0.5c-0.1-0.1-0.3-0.3-0.4-0.4c-0.2-0.2-0.5-0.5-0.8-0.7L95,11.3
				c-0.3-0.3-0.7-0.5-1-0.8c-0.3-0.2-0.6-0.4-0.9-0.6l-0.4-0.2c-0.1-0.1-0.3-0.2-0.4-0.2C91.9,9.2,91.5,9,91,8.8
				c-0.6-0.3-1.2-0.5-1.9-0.7C88.5,8,88,7.9,87.6,7.8c-0.1,0-0.2,0-0.3,0c-0.1,0-0.3,0-0.4,0c-0.4,0-0.7,0-1.1,0
				c-0.5,0-0.9,0-1.4,0.1c-0.4,0-0.7,0.1-1.1,0.2l-0.1,0c-0.6,0.1-1.3,0.3-2,0.5c-0.5,0.2-1.1,0.4-1.6,0.7c-0.4,0.2-0.7,0.4-1.1,0.6
				c-0.3,0.2-0.6,0.4-1,0.7c-0.2,0.2-0.5,0.4-0.8,0.6c-0.3,0.2-0.6,0.5-0.8,0.7l-0.1,0.1c-0.2,0.2-0.4,0.3-0.5,0.5
				c-0.1,0.1-0.2,0.2-0.4,0.4c-0.2,0.2-0.3,0.3-0.5,0.5c-0.1,0.1-0.2,0.2-0.3,0.3c-0.1,0.1-0.2,0.2-0.3,0.3L73.8,14
				c-0.3,0.4-0.6,0.8-0.9,1.2l-0.2,0.3c-0.2,0.2-0.3,0.5-0.5,0.7c-0.2,0.3-0.4,0.6-0.5,0.9c-0.2,0.3-0.4,0.7-0.5,1L71,18.3
				c0,0.1-0.1,0.1-0.1,0.2c0,0.1-0.1,0.1-0.1,0.2c-0.2,0.5-0.5,1-0.7,1.6c-0.3,0.7-0.5,1.4-0.7,2.1c-0.2,0.8-0.4,1.4-0.6,2.1
				c-0.1,0.5-0.2,0.9-0.3,1.4l0,0.1c-0.1,0.3-0.1,0.6-0.2,0.9c-0.1,0.4-0.1,0.8-0.2,1.2c0,0.3,0,0.5-0.1,0.8l0,0.3
				c0,0.2,0,0.5,0,0.7c0,0.2,0,0.5,0,0.7c0,0.1,0,0.3,0,0.4l0,0.4c0,0.2,0,0.4,0,0.6l0,0.2c0,0.3,0,0.5,0,0.8c0,0.6,0.1,1.2,0.1,1.7
				c0.1,0.7,0.2,1.4,0.2,2c0.1,0.4,0.1,0.8,0.2,1.2l0,0.1c0.1,0.3,0.1,0.6,0.2,0.8l0.1,0.3c0.1,0.6,0.3,1.1,0.5,1.7
				c0.2,0.7,0.4,1.3,0.7,1.9c0.2,0.4,0.3,0.8,0.5,1.2c0.1,0.1,0.1,0.2,0.2,0.4c0.2,0.4,0.3,0.7,0.6,1.1c0.1,0.2,0.2,0.4,0.3,0.5
				c0.1,0.2,0.2,0.4,0.4,0.6c0.5,0.8,0.9,1.4,1.3,1.9c0.1,0.1,0.1,0.2,0.2,0.3c0.1,0.2,0.3,0.4,0.4,0.5c0.2,0.2,0.4,0.5,0.7,0.8
				c0.3,0.3,0.6,0.6,1,1l0.1,0.1c0.4,0.3,0.7,0.7,1.1,1c0.4,0.3,0.9,0.6,1.3,0.9c0.4,0.3,0.8,0.5,1.2,0.7c0.2,0.1,0.5,0.3,0.8,0.4
				c0.4,0.1,0.7,0.3,1.1,0.4c0.6,0.2,1.2,0.4,1.7,0.5c0.3,0.1,0.6,0.1,0.9,0.1l0.3,0c0.1,0,0.3,0,0.4,0c0.2,0,0.4,0,0.6,0l0.5,0
				c0.1,0,0.2,0,0.3,0c0.1,0,0.2,0,0.3,0c0.1,0,0.3,0,0.4,0c0.1,0,0.2,0,0.3,0c0.6,0,1.2-0.2,1.7-0.3c0.6-0.2,1.3-0.4,2-0.7
				c0.5-0.2,0.9-0.4,1.4-0.7c0.5-0.3,0.9-0.5,1.4-0.8c0.1,0,0.1-0.1,0.2-0.1c0.1,0,0.1-0.1,0.2-0.1l0.1-0.1c0.2-0.1,0.4-0.3,0.6-0.4
				c0.2-0.2,0.5-0.4,0.7-0.6l0.3-0.3c0.1-0.1,0.1-0.1,0.2-0.2c0.2-0.1,0.3-0.3,0.5-0.4c0.2-0.2,0.3-0.3,0.4-0.5l0.1-0.1
				c0.1-0.1,0.2-0.3,0.4-0.4c0.1-0.2,0.3-0.3,0.5-0.5c0.4-0.4,0.7-0.9,1-1.4l0.1-0.1c0.2-0.3,0.5-0.7,0.7-1l0.2-0.3
				c0,0,0.1-0.1,0.1-0.2l0.1-0.3c0.1-0.2,0.2-0.4,0.3-0.6c0.2-0.4,0.4-0.7,0.5-1.1c0.2-0.3,0.3-0.7,0.4-1l0.1-0.2
				c0.1-0.3,0.2-0.5,0.3-0.8c0.2-0.7,0.5-1.5,0.7-2.4c0.1-0.3,0.2-0.7,0.2-1c0-0.2,0.1-0.3,0.1-0.5c0.2-0.8,0.3-1.6,0.4-2.6
				c0.1-0.6,0.1-1.2,0.2-1.7c0-0.4,0.1-0.9,0.1-1.3c0-0.2,0-0.4,0-0.6C103.4,30.8,103.4,30,103.3,29.1z M102.7,33.1c0,0,0,0.1,0,0.1
				c0,0.2,0,0.5-0.1,0.7l-0.1,0.5c-0.1,0.5-0.1,1.1-0.2,1.6c0,0.3-0.1,0.7-0.2,1l-0.1,0.3c-0.1,0.4-0.2,0.9-0.3,1.4
				c-0.1,0.5-0.3,1-0.4,1.6c-0.1,0.4-0.3,0.9-0.4,1.4c-0.1,0.3-0.2,0.6-0.3,0.8l0,0.1c-0.2,0.4-0.4,0.9-0.6,1.3
				c-0.1,0.2-0.2,0.4-0.3,0.7c-0.1,0.2-0.2,0.4-0.3,0.5c-0.3,0.5-0.6,1-0.9,1.5c-0.1,0.1-0.2,0.3-0.3,0.4c-0.3,0.5-0.7,1-1.1,1.5
				c-0.1,0.1-0.2,0.3-0.4,0.4c-0.2,0.2-0.4,0.4-0.5,0.6c-0.2,0.3-0.5,0.5-0.7,0.7c-0.1,0.1-0.2,0.2-0.4,0.3
				c-0.1,0.1-0.3,0.2-0.4,0.3c-0.3,0.3-0.7,0.5-1,0.8l0,0c-0.5,0.3-1,0.6-1.4,0.9c-0.6,0.3-1.1,0.6-1.5,0.8
				c-0.4,0.2-0.9,0.3-1.3,0.5c-0.6,0.2-1.3,0.4-2.1,0.5c-0.2,0-0.4,0-0.6,0.1l-0.2,0c-0.2,0-0.5,0-0.7,0l-0.2,0h-0.3
				c-0.8,0-1.6-0.1-2.2-0.2c-0.5-0.1-0.9-0.2-1.3-0.3l-0.1,0c-0.3-0.1-0.6-0.2-0.9-0.4c-0.4-0.2-0.9-0.4-1.3-0.7l-0.1-0.1
				c-0.5-0.3-1-0.6-1.5-0.9c-0.3-0.2-0.6-0.5-0.9-0.7c-0.4-0.3-0.7-0.6-1-0.9c-0.2-0.2-0.4-0.4-0.6-0.6l-0.1-0.1
				c-0.2-0.2-0.5-0.5-0.7-0.7c-0.1-0.1-0.1-0.2-0.2-0.3c-0.1-0.1-0.2-0.2-0.3-0.3c-0.3-0.3-0.5-0.6-0.7-0.9l-0.1-0.1
				c-0.4-0.5-0.7-1.1-1.1-1.6c-0.3-0.4-0.5-0.9-0.8-1.5c-0.3-0.7-0.6-1.4-0.9-2.1c-0.1-0.2-0.2-0.5-0.3-0.7l0-0.1
				c-0.1-0.3-0.2-0.7-0.3-1l0-0.1c-0.2-0.6-0.3-1.2-0.5-1.8c0-0.2-0.1-0.4-0.1-0.6c-0.1-0.5-0.2-1-0.3-1.5c-0.1-0.7-0.2-1.4-0.3-2
				c-0.1-0.6-0.1-1.1-0.1-1.7c0-0.1,0-0.2,0-0.3c0-0.2,0-0.4,0-0.6c0-0.1,0-0.2,0-0.3c0-0.1,0-0.1,0-0.2c0-0.2,0-0.3,0-0.5
				c0-0.2,0-0.3,0-0.5c0-0.2,0-0.4,0-0.6l0-0.3c0-0.3,0-0.6,0.1-0.8c0.1-0.9,0.3-1.7,0.4-2.7c0.1-0.8,0.3-1.6,0.5-2.3
				c0.2-0.7,0.4-1.3,0.6-1.8c0.2-0.5,0.4-1.1,0.7-1.7c0.2-0.4,0.4-0.8,0.5-1.1c0.3-0.5,0.5-1,0.8-1.4c0.2-0.4,0.5-0.8,0.7-1.1
				c0.3-0.4,0.5-0.8,0.8-1.1c0.2-0.2,0.4-0.5,0.6-0.7l0.2-0.2c0.3-0.3,0.5-0.6,0.8-0.9c0.3-0.3,0.6-0.5,0.8-0.8l0.2-0.1
				c0.3-0.3,0.6-0.6,0.9-0.8c0.3-0.2,0.5-0.4,0.8-0.6l0.3-0.2c0.3-0.2,0.7-0.5,1.1-0.7C80,9.7,80.5,9.4,81,9.3L81.8,9
				c0.6-0.2,1-0.3,1.5-0.4c0.4-0.1,0.9-0.2,1.4-0.2c0.4,0,0.8,0,1.2,0c0,0,0,0,0,0c0.5,0,1,0.1,1.5,0.1l0.1,0c0.7,0.1,1.3,0.2,2,0.5
				c0.6,0.2,1.4,0.5,2.1,0.9c0.3,0.2,0.6,0.4,0.9,0.5l0.3,0.2c0.2,0.1,0.3,0.2,0.5,0.3l0.1,0.1c0.2,0.1,0.4,0.3,0.6,0.4
				c0.4,0.3,0.7,0.6,1.1,0.8l0.2,0.1c0,0,0.1,0.1,0.1,0.1c0,0,0.1,0.1,0.1,0.1c0.1,0.1,0.2,0.2,0.3,0.3c0.2,0.2,0.4,0.4,0.6,0.6
				c0.2,0.3,0.5,0.5,0.7,0.7c0.3,0.4,0.6,0.7,0.8,1c0.1,0.2,0.3,0.4,0.4,0.6l0.1,0.1c0.1,0.2,0.3,0.4,0.4,0.6
				c0.2,0.2,0.3,0.5,0.5,0.7c0.4,0.6,0.7,1.2,1,1.8l0.2,0.4c0.3,0.5,0.5,1.1,0.7,1.7c0.2,0.5,0.3,0.9,0.5,1.4l0.1,0.2
				c0.1,0.4,0.2,0.8,0.4,1.3c0,0.2,0.1,0.3,0.1,0.5l0.1,0.5c0.1,0.3,0.1,0.5,0.2,0.8c0,0.2,0.1,0.3,0.1,0.5l0.1,0.5
				c0,0.2,0.1,0.4,0.1,0.6c0.1,0.4,0.1,0.8,0.1,1.2c0,0.3,0.1,0.6,0.1,0.9c0,0.3,0,0.6,0,0.9c0,0.3,0,0.6,0,0.9c0,0.3,0,0.6,0,0.9
				c0,0.3,0,0.6,0,0.8C102.7,32.9,102.7,33,102.7,33.1z"/>
			<path class="st1" d="M86.8,9.5c0.3,0,0.7,0.1,1,0.1c0.2,0,0.5,0.1,0.8,0.2c0.6,0.2,1.3,0.4,2.1,0.8c0.3,0.2,0.7,0.3,1,0.5
				l0.2,0.1c0.2,0.1,0.5,0.3,0.7,0.4c0.7,0.5,1.4,1.1,2.1,1.6c0.2,0.2,0.4,0.4,0.6,0.6c0.1,0.1,0.3,0.3,0.4,0.4
				c0.1,0.1,0.1,0.2,0.2,0.2c0,0,0.1,0.1,0.1,0.1c0,0,0.1,0.1,0.1,0.1c0.2,0.3,0.5,0.6,0.7,0.9l0.1,0.1c0.2,0.2,0.4,0.5,0.5,0.7
				c0.3,0.4,0.5,0.8,0.8,1.2l0,0c0.1,0.2,0.3,0.5,0.4,0.7c0.1,0.2,0.2,0.4,0.3,0.5c0.1,0.1,0.1,0.2,0.2,0.3c0.1,0.2,0.2,0.5,0.3,0.7
				l0.1,0.3c0.1,0.2,0.1,0.3,0.2,0.5c0.1,0.4,0.1,0.8,0,1.1c0,0.1-0.1,0.3-0.2,0.4c-0.2,0.2-0.4,0.3-0.6,0.3c-0.3,0-0.5-0.1-0.6-0.3
				c-0.1-0.2-0.1-0.5,0.1-0.7c0.1-0.1,0.2-0.1,0.3-0.1c0.1,0.1,0.2,0.1,0.2,0.2c0,0,0,0.1,0,0.1l0,0.1l0.1,0c0.2,0,0.3,0,0.4-0.1
				c0.1-0.1,0.1-0.2,0.1-0.3c0-0.4-0.4-0.8-0.8-0.8c0,0,0,0,0,0c-0.4,0-0.8,0.3-0.9,0.6c-0.1,0.4,0,0.8,0.2,1.1
				c0.2,0.2,0.4,0.4,0.6,0.5c0.2,0.1,0.4,0,0.6,0l0.1,0c0.4,0,0.7-0.2,0.9-0.5c0.2-0.3,0.3-0.6,0.3-1.1c0-0.1,0-0.2,0-0.5
				c0-0.3-0.2-0.5-0.3-0.7l0-0.1c-0.2-0.5-0.5-1-0.7-1.5l-0.1-0.2c-0.1-0.2-0.2-0.4-0.3-0.6c-0.1-0.1-0.2-0.3-0.3-0.4
				c-0.3-0.5-0.7-1.1-1-1.6c-0.1-0.1-0.2-0.3-0.3-0.4c-0.1-0.2-0.3-0.4-0.4-0.5c-0.3-0.3-0.6-0.7-1-1.1c-0.4-0.4-0.9-0.8-1.4-1.2
				c-0.4-0.3-0.8-0.6-1.1-0.9l-0.1-0.1c-0.3-0.2-0.5-0.4-0.8-0.6c-0.3-0.2-0.6-0.3-0.9-0.5c-0.3-0.1-0.6-0.3-0.9-0.4
				c-0.4-0.2-0.9-0.4-1.4-0.5c-0.3-0.1-0.6-0.2-0.9-0.2l-0.1,0C87.7,9.1,87.1,9,86.5,9c-0.1,0-0.2,0-0.2,0c-0.1,0-0.1,0-0.2,0
				c-0.2,0-0.3,0-0.5,0c-0.1,0-0.3,0-0.4,0c-0.3,0-0.7,0-1,0.1c-0.2,0-0.4,0.1-0.5,0.1c-0.3,0.1-0.7,0.1-1,0.2
				c-0.4,0.1-0.9,0.3-1.4,0.5c-0.6,0.3-1.2,0.5-1.7,0.8l-0.2,0.1c-0.2,0.1-0.5,0.3-0.7,0.4c-0.3,0.2-0.6,0.4-0.8,0.6l-0.1,0.1
				c-0.2,0.1-0.3,0.3-0.5,0.4c-0.1,0.1-0.2,0.2-0.3,0.3c-0.1,0.1-0.2,0.2-0.3,0.2c-0.1,0.1-0.2,0.1-0.2,0.2
				c-0.1,0.1-0.3,0.2-0.4,0.4c-0.3,0.3-0.6,0.6-0.9,0.9c-0.1,0.1-0.2,0.2-0.3,0.3c-0.1,0.1-0.2,0.2-0.2,0.3c-0.3,0.3-0.5,0.7-0.7,1
				c-0.1,0.1-0.2,0.2-0.2,0.4c-0.2,0.2-0.3,0.5-0.5,0.8c-0.1,0.2-0.3,0.5-0.4,0.7c-0.2,0.3-0.4,0.6-0.5,0.9c0,0.1-0.1,0.2-0.1,0.3
				c-0.3,0.7-0.5,1.2-0.6,1.7c-0.1,0.3-0.1,0.6-0.1,1c0,0.3,0.1,0.6,0.3,0.8c0,0,0,0,0,0c0,0,0.1,0.1,0.1,0.1c0,0,0,0,0.1,0.1
				c0.1,0.1,0.2,0.1,0.2,0.2c0,0,0.1,0,0.1,0c0.1,0,0.2,0.1,0.3,0.1c0.1,0,0.1,0,0.2,0c0,0,0,0,0.1,0c0.1,0,0.2,0,0.3,0l0,0
				c0.1-0.1,0.2-0.1,0.3-0.2c0.1-0.1,0.3-0.2,0.4-0.4c0.2-0.3,0.1-0.6,0.1-0.9l0,0c0-0.5-0.4-0.8-0.8-0.8c-0.3,0-0.5,0.1-0.7,0.3
				c-0.2,0.2-0.2,0.5-0.2,0.8c0,0.1,0.1,0.2,0.2,0.2c0.1,0,0.2,0,0.3-0.1c0.1-0.1,0.1-0.2,0-0.3c0-0.1,0-0.1,0.1-0.2
				c0.1-0.1,0.1-0.1,0.2,0c0,0,0.1,0,0.1,0.1c0.1,0.1,0.2,0.3,0.2,0.5c0,0.2-0.2,0.4-0.4,0.5c-0.3,0.1-0.6,0.1-0.8-0.1
				c-0.2-0.2-0.4-0.5-0.3-0.8l0,0c0.1-0.4,0.1-0.9,0.3-1.3c0-0.1,0.1-0.1,0.1-0.2c0-0.1,0-0.2,0.1-0.2c0.3-0.5,0.5-1.1,0.8-1.6
				c0-0.1,0.1-0.2,0.2-0.3c0-0.1,0.1-0.1,0.1-0.2c0.1-0.1,0.1-0.2,0.2-0.3c0.1-0.2,0.2-0.4,0.3-0.5c0.2-0.4,0.5-0.8,0.8-1.2
				c0.3-0.4,0.6-0.8,0.9-1.2c0.1-0.2,0.3-0.3,0.4-0.5c0.3-0.3,0.5-0.5,0.8-0.8c0.2-0.2,0.4-0.4,0.6-0.5l0.2-0.1
				c0.2-0.2,0.4-0.3,0.6-0.5c0.3-0.2,0.7-0.5,1-0.7l0.2-0.1c0.2-0.1,0.4-0.3,0.7-0.4c0.5-0.3,1-0.5,1.5-0.7c0.8-0.3,1.5-0.5,2.2-0.6
				c0.3,0,0.6-0.1,0.9-0.1l0.2,0c0.2,0,0.4,0,0.6-0.1c0.1,0,0.3,0,0.4,0l0.3,0C86.3,9.4,86.6,9.5,86.8,9.5z"/>
			<path class="st1" d="M84.8,50.6c-0.4-0.3-0.9-0.3-1.3,0c-0.4,0.3-0.6,0.7-0.5,1.2c0.1,0.4,0.3,0.5,0.6,0.5c0.2,0,0.4-0.1,0.5-0.3
				c0.1-0.3,0.1-0.5,0-0.7c-0.1-0.1-0.2-0.2-0.4-0.1c-0.1,0-0.1,0.1-0.1,0.1c0-0.1,0.1-0.2,0.2-0.3c0.2-0.1,0.4-0.1,0.6,0
				c0.2,0.1,0.5,0.6,0.3,1l0,0.1c-0.1,0.2-0.1,0.3-0.3,0.4l-0.1,0c-0.2,0.1-0.3,0.1-0.5,0.2c-0.4,0.1-0.7,0.1-1.1,0.1l-0.1,0
				c-0.3,0-0.5-0.1-0.8-0.1c-0.4-0.1-0.8-0.3-1.1-0.5l-0.2-0.1c-0.3-0.1-0.5-0.2-0.7-0.3c-0.2-0.1-0.4-0.3-0.6-0.4
				c-0.2-0.1-0.3-0.2-0.5-0.3c-0.4-0.3-0.9-0.6-1.4-1.1c-0.2-0.1-0.3-0.3-0.5-0.4l-0.2-0.1c-0.1,0-0.1-0.1-0.2-0.1
				c-0.1-0.1-0.3-0.2-0.4-0.4c-0.1-0.1-0.2-0.2-0.2-0.3c0-0.1-0.1-0.1-0.1-0.2c-0.1-0.1-0.2-0.3-0.3-0.4c-0.2-0.3-0.5-0.5-0.7-0.8
				c-0.4-0.5-0.7-1-1-1.4l0,0c-0.3-0.5-0.6-1-0.9-1.5c-0.1-0.2-0.2-0.3-0.2-0.5c-0.1-0.2-0.2-0.4-0.3-0.6c-0.3-0.6-0.5-1-0.6-1.4
				c-0.2-0.4-0.3-0.8-0.4-1.2C71.1,40.3,71,40,71,39.8l-0.1-0.4c-0.1-0.3-0.2-0.6-0.2-0.9c-0.1-0.5-0.2-1.1-0.3-1.7
				c-0.1-0.4-0.1-0.8-0.2-1.4c0-0.4-0.1-0.8-0.1-1.2c0-0.5-0.1-1-0.1-1.5c0-0.2,0-0.4,0-0.6l0-0.3c0-0.2,0-0.3,0-0.5
				c0-0.4,0-0.7,0.1-1.1l0-0.3c0-0.1,0-0.3,0-0.4c0-0.1,0-0.1,0-0.2c0-0.1,0-0.2,0-0.3c0-0.1,0-0.1,0-0.2c0-0.1,0-0.1,0-0.2
				c0-0.1,0-0.2,0-0.3c0-0.1,0-0.2,0-0.3c0-0.5,0.1-1.1,0.3-1.7c0.1-0.4,0.2-0.9,0.4-1.3c0.1-0.3,0.3-0.5,0.6-0.8
				c0.3-0.2,0.6-0.2,0.9,0c0.1,0.1,0.2,0.2,0.2,0.3c0.1,0.4-0.1,0.7-0.3,0.8c-0.1,0.1-0.2,0.1-0.3,0.1c-0.1,0-0.2-0.1-0.2-0.2
				c0-0.1,0-0.1,0-0.2c0.1-0.1,0.2-0.3,0.1-0.4c-0.1-0.1-0.3-0.1-0.4-0.1c0,0,0,0-0.1,0c-0.1,0.1-0.2,0.2-0.2,0.4c0,0.1,0,0.1,0,0.2
				c0,0,0,0.1,0,0.1c0,0.3,0.1,0.5,0.4,0.7c0.3,0.2,0.8,0.2,1.1-0.1c0.1-0.1,0.2-0.3,0.3-0.4c0.1-0.2,0.1-0.5,0-0.8
				c0-0.1-0.1-0.3-0.2-0.4c-0.2-0.3-0.5-0.4-0.8-0.5c-0.2,0-0.4,0-0.6,0.1c-0.2,0.1-0.4,0.3-0.6,0.5c-0.1,0.1-0.2,0.3-0.3,0.4
				c-0.2,0.4-0.3,0.7-0.4,1c-0.1,0.5-0.2,0.9-0.3,1.4c0,0.2-0.1,0.5-0.1,0.7l0,0.2c0,0.2,0,0.3,0,0.5c0,0.5-0.1,0.9-0.1,1.4
				c0,0.6,0,1.3,0,1.9c0,0.4,0,0.8,0,1.1l0,0.3c0,0.2,0,0.4,0,0.7c0,0.2,0,0.3,0,0.5c0,0.1,0,0.3,0,0.4c0,0.1,0,0.2,0,0.3
				c0,0.1,0,0.3,0,0.5c0,0.1,0,0.3,0.1,0.4c0,0.2,0.1,0.3,0.1,0.5c0.1,0.7,0.2,1.5,0.4,2.1c0.2,0.8,0.4,1.5,0.6,2.2
				c0.2,0.6,0.3,1.1,0.5,1.5c0.2,0.4,0.4,0.8,0.5,1.2c0.1,0.2,0.2,0.3,0.2,0.5c0,0,0,0.1,0.1,0.1c0,0,0,0.1,0,0.1
				c0.3,0.6,0.5,1,0.8,1.4c0.1,0.2,0.2,0.3,0.3,0.5c0.2,0.3,0.3,0.5,0.5,0.8c0.2,0.3,0.5,0.6,0.7,0.9l0,0.1c0.1,0.2,0.3,0.3,0.4,0.5
				l0.2,0.2c0.2,0.3,0.4,0.5,0.7,0.8c0.2,0.2,0.3,0.3,0.5,0.5l0.1,0.1c0.2,0.2,0.5,0.4,0.7,0.7l0.1,0.1c0.2,0.2,0.4,0.3,0.6,0.5
				c0.3,0.2,0.8,0.5,1.2,0.8c0.4,0.3,0.8,0.5,1.2,0.7c0.4,0.2,0.8,0.4,1.3,0.5c0.3,0.1,0.5,0.2,0.8,0.2c0.3,0,0.5,0,0.8,0
				c0,0,0,0,0.1,0c0.5,0,0.9-0.1,1.4-0.3c0.2-0.1,0.4-0.2,0.5-0.4c0.3-0.4,0.4-0.8,0.3-1.3C85.2,50.9,85,50.7,84.8,50.6z"/>
			<path class="st1" d="M101.9,28.1c-0.1-0.6-0.2-1.3-0.3-1.9c-0.1-0.4-0.1-0.7-0.2-1.1l-0.1-0.4c0-0.1,0-0.1-0.1-0.2
				c-0.2-0.3-0.4-0.5-0.6-0.7c-0.3-0.2-0.6-0.3-0.9-0.3c-0.1,0-0.1,0-0.2,0c0,0-0.1,0-0.1,0c-0.5,0.1-0.8,0.4-0.9,0.9
				c-0.1,0.5,0,0.9,0.3,1.2c0.2,0.2,0.7,0.3,1,0.2c0.5-0.3,0.6-0.7,0.4-1.2c0-0.1-0.1-0.1-0.1-0.2c-0.1-0.1-0.2-0.1-0.3-0.1
				c-0.1,0-0.2,0-0.2,0.1c0,0.1-0.1,0.2,0.1,0.4l0,0l0,0.1c0,0.1,0,0.2-0.1,0.3c-0.1,0.1-0.2,0.1-0.3,0.1C99.2,25.2,99,25,99,24.7
				c0-0.1,0-0.2,0-0.3c0.1-0.2,0.3-0.3,0.4-0.4c0.2-0.1,0.3-0.1,0.4-0.1c0.4,0,0.6,0.2,0.9,0.6c0.2,0.2,0.2,0.5,0.3,0.7
				c0,0.2,0.1,0.4,0.1,0.6c0.1,0.2,0.1,0.5,0.1,0.7c0.1,0.5,0.1,1,0.2,1.5l0,0.3c0,0.3,0.1,0.5,0.1,0.8c0,0.1,0,0.2,0,0.3
				c0,0.2,0,0.4,0,0.7c0,0.2,0,0.4,0,0.5c0,0.1,0,0.1,0,0.2c0,0.1,0,0.1,0,0.2c0,0.1,0,0.2,0,0.3c0,0.1,0,0.2,0,0.4
				c0,0.1,0,0.2,0,0.4c0,0.2,0,0.4,0,0.5c0,0.3,0,0.5,0,0.8c0,0.2,0,0.4-0.1,0.5c0,0.2,0,0.4-0.1,0.6c0,0.4-0.1,0.8-0.1,1.2
				c0,0.2-0.1,0.4-0.1,0.6c0,0.3-0.1,0.6-0.2,0.9c0,0.1,0,0.2-0.1,0.3l0,0.2c-0.1,0.4-0.2,0.7-0.2,1.1c-0.1,0.3-0.2,0.7-0.3,1
				l-0.1,0.4c0,0.1,0,0.1-0.1,0.2l-0.2,0.5c-0.2,0.4-0.3,0.9-0.5,1.3c-0.1,0.4-0.3,0.7-0.5,1.1c-0.1,0.2-0.3,0.5-0.4,0.7l-0.1,0.2
				c-0.2,0.4-0.5,0.8-0.7,1.2c-0.1,0.2-0.3,0.5-0.4,0.7l-0.1,0.2c-0.2,0.3-0.4,0.5-0.6,0.8c-0.4,0.5-0.8,1-1.1,1.4
				c-0.2,0.3-0.4,0.5-0.6,0.7c-0.3,0.3-0.6,0.6-1,0.8L93.9,50c-0.4,0.4-0.9,0.7-1.4,1.1c-0.4,0.3-0.8,0.5-1.2,0.7
				c-0.3,0.2-0.7,0.3-1,0.5l-0.1,0c-0.1,0.1-0.3,0.1-0.4,0.1c-0.2,0-0.3,0.1-0.5,0.1c-0.1,0-0.2,0-0.3,0.1c-0.3,0.1-0.7,0.1-1.1,0.1
				c-0.3,0-0.6-0.1-0.9-0.2c-0.3-0.1-0.4-0.2-0.6-0.5c-0.2-0.4,0.1-0.9,0.3-1c0.1-0.1,0.2-0.1,0.3-0.1c0.1,0,0.3,0.1,0.4,0.2
				c0,0,0,0.1,0.1,0.1c0,0,0,0-0.1-0.1c-0.1-0.1-0.3-0.1-0.4,0.1c-0.2,0.2-0.2,0.5,0,0.7c0.2,0.2,0.4,0.3,0.6,0.2
				c0.2-0.1,0.5-0.2,0.5-0.6c0-0.1,0-0.2,0-0.4c-0.1-0.3-0.2-0.5-0.4-0.7c-0.1-0.1-0.3-0.2-0.5-0.2c-0.5-0.1-0.8,0.1-1.1,0.4
				c-0.2,0.3-0.3,0.7-0.3,1.2c0,0,0,0,0,0.1c0,0.1,0,0.2,0.1,0.2c0.2,0.4,0.5,0.7,0.9,0.8l0.1,0c0.1,0,0.2,0.1,0.3,0.1
				c0.3,0.1,0.5,0.1,0.9,0.1c0.1,0,0.2,0,0.4,0c0.4-0.1,0.8-0.2,1.2-0.2c0.1,0,0.3-0.1,0.4-0.1c0.1-0.1,0.3-0.1,0.4-0.2
				c0.1-0.1,0.3-0.1,0.4-0.2c0.6-0.2,1.1-0.6,1.5-0.8c0.3-0.2,0.5-0.4,0.8-0.6c0.4-0.3,0.9-0.7,1.3-1c0.1-0.1,0.2-0.2,0.2-0.2
				c0.1-0.1,0.2-0.2,0.3-0.3c0.3-0.2,0.5-0.4,0.7-0.7c0.1-0.1,0.2-0.2,0.3-0.3c0.2-0.2,0.3-0.4,0.5-0.5c0.1-0.1,0.1-0.2,0.2-0.2
				c0.1-0.1,0.1-0.1,0.2-0.2c0.1-0.1,0.2-0.3,0.4-0.4c0.2-0.2,0.3-0.4,0.5-0.7l0.1-0.1c0.1-0.1,0.2-0.3,0.3-0.4
				c0.1-0.2,0.2-0.4,0.3-0.5l0.1-0.1c0.1-0.1,0.2-0.3,0.2-0.4c0.2-0.3,0.4-0.7,0.6-1c0.3-0.5,0.5-1,0.7-1.6c0.2-0.5,0.4-1.1,0.7-1.8
				c0.1-0.3,0.2-0.7,0.3-1l0-0.1c0.1-0.4,0.2-0.8,0.3-1.2c0.1-0.5,0.2-0.9,0.3-1.3c0-0.1,0-0.3,0.1-0.4c0-0.1,0-0.1,0-0.2l0-0.3
				c0-0.2,0.1-0.4,0.1-0.7c0-0.2,0-0.3,0-0.5c0-0.1,0-0.2,0-0.3c0-0.1,0-0.2,0-0.4c0-0.2,0.1-0.5,0.1-0.7c0-0.4,0-0.8,0-1.2V32
				c0-0.8,0-1.6,0-2.4C102.1,29,102,28.5,101.9,28.1z M99.9,24.8C99.9,24.8,99.9,24.8,99.9,24.8L99.9,24.8L99.9,24.8L99.9,24.8z"/>
		</g>
		<g>
			<path class="st3" d="M74.1,35.3c0-0.1,0-0.1,0-0.2c0-0.2,0.1-0.4,0.2-0.6c0.2-0.2,0.4-0.3,0.7-0.4c0,0,0.1,0,0.1,0c0,0,0,0,0,0
				c0-0.1,0-0.1-0.1-0.2c-0.1-0.2-0.1-0.4,0-0.7c0.1-0.2,0.2-0.4,0.4-0.6c0.1-0.1,0.1-0.1,0.1-0.2c0-0.4,0.2-0.7,0.5-0.9
				c0.1-0.1,0.2-0.1,0.3-0.1c0.2-0.1,0.5-0.1,0.7-0.1c0.1,0,0.1,0.1,0.1,0.2c0,0.1,0,0.1-0.1,0.2c-0.2,0.2-0.2,0.5-0.3,0.8
				c-0.2,0.6,0,1.1,0.2,1.6c0.2,0.3,0.4,0.6,0.7,0.9c0.4,0.3,0.5,0.8,0.4,1.3c0,0.1,0,0.2-0.1,0.3c0.2,0,0.3,0.1,0.5,0.1
				c0.3,0.1,0.6,0.3,0.7,0.6c0.2,0.3,0.3,0.6,0.3,0.9c0,0.1,0,0.1,0.1,0.2c0.1-0.1,0.1-0.2,0.1-0.3c0.1-0.4,0.2-0.8,0.2-1.2
				c0.1-0.5,0.2-0.9,0.2-1.4c0.1-0.4,0.2-0.9,0.3-1.3c0.1-0.4,0.2-0.9,0.3-1.3c0-0.1,0-0.2,0.1-0.2c0.1-0.3,0.1-0.7,0-1
				c-0.1-0.3-0.2-0.5-0.4-0.8c0,0-0.1-0.1-0.1-0.1c-0.2,0.1-0.5,0.1-0.7,0.1c-0.2,0-0.4-0.2-0.5-0.4c0-0.1-0.1-0.3-0.1-0.4
				c0,0,0,0-0.1,0C78.8,30,78.6,30,78.4,30c-0.2,0-0.4-0.1-0.6-0.2c-0.2-0.2-0.4-0.3-0.7-0.4c-0.3-0.1-0.7-0.2-1-0.1
				c-0.4,0.1-0.7,0.2-1,0.4c0,0-0.1,0-0.1,0.1c-0.1,0.1-0.2,0-0.2-0.1c0-0.4,0.1-0.8,0.3-1.1c0.1-0.1,0.3-0.2,0.4-0.3
				c0.1-0.1,0.1-0.1,0.1-0.3c0-0.6,0.6-1,1-0.9c0,0,0.1,0,0.1,0c0-0.2,0-0.3,0.1-0.5c0.1-0.3,0.2-0.6,0.4-0.9c0.2-0.4,0.6-0.6,1-0.8
				c0.1-0.1,0.3-0.1,0.5-0.1c0.1,0,0.2,0.1,0.1,0.2c-0.1,0.2-0.2,0.3-0.2,0.5c-0.2,0.6-0.2,1.1,0,1.7c0.1,0.2,0.2,0.4,0.3,0.6
				c0.1,0.1,0.2,0.2,0.3,0.4c0.2,0.2,0.4,0.5,0.3,0.8c0,0.1,0,0.2,0,0.2c0.1,0,0.1,0,0.1,0c0.4-0.1,0.8,0.1,1,0.5
				c0.1,0.2,0.2,0.4,0.3,0.6c0.1,0.1,0.1,0.3,0.1,0.5c0,0.1,0,0.1,0,0.2c0,0,0,0,0,0c0-0.1,0.1-0.1,0.1-0.2c0.1-0.4,0.2-0.8,0.3-1.3
				c0.1-0.6,0.3-1.1,0.4-1.7c0.1-0.4,0.2-0.9,0.3-1.3c0.1-0.2,0.1-0.4,0.2-0.6c0.1-0.3,0-0.5-0.1-0.7c0-0.1-0.1-0.2-0.2-0.4
				c0-0.1-0.1-0.1-0.2-0.1c-0.2,0-0.4,0-0.5-0.1c-0.1,0-0.1-0.1-0.2-0.1c-0.1-0.1-0.2-0.2-0.3-0.3c-0.1-0.2-0.1-0.4-0.1-0.6
				c0,0,0-0.1,0-0.2c-0.1,0-0.1,0-0.2,0c-0.3,0-0.6-0.1-0.8-0.3c-0.2-0.2-0.4-0.4-0.6-0.5c-0.2-0.1-0.3-0.2-0.5-0.2
				c-0.4-0.1-0.7-0.1-1.1,0.1c-0.2,0.1-0.4,0.2-0.5,0.3c0,0-0.1,0.1-0.1,0.1c-0.1,0.1-0.2,0-0.2-0.1c0-0.4,0.1-0.8,0.4-1.2
				c0.1-0.2,0.3-0.3,0.5-0.4c0.1,0,0.2-0.1,0.2-0.2c0-0.1,0.1-0.2,0.3-0.3c0.4-0.2,0.8-0.2,1.2-0.1c0,0,0.1,0,0.1,0
				c0-0.1,0-0.1,0-0.2c0-0.1,0-0.2-0.1-0.3c-0.1-0.4,0-0.8,0.4-0.9c0.1,0,0.1-0.1,0.2-0.1c0.1,0,0.2-0.1,0.2-0.2
				c0.1-0.5,0.5-0.6,0.9-0.7c0.1,0,0.2,0,0.3,0.2c-0.1,0.1-0.1,0.2-0.2,0.3c-0.2,0.3-0.3,0.7-0.3,1.1c0,0.3,0.1,0.6,0.2,0.9
				c0.2,0.3,0.3,0.7,0.4,1c0.1,0.3,0.1,0.6,0,0.9c0,0,0,0.1,0,0.2c0,0,0.1,0,0.1,0c0.4,0,0.6,0.2,0.7,0.5c0.2,0.4,0.4,0.8,0.4,1.2
				c0,0,0,0.1,0,0.1c0.1-0.1,0.2-0.2,0.2-0.3c0.2-0.3,0.3-0.7,0.5-1c0.2-0.4,0.5-0.8,0.8-1.1c0.2-0.2,0.3-0.4,0.5-0.6
				c0.2-0.1,0.2-0.3,0.2-0.5c0-0.4,0-0.7,0-1.1c0-0.1,0-0.1,0-0.2c-0.1,0-0.2-0.1-0.3-0.1c-0.2,0-0.4-0.2-0.6-0.3
				c-0.2-0.2-0.2-0.7,0-0.8c0.2-0.1,0.3-0.2,0.5-0.3c0.1,0,0.2-0.1,0.3-0.1c0,0-0.1-0.1-0.1-0.1c-0.2-0.2-0.5-0.4-0.6-0.7
				c-0.1-0.2-0.1-0.4-0.1-0.6c-0.1-0.6-0.4-1-0.8-1.3c-0.5-0.3-1-0.4-1.5-0.3c-0.1,0-0.1,0-0.2,0c-0.1,0-0.2-0.1-0.1-0.2
				c0.1-0.1,0.2-0.2,0.4-0.3c0.2-0.2,0.5-0.3,0.8-0.4c0,0,0.1,0,0.1-0.1c0.2-0.2,0.5-0.2,0.7-0.3c0.2,0,0.2,0,0.2-0.2
				c0-0.3,0.2-0.5,0.4-0.8c0.1-0.1,0.1-0.1,0.2-0.2c0.1-0.1,0.2-0.2,0.3-0.4c0-0.1,0.1-0.2,0.1-0.4c0.1-0.3,0.5-0.5,0.9-0.5
				c0.1,0,0.3,0.1,0.4,0.2c0.4,0.3,0.6,0.7,0.5,1.2c0,0.1,0,0.2,0.2,0.3c0.3,0.1,0.5,0.4,0.6,0.7c0,0.1,0,0.2,0.1,0.3
				c0.1,0,0.1,0,0.2,0c0.3-0.1,0.6-0.1,0.9,0c0.4,0.1,0.6,0.4,0.8,0.7c0.1,0.1,0,0.2-0.1,0.2c-0.1,0-0.3,0-0.4,0.1
				c-0.4,0.1-0.8,0.3-1.1,0.6c-0.4,0.4-0.6,0.9-0.6,1.4c0,0.4-0.2,0.7-0.5,0.9c-0.1,0.1-0.2,0.1-0.3,0.2c0.1,0.1,0.2,0.1,0.4,0.2
				c0.2,0.1,0.3,0.2,0.4,0.3c0.2,0.3,0.1,0.6-0.2,0.8c-0.2,0.1-0.4,0.2-0.6,0.3c-0.2,0-0.2,0.1-0.2,0.3c0,0.4,0,0.8,0,1.1
				c0,0.1,0,0.1,0,0.2c0,0.2,0,0.3,0.2,0.4c0,0,0.1,0,0.1,0.1c0.5,0.6,1,1.2,1.4,1.9c0.1,0.2,0.3,0.5,0.4,0.7c0,0.1,0.1,0.1,0.1,0.2
				c0-0.1,0.1-0.1,0.1-0.1c0-0.1,0.1-0.2,0.1-0.3c0.1-0.3,0.2-0.5,0.4-0.7c0.2-0.2,0.4-0.4,0.7-0.4c0,0,0,0,0.1,0c0,0,0,0,0,0
				c0-0.1-0.1-0.2-0.1-0.4c0-0.2,0-0.4,0.1-0.6c0.1-0.3,0.2-0.5,0.3-0.8c0.2-0.4,0.3-0.8,0.3-1.2c0-0.4-0.1-0.7-0.3-1
				c0-0.1-0.1-0.1-0.1-0.2c0-0.1,0-0.2,0.1-0.2c0.3,0,0.5,0.1,0.7,0.3c0.1,0.1,0.3,0.3,0.4,0.5c0,0,0.1,0.1,0.1,0.1
				c0.2,0,0.4,0.1,0.5,0.3c0.1,0.2,0.2,0.4,0.1,0.7c0,0.1-0.1,0.2-0.1,0.3c0,0,0,0.1,0,0.1c0.1,0,0.1,0,0.2,0c0.4-0.1,0.7,0,1,0.1
				c0.1,0.1,0.3,0.2,0.3,0.3c0,0.1,0.1,0.1,0.1,0.2c0.3,0.1,0.5,0.3,0.7,0.5c0.1,0.2,0.2,0.4,0.3,0.6c0,0.1,0,0.3,0,0.4
				c0,0,0,0.1-0.1,0.1c0,0-0.1,0-0.1,0c-0.1,0-0.1-0.1-0.2-0.1c-0.4-0.4-0.9-0.5-1.4-0.4c-0.3,0-0.6,0.1-0.9,0.4
				c-0.1,0.1-0.2,0.2-0.2,0.3c-0.3,0.4-0.7,0.6-1.2,0.5c0,0,0,0,0,0c0,0.1,0,0.3-0.1,0.4c-0.1,0.4-0.4,0.6-0.8,0.5
				c-0.1,0-0.3-0.1-0.4-0.1c-0.1,0.1-0.2,0.3-0.2,0.5c-0.1,0.5,0,0.9,0.1,1.3c0.2,0.6,0.3,1.2,0.4,1.8c0.1,0.4,0.2,0.8,0.3,1.2
				c0.1,0.4,0.1,0.8,0.2,1.2c0,0.2,0,0.3,0.2,0.5c0.1-0.3,0.2-0.6,0.4-0.9c0.1-0.2,0.2-0.3,0.3-0.5c0.1-0.1,0.2-0.2,0.4-0.3
				c0.2,0,0.4-0.1,0.6-0.1c0,0,0,0,0-0.1c-0.1-0.5,0-1,0.4-1.3c0.3-0.2,0.5-0.5,0.6-0.8c0.2-0.4,0.3-0.9,0.2-1.3
				c0-0.3-0.2-0.6-0.3-0.9c-0.1-0.2,0-0.2,0.2-0.2c0.3,0,0.6,0.1,0.8,0.3c0.3,0.2,0.5,0.5,0.7,0.8c0.1,0.2,0.2,0.4,0.2,0.7
				c0,0.1,0,0.3,0,0.4c0,0,0,0,0,0c0.3,0,0.5,0.2,0.6,0.4c0.1,0.1,0.1,0.2,0.1,0.3c0,0,0,0.1,0,0.1c0,0.2,0.1,0.3,0.3,0.4
				c0.4,0.2,0.7,0.6,0.8,1.1c0,0.2,0,0.3,0,0.5c0,0.2-0.1,0.2-0.3,0.1c-0.1-0.1-0.3-0.2-0.4-0.3c-0.5-0.3-0.9-0.3-1.5-0.2
				c-0.3,0.1-0.5,0.2-0.8,0.3c-0.3,0.2-0.7,0.3-1,0.3c0,0-0.1,0-0.1,0c0,0,0,0-0.1,0c0.1,0.4,0,0.8-0.4,1C91.7,31,91.3,31,91,30.7
				c0,0,0,0-0.1,0c-0.1,0.2-0.2,0.4-0.3,0.7c0,0.2-0.1,0.4-0.1,0.6c-0.1,0.3,0,0.6,0.1,0.9c0.1,0.4,0.1,0.8,0.2,1.3
				c0.1,0.3,0.1,0.7,0.2,1c0.1,0.5,0.2,1,0.3,1.5c0.1,0.4,0.2,0.9,0.2,1.3c0,0.1,0.1,0.2,0.1,0.3c0,0,0,0,0,0c0-0.1,0.1-0.2,0.1-0.3
				c0.2-0.6,0.5-0.9,1-1.2c0.1-0.1,0.3,0,0.5,0c0.1,0,0.1,0,0.2,0c0-0.1,0-0.1-0.1-0.1c-0.2-0.3-0.3-0.7-0.2-1.1
				c0.1-0.2,0.1-0.3,0.1-0.5c0.1-0.2,0.2-0.4,0.4-0.6c0.3-0.4,0.5-0.8,0.6-1.2c0.1-0.3,0.2-0.6,0.1-0.9c-0.1-0.3-0.2-0.6-0.2-0.9
				c0-0.2,0-0.2,0.2-0.2c0.1,0,0.3,0,0.4,0.1c0.7,0.2,1.1,0.7,1.2,1.4c0.1,0.3,0,0.5,0,0.8c0,0.3-0.1,0.5-0.2,0.7c0,0,0,0,0,0.1
				c0.1,0,0.1,0,0.2,0c0.2,0,0.4,0,0.6,0.1c0.3,0.1,0.5,0.4,0.5,0.7c0,0,0,0.1,0,0.1c0,0,0.1,0,0.1,0.1c0.2,0.1,0.3,0.2,0.5,0.3
				c0.2,0.2,0.3,0.4,0.4,0.7c0.1,0.2,0.1,0.5,0,0.7c-0.1,0.2-0.2,0.2-0.3,0.1c-0.2-0.2-0.3-0.3-0.5-0.4c-0.4-0.2-0.9-0.3-1.4-0.1
				c-0.3,0.1-0.5,0.3-0.7,0.4c-0.4,0.3-0.8,0.3-1.3,0.2c0,0,0,0-0.1,0c0,0.1,0,0.1,0.1,0.2c0.2,0.4,0,0.8-0.2,1
				c-0.3,0.2-0.7,0.2-0.9-0.2c0,0,0-0.1,0-0.1c-0.1,0-0.1,0-0.2,0.1c-0.2,0.2-0.4,0.5-0.5,0.8C92,39,92,39.3,91.9,39.6
				c0,0.3,0,0.5,0.1,0.8c0.1,0.4,0.2,0.9,0.2,1.3c0.1,0.6,0.2,1.2,0.3,1.8c0.1,0.4,0.1,0.7,0.1,1.1c0.1,0.6,0.2,1.2,0.3,1.8
				c0,0.2,0,0.3,0,0.5c0,0.2-0.2,0.4-0.4,0.4c-0.2,0-0.4,0-0.6,0.1c-0.2,0-0.4,0-0.6,0.1c-0.5,0.1-1,0.1-1.5,0.2c-0.1,0-0.3,0-0.5,0
				c-0.5,0-1,0.1-1.5,0.1c-0.5,0-0.9,0-1.4,0c-0.5,0-0.9,0-1.4,0c-0.2,0-0.3,0-0.5,0c-0.5,0-0.9,0-1.4-0.1c-0.6,0-1.1-0.1-1.7-0.1
				c-0.4,0-0.9-0.1-1.3-0.1c-0.5-0.1-1-0.1-1.5-0.2c-0.1,0-0.1,0-0.2,0c-0.1,0-0.2-0.1-0.2-0.3c0-0.1,0-0.2,0-0.2
				c0.1-0.5,0.1-1,0.2-1.6c0.1-0.6,0.2-1.2,0.3-1.8c0-0.3,0.1-0.6,0.1-0.9c0.1-0.4,0.1-0.8,0.2-1.2c0-0.2,0-0.3,0.1-0.5
				c0-0.4,0-0.8-0.1-1.3c0-0.2-0.1-0.5-0.1-0.7c0-0.2-0.1-0.3-0.2-0.5c-0.1,0-0.2,0.1-0.2,0.1c-0.3,0.1-0.6,0.1-0.9-0.1
				c-0.3-0.2-0.4-0.5-0.4-0.8c0-0.1,0-0.2,0-0.3c0,0-0.1,0-0.1,0c-0.3,0.1-0.6,0-0.9-0.2c-0.4-0.2-0.8-0.4-1.2-0.4
				c-0.3,0-0.6,0-0.9,0.1c-0.4,0.1-0.8,0.4-1.1,0.7c-0.1,0.1-0.2,0.1-0.3,0.1c-0.1-0.5,0-1,0.2-1.4C73.3,35.7,73.6,35.4,74.1,35.3z
				 M92.2,46.3c0-0.1,0-0.2,0-0.2c0-0.4-0.1-0.8-0.1-1.2c0-0.3-0.1-0.5-0.1-0.8c0-0.3-0.1-0.6-0.1-0.9c0-0.3-0.1-0.6-0.1-1
				c0-0.3-0.1-0.6-0.1-0.9c-0.1-0.7-0.2-1.3-0.3-2c-0.1-0.3-0.1-0.7-0.2-1c-0.1-0.3-0.1-0.6-0.2-0.9c-0.1-0.3-0.1-0.7-0.2-1
				c-0.1-0.3-0.1-0.6-0.2-0.9c0-0.3-0.1-0.5-0.2-0.8c-0.1-0.4-0.1-0.8-0.2-1.2c-0.1-0.6-0.2-1.3-0.4-1.9c0-0.2-0.1-0.3-0.1-0.5
				c0-0.2-0.1-0.4-0.1-0.6c-0.1-0.3-0.1-0.5-0.2-0.8c-0.1-0.4-0.1-0.8-0.2-1.2c-0.1-0.5-0.2-1-0.3-1.6c-0.1-0.5-0.3-1-0.5-1.5
				c-0.3-0.7-0.6-1.5-1-2.1c-0.2-0.3-0.3-0.5-0.5-0.7c-0.2-0.3-0.4-0.5-0.6-0.8c-0.1-0.1-0.2-0.2-0.3-0.3c-0.1-0.1-0.1-0.1-0.1-0.2
				c0-0.5,0-0.9,0-1.4c0-0.1,0-0.1,0-0.2c0-0.1,0-0.1-0.2-0.1c-0.1,0-0.1,0-0.2,0.1c0,0.2,0,0.3,0,0.5c0,0.3,0,0.7,0,1
				c0,0.1,0,0.2-0.2,0.3c-0.1,0-0.2,0.1-0.2,0.2c-0.3,0.4-0.6,0.8-0.9,1.2c-0.1,0.2-0.3,0.4-0.4,0.6c-0.1,0.1-0.2,0.3-0.3,0.5
				c-0.3,0.5-0.5,1-0.7,1.5c-0.2,0.5-0.4,1.1-0.5,1.6c-0.2,0.8-0.4,1.5-0.5,2.2c-0.2,0.9-0.4,1.7-0.6,2.6c-0.1,0.3-0.1,0.7-0.2,1
				c-0.1,0.4-0.1,0.8-0.2,1.1c-0.1,0.5-0.2,1-0.3,1.6c-0.1,0.3-0.1,0.7-0.2,1c-0.1,0.7-0.3,1.4-0.4,2c-0.1,0.4-0.2,0.9-0.2,1.3
				c-0.1,0.3-0.1,0.6-0.2,0.9c-0.1,0.5-0.2,1.1-0.3,1.6c-0.1,0.3-0.1,0.7-0.2,1c-0.1,0.5-0.1,1-0.2,1.5c-0.1,0.4-0.1,0.8-0.2,1.2
				c0,0.2,0,0.2,0.2,0.2c0.7-0.1,1.4-0.2,2.2-0.3c0.6-0.1,1.2-0.1,1.8-0.2c0.2,0,0.5,0,0.7,0c0.3,0,0.6-0.1,1-0.1c0.5,0,1.1,0,1.6,0
				c0.5,0,1.1,0,1.6,0c0.4,0,0.8,0,1.2,0c0.3,0,0.5,0,0.8,0.1c0.1,0,0.2,0,0.2,0c0.1,0,0.1,0,0.2,0c0.1,0,0.3,0,0.4,0.1
				c0.4,0.1,0.8,0.1,1.2,0.2C91.9,46.4,92,46.3,92.2,46.3z M89,14.7C89,14.6,89,14.6,89,14.7c-0.4-0.4-0.9-0.5-1.4-0.2
				c-0.2,0.1-0.4,0.2-0.6,0.1c0,0-0.1,0-0.1,0c-0.5,0.1-0.9,0.3-1.1,0.8c-0.1,0.1-0.1,0.2,0,0.3c0.1,0.1,0.1,0.3,0.2,0.4
				c0,0.3,0,0.6-0.2,0.8c-0.1,0.1-0.2,0.1-0.3,0c-0.1-0.1-0.1-0.2-0.1-0.4c-0.1-0.2,0-0.5,0-0.7c0.1-0.2,0-0.3-0.1-0.5
				c0,0-0.1-0.1-0.1-0.1c-0.2-0.2-0.4-0.4-0.6-0.5c-0.4-0.3-0.8-0.4-1.2-0.4c-0.4,0-0.8,0.2-1.2,0.4c-0.1,0.1-0.2,0.1-0.2,0.2
				c0.1,0,0.2,0.1,0.3,0.1c0.6,0,1,0.3,1.5,0.7c0.4,0.3,0.5,0.8,0.6,1.3c0,0.2,0.1,0.5,0.2,0.7c0.3,0.5,0.9,0.8,1.5,0.5
				c0.2-0.1,0.4-0.3,0.5-0.5c0.1-0.2,0.1-0.4,0.1-0.6c0-0.4,0.1-0.8,0.3-1.1c0.2-0.2,0.4-0.5,0.6-0.6c0.2-0.1,0.3-0.2,0.5-0.3
				C88.5,14.8,88.8,14.7,89,14.7z M94.5,31.4c0,0.1,0.1,0.3,0.1,0.4c0.1,0.3,0.1,0.5,0.1,0.8c0,0.1,0,0.2,0,0.3c0,0.1,0,0.2-0.1,0.3
				c-0.1,0.2-0.2,0.4-0.3,0.7c-0.1,0.3-0.3,0.6-0.5,0.8c-0.4,0.4-0.4,0.9-0.2,1.3c0.2,0.4,0.8,0.6,1.1,0.5c0.2-0.1,0.4-0.2,0.6-0.3
				c0.2-0.1,0.3-0.2,0.5-0.3c0.3-0.1,0.6-0.1,1,0c0.3,0.1,0.6,0.2,0.9,0.5c0.1,0.1,0.2,0.1,0.3,0.2c0-0.1,0-0.2,0-0.2
				c0-0.2-0.1-0.4-0.2-0.5c-0.2-0.3-0.4-0.5-0.7-0.6c-0.2-0.1-0.2-0.1-0.1-0.3c0.1-0.2,0-0.4-0.2-0.5c-0.1,0-0.1,0-0.2-0.1
				c-0.4-0.1-0.8-0.1-1.2,0.2c-0.4,0.2-0.6,0.6-0.7,1c0,0.1,0,0.1-0.1,0.2c-0.1,0.1-0.2,0.2-0.4,0.1c-0.1,0-0.2-0.1-0.2-0.3
				c0-0.1,0-0.1,0.1-0.1c0.2-0.4,0.5-0.7,0.9-1c0.2-0.2,0.4-0.3,0.6-0.5c0.3-0.5,0.4-1.1,0.2-1.6c0-0.1-0.1-0.1-0.1-0.2
				c-0.2-0.4-0.5-0.6-0.8-0.8C94.8,31.4,94.7,31.4,94.5,31.4z M75.6,32.9c-0.2,0.2-0.3,0.4-0.3,0.7c0,0,0,0,0,0.1
				c0,0.3,0.2,0.6,0.5,0.7c0.2,0.1,0.4,0.3,0.5,0.4c0.3,0.3,0.5,0.6,0.7,1c0.1,0.2,0.1,0.3,0.1,0.5c0,0.1,0,0.3-0.1,0.3
				c-0.2,0.1-0.4,0-0.4-0.2c0-0.1,0-0.2-0.1-0.3c0-0.2-0.1-0.4-0.1-0.6c-0.1-0.2-0.1-0.4-0.3-0.5c-0.2-0.1-0.3-0.3-0.5-0.4
				c-0.1-0.1-0.3-0.2-0.5-0.2c-0.2,0-0.4,0-0.6,0.2c-0.2,0.2-0.4,0.4-0.3,0.7c0,0,0,0,0,0.1c0,0.2,0,0.2-0.2,0.3
				c-0.1,0-0.2,0.1-0.4,0.1c-0.4,0.2-0.6,0.4-0.8,0.8c-0.1,0.2-0.1,0.4-0.1,0.7c0.1-0.1,0.2-0.2,0.3-0.3c0.4-0.4,1-0.6,1.5-0.6
				c0.7-0.1,1.3,0.1,1.9,0.6c0.2,0.2,0.4,0.3,0.7,0.1c0.1,0,0.1-0.1,0.2-0.2c0.2-0.3,0.3-0.7,0.2-1.1c-0.1-0.3-0.2-0.5-0.4-0.7
				c-0.4-0.4-0.7-0.8-0.8-1.3c0-0.2-0.1-0.4-0.1-0.6c0-0.3,0-0.7,0.1-1c0.1-0.2,0.1-0.4,0.2-0.6c-0.3,0-0.5,0.1-0.7,0.2
				c-0.3,0.3-0.4,0.7-0.3,1.2C75.8,33,75.7,33,75.6,32.9z M94.7,27c0,0.1-0.1,0.2-0.1,0.2c0,0.1,0,0.1-0.1,0.2
				c-0.2,0.4-0.5,0.8-1,0.9c-0.1,0-0.1,0-0.2,0c-0.1-0.1,0-0.1,0-0.2c0.2-0.3,0.4-0.6,0.6-0.9c0.1-0.1,0.3-0.3,0.4-0.4
				c0,0,0.1-0.1,0.1-0.2c0-0.4-0.1-0.7-0.3-1c-0.2-0.4-0.5-0.6-0.9-0.8c-0.1,0-0.2-0.1-0.3-0.1c0.2,0.4,0.2,0.8,0.2,1.3
				c0,0.7-0.3,1.4-0.8,1.9c-0.4,0.4-0.4,0.6-0.2,1c0.1,0.2,0.3,0.4,0.6,0.4c0.2,0,0.4-0.1,0.6-0.2c0.2-0.1,0.3-0.2,0.5-0.3
				c0.3-0.1,0.6-0.2,1-0.2c0.4,0,0.8,0.1,1.2,0.2c0.1,0,0.1,0,0.2,0.1c-0.1-0.3-0.3-0.7-0.6-0.8c-0.2-0.1-0.3-0.2-0.3-0.4
				c0,0,0,0,0,0C95.4,27.4,95.2,27.1,94.7,27z M94.4,22.4c0,0,0-0.1,0-0.1c-0.2-0.3-0.4-0.5-0.8-0.7c-0.1,0-0.2-0.1-0.2-0.2
				c-0.1-0.2-0.2-0.3-0.3-0.3c-0.4-0.1-0.7-0.1-1.1,0c-0.1,0-0.1,0.1-0.2,0.2c-0.2,0.4-0.5,0.8-0.8,1.1c0,0.1-0.1,0.1-0.2,0.1
				c-0.1,0-0.1-0.1-0.1-0.2c0.1-0.5,0.3-0.8,0.7-1.1c0.1-0.1,0.3-0.2,0.3-0.3c0-0.2,0.1-0.4,0.1-0.6c0-0.3-0.1-0.5-0.4-0.6
				c-0.1,0-0.1,0-0.2-0.1c-0.1,0-0.1-0.1-0.1-0.1c-0.1-0.3-0.3-0.4-0.4-0.5c-0.1,0-0.1,0-0.2-0.1c0,0.1,0,0.1,0,0.1
				c0.1,0.3,0.2,0.7,0.2,1c0,0.5-0.1,1-0.4,1.5c-0.2,0.3-0.2,0.6-0.3,1c-0.1,0.3,0.1,0.7,0.4,0.8c0.4,0.2,0.9,0.1,1.1-0.3
				c0.2-0.2,0.3-0.4,0.5-0.5c0.4-0.2,0.7-0.4,1.2-0.4c0.3,0,0.6,0,0.9,0.1C94.2,22.4,94.3,22.4,94.4,22.4z M78.5,24.9
				c-0.4,0.1-0.8,0.3-1,0.6c-0.3,0.3-0.5,0.8-0.5,1.2c0,0.2,0,0.3,0.2,0.4c0.3,0.2,0.5,0.4,0.8,0.6c0.3,0.3,0.5,0.6,0.7,0.9
				c0,0.1,0.1,0.1,0,0.2c-0.1,0.1-0.1,0-0.2,0c-0.1,0-0.1-0.1-0.2-0.1c-0.3-0.2-0.6-0.5-0.9-0.8c-0.2-0.2-0.3-0.4-0.4-0.7
				c-0.1-0.1-0.2-0.2-0.3-0.2c-0.2,0-0.3,0.1-0.4,0.2c-0.2,0.2-0.4,0.4-0.3,0.7c0,0.1,0,0.2-0.1,0.2c-0.2,0.1-0.3,0.2-0.4,0.3
				c-0.2,0.1-0.2,0.3-0.3,0.5c0,0,0.1,0,0.1,0c0,0,0,0,0.1,0c0.3-0.2,0.6-0.2,0.9-0.3c0.3,0,0.6,0,0.9,0.1c0.4,0.1,0.7,0.3,1,0.5
				c0.4,0.3,0.9,0.3,1.2-0.2c0.2-0.3,0.2-0.6,0-0.9c-0.3-0.3-0.5-0.6-0.6-1c-0.2-0.4-0.2-0.7-0.2-1.1c0-0.1,0-0.2,0-0.3
				c0-0.2,0.1-0.4,0.1-0.6C78.4,25.2,78.4,25.1,78.5,24.9z M77.2,22.1C77.2,22.1,77.2,22.1,77.2,22.1c0.1,0,0.2,0,0.2,0
				c0.1,0,0.3-0.1,0.4-0.1c0.2,0,0.4,0,0.7,0c0.3,0,0.7,0.1,0.9,0.3c0.2,0.1,0.4,0.3,0.5,0.5c0.2,0.3,0.5,0.4,0.9,0.4
				c0.2,0,0.4-0.1,0.6-0.3c0.1-0.2,0.2-0.5,0.1-0.8c-0.2-0.5-0.4-0.9-0.5-1.4c-0.1-0.3-0.1-0.6-0.1-0.9c0-0.3,0.1-0.7,0.3-1
				c0,0,0-0.1,0-0.1c0,0-0.1,0-0.1,0c-0.3,0.1-0.5,0.2-0.6,0.5c0,0.2-0.1,0.3-0.3,0.3c-0.1,0-0.1,0-0.2,0.1c0,0-0.1,0-0.1,0.1
				c-0.1,0.2-0.2,0.4-0.1,0.6c0,0.1,0.1,0.3,0.1,0.4c0,0.2,0.1,0.3,0.3,0.4c0.4,0.3,0.6,0.7,0.7,1.2c0,0.1,0,0.1-0.1,0.2
				c-0.1,0-0.1,0-0.2,0c-0.3-0.3-0.6-0.7-0.7-1.1c0-0.1-0.1-0.1-0.1-0.2c-0.4-0.2-0.8-0.2-1.2-0.1c-0.1,0.1-0.3,0.2-0.3,0.3
				c0,0.1-0.1,0.2-0.2,0.2C77.6,21.4,77.4,21.7,77.2,22.1z M85.7,15.2c0,0,0.1-0.1,0.1-0.1c0.2-0.3,0.4-0.5,0.7-0.6
				c0.2-0.1,0.4-0.1,0.6-0.1c0.2,0,0.2-0.1,0.2-0.2c0-0.4-0.2-0.6-0.5-0.8c0,0-0.1,0-0.1,0c0,0-0.1-0.1-0.1-0.2
				c0-0.1-0.1-0.2-0.1-0.4c0-0.4-0.2-0.7-0.5-0.9c-0.2-0.2-0.5-0.2-0.7,0c-0.1,0.1-0.2,0.3-0.2,0.4c0,0.3-0.2,0.5-0.4,0.6
				c-0.3,0.2-0.4,0.4-0.5,0.7c0,0.1,0,0.2,0.1,0.2c0.3,0.1,0.5,0.3,0.8,0.5c0.1,0.1,0.2,0.3,0.3,0.5C85.4,15,85.5,15.1,85.7,15.2z
				 M87.1,19.1c0-0.1,0-0.2-0.1-0.2c-0.2-0.2-0.5-0.3-0.8-0.4c-0.3-0.1-0.7,0-1,0c-0.3,0-0.5,0.1-0.7,0.3c-0.1,0.1-0.2,0.1-0.2,0.2
				C85,19.6,86.3,19.7,87.1,19.1z M79.4,39.6C79.4,39.6,79.4,39.6,79.4,39.6c0.1-0.1,0.1-0.2,0.1-0.4c0-0.3,0-0.6-0.1-0.9
				c-0.1-0.4-0.2-0.7-0.4-1c-0.2-0.3-0.4-0.5-0.8-0.5c-0.4,0-0.6,0.1-0.7,0.5c0,0.2,0,0.3,0.2,0.4c0.2,0.2,0.4,0.2,0.6,0.1
				c0.1-0.1,0.2,0,0.3,0c0.2,0.2,0.3,0.4,0.4,0.6c0.1,0.3,0.2,0.6,0.2,0.9C79.3,39.3,79.4,39.5,79.4,39.6z M82.7,24.8
				c0-0.1,0-0.1,0-0.2c-0.1-0.5-0.2-0.9-0.5-1.3c-0.1-0.2-0.3-0.2-0.5-0.2c-0.3,0-0.6,0.2-0.6,0.5c0,0.3,0.2,0.6,0.5,0.6
				c0.1,0,0.2,0,0.2,0c0.2-0.1,0.3,0,0.3,0.1C82.4,24.4,82.5,24.6,82.7,24.8z M80.9,31.1c0-0.1,0-0.1,0-0.1
				c-0.1-0.4-0.2-0.8-0.4-1.2c-0.1-0.1-0.2-0.3-0.4-0.3c-0.3-0.2-0.7,0-0.8,0.3c-0.1,0.3,0.2,0.7,0.5,0.6c0.1,0,0.2-0.1,0.3-0.2
				c0.1-0.1,0.2-0.1,0.3,0c0.1,0.2,0.2,0.4,0.4,0.6C80.8,30.9,80.8,31,80.9,31.1z M91.9,38.4c0.1-0.2,0.2-0.3,0.4-0.5
				c0.2-0.2,0.4-0.3,0.6-0.3c0.2-0.1,0.2-0.1,0.4,0.2c0,0,0,0,0,0c0.1,0.1,0.2,0.1,0.3,0.1c0.1,0,0.2-0.1,0.2-0.2
				c0.1-0.2,0-0.5-0.2-0.6c-0.2-0.2-0.4-0.2-0.7-0.1C92.4,37.2,92,37.7,91.9,38.4z M90.6,30.8c0-0.1,0.1-0.2,0.1-0.2
				c0.1-0.3,0.5-0.3,0.7-0.1c0,0,0.1,0.1,0.2,0.1c0.2,0,0.4-0.1,0.5-0.3c0.1-0.3,0.1-0.5-0.1-0.7c0,0-0.1-0.1-0.2-0.1
				c-0.2,0-0.4,0.1-0.6,0.1c-0.1,0.1-0.2,0.2-0.3,0.3C90.8,30.2,90.7,30.5,90.6,30.8z M88.9,24.5c0.2-0.3,0.4-0.5,0.6-0.7
				c0.1,0.1,0.2,0.2,0.2,0.3c0.1,0.1,0.1,0.1,0.2,0.1c0.3,0,0.4-0.3,0.3-0.5c-0.1-0.3-0.5-0.4-0.8-0.3c-0.2,0.1-0.3,0.3-0.4,0.5
				C89,24.1,88.9,24.3,88.9,24.5z M94.4,27.2c-0.2,0.2-0.4,0.4-0.6,0.8C94,27.8,94.3,27.5,94.4,27.2z M94.5,35.6
				c-0.1,0.2-0.1,0.2,0,0.2C94.5,35.7,94.5,35.7,94.5,35.6z"/>
			<path class="st3" d="M82.8,30.1c0.1-0.1,0.1-0.1,0.1-0.2c0.1-0.2,0.3-0.4,0.5-0.6c0.2-0.1,0.4-0.2,0.6-0.1
				c0.2,0.1,0.2,0.3,0.1,0.4c-0.3,0.2-0.4,0.5-0.6,0.8c0,0,0,0.1-0.1,0.1c-0.1,0.4-0.2,0.7-0.2,1.1c0,0.6,0,1.2,0,1.8
				c0,0.1,0,0.3,0,0.4c0,0.2,0.1,0.2,0.3,0.2c0.3,0,0.5,0,0.8,0c0-0.1,0-0.1,0-0.2c0-0.6,0-1.2,0-1.8c0-0.4,0-0.7,0-1.1
				c0-0.1-0.1-0.3-0.1-0.4c0-0.1,0-0.1,0-0.2c0-0.1,0-0.2,0.2-0.2c0.1,0,0.2,0,0.3,0c0.4,0,0.7,0,1.1,0c0.2,0,0.4,0.1,0.6,0.2
				c0.2,0.1,0.3,0.3,0.4,0.4c0,0,0.1,0.1,0.1,0.2c0.1,0.5,0.2,0.9,0,1.3c-0.1,0.3-0.3,0.4-0.6,0.6c0,0.1,0,0.2,0.1,0.2
				c0.2,0.2,0.4,0.5,0.6,0.8C87,34,87,34,87.1,34c0.2,0,0.4,0,0.6,0c0.1,0,0.2,0,0.2-0.2c0-0.1,0-0.2,0-0.3c0-0.5,0-1,0-1.5
				c0-0.3,0-0.6,0-0.9c0-0.2-0.1-0.5-0.1-0.7c-0.1-0.2-0.2-0.4-0.3-0.6c-0.1-0.1-0.1-0.2-0.3-0.1c-0.1,0-0.3,0-0.3-0.1
				c-0.1-0.1,0-0.3,0-0.4c0.1-0.1,0.2-0.2,0.3-0.1c0.2,0,0.3,0.1,0.4,0.2c0.3,0.2,0.5,0.4,0.7,0.6c0,0,0,0,0.1,0.1
				c0,0,0.1-0.1,0.1-0.1c0.1-0.1,0.3-0.1,0.5-0.1c0.2,0,0.2,0.1,0.1,0.2c0,0-0.1,0.1-0.1,0.1c-0.2,0.1-0.3,0.3-0.3,0.5
				c0,0.6,0,1.3,0,1.9c0,0.7,0,1.5,0,2.2c0,0.7,0,1.4,0,2c0,0.3,0.1,0.6,0.2,0.8c0.1,0.4,0.4,0.6,0.7,0.7c0.1,0,0.2,0,0.3,0.1
				c0.1,0,0.2,0,0.3,0.1c0.1,0,0.2,0.2,0.1,0.3c0,0.1-0.1,0.2-0.2,0.2c-0.4,0.1-0.8,0.1-1.1-0.1c-0.3-0.2-0.5-0.4-0.7-0.7
				c-0.1,0.1-0.1,0.1-0.2,0.2c-0.2,0.1-0.4,0.3-0.6,0.4c-0.1,0.1-0.2,0-0.3,0c-0.1-0.1-0.1-0.2,0-0.3c0.2-0.1,0.3-0.3,0.4-0.5
				c0.2-0.3,0.3-0.6,0.3-0.9c0-0.5,0-1.1,0-1.6c0-0.2,0-0.5,0-0.7c0-0.2,0-0.2-0.2-0.2c-0.1,0-0.3,0-0.4,0c-0.1,0.1-0.1,0.1-0.1,0.2
				c0.1,0.5,0.1,1.1-0.1,1.6c-0.1,0.3-0.2,0.5-0.4,0.7c-0.2,0.2-0.4,0.5-0.6,0.6c-0.2,0.1-0.4,0.2-0.6,0.3c-0.3,0.1-0.6,0-1-0.1
				c0,0-0.1,0-0.1-0.1c-0.2-0.1-0.3-0.3-0.1-0.4c0.2-0.2,0.2-0.4,0.2-0.7c0-0.6,0-1.2,0-1.8c0,0,0-0.1,0-0.1c0-0.2,0-0.3-0.3-0.3
				c-0.1,0-0.3,0-0.4,0c-0.1,0-0.1,0-0.2,0c-0.2,0-0.3,0.2-0.3,0.3c0,0.4,0,0.9,0,1.3c0,0.3,0,0.5,0,0.8c0,0.5,0.2,0.9,0.5,1.3
				c0,0.1,0.1,0.1,0.1,0.2c0,0.1,0.1,0.2,0,0.2c-0.1,0.1-0.2,0.1-0.2,0.1c-0.1,0-0.1,0-0.2-0.1c-0.1-0.1-0.3-0.2-0.4-0.2
				c0,0-0.1,0-0.1-0.1c-0.2,0.2-0.3,0.3-0.5,0.4c-0.2,0.2-0.5,0.3-0.7,0.4c-0.1,0-0.1,0-0.2,0c-0.1,0-0.2,0-0.2-0.1
				c0-0.1,0-0.2,0.1-0.3c0.2-0.1,0.3-0.2,0.5-0.3c0.4-0.3,0.6-0.7,0.7-1.2c0-0.3,0.1-0.6,0.1-0.9c0-0.2,0-0.4,0-0.6
				c0-0.2,0-0.4,0-0.5c0-1.3,0-2.6,0-4c0-0.2,0-0.3-0.1-0.5c0-0.2-0.2-0.2-0.3-0.3c0,0,0,0,0,0c-0.1,0-0.2-0.1-0.2-0.2
				c0-0.1,0.1-0.2,0.3-0.2C82.5,30,82.6,30,82.8,30.1z M85.7,34.5C85.7,34.5,85.7,34.5,85.7,34.5c-0.2,0-0.4,0-0.5,0
				c-0.2,0-0.2,0-0.2,0.2c0,0.3,0,0.7,0,1c0,0.4,0.1,0.7,0.1,1.1c0,0.2,0.2,0.4,0.4,0.4c0.2,0,0.4,0,0.5-0.3c0.2-0.3,0.3-0.7,0.4-1
				c0.1-0.4,0.1-0.9,0-1.3c0-0.1,0-0.1-0.2-0.1C86.1,34.5,85.9,34.5,85.7,34.5z M84.9,32.6c0.3,0,0.5,0,0.8,0c0.1,0,0.1,0,0.2-0.1
				c0.1-0.1,0.2-0.3,0.3-0.5c0.2-0.4,0-0.8-0.2-1.2c-0.1-0.1-0.2-0.2-0.3-0.2c-0.1,0-0.2,0-0.3,0c-0.3,0-0.5,0.2-0.5,0.6
				c0,0.3,0,0.6,0,0.9C84.9,32.3,84.9,32.4,84.9,32.6z M84.9,34c0.4,0,0.9,0,1.3,0c0-0.1,0-0.1,0-0.1c-0.1-0.2-0.2-0.4-0.3-0.5
				c0,0-0.1-0.1-0.1-0.1c-0.2-0.1-0.4-0.2-0.7-0.1c-0.1,0-0.3,0.1-0.3,0.2C84.9,33.6,84.9,33.8,84.9,34z"/>
			<path class="st3" d="M89.7,43.7c0,0.2-0.1,0.3-0.1,0.5c0,0.2,0,0.3,0.2,0.3c0.1,0,0.1,0.2,0.1,0.2c0,0.1-0.1,0.1-0.2,0.1
				c-0.1,0-0.2,0-0.3,0c-0.1,0-0.2,0-0.3,0c-0.1,0-0.2,0-0.3-0.1c-0.1,0-0.2,0-0.4,0c-0.2,0-0.4,0-0.7,0c-0.2,0-0.2-0.1-0.2-0.2
				c0-0.1,0-0.2,0.1-0.2c0.2-0.1,0.3-0.2,0.3-0.4c0-0.5,0-1,0-1.5c0-0.1,0-0.1,0-0.2c-0.1,0.1-0.1,0.1-0.1,0.1
				c-0.2,0.4-0.3,0.8-0.5,1.2c-0.1,0.2-0.1,0.3-0.3,0.3c-0.1-0.2-0.2-0.5-0.4-0.7c-0.1-0.2-0.2-0.5-0.4-0.7c0,0.1,0,0.2,0,0.3
				c0,0.4,0,0.8,0,1.1c0,0.1,0,0.2,0.1,0.2c0,0.1,0.1,0.2,0.2,0.2c0.1,0,0.2,0.1,0.2,0.2c0,0.1,0,0.2-0.2,0.2c-0.3,0-0.6,0-0.9,0
				c0,0-0.1,0-0.1,0c0-0.2,0-0.2,0.1-0.3c0.1-0.1,0.2-0.1,0.2-0.2c0-0.8,0-1.5,0-2.3c0-0.2,0-0.3-0.2-0.4c0,0-0.1-0.1-0.1-0.1
				c-0.1-0.1,0-0.2,0.1-0.2c0,0,0,0,0,0c0.3,0,0.5,0,0.8,0.1c0.1,0,0.1,0,0.2,0.1c0.2,0.4,0.4,0.8,0.6,1.2c0,0,0.1,0.1,0.1,0.1
				c0.1-0.2,0.2-0.4,0.3-0.6c0.1-0.2,0.2-0.5,0.3-0.7c0,0,0.1-0.1,0.1-0.1c0.1,0,0.2,0,0.2,0c0.2,0,0.4,0,0.6,0
				c0.2,0,0.2,0.1,0.1,0.3c-0.1,0.1-0.1,0.1-0.2,0.2c-0.2,0.2-0.2,0.5-0.2,0.8c0,0.3,0,0.6,0,1c0,0.2,0,0.4,0,0.6
				c0,0.2,0.1,0.3,0.2,0.4c0.2,0.2,0.3,0.1,0.5-0.1c0.1-0.1,0.1-0.2,0.1-0.3c0.1-0.6,0.3-1.2,0.4-1.7c0.1-0.3,0.1-0.5,0.2-0.8
				c0-0.1,0.1-0.1,0.1-0.1c0.1,0,0.2,0,0.3,0c0,0.1,0.1,0.2,0.1,0.3c0.3,0.8,0.5,1.6,0.8,2.4c0,0.2,0.1,0.3,0.1,0.5
				c0,0.1,0.1,0.3,0.2,0.4c0.1,0,0.1,0.3,0.1,0.4c0,0-0.1,0.1-0.2,0.1c-0.1,0-0.1,0-0.2-0.1C91,45.1,90.7,45,90.4,45
				c-0.1,0-0.2,0-0.2-0.1c0-0.1,0-0.2,0.1-0.3c0.3-0.2,0.3-0.2,0.2-0.5c0-0.1-0.1-0.2-0.1-0.3c0,0,0-0.1-0.1-0.1
				C90.3,43.7,89.9,43.7,89.7,43.7z M90.1,42.7c-0.1,0.1-0.2,0.4-0.2,0.6c0.2,0,0.2,0,0.4,0C90.2,43.1,90.2,42.9,90.1,42.7z"/>
			<path class="st3" d="M85.3,26.6c-0.2,0.1-0.4,0.3-0.5,0.4c-0.1,0.1-0.3,0.2-0.5,0.3c-0.1,0-0.1,0.1-0.2,0c-0.1-0.1,0-0.1,0-0.2
				c0.1-0.2,0.3-0.4,0.4-0.6c0.1-0.1,0.1-0.2,0.2-0.3c-0.1,0-0.1-0.1-0.2-0.1c-0.3-0.1-0.5-0.1-0.8-0.2c-0.1,0-0.2,0-0.3-0.2
				c0-0.1,0.1-0.1,0.2-0.2c0.3-0.1,0.6-0.1,0.9-0.2c0,0,0.1,0,0.1,0c-0.1-0.1-0.1-0.2-0.2-0.3c-0.1-0.2-0.3-0.4-0.4-0.6
				c-0.1-0.1-0.1-0.2,0-0.2c0-0.1,0.2-0.1,0.3,0c0.2,0.1,0.5,0.3,0.7,0.5c0.1,0,0.1,0.1,0.2,0.1c0-0.1,0.1-0.2,0.1-0.2
				c0.1-0.3,0.1-0.5,0.1-0.8c0,0,0-0.1,0-0.1c0,0,0.1-0.1,0.2-0.1c0.1,0,0.1,0.1,0.1,0.1c0.1,0.3,0.1,0.6,0.2,0.9
				c0,0.1,0,0.2,0.1,0.2c0.1-0.1,0.2-0.1,0.3-0.2c0.2-0.1,0.4-0.3,0.6-0.4c0,0,0,0,0.1,0c0.1,0,0.1,0,0.2,0c0.1,0.1,0,0.1,0,0.2
				c-0.1,0.2-0.2,0.3-0.3,0.5c-0.1,0.1-0.2,0.3-0.3,0.4c0.2,0,0.3,0.1,0.5,0.1c0.2,0.1,0.5,0.1,0.7,0.2c0.1,0,0.1,0,0.1,0.1
				c0,0.1,0,0.1-0.1,0.1c-0.1,0-0.2,0.1-0.2,0.1c-0.2,0-0.4,0.1-0.7,0.1c-0.1,0-0.2,0-0.2,0.2c0.2,0.2,0.3,0.5,0.5,0.7
				c0,0.1,0.1,0.1,0.1,0.2c0,0,0,0.1,0,0.2c0,0-0.1,0-0.2,0c-0.2-0.1-0.3-0.2-0.5-0.3c-0.1-0.1-0.3-0.2-0.4-0.3
				c-0.1-0.1-0.2,0-0.2,0.1c0,0.2-0.1,0.4-0.1,0.7c0,0.1,0,0.2-0.1,0.3c0,0.1-0.1,0.2-0.2,0.2c-0.1,0-0.1-0.1-0.1-0.2
				c0-0.2-0.1-0.5-0.1-0.7C85.4,26.8,85.4,26.7,85.3,26.6z M86.1,25.6c0-0.2-0.2-0.4-0.4-0.4c-0.2,0-0.4,0.2-0.4,0.4
				c0,0.2,0.1,0.4,0.4,0.4C86,26.1,86.1,25.9,86.1,25.6z"/>
			<path class="st3" d="M81.6,43.3c0.1,0.1,0.1,0.2,0.2,0.2c0.2,0.2,0.3,0.4,0.5,0.6c0.1,0.1,0.1,0.2,0.2,0.3c0,0,0.1,0.1,0.2,0.1
				c0.1,0.1,0.2,0.1,0.1,0.2c0,0.1-0.1,0.1-0.2,0.1c-0.2,0-0.5,0.1-0.7,0.1c-0.1,0-0.1,0-0.2,0c-0.1,0-0.2-0.1-0.1-0.2
				c0.1-0.2,0-0.3-0.1-0.4c-0.2-0.3-0.4-0.6-0.6-0.8c0,0,0-0.1-0.1-0.1c-0.1-0.1-0.2-0.1-0.2,0.1c0,0.1,0,0.2,0,0.3
				c0,0.2,0,0.4-0.1,0.5c0,0.2,0,0.3,0.2,0.4c0.1,0,0.1,0.1,0.1,0.2c0,0.1-0.1,0.1-0.2,0.1c-0.3,0-0.5,0.1-0.8,0.2
				c-0.2,0.1-0.3,0.1-0.3,0c-0.1-0.1,0-0.2,0.1-0.3c0.2-0.1,0.3-0.3,0.3-0.5c0.1-0.3,0-0.6,0.1-0.8c0-0.3,0.1-0.5,0.1-0.8
				c0-0.2,0-0.5,0.1-0.7c0-0.1,0-0.3-0.2-0.4c-0.1-0.1-0.1-0.3,0.1-0.4c0.1,0,0.2,0,0.3-0.1c0.2,0,0.4,0,0.6,0c0.1,0,0.3,0,0.4,0
				c0.2,0,0.4,0,0.6,0.1c0.2,0.1,0.3,0.3,0.3,0.5c0,0.3,0,0.5-0.1,0.7c-0.1,0.1-0.1,0.2-0.2,0.3C81.9,43.2,81.8,43.2,81.6,43.3z
				 M80.7,43c0.3,0.1,0.3,0.1,0.5,0c0.1,0,0.2-0.1,0.3-0.2c0.3-0.3,0.2-0.5,0.1-0.8c0-0.1-0.1-0.1-0.3-0.1c-0.1,0-0.2,0-0.4,0
				c-0.1,0-0.1,0.1-0.2,0.2c0,0.1,0,0.2,0,0.3C80.8,42.6,80.7,42.8,80.7,43z"/>
			<path class="st3" d="M85.3,42.7c0,0.3,0,0.6-0.1,0.9c-0.1,0.4-0.4,0.8-0.8,1c-0.4,0.2-0.8,0.2-1.2-0.1c-0.3-0.3-0.4-0.6-0.5-1
				c-0.1-0.2-0.1-0.5,0-0.7c0-0.2,0-0.4,0.1-0.5c0.1-0.3,0.2-0.6,0.4-0.8c0.2-0.3,0.5-0.5,0.9-0.5c0.1,0,0.2,0,0.3,0
				c0.4,0.1,0.7,0.4,0.8,0.8C85.2,42,85.3,42.3,85.3,42.7z M84.7,42.8c0-0.3-0.1-0.6-0.1-0.9c0-0.1-0.1-0.2-0.2-0.3
				c-0.1-0.2-0.3-0.2-0.5,0c-0.3,0.2-0.4,0.6-0.5,0.9c0,0.1,0,0.1,0,0.2c-0.1,0.2-0.1,0.5,0,0.7c0,0.3,0.1,0.5,0.3,0.8
				c0.2,0.2,0.4,0.3,0.6,0c0.1-0.1,0.2-0.3,0.3-0.5C84.6,43.4,84.6,43.1,84.7,42.8z"/>
		</g>
	</g>
</g>
</svg>
