<?xml version="1.0" encoding="utf-8"?>
<!-- Generator: Adobe Illustrator 27.0.0, SVG Export Plug-In . SVG Version: 6.00 Build 0)  -->
<svg version="1.1" id="Livello_1" xmlns="http://www.w3.org/2000/svg" xmlns:xlink="http://www.w3.org/1999/xlink" x="0px" y="0px"
	 viewBox="0 0 309.3 66.7" style="enable-background:new 0 0 309.3 66.7;" xml:space="preserve">
<style type="text/css">
	.st0{fill:#FFFFFF;}
</style>
<g>
	<path class="st0" d="M275.4,7.9c-14,0-25.4,11.4-25.4,25.4c0,14,11.4,25.4,25.4,25.4c14,0,25.4-11.4,25.4-25.4
		C300.8,19.3,289.4,7.9,275.4,7.9z M275.4,58c-13.6,0-24.7-11.1-24.7-24.7c0-13.6,11.1-24.7,24.7-24.7c13.6,0,24.7,11.1,24.7,24.7
		C300.1,46.9,289,58,275.4,58z"/>
	<path class="st0" d="M290.3,31.4c-0.4-0.7-0.1-1.2-0.2-1.8c-0.1-0.4-0.7-1.7-1-2.6c-0.2-0.4,0.9-0.3,0.1-1.9c0,0,1.1-0.5,0-1.3
		c-0.6-0.5-1.1-1.1-1.4-1.6c0-0.1-0.1-0.2,0-0.3c0.6-0.6,0.7-1.4,0-1.8c-0.5-0.3-1.1,0-1.6,0.4c-0.2,0.1-0.3,0.2-0.4,0.1
		c-0.1,0-0.3-0.2-0.4-0.3c0.7-0.6,0.8-1.3,0.7-1.4c0-0.1-1.1-0.3-2.5,0.2c0,0-0.1,0-0.1-0.1c0.6-1,0.2-1.6,0.2-1.7c0,0,0,0,0,0
		c1-1.4,2-2.3,3-3.2l0,0c0.1-0.1,0.1-0.1,0-0.2c-0.1-0.1-0.1-0.1-0.3-0.1c-3.3-1.8-7-2.8-10.8-2.8c-12.3,0-22.3,10-22.3,22.3
		c0,7.1,3.6,14,9.5,18.3c0.4,0.3,0.7,0.4,0.7,0.4c0.1,0,0.2,0,0.3,0l0.1-0.1c0.1-0.1,0.1-0.1,0.1-0.2c0-0.2-0.2-0.3-0.5-0.7
		c-0.8-1.2-1.2-2.5-1.2-3.7c0-1.2,0.4-2.4,1.1-3.3c0.9,0.9,2.8,2.6,2.8,4.2c0,1.7-1.7,1.7-1.3,3c0.2,0.8,0.8,0.5,0.9,1.1
		c0.2,1.1,1.6,1.8,2.3,1.7c0.2,0,0.3,0.1,0.6,0.4c0.4,0.4,1.5,0.4,2,0.3c0.4-0.1,1,0.3,1.9,0.2c1.2-0.1,1.5-0.2,2-0.2
		c0.8,0,5.4-0.1,8.7,0.4c0.6,0.1,0.7-0.2,0.5-0.6c-1.2-2.1-1.4-3.8-0.7-6c1.2,0.1,2.9,0.4,5.2-1c0.8-0.5,1.3-1.5,1.2-2.3
		c0-0.5-0.2-1.1-0.1-1.6c0.2-0.7,0.3-0.6,0.5-0.8c0.9-0.6,0.2-1.1,0.1-1.2c0.3-0.1,0.6-0.7,0.2-1.1c-0.2-0.2-0.6-1.5-0.1-1.8
		c0.6-0.3,1.3-0.4,1.9-0.7c0.5-0.2,0.8-0.7,0.6-1.5C292.2,35.6,290.4,31.5,290.3,31.4z M265.7,51.2c-0.2,0-0.7,0.1-0.6-0.7
		c0.1-0.4,0.6-0.6,0.8-0.4C265.9,50.5,265.7,50.9,265.7,51.2z M286.7,20.8c0.3-0.2,0.6-0.3,0.8-0.1c0.6,0.6-0.7,1-0.4,1.5
		c0.5,0.8,1.2,1.5,1.8,2c0.3,0.2,0.3,0.7-0.8,1c-1.1,0.2-5.7,1.4-8.1,4c-3,3.2-4.9,7.3-5.2,6.8c-0.3-0.6-0.9-0.7-0.8-0.8
		C278.3,27.7,285.1,21.8,286.7,20.8z M288.7,26c-0.2,0.7-2.2,1.3-2.1,0.8c0-0.2,0-0.5,0.2-0.5c0.2,0,0.8-0.3,1.8-0.5
		C288.6,25.8,288.8,25.9,288.7,26z M283.7,27.3c0-0.3,2.1-1,2.1-0.8c0.1,0.4-0.4,1.4-1.1,1.7c-0.8,0.3-1.1,0.2-1.1,0.1
		C283.7,28.1,283.8,27.6,283.7,27.3z M278.8,38.3c-1,0.6-1.5-0.5-1.6-0.7c-0.1-0.1-0.2-0.3-0.1-0.8c0.1-0.3,0.1-0.8-0.1-2.2
		c-0.1-0.6,1.2-2.2,1.5-2.5c0.3-0.3,0.8,0.1,0.8,0.6c0.1,0.9-0.4,1.4-1,1.7c-0.6,0.5-0.7,1.1-0.6,1.2c0,0.1,0.3,0.1,0.5-0.2
		c0.4-0.8,1.5-1.2,1.6-1.6c0.3-0.7,0.1-1.1,0-1.4c0-0.2,0.2-0.3,0.4-0.3c0.2,0,0.3,0.3,0.4,0.6c0.7,1.8-1.1,2.9-1.3,3.3
		C279.2,36.4,279.6,37.9,278.8,38.3z M280.3,31.3c-0.5,0.4-1.3-0.1-1.1-0.3c1-1.4,2.3-2.3,2.8-2.7c0.8-0.5,0.9-0.6,1-0.3
		c0,0.2,0,1.1-0.6,1.8c-0.6,0.6-1.1,0.6-1.4,0.6C280.7,30.5,280.7,31,280.3,31.3z M275.6,37.5c-0.2-0.1-0.3-0.5-0.3-0.7
		c0.1-0.4,0.7-1.3,1-1.6c0.1-0.1,0.2,0,0.2,0.1C276.6,36.3,276.5,37.7,275.6,37.5z M283.4,19.6c0.9-0.4,1.7-0.4,1.8-0.4
		c0.2,0-0.4,1.2-1.6,1.6c-1.2,0.5-2.1,0.6-2.2,0.5C281.3,21.3,282.5,20,283.4,19.6z M263.3,38.5c-0.3-0.4-0.7-0.6-0.7-0.6
		c-0.1,0.1-0.7,1-0.9,2.2c-1.1-2.1-1.7-4.2-1.8-6.7c-0.3-8.6,6.8-15.4,15.6-15.4c2,0,3.6,0.4,5.4,1.1c-0.4,0.5-0.7,1.1-0.9,1.6
		c0-0.5-0.1-0.8-0.1-1.1c0-0.2-1.2,0.2-2.4,2c-0.3,0.4-0.4,0.9-0.5,1.3c0-0.7-0.2-1.2-0.2-1.2c-0.1,0-1.4,0.6-2.1,2.1
		c-0.1,0.3-0.2,0.6-0.3,0.8c-0.1-0.5-0.2-0.8-0.2-0.8c-0.1,0-1.4,0.6-2.1,2.2c-0.2,0.4-0.2,0.8-0.3,1.1c-0.1-0.6-0.3-0.9-0.4-0.8
		c-0.5,0.6-1.4,0.8-1.8,2.3c-0.1,0.3-0.2,0.7-0.2,1c-0.2-0.5-0.5-0.8-0.5-0.8c-0.1,0-1.5,1.3-1.7,2.6c-0.1,0.5,0,1,0,1.4
		c-0.3-0.4-0.6-0.7-0.7-1.2c-0.2,0.1-1.4,1.2-1.4,2.6c0,0.5,0.1,1,0.2,1.5c-0.4-0.7-0.9-1-1-1c-0.1,0.1-1,1-1.2,2.7
		C263.1,37.8,263.2,38.2,263.3,38.5z M281.2,19.2c0.7-0.8,1.9-1.5,2-1.4c0.1,0.1-0.2,1.3-1,2.1c-0.8,0.7-1.9,1.5-2.1,1.5
		C280,21.4,280.6,20,281.2,19.2z M278.9,22.4c-0.7,0.5-1,0.9-1.4,1.5c-0.1,0.2-0.5-1.2,0.4-2.6c0.5-0.8,1.6-1.6,1.6-1.5
		C279.5,20.2,280.1,21.5,278.9,22.4z M276.5,24.2c-0.8,1.2-0.9,0.8-1.8,2c0,0.1-0.1-1.6,0.3-2.3c0.5-1.1,1.4-1.8,1.5-1.8
		C276.6,22.1,276.9,23.5,276.5,24.2z M273.8,26.6c-0.4,0.7-0.8,0.6-1.5,1.6c-0.1,0.1-0.3-0.9,0.2-2.2c0.3-1,1.3-1.6,1.4-1.7
		C274.1,24.4,274.3,25.8,273.8,26.6z M271.3,29.2c-0.4,0.9-0.7,1-1.2,1.5c-0.1,0.1-0.5-0.9-0.1-2.1c0.3-1,1-1.4,1.3-1.7
		C271.4,26.8,271.8,28.2,271.3,29.2z M269.3,30.8c0,0.3,0,0.4-0.1,0.7c-0.3,1-0.9,1.5-1.3,2c-0.1-0.3-0.4-0.8-0.4-1.4
		c0-1.3,0.8-2.3,1.3-2.7C269,29.4,269.3,30.2,269.3,30.8z M267.2,33.9c0,1.5-1,2.3-1.2,2.6c-0.2-0.3-0.5-1-0.5-1.8
		c0-1.5,0.6-2.1,0.9-2.4C266.5,32.8,267.2,33.1,267.2,33.9z M264.3,35.4c0.4,0.2,0.9,0.8,1,2c0,1.2-0.8,2.1-1.1,2.3
		c-0.2-0.9-0.6-1.1-0.6-1.9C263.6,36.8,264.1,35.8,264.3,35.4z M266.1,38.5c1.1-0.5,2.3-0.4,2.4-0.4c0.1,0-0.4,1.4-1.4,2
		c-1.1,0.6-2.3,0.6-2.4,0.5C264.6,40.5,265,38.9,266.1,38.5z M266,37.6c0.1-0.4,0.7-1.6,1.7-2c1-0.4,2.1-0.4,2.3-0.4
		c0.1,0.1-0.4,1.3-1.4,1.8C267.4,37.6,267,37.3,266,37.6z M267.6,34.8c0-0.1,0.9-1.6,1.8-2c0.9-0.4,2.1-0.3,2.1-0.3
		c0.1,0-0.4,1.3-1.5,1.8C269,34.8,267.6,34.9,267.6,34.8z M269.8,31.9c-0.1-0.1,1.1-1.6,2-2c0.8-0.4,1.9-0.3,2-0.2
		c0.1,0.1-0.4,1.3-1.6,1.8C271.2,31.9,269.9,32,269.8,31.9z M272.4,29.1c-0.1,0,0.8-1.5,1.8-1.9c0.9-0.4,1.9,0,2.1,0
		c0.2,0-0.3,1.1-1.6,1.6C273.6,29.1,272.6,29.1,272.4,29.1z M275.3,26.3c0-0.1,1-1.4,2-1.8c0.9-0.3,2.1-0.1,2.2-0.1
		c0.1,0.1-0.7,1.2-1.9,1.6C276.5,26.4,275.3,26.4,275.3,26.3z M278.2,23.9c-0.1-0.1,1-1.4,2-1.7c0.9-0.4,1.9-0.3,2-0.2
		c0.1,0-0.6,1.2-1.7,1.6C279.4,24,278.3,24,278.2,23.9z M262.2,50.3c-5.2-4.2-8.4-10.4-8.4-17c0-11.9,9.7-21.6,21.6-21.6
		c3.5,0,7,0.9,10,2.5c0.1,0,0.1,0.1,0,0.2c-0.9,0.8-2.1,2.3-2.5,2.8c-2.4-1.1-4.9-1.7-7.6-1.7c-9.9,0-17.9,8-17.9,17.9
		c0,4.4,1.5,8.4,4.3,11.6c-0.2,0.4-0.4,1.2-0.4,2.3C261.4,48.1,261.6,49.2,262.2,50.3z M262.2,44.3
		C262.2,44.3,262.2,44.3,262.2,44.3c-2.6-3.1-4-6.8-4-11c0-9.5,7.7-17.2,17.2-17.2c2.5,0,4.9,0.5,7.2,1.6c-0.3,0.1-0.6,0.3-1,0.6
		c-2-0.8-4-1.2-6.2-1.2c-9,0-16.2,7.3-16.2,16.2c0,3.9,1.2,7.3,3.6,10.2C262.6,43.7,262.4,44,262.2,44.3z M263.1,43
		c-0.3-0.3-1-1-1.1-2c0,0,0-0.1,0-0.1c0-1,0.5-2.1,0.6-2.2c0.1-0.1,1.3,0.8,1.3,2.1C263.9,41.9,263.4,42.5,263.1,43z M265,41.2
		c0.9-0.4,2.3-0.3,2.2-0.3c-0.1,0.1-0.4,1.4-1.5,1.9c-1,0.5-1.7,0.4-2.1,0.3C264.2,42.6,264.1,41.7,265,41.2z M266.3,52.4
		c-0.2-0.6-0.1-1.5,0.1-1.7c0.4-0.2,1.2-0.3,1.2,0c0,0.4-0.3,1.3,0.1,2.5C267.6,53.3,266.5,53.2,266.3,52.4z M266.3,49.8
		c-0.1-0.5,0.4-0.9,0.4-2c0-1.3-1.6-3-2.7-4.2c0.5,0,1.2-0.1,1.9-0.5c1.6-0.7,1.9-2.4,2-2.5c0,0-0.4-0.1-0.9-0.1
		c0.1,0,0.1-0.1,0.2-0.1c1.6-0.8,2-2.6,1.9-2.7c0,0-0.4-0.1-1-0.1c0.2-0.1,0.3-0.1,0.5-0.2c1.7-0.7,2.1-2.5,2.1-2.6
		c0,0-0.4-0.1-0.8-0.1c0.1-0.1,0.3-0.1,0.4-0.2c1.5-0.7,2-2.4,2-2.5c0,0-0.3-0.1-0.8-0.1c0.3-0.1,0.7-0.2,1.1-0.4
		c1.6-0.7,2.1-2.3,2.1-2.3c0,0-0.3-0.1-0.7-0.1c0.3-0.1,0.7-0.2,1-0.3c1.6-0.5,2.2-2.1,2.1-2.1c-0.2,0-0.5-0.1-0.9-0.2
		c0.4,0,0.9-0.1,1.6-0.3c1.7-0.6,2.3-1.6,2.4-2.1c0,0-0.2-0.1-0.5-0.2c0.4-0.1,0.8-0.2,1.1-0.3c1.6-0.7,2.3-2.2,2.3-2.4
		c0.3-0.1,0.6-0.2,0.9-0.4c0.2-0.1,0.3-0.2,0.5-0.2c0.1,0.1,0.2,0.1,0.4,0.3c0.2,0.2,0.3,0.2,0.2,0.3c-5.5,4.7-9.6,10.6-11.4,13.4
		c-0.1,0.1-0.1,0.1-0.3,0.1c-1.9-0.1-3,2.2-2.1,4.3c-0.1,0.4-1,1.3-1.1,1.3c-0.1,0.1-0.3,0.3,0.1,0.3c0.4,0,1-0.8,1.3-1.1
		c0.1,0.1,0.5,0.5,0.3,0.7c-1.6,1.6-3.2,2.5-3.4,2.5c-0.6,0.3,1,0.5,3.8-2c0.2-0.1,0.4,0.6,0.6,0.9c-0.5,1.6,0.7,4.6,0.5,5.6
		c0,0.2-0.1,0.6-0.7,0.6c-2.8,0.1-3-0.1-4.4,0.3c-0.7,0.2-0.5,0.6,0,0.5c0.5-0.1,1.1-0.4,4.1-0.2c0.7,0,1.6-0.1,1.6-1.4
		c0-1.1-0.9-4.4-0.6-4.9c0.4,0.3,0.7,0.3,0.8,0.3c0,1.1,1.7,4.6,0.9,6.5c-0.3,0.7-1.6,0.7-3.7,0.4C267.6,49.4,266.4,50.2,266.3,49.8
		z M274.8,52.2c-1.4,0.5-2-1.2-1.8-1.5c0.1-0.2,1,0.2,1.8-0.2C275.4,50.1,275.7,51.9,274.8,52.2z M268.3,53.2
		c-0.2-0.9-0.3-2.4,0.1-2.8c0.1-0.1,1.2-0.2,1.2,0c-0.1,1.1-0.5,2.2,0.3,3.4C270.2,54.3,268.6,54.4,268.3,53.2z M271.1,54.2
		c-0.4-0.1-1.4-1.8-0.6-3.8c0.1-0.2,1.4-0.1,1.6,0s-0.2,1.7,1.6,2.4C273.9,52.8,273.7,54.9,271.1,54.2z M282.5,48.6
		c-0.6,2.1-0.9,3,0,5.3c0.1,0.3,0.2,0.5-0.1,0.5c-1.9-0.3-2.3-0.6-8.1-0.1c-0.4,0,0.1-0.8,0.1-1.4c0.5-0.1,1.4-0.3,1.6-1.2
		c0.2-1.1-0.5-1.8-0.4-2c0.8-1.6-0.1-3.4-0.8-6.4c-0.1-0.3,0.1-0.4,0.2-0.3c3.8,4.1,6.2,4.9,7.5,5.3
		C282.5,48.3,282.5,48.4,282.5,48.6z M292.1,37.4c-0.8,0.7-2,0.8-2.5,1.2c-0.3,0.2-0.4,0.6-0.1,1.2c0.2,0.4,0.3,0.4-0.3,0.6
		c-0.9,0.2-1,1.4-2.1,1.2c-0.4-0.1-0.1,0.2,0,0.2c0.6,0.1,0.9-0.1,1.1-0.3c0.2-0.2,0.5-0.6,0.9-0.7c0.4-0.1,0.7-0.1,0.7,0.1
		c0,0.2-0.4,0.5-0.6,0.6c0.2,0.1,0.9,0.5,0.3,0.9c-0.5,0.3-1.1-0.1-1.2-0.2c-0.1-0.1-0.4,0-0.3,0.1c0.3,0.4,1.3,0.3,1.1,0.5
		c-0.9,1.1-0.2,1.8-0.4,3c-0.3,1.2-1.9,1.8-3.1,2c-4.2,0.8-8.3-2.8-10.7-5.5c0.2-0.5,0.2-1.2,0-0.9c-0.2,0.2-0.2,0.6-0.7,0.7
		c-1,0.2-1.4-1.4-1.7-1.7c-1.2-1.1-1.6-2.8-0.9-4.2c0.7-1.4,2.2-1.1,2.8-0.3c0.7,1.1,0.4,1.7,0.8,2c0.6,0.5,1.2,0,1.3,0
		c0.4-0.1,0.4,1,1.9,1c1.6-0.1,1.4-2.6,1.7-2.8c2.1-2,1-3.8,0.6-4.3c-0.1-0.1,0.2-0.9,0.4-0.9c1.2-0.3,1.9-1.1,2.3-1.9
		c0,0,2,0,2.8-1.5c0.2-0.4,0.8,0.4,2.1-0.7c0.2-0.1,0.3-0.1,0.4,0.1c0.9,2.1,1.2,2.7,1.2,3.8c0,0.8,2.1,5.2,2.3,5.6
		C292.3,36.8,292.3,37.3,292.1,37.4z"/>
	<path class="st0" d="M287.2,29.7c-1.2,0-2.6,1.5-3,1.7c-0.5,0.2-0.3,0.3,0,0.2c0.6-0.2,1.4-1.1,2.6-1.5c0.9-0.3,0.9,0.4,1.2,0.4
		C288.1,30.5,287.9,29.7,287.2,29.7z"/>
	<path class="st0" d="M287.5,30.9c-0.1,0,0.1,0.5-0.4,0.6c-1.1,0.1-2,1.1-2.7,1.4c-0.7,0.3-0.8,0.3-0.9,0.3c-0.1,0-0.1,0.1,0,0.2
		c2.8,0.4,3.9,0.3,3.9,0.2c0-0.2-0.2-0.3-0.1-0.4c0.1-0.3,0.2-0.9,0-1.3c-0.1-0.2,0.4-0.1,0.4-0.3C287.8,31.3,287.6,30.8,287.5,30.9
		z M287,33.1c-0.1,0.2-1.3,0.1-2,0.1c-0.2,0-0.4,0,0.1-0.4c0.4-0.2,1-0.7,1.7-0.8c0.1,0,0.2,0,0.2,0.1
		C287.1,32.5,287.1,32.9,287,33.1z"/>
	<path class="st0" d="M290.7,37.1c-0.2,0-1.1,0.4-1.4,0.6c-0.2,0.1-1.1,0.7-1-0.2c0-0.3,0.2-1.1,0.2-1.3c0-0.3-0.3-0.2-0.3,0
		c0,0.4-0.1,0.8-0.2,1.3c-0.1,0.4,0.3,1,0.9,0.7c0.5-0.3,1.2-0.7,1.7-0.8C290.9,37.4,290.9,37.1,290.7,37.1z"/>
	<path class="st0" d="M274,40.5c-0.3-0.1,0-0.3-0.4-0.7c-0.2-0.2-0.7-0.3-1-0.9c-0.6-0.9-0.1-2.9,0.7-2.6c0.5,0.2,0.4,1.2,0.2,1.9
		c-0.1,0.4,0.6,0.7,0.7,0.5c0.1-0.3-0.3-0.2-0.3-0.5c-0.1-0.4,0.8-1.8-0.4-2.3c-0.9-0.3-1.5,0.9-1.4,2.2c0.1,1.1,0.8,1.5,1.2,1.7
		c0.6,0.2,0.1,1,0.9,1c0.3,0,0.4-0.5,0.2-0.6C274.2,40.2,274.2,40.5,274,40.5z"/>
	<path class="st0" d="M281.8,16c0,0,0.1,0,0.1,0l1.6-2c0-0.1,0-0.1,0-0.2c-0.1,0-0.2-0.1-0.3-0.1c0,0-0.1,0-0.1,0l-1.6,2
		c0,0.1,0,0.1,0,0.2C281.6,15.9,281.7,16,281.8,16z"/>
	<path class="st0" d="M278.9,15.2c0.1,0,0.2,0,0.3,0.1c0,0,0.1,0,0.1-0.1l0.9-2.3c0-0.1,0-0.1-0.1-0.1c-0.1,0-0.2,0-0.3-0.1
		c0,0-0.1,0-0.1,0c-0.1,0.3-0.8,1.9-0.9,2.3C278.8,15.1,278.8,15.2,278.9,15.2z"/>
	<path class="st0" d="M275.6,14.9c0.1,0,0.2,0,0.3,0c0.1,0,0.1,0,0.1-0.1l0.2-2.4c0-0.1,0-0.1-0.1-0.1l-0.3,0c-0.1,0-0.1,0-0.1,0.1
		l-0.2,2.4C275.5,14.8,275.6,14.9,275.6,14.9z"/>
	<path class="st0" d="M272.5,15.1c0.1,0,0.2,0,0.3,0c0.1,0,0.1-0.1,0.1-0.1l-0.5-2.4c0-0.1-0.1-0.1-0.1-0.1c-0.1,0-0.2,0-0.3,0
		c-0.1,0-0.1,0.1-0.1,0.1l0.5,2.4C272.4,15.1,272.4,15.1,272.5,15.1z"/>
	<path class="st0" d="M269.3,15.9c0,0,0.1,0.1,0.1,0c0.1,0,0.2-0.1,0.3-0.1c0.1,0,0.1-0.1,0.1-0.1l-1.1-2.2c0,0-0.1-0.1-0.1,0
		c-0.1,0-0.2,0.1-0.3,0.1c-0.1,0-0.1,0.1-0.1,0.1L269.3,15.9z"/>
	<path class="st0" d="M266.2,17.2c0,0,0.1,0,0.1,0c0.1,0,0.2-0.1,0.2-0.1c0.1,0,0.1-0.1,0-0.1l-1.6-1.9c0,0-0.1,0-0.1,0
		c-0.1,0-0.2,0.1-0.2,0.1c-0.1,0-0.1,0.1,0,0.1L266.2,17.2z"/>
	<path class="st0" d="M263.5,19.2c0,0,0.1,0,0.1,0c0.1-0.1,0.1-0.1,0.2-0.2c0.1,0,0-0.1,0-0.2l-2.1-1.4c0,0-0.1,0-0.1,0
		c-0.1,0.1-0.1,0.1-0.2,0.2c0,0,0,0.1,0,0.2L263.5,19.2z"/>
	<path class="st0" d="M261,21.7c0,0,0.1,0,0.1,0c0.1-0.1,0.1-0.1,0.2-0.2c0-0.1,0-0.1,0-0.2l-2.4-0.9c0,0-0.1,0-0.1,0
		c-0.1,0.1-0.1,0.2-0.2,0.2c0,0.1,0,0.1,0,0.2L261,21.7z"/>
	<path class="st0" d="M256.5,24.3l2.5,0.4c0,0,0.1,0,0.1-0.1c0-0.1,0.1-0.2,0.1-0.3c0-0.1,0-0.1-0.1-0.1l-2.6-0.4c0,0-0.1,0-0.1,0.1
		c0,0.1-0.1,0.2-0.1,0.3C256.4,24.2,256.5,24.3,256.5,24.3z"/>
	<path class="st0" d="M255.1,28.2l2.6-0.2c0,0,0.1,0,0.1-0.1c0-0.1,0.1-0.2,0.1-0.3c0-0.1,0-0.1-0.1-0.1l-2.6,0.2c0,0-0.1,0-0.1,0.1
		c0,0.1-0.1,0.2-0.1,0.3C255,28.1,255.1,28.2,255.1,28.2z"/>
	<path class="st0" d="M257.1,31.3c0-0.1,0-0.2,0-0.3c0-0.1-0.1-0.1-0.1-0.1l-2.5,0.9c0,0-0.1,0-0.1,0.1c0,0.1,0,0.2,0,0.3
		c0,0.1,0.1,0.1,0.1,0.1L257.1,31.3C257.1,31.3,257.1,31.3,257.1,31.3z"/>
	<path class="st0" d="M257,34.7c0-0.1,0-0.2,0-0.3c0-0.1-0.1-0.1-0.2-0.1l-2.3,1.5c0,0,0,0.1,0,0.1c0,0.1,0,0.2,0,0.3
		c0,0.1,0.1,0.1,0.2,0.1L257,34.7C257,34.8,257.1,34.7,257,34.7z"/>
	<path class="st0" d="M257.6,38.2c0-0.1-0.1-0.2-0.1-0.3c0-0.1-0.1-0.1-0.2,0l-1.9,2c0,0,0,0.1,0,0.1c0,0.1,0.1,0.2,0.1,0.3
		c0,0.1,0.1,0.1,0.2,0L257.6,38.2C257.6,38.2,257.6,38.2,257.6,38.2z"/>
	<path class="st0" d="M258.6,41.2l-1.3,2.5c0,0,0,0.1,0,0.1c0.1,0.1,0.1,0.2,0.2,0.3c0,0.1,0.1,0.1,0.2,0l1.3-2.5c0,0,0-0.1,0-0.1
		c0-0.1-0.1-0.2-0.1-0.3C258.7,41.1,258.6,41.1,258.6,41.2z"/>
	<path class="st0" d="M260.4,44c0-0.1-0.2,0-0.2,0l-0.7,2.9c0,0,0,0.1,0,0.1c0.1,0.1,0.1,0.2,0.2,0.3c0.1,0.1,0.2,0,0.2,0l0.7-2.9
		c0,0,0-0.1,0-0.1C260.6,44.2,260.5,44.1,260.4,44z"/>
	<rect x="241.2" y="7.9" class="st0" width="0.3" height="50.8"/>
	<path class="st0" d="M232.5,30.2c0-0.2,0-0.5-0.1-0.7l0-0.1c-0.1-0.6-0.1-1.1-0.2-1.7c-0.1-0.7-0.3-1.5-0.5-2.4
		c-0.2-0.8-0.4-1.5-0.6-2.3c-0.1-0.2-0.1-0.4-0.2-0.5c-0.1-0.3-0.2-0.6-0.3-0.9c-0.1-0.2-0.2-0.5-0.3-0.7l-0.1-0.2
		c-0.1-0.2-0.2-0.5-0.3-0.7c-0.1-0.2-0.2-0.4-0.3-0.7c-0.2-0.3-0.3-0.7-0.5-1c-0.2-0.4-0.4-0.7-0.6-1l-0.1-0.1
		c-0.2-0.3-0.3-0.5-0.5-0.8l-0.1-0.2c-0.3-0.5-0.6-0.9-1-1.3c-0.1-0.1-0.2-0.2-0.3-0.4c-0.2-0.3-0.5-0.6-0.8-0.9
		c-0.2-0.2-0.4-0.4-0.6-0.6c-0.2-0.1-0.3-0.3-0.5-0.4c-0.3-0.3-0.5-0.5-0.8-0.7l-0.2-0.2c-0.3-0.3-0.7-0.6-1.1-0.8
		c-0.3-0.2-0.7-0.4-1-0.7l-0.4-0.2c-0.1-0.1-0.3-0.2-0.4-0.3c-0.4-0.2-0.9-0.4-1.4-0.7c-0.7-0.3-1.3-0.5-2-0.7
		c-0.6-0.2-1.2-0.3-1.7-0.3c-0.1,0-0.2,0-0.3,0c-0.1,0-0.3,0-0.4-0.1c-0.4,0-0.8,0-1.2,0c-0.5,0-1,0-1.4,0.1c-0.4,0-0.8,0.1-1.2,0.2
		l-0.2,0c-0.7,0.1-1.4,0.3-2.1,0.6c-0.5,0.2-1.1,0.4-1.7,0.7c-0.4,0.2-0.8,0.4-1.2,0.7c-0.3,0.2-0.7,0.4-1.1,0.7
		c-0.3,0.2-0.5,0.4-0.8,0.6c-0.3,0.2-0.6,0.5-0.9,0.7l-0.1,0.1c-0.2,0.2-0.4,0.3-0.6,0.5c-0.1,0.1-0.2,0.3-0.4,0.4
		c-0.2,0.2-0.4,0.4-0.5,0.6c-0.1,0.1-0.2,0.2-0.3,0.3c-0.1,0.1-0.2,0.2-0.3,0.3l-0.1,0.2c-0.3,0.4-0.7,0.8-1,1.3l-0.2,0.3
		c-0.2,0.3-0.3,0.5-0.5,0.8c-0.2,0.3-0.4,0.6-0.6,0.9c-0.2,0.4-0.4,0.7-0.6,1.1l-0.1,0.2c0,0.1-0.1,0.1-0.1,0.2
		c0,0.1-0.1,0.1-0.1,0.2c-0.3,0.5-0.5,1-0.7,1.7c-0.3,0.8-0.6,1.5-0.8,2.2c-0.2,0.8-0.4,1.5-0.6,2.2c-0.1,0.5-0.2,1-0.3,1.5l0,0.1
		c-0.1,0.3-0.1,0.7-0.2,1c-0.1,0.4-0.1,0.8-0.2,1.2c0,0.3-0.1,0.5-0.1,0.8l0,0.3c0,0.3,0,0.5-0.1,0.8c0,0.2,0,0.5,0,0.7
		c0,0.1,0,0.3,0,0.4l0,0.4c0,0.2,0,0.4,0,0.6l0,0.2c0,0.3,0,0.6,0,0.9c0,0.7,0.1,1.2,0.1,1.8c0.1,0.8,0.2,1.5,0.3,2.1
		c0.1,0.4,0.1,0.9,0.2,1.3l0,0.2c0.1,0.3,0.1,0.6,0.2,0.9l0.1,0.3c0.2,0.6,0.3,1.2,0.5,1.8c0.2,0.7,0.5,1.4,0.7,2
		c0.2,0.5,0.3,0.9,0.5,1.3c0.1,0.1,0.1,0.3,0.2,0.4c0.2,0.4,0.4,0.8,0.6,1.2c0.1,0.2,0.2,0.4,0.3,0.6c0.1,0.2,0.3,0.5,0.4,0.7
		c0.5,0.8,0.9,1.5,1.4,2c0.1,0.1,0.1,0.2,0.2,0.3c0.1,0.2,0.3,0.4,0.4,0.6c0.2,0.2,0.5,0.5,0.8,0.8c0.3,0.3,0.7,0.7,1.1,1.1l0.1,0.1
		c0.4,0.3,0.8,0.7,1.2,1c0.5,0.3,0.9,0.7,1.4,1c0.4,0.3,0.9,0.5,1.3,0.7c0.3,0.1,0.6,0.3,0.9,0.5c0.4,0.2,0.8,0.3,1.2,0.4
		c0.7,0.2,1.3,0.4,1.8,0.5c0.3,0.1,0.7,0.1,1,0.1l0.4,0c0.2,0,0.3,0,0.5,0c0.2,0,0.4,0,0.6,0l0.5,0c0.1,0,0.2,0,0.3,0
		c0.1,0,0.2,0,0.3,0c0.1,0,0.3,0,0.4,0c0.1,0,0.2,0,0.3,0c0.6,0,1.3-0.2,1.9-0.3c0.7-0.2,1.4-0.4,2.2-0.7c0.5-0.2,1-0.5,1.5-0.8
		c0.5-0.3,1-0.6,1.5-0.9c0.1,0,0.1-0.1,0.2-0.1c0.1,0,0.1-0.1,0.2-0.1l0.1-0.1c0.2-0.1,0.4-0.3,0.6-0.5c0.2-0.2,0.5-0.4,0.7-0.6
		l0.3-0.3c0.1-0.1,0.2-0.1,0.2-0.2c0.2-0.1,0.3-0.3,0.5-0.4c0.2-0.2,0.3-0.3,0.5-0.5l0.1-0.1c0.1-0.1,0.3-0.3,0.4-0.4
		c0.2-0.2,0.3-0.4,0.5-0.5c0.4-0.5,0.8-1,1.1-1.5l0.1-0.1c0.3-0.4,0.5-0.7,0.7-1.1l0.2-0.4c0,0,0.1-0.1,0.1-0.2l0.1-0.3
		c0.1-0.2,0.2-0.5,0.4-0.7c0.2-0.4,0.4-0.8,0.6-1.1c0.2-0.4,0.3-0.7,0.5-1.1l0.1-0.3c0.1-0.3,0.2-0.6,0.3-0.8
		c0.2-0.7,0.5-1.6,0.8-2.5c0.1-0.4,0.2-0.7,0.3-1.1c0-0.2,0.1-0.3,0.1-0.5c0.2-0.8,0.3-1.7,0.5-2.8c0.1-0.6,0.1-1.2,0.2-1.9
		c0-0.5,0.1-0.9,0.1-1.4c0-0.2,0-0.4,0-0.6c0-0.9,0-1.8-0.1-2.7C232.6,30.7,232.6,30.5,232.5,30.2z M232,35.1c0,0.1,0,0.1,0,0.1
		c0,0.3,0,0.5-0.1,0.8l-0.1,0.5c-0.1,0.6-0.1,1.1-0.2,1.7c0,0.3-0.1,0.7-0.2,1l-0.1,0.4c-0.1,0.5-0.2,1-0.3,1.5
		c-0.1,0.6-0.3,1.1-0.5,1.7c-0.1,0.4-0.3,1-0.5,1.5c-0.1,0.3-0.2,0.6-0.4,0.9l0,0.1c-0.2,0.5-0.4,0.9-0.6,1.4
		c-0.1,0.2-0.2,0.5-0.4,0.7c-0.1,0.2-0.2,0.4-0.3,0.6c-0.3,0.6-0.6,1.1-1,1.6c-0.1,0.1-0.2,0.3-0.3,0.4c-0.3,0.5-0.7,1.1-1.2,1.6
		c-0.1,0.1-0.3,0.3-0.4,0.4c-0.2,0.2-0.4,0.4-0.6,0.7c-0.3,0.3-0.5,0.5-0.8,0.8c-0.1,0.1-0.3,0.2-0.4,0.3c-0.1,0.1-0.3,0.2-0.4,0.4
		c-0.3,0.3-0.7,0.6-1.1,0.8l-0.1,0c-0.5,0.4-1,0.7-1.5,1c-0.6,0.4-1.1,0.6-1.6,0.8c-0.5,0.2-0.9,0.4-1.4,0.5
		c-0.6,0.2-1.4,0.4-2.2,0.5c-0.2,0-0.5,0.1-0.7,0.1l-0.2,0c-0.3,0-0.5,0-0.8,0l-0.3,0h-0.3c-0.8,0-1.7-0.1-2.3-0.3
		c-0.5-0.1-1-0.2-1.4-0.4l-0.1,0c-0.3-0.1-0.7-0.2-1-0.4c-0.4-0.2-0.9-0.4-1.4-0.7l-0.1-0.1c-0.5-0.3-1.1-0.6-1.6-1
		c-0.3-0.3-0.7-0.5-1-0.8c-0.4-0.3-0.7-0.6-1.1-0.9c-0.2-0.2-0.4-0.4-0.6-0.6l-0.1-0.1c-0.3-0.3-0.5-0.5-0.7-0.8
		c-0.1-0.1-0.2-0.2-0.2-0.3c-0.1-0.1-0.2-0.3-0.3-0.4c-0.3-0.3-0.5-0.6-0.7-1l-0.1-0.1c-0.4-0.6-0.8-1.1-1.1-1.7
		c-0.3-0.5-0.6-1-0.8-1.6c-0.3-0.7-0.6-1.5-1-2.3c-0.1-0.3-0.2-0.5-0.3-0.8l0-0.2c-0.1-0.3-0.2-0.7-0.3-1.1l0-0.1
		c-0.2-0.6-0.4-1.3-0.5-1.9c0-0.2-0.1-0.4-0.1-0.6c-0.1-0.5-0.2-1.1-0.3-1.6c-0.1-0.7-0.2-1.5-0.3-2.2c-0.1-0.6-0.1-1.2-0.1-1.9
		c0-0.1,0-0.2,0-0.3c0-0.2,0-0.4,0-0.6c0-0.1,0-0.2,0-0.3c0-0.1,0-0.2,0-0.2c0-0.2,0-0.4,0-0.6c0-0.2,0-0.4,0-0.5c0-0.2,0-0.4,0-0.6
		l0-0.3c0-0.3,0-0.6,0.1-0.9c0.1-0.9,0.3-1.9,0.4-2.9c0.1-0.8,0.4-1.7,0.6-2.5c0.2-0.7,0.4-1.4,0.6-2c0.2-0.6,0.4-1.2,0.7-1.9
		c0.2-0.4,0.4-0.9,0.6-1.2c0.3-0.6,0.6-1.1,0.8-1.5c0.3-0.4,0.5-0.9,0.7-1.2c0.3-0.5,0.6-0.9,0.8-1.2c0.2-0.3,0.4-0.5,0.7-0.8
		l0.2-0.2c0.3-0.3,0.6-0.7,0.9-1c0.3-0.3,0.6-0.6,0.9-0.8l0.2-0.2c0.3-0.3,0.7-0.6,1-0.9c0.3-0.2,0.6-0.4,0.9-0.6l0.3-0.2
		c0.4-0.2,0.7-0.5,1.1-0.7c0.4-0.2,1-0.5,1.5-0.7l0.8-0.3c0.6-0.2,1.1-0.4,1.6-0.5c0.5-0.1,1-0.2,1.5-0.2c0.4,0,0.8,0,1.3-0.1
		c0,0,0,0,0,0c0.5,0,1.1,0.1,1.6,0.1l0.1,0c0.7,0.1,1.4,0.2,2.2,0.5c0.7,0.2,1.5,0.5,2.2,0.9c0.3,0.2,0.7,0.4,1,0.6l0.3,0.2
		c0.2,0.1,0.3,0.2,0.5,0.3l0.2,0.1c0.2,0.2,0.5,0.3,0.7,0.5c0.4,0.3,0.8,0.6,1.1,0.9l0.2,0.1c0,0,0.1,0.1,0.1,0.1
		c0,0,0.1,0.1,0.1,0.1c0.1,0.1,0.2,0.2,0.3,0.3c0.2,0.2,0.4,0.4,0.7,0.7c0.3,0.3,0.5,0.6,0.7,0.8c0.3,0.4,0.6,0.7,0.8,1
		c0.1,0.2,0.3,0.4,0.4,0.6l0.1,0.1c0.1,0.2,0.3,0.5,0.4,0.7c0.2,0.3,0.3,0.5,0.5,0.8c0.4,0.6,0.7,1.3,1,1.9l0.2,0.4
		c0.3,0.6,0.5,1.2,0.8,1.8c0.2,0.5,0.3,1,0.5,1.5l0.1,0.2c0.1,0.4,0.2,0.9,0.4,1.4c0,0.2,0.1,0.4,0.1,0.5l0.1,0.5
		c0.1,0.3,0.1,0.6,0.2,0.8c0,0.2,0.1,0.4,0.1,0.5l0.1,0.5c0,0.2,0.1,0.4,0.1,0.6c0.1,0.4,0.1,0.8,0.1,1.3c0,0.3,0.1,0.6,0.1,0.9
		c0,0.3,0,0.6,0,0.9c0,0.3,0,0.7,0,1c0,0.3,0,0.6,0,1c0,0.3,0,0.6,0,0.9C232,35,232,35,232,35.1z"/>
	<path class="st0" d="M198.8,23.9C198.8,24,198.8,24,198.8,23.9c0.1,0.1,0.1,0.1,0.2,0.2c0.1,0.1,0.2,0.1,0.3,0.2c0,0,0.1,0,0.1,0
		c0.1,0,0.2,0.1,0.3,0.1c0.1,0,0.1,0,0.2,0c0,0,0.1,0,0.1,0c0.1,0,0.2,0,0.3,0l0,0c0.1-0.1,0.2-0.1,0.4-0.2c0.1-0.1,0.3-0.2,0.4-0.4
		c0.2-0.3,0.1-0.6,0.1-0.9l0,0c0-0.5-0.4-0.8-0.9-0.8c-0.3,0-0.6,0.1-0.7,0.3c-0.2,0.2-0.3,0.5-0.2,0.9c0,0.1,0.1,0.2,0.2,0.2
		c0.1,0,0.2,0,0.3-0.1c0.1-0.1,0.1-0.2,0.1-0.3c0-0.1,0-0.2,0.1-0.2c0.1-0.1,0.2-0.1,0.2,0c0,0,0.1,0,0.1,0.1
		c0.2,0.1,0.2,0.3,0.2,0.5c0,0.3-0.2,0.5-0.4,0.5c-0.3,0.1-0.6,0.1-0.9-0.1c-0.3-0.2-0.4-0.5-0.4-0.8l0,0c0.1-0.5,0.1-0.9,0.3-1.4
		c0-0.1,0.1-0.2,0.1-0.2c0-0.1,0-0.2,0.1-0.3c0.3-0.6,0.6-1.1,0.9-1.7c0.1-0.1,0.1-0.2,0.2-0.3c0-0.1,0.1-0.1,0.1-0.2
		c0.1-0.1,0.1-0.2,0.2-0.3c0.1-0.2,0.2-0.4,0.4-0.6c0.3-0.4,0.6-0.9,0.9-1.3c0.3-0.4,0.6-0.8,1-1.3c0.1-0.2,0.3-0.4,0.5-0.5
		c0.3-0.3,0.6-0.6,0.9-0.9c0.2-0.2,0.5-0.4,0.7-0.6l0.2-0.1c0.2-0.2,0.4-0.4,0.6-0.5c0.4-0.3,0.7-0.5,1.1-0.8l0.2-0.1
		c0.2-0.1,0.5-0.3,0.7-0.4c0.5-0.3,1.1-0.5,1.6-0.7c0.8-0.3,1.6-0.5,2.3-0.7c0.3-0.1,0.6-0.1,0.9-0.1l0.2,0c0.2,0,0.4,0,0.7-0.1
		c0.1,0,0.3,0,0.4,0l0.3,0c0.3,0,0.5,0,0.8,0c0.4,0,0.7,0.1,1.1,0.1c0.3,0,0.6,0.1,0.9,0.2c0.7,0.2,1.4,0.5,2.2,0.8
		c0.4,0.2,0.7,0.4,1,0.6l0.2,0.1c0.2,0.1,0.5,0.3,0.7,0.4c0.8,0.6,1.5,1.2,2.2,1.8c0.2,0.2,0.5,0.4,0.6,0.6c0.1,0.1,0.3,0.3,0.4,0.5
		c0.1,0.1,0.2,0.2,0.2,0.3c0,0,0.1,0.1,0.1,0.1c0,0,0.1,0.1,0.1,0.1c0.2,0.3,0.5,0.6,0.8,1l0.1,0.1c0.2,0.2,0.4,0.5,0.6,0.8
		c0.3,0.4,0.6,0.9,0.8,1.3l0,0c0.1,0.2,0.3,0.5,0.4,0.8c0.1,0.2,0.2,0.4,0.3,0.6c0.1,0.1,0.1,0.2,0.2,0.4c0.1,0.2,0.2,0.5,0.4,0.7
		l0.1,0.3c0.1,0.2,0.2,0.3,0.2,0.5c0.1,0.4,0.1,0.8,0,1.2c-0.1,0.1-0.1,0.3-0.2,0.4c-0.2,0.2-0.4,0.3-0.7,0.3
		c-0.3,0-0.5-0.1-0.7-0.4c-0.1-0.2-0.1-0.5,0.1-0.7c0.1-0.1,0.2-0.1,0.3-0.1c0.1,0.1,0.2,0.1,0.2,0.3c0,0,0,0.1,0,0.1l0,0.1l0.1,0
		c0.2,0,0.3,0,0.4-0.1c0.1-0.1,0.1-0.2,0.1-0.4c0-0.4-0.4-0.8-0.9-0.9c0,0,0,0,0,0c-0.4,0-0.8,0.3-0.9,0.7c-0.1,0.4,0,0.8,0.2,1.2
		c0.2,0.3,0.4,0.4,0.6,0.5c0.2,0.1,0.4,0.1,0.6,0l0.1,0c0.4,0,0.7-0.2,0.9-0.6c0.2-0.3,0.3-0.7,0.3-1.1c0-0.1,0-0.3,0-0.5
		c0-0.3-0.2-0.5-0.3-0.8l0-0.1c-0.3-0.5-0.5-1.1-0.8-1.6l-0.1-0.2c-0.1-0.2-0.2-0.4-0.4-0.7c-0.1-0.2-0.2-0.3-0.3-0.5
		c-0.3-0.6-0.7-1.2-1.1-1.7c-0.1-0.2-0.2-0.3-0.3-0.5c-0.1-0.2-0.3-0.4-0.4-0.6c-0.3-0.4-0.7-0.8-1-1.2c-0.4-0.4-0.9-0.9-1.5-1.3
		c-0.4-0.3-0.8-0.6-1.2-0.9l-0.1-0.1c-0.3-0.2-0.6-0.4-0.9-0.6c-0.3-0.2-0.6-0.4-0.9-0.5c-0.3-0.1-0.6-0.3-0.9-0.5
		c-0.5-0.2-0.9-0.4-1.4-0.5c-0.3-0.1-0.6-0.2-1-0.3l-0.1,0c-0.6-0.1-1.2-0.2-1.9-0.2c-0.1,0-0.2,0-0.2,0c-0.1,0-0.2,0-0.2,0
		c-0.2,0-0.4,0-0.5,0c-0.1,0-0.3,0-0.4,0c-0.3,0-0.7,0-1,0.1c-0.2,0-0.4,0.1-0.6,0.1c-0.3,0.1-0.7,0.1-1,0.2
		c-0.5,0.1-0.9,0.3-1.5,0.5c-0.7,0.3-1.3,0.6-1.8,0.9l-0.2,0.1c-0.2,0.1-0.5,0.3-0.7,0.5c-0.3,0.2-0.6,0.4-0.9,0.6l-0.1,0.1
		c-0.2,0.1-0.4,0.3-0.5,0.4c-0.1,0.1-0.2,0.2-0.4,0.3c-0.1,0.1-0.2,0.2-0.3,0.3c-0.1,0.1-0.2,0.1-0.2,0.2c-0.1,0.1-0.3,0.2-0.4,0.4
		c-0.3,0.3-0.6,0.6-1,1c-0.1,0.1-0.2,0.2-0.3,0.4c-0.1,0.1-0.2,0.2-0.3,0.3c-0.3,0.3-0.5,0.7-0.8,1.1c-0.1,0.1-0.2,0.3-0.3,0.4
		c-0.2,0.3-0.4,0.5-0.5,0.8c-0.2,0.3-0.3,0.5-0.5,0.8c-0.2,0.3-0.4,0.6-0.5,1c-0.1,0.1-0.1,0.2-0.2,0.3c-0.4,0.7-0.6,1.3-0.7,1.8
		c-0.1,0.3-0.1,0.7-0.1,1.1C198.4,23.4,198.5,23.7,198.8,23.9C198.8,23.9,198.8,23.9,198.8,23.9z"/>
	<path class="st0" d="M212.8,53.8c-0.5-0.3-0.9-0.3-1.4,0c-0.4,0.3-0.6,0.8-0.5,1.3c0.1,0.4,0.3,0.6,0.7,0.6c0.2,0,0.4-0.1,0.5-0.3
		c0.1-0.3,0.1-0.5,0-0.7c-0.1-0.1-0.2-0.2-0.4-0.1c-0.1,0-0.1,0.1-0.1,0.1c0-0.1,0.1-0.2,0.3-0.3c0.2-0.1,0.4-0.1,0.6,0
		c0.2,0.1,0.5,0.7,0.3,1.1l0,0.1c-0.1,0.2-0.2,0.4-0.3,0.4l-0.1,0c-0.2,0.1-0.3,0.1-0.5,0.2c-0.4,0.1-0.8,0.2-1.2,0.1l-0.1,0
		c-0.3,0-0.6-0.1-0.8-0.1c-0.4-0.1-0.8-0.3-1.2-0.5l-0.2-0.1c-0.3-0.1-0.5-0.2-0.7-0.4c-0.2-0.1-0.4-0.3-0.7-0.4
		c-0.2-0.1-0.3-0.2-0.5-0.3c-0.5-0.3-1-0.7-1.5-1.2c-0.2-0.1-0.3-0.3-0.5-0.5l-0.2-0.2c-0.1,0-0.1-0.1-0.2-0.1
		c-0.1-0.1-0.3-0.2-0.4-0.4c-0.1-0.1-0.2-0.2-0.3-0.3c0-0.1-0.1-0.1-0.1-0.2c-0.1-0.1-0.2-0.3-0.4-0.4c-0.2-0.3-0.5-0.6-0.7-0.9
		c-0.4-0.5-0.8-1-1.1-1.5l0-0.1c-0.3-0.5-0.7-1.1-0.9-1.6c-0.1-0.2-0.2-0.3-0.3-0.5c-0.1-0.2-0.2-0.4-0.3-0.6
		c-0.3-0.6-0.5-1.1-0.7-1.5c-0.2-0.4-0.3-0.9-0.5-1.3c-0.1-0.3-0.2-0.6-0.3-0.9l-0.1-0.5c-0.1-0.3-0.2-0.7-0.3-1
		c-0.1-0.6-0.2-1.2-0.4-1.8c-0.1-0.4-0.1-0.9-0.2-1.5c-0.1-0.4-0.1-0.8-0.1-1.3c0-0.5-0.1-1.1-0.1-1.6c0-0.2,0-0.5,0-0.7l0-0.4
		c0-0.2,0-0.4,0-0.6c0-0.4,0-0.8,0.1-1.2l0-0.3c0-0.2,0-0.3,0-0.5c0-0.1,0-0.1,0-0.2c0-0.1,0-0.2,0-0.3c0-0.1,0-0.1,0-0.2
		s0-0.1,0-0.2c0-0.1,0-0.2,0-0.3c0-0.1,0-0.2,0-0.3c0-0.5,0.1-1.2,0.3-1.8c0.1-0.4,0.3-0.9,0.4-1.4c0.1-0.3,0.3-0.6,0.6-0.8
		c0.3-0.3,0.7-0.3,1,0c0.1,0.1,0.2,0.2,0.2,0.3c0.1,0.4-0.1,0.7-0.3,0.9c-0.1,0.1-0.2,0.1-0.3,0.1c-0.1,0-0.2-0.1-0.2-0.2
		c0-0.1,0-0.1,0-0.2c0.1-0.1,0.2-0.3,0.1-0.4c-0.1-0.1-0.3-0.2-0.4-0.1c0,0,0,0-0.1,0c-0.2,0.1-0.2,0.2-0.3,0.4c0,0.1,0,0.1,0,0.2
		c0,0.1,0,0.1,0,0.1c0,0.3,0.1,0.5,0.4,0.7c0.3,0.2,0.9,0.2,1.2-0.2c0.1-0.1,0.2-0.3,0.3-0.5c0.1-0.3,0.1-0.6,0-0.9
		c0-0.2-0.1-0.3-0.2-0.5c-0.2-0.4-0.6-0.5-0.9-0.5c-0.2,0-0.4,0-0.7,0.1c-0.3,0.1-0.5,0.3-0.7,0.5c-0.1,0.1-0.2,0.3-0.3,0.4
		c-0.2,0.4-0.3,0.8-0.4,1.1c-0.1,0.5-0.3,1-0.4,1.5c-0.1,0.3-0.1,0.5-0.1,0.8l0,0.2c0,0.2,0,0.3-0.1,0.5c-0.1,0.5-0.1,1-0.1,1.5
		c0,0.7,0,1.4,0,2.1c0,0.4,0,0.8,0,1.2l0,0.3c0,0.2,0,0.5,0,0.8c0,0.2,0,0.3,0,0.5c0,0.1,0,0.3,0,0.4c0,0.1,0,0.2,0,0.3
		c0,0.2,0,0.3,0,0.5c0,0.2,0,0.3,0.1,0.5c0,0.2,0.1,0.3,0.1,0.5c0.1,0.8,0.3,1.6,0.4,2.2c0.2,0.8,0.4,1.6,0.6,2.4
		c0.2,0.6,0.4,1.2,0.6,1.6c0.2,0.4,0.4,0.9,0.6,1.3c0.1,0.2,0.2,0.4,0.2,0.5c0,0,0,0.1,0.1,0.1c0,0,0,0.1,0.1,0.1
		c0.3,0.6,0.6,1.1,0.8,1.5c0.1,0.2,0.2,0.4,0.4,0.6c0.2,0.3,0.3,0.5,0.5,0.8c0.2,0.3,0.5,0.7,0.7,1l0,0.1c0.1,0.2,0.3,0.4,0.4,0.5
		l0.2,0.2c0.2,0.3,0.5,0.5,0.7,0.8c0.2,0.2,0.4,0.4,0.6,0.5l0.1,0.1c0.3,0.2,0.5,0.5,0.8,0.7l0.1,0.1c0.2,0.2,0.4,0.3,0.6,0.5
		c0.3,0.3,0.8,0.6,1.3,0.9c0.4,0.3,0.8,0.5,1.3,0.7c0.4,0.2,0.8,0.4,1.3,0.6c0.3,0.1,0.6,0.2,0.9,0.2c0.3,0,0.6,0,0.8,0
		c0,0,0.1,0,0.1,0c0.5,0,1-0.1,1.5-0.3c0.2-0.1,0.4-0.2,0.6-0.4c0.3-0.4,0.4-0.8,0.3-1.4C213.2,54.3,213,54,212.8,53.8z"/>
	<path class="st0" d="M231.2,29.8c-0.1-0.7-0.2-1.4-0.3-2.1c-0.1-0.4-0.2-0.8-0.2-1.1l-0.1-0.4c0-0.1,0-0.2-0.1-0.2
		c-0.2-0.3-0.4-0.6-0.7-0.8c-0.3-0.2-0.6-0.4-1-0.3c-0.1,0-0.1,0-0.2,0c0,0-0.1,0-0.1,0c-0.5,0.1-0.9,0.5-1,1c-0.1,0.6,0,1,0.4,1.3
		c0.3,0.2,0.8,0.4,1.1,0.2c0.5-0.3,0.7-0.8,0.4-1.3c0-0.1-0.1-0.1-0.1-0.2c-0.1-0.1-0.2-0.1-0.3-0.1c-0.1,0-0.2,0-0.2,0.1
		c-0.1,0.1-0.1,0.2,0.1,0.4l0,0l0,0.1c0,0.1,0,0.2-0.1,0.3c-0.1,0.1-0.2,0.1-0.3,0.1c-0.2-0.1-0.4-0.2-0.5-0.6c0-0.1,0-0.2,0-0.3
		c0.1-0.2,0.3-0.4,0.5-0.5c0.2-0.1,0.3-0.1,0.5-0.1c0.4,0,0.7,0.2,1,0.6c0.2,0.2,0.2,0.5,0.3,0.8c0,0.2,0.1,0.4,0.1,0.7
		c0.1,0.3,0.1,0.5,0.2,0.8c0.1,0.5,0.1,1.1,0.2,1.6l0,0.3c0,0.3,0.1,0.6,0.1,0.9c0,0.1,0,0.2,0,0.3c0,0.2,0,0.5,0,0.7
		c0,0.2,0,0.4,0,0.6c0,0.1,0,0.2,0,0.2c0,0.1,0,0.1,0,0.2c0,0.1,0,0.2,0,0.3c0,0.1,0,0.3,0,0.4c0,0.1,0,0.3,0,0.4c0,0.2,0,0.4,0,0.6
		c0,0.3,0,0.6,0,0.8c0,0.2,0,0.4-0.1,0.6c0,0.2,0,0.4-0.1,0.7c0,0.4-0.1,0.9-0.2,1.3c0,0.2-0.1,0.5-0.1,0.7c0,0.3-0.1,0.6-0.2,0.9
		c0,0.1,0,0.2-0.1,0.3l0,0.2c-0.1,0.4-0.2,0.8-0.3,1.1c-0.1,0.4-0.2,0.7-0.3,1.1l-0.1,0.4c0,0.1,0,0.1-0.1,0.2l-0.2,0.5
		c-0.2,0.5-0.3,0.9-0.5,1.4c-0.2,0.4-0.3,0.8-0.5,1.1c-0.1,0.3-0.3,0.5-0.4,0.8l-0.1,0.3c-0.2,0.4-0.5,0.9-0.7,1.3
		c-0.1,0.3-0.3,0.5-0.5,0.7l-0.1,0.2c-0.2,0.3-0.4,0.6-0.6,0.8c-0.4,0.5-0.9,1-1.2,1.5c-0.3,0.3-0.5,0.5-0.7,0.7
		c-0.3,0.3-0.7,0.6-1,0.9l-0.1,0.1c-0.5,0.4-1,0.8-1.5,1.1c-0.4,0.3-0.8,0.5-1.3,0.8c-0.4,0.2-0.7,0.4-1.1,0.5l-0.1,0.1
		c-0.1,0.1-0.3,0.1-0.5,0.2c-0.2,0-0.3,0.1-0.5,0.1c-0.1,0-0.2,0.1-0.3,0.1c-0.4,0.1-0.7,0.1-1.1,0.1c-0.3,0-0.7-0.1-1-0.2
		c-0.3-0.1-0.5-0.3-0.6-0.6c-0.2-0.4,0.1-0.9,0.3-1.1c0.1-0.1,0.2-0.1,0.3-0.1c0.1,0,0.3,0.1,0.4,0.2c0,0,0.1,0.1,0.1,0.1
		c0,0,0,0-0.1-0.1c-0.1-0.1-0.3-0.1-0.4,0.1c-0.2,0.2-0.2,0.6,0,0.8c0.2,0.2,0.4,0.3,0.7,0.3c0.2-0.1,0.5-0.2,0.5-0.6
		c0-0.1,0-0.3,0-0.4c-0.1-0.3-0.2-0.6-0.4-0.8c-0.1-0.1-0.3-0.2-0.5-0.2c-0.5-0.1-0.9,0.1-1.2,0.4c-0.3,0.3-0.4,0.8-0.3,1.2
		c0,0,0,0,0,0.1c0,0.1,0,0.2,0.1,0.3c0.3,0.5,0.6,0.7,1,0.9l0.2,0c0.1,0,0.2,0.1,0.3,0.1c0.3,0.1,0.6,0.1,0.9,0.1c0.1,0,0.3,0,0.4,0
		c0.4-0.1,0.9-0.2,1.3-0.3c0.2,0,0.3-0.1,0.4-0.1c0.1-0.1,0.3-0.1,0.4-0.2c0.2-0.1,0.3-0.1,0.5-0.2c0.6-0.3,1.1-0.6,1.6-0.9
		c0.3-0.2,0.6-0.4,0.8-0.6c0.5-0.4,0.9-0.7,1.3-1.1c0.1-0.1,0.2-0.2,0.3-0.2c0.1-0.1,0.2-0.2,0.3-0.3c0.3-0.2,0.5-0.5,0.8-0.7
		c0.1-0.1,0.2-0.2,0.3-0.3c0.2-0.2,0.3-0.4,0.5-0.6c0.1-0.1,0.1-0.2,0.2-0.3c0.1-0.1,0.1-0.1,0.2-0.2c0.1-0.2,0.3-0.3,0.4-0.5
		c0.2-0.2,0.3-0.5,0.5-0.7l0.1-0.1c0.1-0.1,0.2-0.3,0.3-0.5c0.1-0.2,0.2-0.4,0.3-0.6l0.1-0.2c0.1-0.2,0.2-0.3,0.3-0.5
		c0.2-0.4,0.4-0.7,0.6-1.1c0.3-0.5,0.5-1.1,0.8-1.7c0.2-0.6,0.5-1.2,0.7-2c0.1-0.4,0.2-0.7,0.3-1.1l0-0.1c0.1-0.4,0.2-0.9,0.3-1.3
		c0.1-0.5,0.2-1,0.3-1.4c0-0.2,0-0.3,0.1-0.5c0-0.1,0-0.1,0-0.2l0-0.3c0-0.2,0.1-0.5,0.1-0.7c0-0.2,0-0.4,0.1-0.5c0-0.1,0-0.2,0-0.3
		c0-0.1,0-0.3,0-0.4c0-0.3,0.1-0.5,0.1-0.8c0-0.4,0-0.9,0-1.3v-0.1c0-0.8,0-1.7,0-2.6C231.3,30.8,231.2,30.2,231.2,29.8z
		 M228.9,26.3C228.9,26.3,228.9,26.3,228.9,26.3L228.9,26.3L228.9,26.3L228.9,26.3z"/>
	<path class="st0" d="M216.1,50.8c0.6,0,1.1-0.1,1.7-0.1c0.2,0,0.3,0,0.5,0c0.5-0.1,1.1-0.1,1.6-0.2c0.2,0,0.4,0,0.6-0.1
		c0.2,0,0.4,0,0.6-0.1c0.2,0,0.4-0.2,0.4-0.5c0-0.2,0-0.4,0-0.5c-0.1-0.6-0.2-1.3-0.3-1.9c-0.1-0.4-0.1-0.8-0.2-1.2
		c-0.1-0.6-0.2-1.3-0.3-1.9c-0.1-0.5-0.2-1-0.2-1.4c0-0.3-0.1-0.5-0.1-0.8c0-0.3,0.1-0.7,0.2-1c0.1-0.3,0.2-0.6,0.5-0.8
		c0.1-0.1,0.1-0.1,0.2-0.1c0,0,0,0.1,0.1,0.1c0.2,0.4,0.6,0.5,1,0.2c0.3-0.2,0.5-0.7,0.3-1.1c0-0.1,0-0.1-0.1-0.2c0.1,0,0.1,0,0.1,0
		c0.5,0.2,0.9,0.1,1.4-0.2c0.2-0.2,0.5-0.4,0.8-0.5c0.5-0.2,1-0.1,1.5,0.2c0.2,0.1,0.4,0.3,0.6,0.5c0.1,0.2,0.3,0.1,0.3-0.1
		c0.1-0.2,0.1-0.5,0-0.7c-0.1-0.3-0.2-0.5-0.4-0.7c-0.2-0.1-0.3-0.3-0.5-0.3c0,0-0.1,0-0.1-0.1c0-0.1,0-0.1,0-0.2
		c0-0.4-0.2-0.7-0.6-0.7c-0.2,0-0.5-0.1-0.7-0.1c-0.1,0-0.1,0-0.2,0c0,0,0-0.1,0-0.1c0.1-0.2,0.2-0.5,0.3-0.8c0-0.3,0.1-0.6,0-0.8
		c-0.2-0.7-0.6-1.2-1.3-1.5c-0.2,0-0.3-0.1-0.5-0.1c-0.2,0-0.2,0.1-0.2,0.2c0.1,0.3,0.2,0.7,0.3,1c0.1,0.3,0,0.6-0.1,0.9
		c-0.2,0.5-0.4,0.9-0.7,1.3c-0.2,0.2-0.3,0.4-0.4,0.6c-0.1,0.2-0.1,0.3-0.2,0.5c-0.2,0.4-0.1,0.8,0.2,1.2c0,0,0,0.1,0.1,0.1
		c-0.1,0-0.2,0-0.2,0c-0.2,0-0.4,0-0.5,0c-0.6,0.2-1,0.6-1.1,1.2c0,0.1-0.1,0.2-0.1,0.3c0,0,0,0,0,0c0-0.1-0.1-0.2-0.1-0.3
		c-0.1-0.5-0.2-0.9-0.3-1.4c-0.1-0.5-0.2-1.1-0.3-1.6c-0.1-0.4-0.1-0.7-0.2-1.1c-0.1-0.4-0.2-0.9-0.2-1.3c-0.1-0.3-0.2-0.6-0.1-1
		c0-0.2,0.1-0.4,0.1-0.6c0.1-0.3,0.2-0.5,0.3-0.7c0,0,0,0,0.1,0c0.3,0.3,0.7,0.4,1.1,0.2c0.4-0.2,0.5-0.6,0.5-1.1c0,0,0,0,0.1,0
		c0,0,0.1,0,0.1,0c0.4,0.1,0.8,0,1.1-0.3c0.2-0.2,0.5-0.3,0.8-0.4c0.5-0.1,1.1-0.1,1.6,0.2c0.2,0.1,0.3,0.2,0.5,0.3
		c0.1,0.1,0.3,0.1,0.3-0.1c0-0.2,0-0.4,0-0.5c-0.1-0.5-0.4-0.9-0.8-1.1c-0.2-0.1-0.3-0.2-0.3-0.4c0,0,0-0.1,0-0.1
		c0-0.1-0.1-0.3-0.2-0.4c-0.2-0.2-0.4-0.4-0.7-0.4c0,0,0,0-0.1,0c0-0.1,0-0.3,0-0.5c0-0.3-0.1-0.5-0.2-0.7c-0.2-0.3-0.4-0.6-0.8-0.9
		c-0.3-0.2-0.6-0.3-0.9-0.4c-0.2,0-0.3,0.1-0.2,0.2c0.1,0.3,0.2,0.6,0.3,1c0.1,0.5,0,1-0.2,1.4c-0.1,0.3-0.4,0.6-0.6,0.9
		c-0.4,0.4-0.6,0.8-0.5,1.4c0,0,0,0,0,0.1c-0.2,0-0.4,0.1-0.6,0.1c-0.2,0-0.3,0.1-0.4,0.3c-0.1,0.2-0.2,0.3-0.3,0.5
		c-0.1,0.3-0.2,0.6-0.4,0.9c-0.1-0.2-0.1-0.4-0.2-0.6c-0.1-0.4-0.2-0.8-0.2-1.3c-0.1-0.4-0.2-0.9-0.3-1.3c-0.1-0.7-0.3-1.3-0.5-2
		c-0.1-0.5-0.3-0.9-0.1-1.4c0.1-0.2,0.1-0.4,0.3-0.5c0.2,0.1,0.3,0.1,0.4,0.2c0.4,0.1,0.8-0.1,0.8-0.5c0-0.1,0-0.3,0.1-0.4
		c0,0,0,0,0.1,0c0.6,0.1,1-0.1,1.3-0.5c0.1-0.1,0.2-0.2,0.3-0.3c0.3-0.2,0.6-0.3,0.9-0.4c0.6-0.1,1.1,0,1.5,0.4
		c0.1,0.1,0.1,0.1,0.2,0.1c0,0,0.1,0,0.2,0c0,0,0.1-0.1,0.1-0.1c0-0.1,0-0.3,0-0.4c0-0.2-0.1-0.5-0.3-0.6c-0.2-0.2-0.5-0.5-0.8-0.6
		c-0.1,0-0.1-0.1-0.2-0.2c0-0.2-0.2-0.3-0.3-0.4c-0.4-0.1-0.7-0.2-1.1-0.1c-0.1,0-0.1,0-0.2,0c0-0.1,0-0.1,0-0.1
		c0-0.1,0.1-0.2,0.1-0.4c0.1-0.3,0-0.5-0.1-0.7c-0.1-0.2-0.3-0.3-0.5-0.3c0,0-0.1,0-0.1-0.1c-0.1-0.2-0.2-0.3-0.4-0.5
		c-0.2-0.2-0.5-0.3-0.8-0.3c-0.1,0-0.2,0.1-0.1,0.2c0,0.1,0.1,0.2,0.1,0.2c0.2,0.3,0.3,0.7,0.3,1.1c0,0.5-0.1,0.9-0.3,1.3
		c-0.1,0.3-0.3,0.6-0.4,0.9c-0.1,0.2-0.1,0.5-0.1,0.7c0,0.1,0,0.3,0.1,0.4c0,0,0,0,0,0c0,0,0,0-0.1,0c-0.3,0-0.6,0.1-0.8,0.4
		c-0.2,0.2-0.3,0.5-0.4,0.8c0,0.1,0,0.2-0.1,0.3c0,0,0,0.1-0.1,0.1c-0.1-0.1-0.1-0.1-0.1-0.2c-0.1-0.2-0.3-0.5-0.4-0.7
		c-0.4-0.7-0.9-1.4-1.5-2.1c0,0-0.1-0.1-0.1-0.1c-0.2-0.1-0.3-0.2-0.2-0.4c0-0.1,0-0.1,0-0.2c0-0.4,0-0.8,0-1.2c0-0.2,0-0.2,0.2-0.3
		c0.2-0.1,0.4-0.2,0.6-0.3c0.3-0.2,0.4-0.5,0.2-0.8c-0.1-0.2-0.3-0.3-0.5-0.4c-0.1,0-0.2-0.1-0.4-0.2c0.1-0.1,0.2-0.2,0.3-0.2
		c0.3-0.3,0.5-0.6,0.5-1c0-0.6,0.2-1.1,0.7-1.5c0.3-0.3,0.7-0.6,1.2-0.6c0.2,0,0.3,0,0.5-0.1c0.2,0,0.2-0.1,0.1-0.2
		c-0.2-0.3-0.5-0.6-0.9-0.7c-0.3-0.1-0.7-0.1-1,0c-0.1,0-0.1,0-0.2,0c0-0.1,0-0.2-0.1-0.4c-0.1-0.4-0.3-0.6-0.6-0.8
		c-0.1-0.1-0.2-0.1-0.2-0.3c0-0.5-0.2-0.9-0.6-1.3c-0.1-0.1-0.3-0.2-0.4-0.2c-0.4-0.1-0.8,0.1-0.9,0.5c0,0.1-0.1,0.3-0.1,0.4
		c0,0.2-0.1,0.3-0.3,0.4c-0.1,0-0.2,0.1-0.2,0.2c-0.2,0.2-0.4,0.5-0.4,0.8c0,0.2-0.1,0.2-0.3,0.2c-0.3,0-0.6,0.1-0.8,0.3
		c0,0-0.1,0.1-0.1,0.1c-0.3,0.1-0.6,0.2-0.9,0.5c-0.1,0.1-0.3,0.2-0.4,0.4c-0.1,0.1,0,0.2,0.1,0.2c0.1,0,0.1,0,0.2,0
		c0.6-0.1,1.1,0,1.6,0.4c0.5,0.3,0.8,0.8,0.9,1.4c0,0.2,0.1,0.5,0.1,0.7c0.1,0.3,0.4,0.6,0.6,0.8c0,0,0.1,0.1,0.1,0.1
		c-0.1,0.1-0.2,0.1-0.3,0.1c-0.2,0.1-0.4,0.2-0.6,0.3c-0.2,0.1-0.2,0.7,0,0.8c0.2,0.2,0.4,0.3,0.7,0.4c0.1,0,0.2,0,0.3,0.1
		c0,0.1,0,0.2,0,0.2c0,0.4,0,0.8,0,1.2c0,0.2,0,0.4-0.2,0.5c-0.2,0.2-0.4,0.4-0.5,0.6c-0.3,0.3-0.6,0.8-0.9,1.2
		c-0.2,0.3-0.4,0.7-0.6,1.1c-0.1,0.1-0.1,0.2-0.2,0.3c0,0,0-0.1,0-0.1c0-0.5-0.2-0.9-0.4-1.3c-0.2-0.3-0.4-0.5-0.8-0.5
		c0,0-0.1,0-0.1,0c0-0.1,0-0.1,0-0.2c0.1-0.3,0.1-0.6,0-0.9c-0.1-0.4-0.3-0.7-0.5-1.1c-0.1-0.3-0.2-0.6-0.2-1c0-0.4,0.1-0.8,0.3-1.2
		c0.1-0.1,0.1-0.2,0.2-0.4c0-0.2-0.2-0.2-0.3-0.2c-0.4,0.1-0.8,0.2-1,0.7c0,0.1-0.1,0.2-0.2,0.2c-0.1,0-0.2,0-0.2,0.1
		c-0.3,0.2-0.5,0.6-0.4,1c0,0.1,0.1,0.2,0.1,0.3c0,0.1,0,0.1,0,0.2c-0.1,0-0.1,0-0.1,0c-0.4-0.1-0.8-0.1-1.2,0.1
		c-0.1,0.1-0.2,0.2-0.3,0.3c0,0.1-0.1,0.2-0.2,0.2c-0.2,0.1-0.4,0.2-0.6,0.4c-0.3,0.3-0.5,0.8-0.4,1.3c0,0.1,0.1,0.2,0.2,0.1
		c0,0,0.1-0.1,0.1-0.1c0.2-0.1,0.4-0.3,0.6-0.4c0.4-0.2,0.7-0.2,1.1-0.1c0.2,0.1,0.4,0.2,0.6,0.2c0.3,0.1,0.5,0.4,0.7,0.6
		c0.2,0.3,0.5,0.4,0.9,0.3c0.1,0,0.1,0,0.2,0c0,0.1,0,0.1,0,0.2c0,0.2,0,0.5,0.1,0.7c0.1,0.1,0.2,0.2,0.3,0.3
		c0.1,0.1,0.1,0.1,0.2,0.1c0.2,0,0.4,0.1,0.6,0.1c0.1,0,0.1,0,0.2,0.1c0.1,0.1,0.2,0.3,0.2,0.4c0.1,0.3,0.2,0.5,0.1,0.8
		c-0.1,0.2-0.2,0.5-0.2,0.7c-0.1,0.5-0.2,0.9-0.4,1.4c-0.1,0.6-0.3,1.2-0.4,1.8c-0.1,0.4-0.2,0.9-0.3,1.3c0,0.1,0,0.1-0.1,0.2
		c0,0,0,0,0,0c0-0.1,0-0.1-0.1-0.2c0-0.2-0.1-0.3-0.1-0.5c-0.1-0.2-0.2-0.4-0.3-0.6c-0.2-0.4-0.6-0.6-1.1-0.5c0,0-0.1,0-0.2,0
		c0-0.1,0-0.2,0-0.3c0-0.4-0.1-0.7-0.4-0.9c-0.1-0.1-0.2-0.2-0.3-0.4c-0.1-0.2-0.2-0.5-0.3-0.7c-0.2-0.6-0.2-1.2,0-1.8
		c0.1-0.2,0.2-0.4,0.2-0.5c0-0.1,0-0.2-0.1-0.2c-0.2,0-0.3,0-0.5,0.1c-0.4,0.2-0.8,0.4-1.1,0.8c-0.2,0.3-0.3,0.6-0.4,1
		c0,0.2,0,0.4-0.1,0.5c0,0-0.1,0-0.1,0c-0.5-0.1-1.1,0.4-1.1,1c0,0.1,0,0.2-0.2,0.3c-0.2,0.1-0.3,0.2-0.4,0.4
		c-0.3,0.3-0.4,0.7-0.3,1.2c0,0.1,0.1,0.2,0.2,0.1c0,0,0.1,0,0.1-0.1c0.3-0.2,0.7-0.4,1.1-0.4c0.4-0.1,0.7,0,1.1,0.1
		c0.3,0.1,0.5,0.3,0.7,0.5c0.2,0.1,0.4,0.2,0.6,0.2c0.2,0,0.4,0,0.6-0.1c0,0,0.1,0,0.1,0c0,0.2,0.1,0.3,0.1,0.4
		c0.1,0.3,0.3,0.4,0.5,0.5c0.3,0.1,0.5,0.1,0.8-0.1c0,0,0.1,0.1,0.1,0.1c0.1,0.3,0.3,0.5,0.4,0.9c0.1,0.4,0.1,0.7,0,1.1
		c0,0.1,0,0.2-0.1,0.2c-0.1,0.5-0.2,1-0.3,1.4c-0.1,0.5-0.2,0.9-0.3,1.4c-0.1,0.5-0.2,1-0.3,1.5c-0.1,0.4-0.2,0.9-0.3,1.3
		c0,0.1,0,0.2-0.1,0.3c0-0.1-0.1-0.2-0.1-0.2c-0.1-0.3-0.2-0.7-0.4-1c-0.2-0.3-0.4-0.5-0.8-0.6c-0.2,0-0.4-0.1-0.6-0.1
		c0-0.1,0-0.2,0.1-0.3c0.1-0.5,0-1-0.4-1.3c-0.3-0.3-0.5-0.6-0.7-1c-0.3-0.5-0.4-1.1-0.2-1.7c0.1-0.3,0.1-0.6,0.3-0.8
		c0-0.1,0.1-0.1,0.1-0.2c0-0.1,0-0.2-0.1-0.2c-0.3,0-0.5,0-0.8,0.1c-0.1,0-0.2,0.1-0.3,0.1c-0.3,0.3-0.5,0.6-0.5,1
		c0,0.1,0,0.2-0.1,0.2c-0.2,0.1-0.3,0.4-0.4,0.6c-0.1,0.2-0.1,0.5,0,0.7c0,0.1,0,0.1,0.1,0.2c0,0,0,0,0,0c0,0-0.1,0-0.1,0
		c-0.3,0.1-0.5,0.1-0.7,0.4c-0.2,0.2-0.2,0.4-0.2,0.7c0,0.1,0,0.1,0,0.2c-0.5,0.1-1,0.4-1.2,0.8c-0.3,0.4-0.4,0.9-0.2,1.5
		c0.1,0,0.2,0,0.3-0.1c0.4-0.3,0.8-0.6,1.2-0.7c0.3-0.1,0.6-0.1,0.9-0.1c0.5,0,0.9,0.2,1.3,0.4c0.3,0.2,0.6,0.3,0.9,0.2
		c0,0,0.1,0,0.1,0c0,0.1,0,0.2,0,0.3c0,0.4,0.1,0.7,0.4,0.9c0.3,0.2,0.7,0.2,1,0.1c0.1,0,0.2-0.1,0.2-0.1c0.1,0.2,0.2,0.3,0.3,0.5
		c0,0.2,0.1,0.5,0.1,0.7c0.1,0.4,0.1,0.9,0.1,1.3c0,0.2,0,0.3-0.1,0.5c-0.1,0.4-0.1,0.9-0.2,1.3c-0.1,0.3-0.1,0.7-0.1,1
		c-0.1,0.6-0.2,1.3-0.3,1.9c-0.1,0.6-0.2,1.1-0.2,1.7c0,0.1,0,0.2,0,0.3c0,0.2,0.1,0.3,0.3,0.3c0.1,0,0.1,0,0.2,0
		c0.5,0.1,1,0.2,1.6,0.2c0.5,0.1,0.9,0.1,1.4,0.1c0.6,0.1,1.2,0.1,1.8,0.1c0.5,0,1,0.1,1.5,0.1c0.2,0,0.4,0,0.5,0c0.5,0,1,0,1.4,0
		C215.1,50.9,215.6,50.9,216.1,50.8z M222.5,37c0.2-0.3,0.4-0.6,0.6-0.9c0.1-0.2,0.2-0.5,0.3-0.7c0-0.1,0-0.2,0.1-0.3
		c0-0.1,0-0.2,0-0.4c0-0.3,0-0.6-0.1-0.8c0-0.1-0.1-0.3-0.1-0.4c0.2-0.1,0.3,0,0.4,0.1c0.4,0.2,0.7,0.4,0.9,0.8
		c0,0.1,0.1,0.2,0.1,0.2c0.2,0.6,0.1,1.2-0.2,1.7c-0.2,0.3-0.4,0.4-0.6,0.6c-0.4,0.3-0.7,0.6-0.9,1c0,0,0,0.1-0.1,0.2
		c0,0.2,0,0.3,0.2,0.3c0.2,0.1,0.3,0,0.4-0.1c0-0.1,0-0.1,0.1-0.2c0.1-0.5,0.3-0.8,0.7-1.1c0.4-0.3,0.8-0.3,1.3-0.2
		c0.1,0,0.1,0,0.2,0.1c0.2,0.1,0.3,0.3,0.2,0.5c-0.1,0.2-0.1,0.2,0.1,0.3c0.3,0.1,0.6,0.3,0.8,0.6c0.1,0.2,0.1,0.4,0.2,0.6
		c0,0.1,0,0.1,0,0.2c-0.1-0.1-0.2-0.2-0.3-0.3c-0.2-0.3-0.6-0.5-0.9-0.5c-0.3-0.1-0.7-0.1-1,0c-0.2,0.1-0.4,0.2-0.6,0.3
		c-0.2,0.1-0.4,0.3-0.6,0.3c-0.4,0.1-1-0.1-1.2-0.5C222,37.9,222.1,37.4,222.5,37z M223.2,37.8c0,0.1,0,0.2,0,0.2
		C223,38,223,38,223.2,37.8z M221.5,39.3c0.3-0.1,0.5-0.1,0.7,0.1c0.2,0.1,0.3,0.4,0.2,0.6c0,0.1-0.1,0.2-0.2,0.2
		c-0.1,0-0.2,0-0.3-0.1c0,0,0,0,0-0.1c-0.1-0.2-0.1-0.2-0.4-0.2c-0.2,0.1-0.4,0.2-0.6,0.4c-0.2,0.2-0.3,0.3-0.4,0.5
		C220.5,40,220.9,39.5,221.5,39.3z M221,29.7c0.6-0.6,0.9-1.2,0.9-2c0-0.5-0.1-0.9-0.2-1.4c0.1-0.1,0.2,0,0.3,0.1
		c0.4,0.2,0.7,0.5,1,0.9c0.2,0.3,0.3,0.7,0.3,1.1c0,0.1-0.1,0.1-0.1,0.2c-0.1,0.1-0.3,0.3-0.4,0.4c-0.3,0.3-0.5,0.6-0.6,0.9
		c0,0.1-0.1,0.1,0,0.2c0.1,0.1,0.1,0,0.2,0c0.5-0.1,0.8-0.5,1.1-0.9c0-0.1,0-0.1,0.1-0.2c0-0.1,0.1-0.2,0.1-0.3
		c0.5,0.1,0.7,0.4,0.7,0.8c0,0,0,0,0,0c0,0.2,0.1,0.3,0.3,0.4c0.3,0.1,0.6,0.5,0.7,0.8c-0.1,0-0.1,0-0.2-0.1
		c-0.4-0.1-0.8-0.3-1.3-0.3c-0.4,0-0.7,0.1-1.1,0.3c-0.2,0.1-0.3,0.2-0.5,0.3c-0.2,0.1-0.4,0.2-0.6,0.2c-0.3,0-0.5-0.2-0.6-0.4
		C220.6,30.3,220.6,30.1,221,29.7z M223.1,28.9c0,0.3-0.4,0.7-0.6,0.8C222.6,29.3,222.8,29.1,223.1,28.9z M219.4,31.8
		c0.1-0.1,0.1-0.3,0.3-0.3c0.2-0.1,0.4-0.2,0.6-0.2c0.1,0,0.1,0,0.2,0.1c0.3,0.2,0.3,0.4,0.2,0.7c-0.1,0.2-0.3,0.3-0.5,0.3
		c-0.1,0-0.1,0-0.2-0.1c-0.2-0.2-0.6-0.1-0.7,0.1c0,0.1-0.1,0.2-0.1,0.2C219.1,32.3,219.2,32,219.4,31.8z M218.5,23.8
		c0.1-0.4,0.2-0.7,0.4-1c0.3-0.5,0.4-1,0.4-1.6c0-0.4-0.1-0.7-0.2-1.1c0,0,0-0.1,0-0.2c0.1,0,0.2,0,0.3,0.1c0.2,0.1,0.4,0.3,0.5,0.6
		c0,0.1,0.1,0.1,0.2,0.2c0.1,0,0.1,0,0.2,0.1c0.3,0.1,0.4,0.4,0.4,0.7c0,0.2-0.1,0.4-0.1,0.6c0,0.2-0.2,0.3-0.3,0.4
		c-0.4,0.3-0.6,0.7-0.7,1.2c0,0.1,0,0.2,0.1,0.2c0.1,0,0.1,0,0.2-0.1c0.3-0.4,0.6-0.7,0.8-1.2c0-0.1,0.1-0.1,0.2-0.2
		c0.4-0.2,0.7-0.2,1.1-0.1c0.2,0.1,0.3,0.2,0.4,0.3c0,0.1,0.1,0.2,0.2,0.2c0.4,0.1,0.6,0.4,0.8,0.7c0,0,0,0.1,0,0.1
		c-0.1,0-0.2,0-0.3-0.1c-0.3-0.1-0.6-0.1-0.9-0.2c-0.5,0-0.9,0.1-1.3,0.4c-0.2,0.1-0.4,0.3-0.5,0.5c-0.3,0.4-0.8,0.5-1.2,0.3
		C218.6,24.5,218.4,24.1,218.5,23.8z M217.4,25.3c0.1-0.2,0.2-0.4,0.4-0.5c0.3-0.2,0.7-0.1,0.8,0.3c0.1,0.2,0,0.5-0.3,0.5
		c-0.1,0-0.2-0.1-0.3-0.1c-0.1-0.1-0.2-0.2-0.2-0.3c-0.3,0.2-0.5,0.5-0.7,0.8C217.2,25.8,217.3,25.5,217.4,25.3z M212.2,14.3
		c0.1-0.3,0.2-0.6,0.5-0.7c0.3-0.2,0.4-0.4,0.5-0.7c0-0.2,0.1-0.3,0.2-0.4c0.2-0.2,0.5-0.2,0.8,0c0.3,0.3,0.5,0.6,0.5,1
		c0,0.1,0,0.3,0.1,0.4c0,0.1,0.1,0.1,0.1,0.2c0,0,0.1,0,0.1,0c0.4,0.2,0.5,0.5,0.6,0.9c0,0.2-0.1,0.2-0.2,0.2c-0.2,0-0.4,0-0.6,0.1
		c-0.3,0.1-0.6,0.3-0.8,0.6c0,0-0.1,0.1-0.1,0.1c-0.2-0.1-0.2-0.2-0.3-0.4c-0.1-0.2-0.2-0.4-0.3-0.5c-0.2-0.2-0.5-0.4-0.8-0.5
		C212.2,14.5,212.1,14.5,212.2,14.3z M212.7,18.5c-0.1-0.2-0.2-0.5-0.3-0.8c-0.1-0.5-0.2-1-0.6-1.3c-0.4-0.4-0.9-0.7-1.6-0.7
		c-0.1,0-0.2,0-0.4-0.1c0.1-0.1,0.2-0.2,0.3-0.3c0.4-0.2,0.8-0.4,1.2-0.4c0.5,0,0.9,0.1,1.3,0.4c0.2,0.2,0.5,0.3,0.6,0.6
		c0,0.1,0.1,0.1,0.1,0.2c0.1,0.2,0.1,0.3,0.1,0.5c-0.1,0.3-0.1,0.5,0,0.8c0,0.1,0.1,0.3,0.1,0.4c0.1,0.1,0.2,0.1,0.3,0
		c0.2-0.3,0.2-0.6,0.2-0.9c0-0.2-0.1-0.3-0.2-0.5c-0.1-0.1-0.1-0.2,0-0.3c0.2-0.5,0.7-0.7,1.2-0.8c0,0,0.1,0,0.1,0
		c0.2,0.1,0.4,0,0.6-0.1c0.5-0.3,1-0.2,1.5,0.1c0,0,0,0,0.1,0.1c-0.3,0.1-0.6,0.1-0.9,0.2c-0.2,0.1-0.4,0.2-0.5,0.3
		c-0.3,0.2-0.5,0.4-0.6,0.7c-0.2,0.4-0.3,0.8-0.4,1.2c0,0.2,0,0.4-0.1,0.7c-0.1,0.3-0.3,0.5-0.6,0.6C213.6,19.4,213,19,212.7,18.5z
		 M212.3,20.1c0-0.1,0.1-0.2,0.2-0.2c0.2-0.2,0.5-0.3,0.8-0.3c0.4,0,0.7-0.1,1.1,0c0.3,0.1,0.6,0.2,0.9,0.4c0.1,0.1,0.1,0.1,0.1,0.2
		C214.4,20.8,213.1,20.8,212.3,20.1z M208.6,24.4c-0.4,0-0.7-0.1-0.9-0.4c-0.2-0.2-0.4-0.4-0.6-0.5c-0.3-0.2-0.6-0.3-1-0.3
		c-0.2,0-0.5,0-0.7,0c-0.1,0-0.3,0.1-0.4,0.1c-0.1,0-0.1,0.1-0.2,0.1c0,0,0,0,0,0c0.2-0.4,0.5-0.7,0.9-0.8c0.1,0,0.2-0.1,0.2-0.2
		c0-0.2,0.2-0.3,0.3-0.4c0.4-0.2,0.8-0.1,1.2,0.1c0.1,0,0.1,0.1,0.1,0.2c0.2,0.4,0.4,0.8,0.8,1.2c0,0,0.1,0.1,0.2,0
		c0.1,0,0.1-0.1,0.1-0.2c-0.1-0.5-0.3-0.9-0.7-1.2c-0.2-0.1-0.3-0.2-0.3-0.4c0-0.1-0.1-0.3-0.1-0.4c-0.1-0.2,0-0.5,0.1-0.6
		c0,0,0.1,0,0.1-0.1c0.1,0,0.1-0.1,0.2-0.1c0.2,0,0.3-0.1,0.3-0.3c0.1-0.3,0.3-0.5,0.6-0.6c0,0,0,0,0.1,0c0,0,0,0.1,0,0.1
		c-0.1,0.3-0.3,0.7-0.3,1.1c0,0.3,0,0.7,0.1,1c0.2,0.5,0.4,1,0.6,1.5c0.1,0.3,0.1,0.6-0.1,0.8C209,24.3,208.8,24.4,208.6,24.4z
		 M210.1,25.7c-0.1-0.1-0.2-0.2-0.4-0.1c-0.1,0-0.2,0-0.2,0c-0.3,0-0.6-0.3-0.6-0.7c0-0.3,0.3-0.5,0.6-0.5c0.2,0,0.4,0.1,0.5,0.3
		c0.3,0.4,0.5,0.9,0.5,1.4c0,0.1,0,0.1,0,0.2C210.4,26.1,210.2,25.9,210.1,25.7z M206.7,30.9c-0.3,0.5-0.8,0.5-1.3,0.2
		c-0.3-0.2-0.7-0.4-1.1-0.5c-0.3-0.1-0.6-0.1-0.9-0.1c-0.3,0.1-0.7,0.1-1,0.3c0,0,0,0-0.1,0c0,0,0,0-0.1,0c0.1-0.2,0.2-0.4,0.3-0.6
		c0.2-0.1,0.3-0.2,0.5-0.3c0.1,0,0.1-0.1,0.1-0.2c-0.1-0.3,0.1-0.6,0.3-0.8c0.1-0.1,0.3-0.2,0.4-0.2c0.2,0,0.3,0,0.4,0.2
		c0.1,0.2,0.3,0.5,0.5,0.7c0.3,0.3,0.6,0.6,1,0.8c0.1,0,0.1,0.1,0.2,0.1c0.1,0,0.1,0.1,0.2,0c0.1-0.1,0.1-0.1,0-0.2
		c-0.2-0.4-0.4-0.7-0.8-1c-0.3-0.2-0.5-0.4-0.8-0.6c-0.2-0.1-0.2-0.3-0.2-0.5c0.1-0.5,0.2-0.9,0.5-1.3c0.3-0.3,0.6-0.5,1.1-0.6
		c0,0.1-0.1,0.2-0.1,0.3c-0.1,0.2-0.1,0.4-0.2,0.6c0,0.1,0,0.2,0,0.3c0,0.4,0,0.8,0.2,1.2c0.2,0.4,0.4,0.7,0.7,1
		C206.9,30.3,206.9,30.6,206.7,30.9z M208.4,32.7c-0.1-0.2-0.3-0.4-0.4-0.6c-0.1-0.1-0.2-0.2-0.3,0c-0.1,0.1-0.2,0.2-0.3,0.2
		c-0.3,0.1-0.7-0.3-0.5-0.7c0.1-0.4,0.5-0.5,0.9-0.4c0.2,0.1,0.3,0.2,0.4,0.4c0.3,0.4,0.4,0.8,0.5,1.3c0,0,0,0.1,0,0.1
		C208.6,32.9,208.5,32.8,208.4,32.7z M204.9,39.2c-0.3,0.1-0.6,0-0.8-0.1c-0.6-0.5-1.3-0.7-2-0.6c-0.6,0.1-1.2,0.3-1.6,0.7
		c-0.1,0.1-0.2,0.2-0.4,0.3c0-0.3,0-0.5,0.1-0.7c0.2-0.4,0.4-0.7,0.8-0.8c0.1-0.1,0.3-0.1,0.4-0.1c0.2,0,0.2-0.1,0.2-0.3
		c0,0,0,0,0-0.1c-0.1-0.3,0.1-0.5,0.3-0.7c0.2-0.2,0.4-0.2,0.6-0.2c0.2,0,0.4,0.1,0.5,0.2c0.2,0.1,0.4,0.3,0.5,0.4
		c0.2,0.2,0.2,0.4,0.3,0.6c0.1,0.2,0.1,0.4,0.1,0.6c0,0.1,0,0.2,0.1,0.3c0,0.2,0.3,0.3,0.5,0.2c0.1,0,0.1-0.2,0.1-0.3
		c0-0.2-0.1-0.4-0.2-0.5c-0.1-0.4-0.4-0.7-0.7-1c-0.2-0.2-0.4-0.3-0.6-0.4c-0.3-0.2-0.5-0.4-0.5-0.8c0,0,0,0,0-0.1
		c0.1-0.3,0.1-0.5,0.4-0.7c0.1,0.1,0.2,0.1,0.3,0c-0.1-0.5,0-0.9,0.3-1.2c0.2-0.2,0.4-0.2,0.7-0.3c-0.1,0.2-0.2,0.4-0.2,0.6
		c-0.1,0.3-0.2,0.7-0.2,1c0,0.2,0,0.4,0.1,0.6c0.1,0.6,0.4,1,0.8,1.4c0.2,0.2,0.4,0.4,0.5,0.7c0.1,0.4,0,0.8-0.2,1.1
		C205,39.1,205,39.2,204.9,39.2z M206.7,40.8c-0.1-0.2-0.2-0.5-0.5-0.6c-0.1-0.1-0.2-0.1-0.3,0c-0.2,0.1-0.5,0.1-0.7-0.1
		c-0.2-0.1-0.2-0.3-0.2-0.5c0.1-0.4,0.3-0.6,0.7-0.6c0.4,0,0.7,0.2,0.9,0.6c0.2,0.4,0.3,0.7,0.4,1.1c0.1,0.3,0,0.6,0.1,1
		c0,0.1,0,0.2,0,0.4c0,0,0,0-0.1,0c0-0.1,0-0.2-0.1-0.3C206.9,41.4,206.9,41.1,206.7,40.8z M212.6,49c-0.3,0-0.7,0.1-1,0.1
		c-0.2,0-0.5,0-0.7,0c-0.7,0.1-1.3,0.1-2,0.2c-0.8,0.1-1.5,0.2-2.3,0.3c-0.2,0-0.2,0-0.2-0.2c0.1-0.4,0.1-0.8,0.2-1.2
		c0.1-0.5,0.2-1.1,0.2-1.6c0.1-0.4,0.1-0.7,0.2-1.1c0.1-0.6,0.2-1.1,0.3-1.7c0.1-0.3,0.1-0.7,0.2-1c0.1-0.5,0.2-0.9,0.2-1.4
		c0.1-0.7,0.3-1.4,0.4-2.2c0.1-0.4,0.1-0.7,0.2-1.1c0.1-0.6,0.2-1.1,0.3-1.7c0.1-0.4,0.2-0.8,0.2-1.2c0.1-0.3,0.1-0.7,0.2-1
		c0.2-0.9,0.4-1.8,0.6-2.7c0.2-0.8,0.4-1.6,0.6-2.4c0.1-0.6,0.3-1.1,0.5-1.7c0.2-0.6,0.5-1.1,0.8-1.6c0.1-0.2,0.2-0.3,0.3-0.5
		c0.1-0.2,0.3-0.4,0.4-0.6c0.3-0.4,0.6-0.8,0.9-1.2c0.1-0.1,0.1-0.1,0.2-0.2c0.2-0.1,0.2-0.2,0.2-0.3c0-0.4,0-0.7,0-1.1
		c0-0.2,0-0.3,0-0.5c0-0.1,0.1-0.1,0.2-0.1c0.2,0,0.2,0,0.2,0.1c0,0.1,0,0.1,0,0.2c0,0.5,0,1,0,1.5c0,0.1,0,0.2,0.2,0.2
		c0.1,0.1,0.2,0.2,0.3,0.3c0.2,0.3,0.4,0.5,0.6,0.8c0.2,0.3,0.4,0.5,0.5,0.8c0.5,0.7,0.8,1.5,1.1,2.3c0.2,0.5,0.4,1.1,0.5,1.6
		c0.1,0.6,0.2,1.1,0.4,1.7c0.1,0.4,0.2,0.8,0.2,1.3c0.1,0.3,0.1,0.5,0.2,0.8c0,0.2,0.1,0.4,0.1,0.6c0,0.2,0.1,0.4,0.1,0.5
		c0.1,0.7,0.3,1.4,0.4,2c0.1,0.4,0.1,0.8,0.2,1.3c0,0.3,0.1,0.6,0.2,0.9c0.1,0.3,0.1,0.6,0.2,0.9c0.1,0.4,0.1,0.7,0.2,1.1
		c0.1,0.3,0.1,0.7,0.2,1c0.1,0.4,0.1,0.7,0.2,1.1c0.1,0.7,0.2,1.4,0.3,2.1c0.1,0.3,0.1,0.6,0.2,0.9c0,0.3,0.1,0.7,0.1,1
		c0,0.3,0.1,0.6,0.1,1c0,0.3,0.1,0.6,0.1,0.9c0,0.4,0.1,0.8,0.1,1.2c0,0.1,0,0.1,0,0.2c-0.2,0-0.3,0-0.4,0c-0.4,0-0.9-0.1-1.3-0.2
		c-0.2,0-0.3,0-0.5-0.1c-0.1,0-0.1,0-0.2,0c-0.1,0-0.2,0-0.2,0c-0.3,0-0.5,0-0.8-0.1c-0.4,0-0.8,0-1.2,0c-0.6-0.1-1.2,0-1.7,0
		C213.8,48.9,213.2,48.9,212.6,49z"/>
	<path class="st0" d="M209.4,41.6c0.1,0,0.1,0,0.2,0c0.3,0,0.6-0.2,0.8-0.4c0.2-0.2,0.3-0.3,0.5-0.5c0,0,0.1,0,0.1,0.1
		c0.2,0.1,0.3,0.2,0.5,0.3c0.1,0,0.1,0.1,0.2,0.1c0.1,0,0.2,0,0.3-0.1c0.1-0.1,0-0.2,0-0.3c0-0.1-0.1-0.1-0.1-0.2
		c-0.3-0.4-0.5-0.8-0.5-1.3c0-0.3,0-0.6,0-0.9c0-0.5,0-0.9,0-1.4c0-0.2,0.1-0.3,0.3-0.3c0.1,0,0.2,0,0.2,0c0.1,0,0.3,0,0.4,0
		c0.2,0,0.3,0,0.3,0.3c0,0,0,0.1,0,0.1c0,0.6,0,1.3,0,1.9c0,0.3,0,0.5-0.2,0.7c-0.2,0.2-0.1,0.4,0.1,0.5c0.1,0,0.1,0.1,0.2,0.1
		c0.3,0.1,0.7,0.2,1,0.1c0.2,0,0.5-0.1,0.7-0.3c0.3-0.2,0.5-0.4,0.7-0.7c0.2-0.2,0.3-0.5,0.4-0.8c0.2-0.6,0.2-1.2,0.1-1.7
		c0-0.1,0-0.1,0.1-0.2c0.1,0,0.3,0,0.4,0c0.2,0,0.2,0,0.2,0.2c0,0.2,0,0.5,0,0.7c0,0.6,0,1.2,0,1.7c0,0.3-0.1,0.7-0.3,1
		c-0.1,0.2-0.3,0.4-0.4,0.5c-0.1,0.1-0.1,0.3,0,0.4c0.1,0.1,0.2,0.1,0.3,0c0.2-0.1,0.5-0.3,0.7-0.4c0.1,0,0.1-0.1,0.2-0.2
		c0.2,0.3,0.4,0.6,0.7,0.7c0.4,0.2,0.8,0.2,1.2,0.1c0.1,0,0.2-0.1,0.2-0.2c0-0.1,0-0.2-0.2-0.3c-0.1,0-0.2-0.1-0.3-0.1
		c-0.1,0-0.2,0-0.3-0.1c-0.4-0.2-0.6-0.4-0.8-0.7c-0.1-0.3-0.2-0.6-0.2-0.9c0-0.7,0-1.4,0-2.2c0-0.8,0-1.6,0-2.3c0-0.7,0-1.3,0-2
		c0-0.3,0.1-0.5,0.3-0.6c0.1,0,0.1-0.1,0.1-0.1c0.1-0.1,0-0.3-0.1-0.3c-0.2,0-0.3,0-0.5,0.1c-0.1,0-0.1,0.1-0.2,0.1
		c0,0-0.1,0-0.1-0.1c-0.2-0.3-0.4-0.5-0.7-0.7c-0.2-0.1-0.3-0.1-0.5-0.2c-0.1,0-0.3,0-0.3,0.2c-0.1,0.1-0.1,0.3,0,0.4
		c0.1,0.1,0.2,0.2,0.4,0.1c0.1,0,0.2,0,0.3,0.1c0.2,0.2,0.3,0.4,0.3,0.6c0.1,0.2,0.2,0.5,0.2,0.8c0,0.3,0,0.6,0,0.9
		c0,0.5,0,1.1,0,1.6c0,0.1,0,0.2,0,0.3c0,0.1,0,0.2-0.2,0.2c-0.2,0-0.4,0-0.6,0c-0.1,0-0.1,0-0.2-0.1c-0.1-0.3-0.3-0.6-0.6-0.8
		c-0.1-0.1-0.1-0.1-0.1-0.2c0.2-0.2,0.5-0.4,0.6-0.7c0.2-0.5,0.2-0.9,0.1-1.4c0-0.1-0.1-0.1-0.1-0.2c-0.1-0.2-0.3-0.3-0.4-0.5
		c-0.2-0.1-0.4-0.2-0.6-0.3c-0.4,0-0.8,0-1.2,0c-0.1,0-0.2,0-0.4,0c-0.1,0-0.2,0.1-0.2,0.2c0,0.1,0,0.1,0,0.2c0,0.1,0.1,0.3,0.1,0.4
		c0,0.4,0,0.8,0,1.2c0,0.7,0,1.3,0,2c0,0.1,0,0.1,0,0.2c-0.3,0-0.6,0-0.9,0c-0.1,0-0.3-0.1-0.3-0.3c0-0.2,0-0.3,0-0.5
		c0-0.6,0-1.3,0-1.9c0-0.4,0.1-0.8,0.2-1.2c0-0.1,0-0.1,0.1-0.2c0.2-0.3,0.4-0.6,0.7-0.8c0.2-0.1,0.2-0.4-0.1-0.5
		c-0.2-0.1-0.5,0-0.6,0.1c-0.2,0.2-0.4,0.4-0.5,0.6c0,0.1-0.1,0.1-0.1,0.2c-0.2-0.1-0.4-0.1-0.6-0.1c-0.1,0-0.3,0.1-0.3,0.2
		c0,0.1,0.1,0.2,0.2,0.2c0,0,0,0,0,0c0.1,0.1,0.3,0.2,0.3,0.4c0,0.2,0.1,0.3,0.1,0.5c0,1.4,0,2.8,0,4.2c0,0.2,0,0.4,0,0.6
		c0,0.2,0,0.4,0,0.7c0,0.3,0,0.6-0.1,0.9c-0.1,0.5-0.3,0.9-0.7,1.2c-0.2,0.1-0.3,0.2-0.5,0.3c-0.1,0.1-0.2,0.2-0.1,0.3
		C209.2,41.6,209.3,41.6,209.4,41.6z M213,33.1c0-0.4,0.2-0.6,0.6-0.6c0.1,0,0.2,0,0.3,0c0.1,0,0.2,0.1,0.3,0.2
		c0.2,0.4,0.4,0.8,0.2,1.3c-0.1,0.2-0.2,0.4-0.3,0.5c-0.1,0.1-0.1,0.1-0.2,0.1c-0.3,0-0.5,0-0.8,0c0-0.2,0-0.3,0-0.5
		C213,33.8,213,33.5,213,33.1z M213,35.5c0-0.1,0.1-0.2,0.3-0.2c0.2,0,0.5,0,0.7,0.1c0,0,0.1,0,0.1,0.1c0.1,0.2,0.2,0.4,0.3,0.6
		c0,0,0,0.1,0,0.1c-0.5,0-0.9,0-1.4,0C213,35.9,212.9,35.7,213,35.5z M213,36.9c0-0.2,0-0.2,0.2-0.2c0.2,0,0.4,0,0.6,0c0,0,0,0,0,0
		c0.2,0,0.4,0,0.6,0c0.1,0,0.2,0,0.2,0.2c0.1,0.5,0.1,0.9,0,1.4c-0.1,0.4-0.2,0.8-0.4,1.1c-0.2,0.3-0.4,0.3-0.6,0.3
		c-0.2,0-0.4-0.2-0.4-0.4c-0.1-0.4-0.1-0.8-0.2-1.2C212.9,37.6,213,37.2,213,36.9z"/>
	<path class="st0" d="M214.8,45.9c0.1,0.3,0.3,0.5,0.4,0.7c0.2,0,0.2,0,0.3-0.3c0.2-0.4,0.3-0.9,0.5-1.3c0,0,0.1-0.1,0.1-0.1
		c0,0.1,0,0.2,0,0.2c0,0.5,0,1,0,1.6c0,0.3-0.1,0.4-0.3,0.5c-0.1,0-0.2,0.1-0.2,0.2c0,0.1,0.1,0.2,0.3,0.2c0.2,0,0.5,0,0.7,0
		c0.1,0,0.3,0,0.4,0c0.1,0,0.2,0.1,0.3,0.1c0.1,0,0.2,0,0.4,0c0.1,0,0.2,0,0.3,0c0.1,0,0.2-0.1,0.2-0.2c0-0.1,0-0.2-0.1-0.2
		c-0.2-0.1-0.2-0.2-0.2-0.4c0-0.2,0.1-0.3,0.1-0.5c0.1,0,0.6,0,0.7,0c0,0,0.1,0.1,0.1,0.1c0,0.1,0.1,0.2,0.1,0.3
		c0.1,0.4,0.1,0.4-0.2,0.5c-0.1,0.1-0.1,0.1-0.1,0.3c0,0.1,0.1,0.1,0.2,0.1c0.3,0,0.6,0.1,0.9,0.2c0.1,0,0.1,0.1,0.2,0.1
		c0.1,0,0.2,0,0.2-0.1c0.1-0.1,0-0.4-0.1-0.4c-0.2-0.1-0.2-0.2-0.3-0.4c-0.1-0.2-0.1-0.3-0.2-0.5c-0.3-0.9-0.5-1.7-0.8-2.6
		c0-0.1-0.1-0.2-0.1-0.3c-0.1,0-0.2,0-0.4,0c-0.1,0-0.1,0.1-0.1,0.1c-0.1,0.3-0.1,0.6-0.2,0.9c-0.1,0.6-0.3,1.2-0.4,1.8
		c0,0.1-0.1,0.3-0.1,0.3c-0.2,0.2-0.4,0.3-0.5,0.1c-0.1-0.1-0.2-0.3-0.2-0.4c0-0.2,0-0.4,0-0.7c0-0.3,0-0.7,0-1c0-0.3,0-0.6,0.2-0.8
		c0.1-0.1,0.1-0.2,0.2-0.2c0.1-0.2,0.1-0.3-0.1-0.3c-0.2,0-0.4,0-0.6,0c-0.1,0-0.2,0-0.2,0c-0.1,0-0.1,0.1-0.1,0.1
		c-0.1,0.3-0.2,0.5-0.3,0.8c-0.1,0.2-0.2,0.4-0.3,0.7c-0.1-0.1-0.1-0.1-0.1-0.2c-0.2-0.4-0.4-0.9-0.6-1.3c0-0.1-0.1-0.1-0.2-0.1
		c-0.3,0-0.5,0-0.8-0.1c0,0,0,0,0,0c-0.1,0-0.2,0.1-0.1,0.3c0,0.1,0.1,0.1,0.1,0.1c0.1,0.1,0.2,0.2,0.2,0.4c0,0.8,0,1.6,0,2.4
		c0,0.1-0.1,0.2-0.2,0.3c-0.2,0.1-0.2,0.1-0.1,0.4c0,0,0.1,0,0.2,0c0.3,0,0.6,0,1,0c0.2,0,0.2-0.1,0.2-0.2c0-0.1-0.1-0.2-0.2-0.2
		c-0.1,0-0.2-0.1-0.2-0.2c0-0.1-0.1-0.2-0.1-0.2c0-0.4,0-0.8,0-1.2c0-0.1,0-0.2,0-0.3C214.5,45.4,214.6,45.7,214.8,45.9z
		 M218.5,45.4c0.1,0.2,0.1,0.4,0.2,0.6c-0.2,0.1-0.2,0.1-0.4,0C218.2,45.8,218.3,45.5,218.5,45.4z"/>
	<path class="st0" d="M211.7,27.4c0.3,0.1,0.6,0.1,0.8,0.2c0.1,0,0.1,0.1,0.2,0.1c-0.1,0.1-0.1,0.2-0.2,0.3
		c-0.1,0.2-0.3,0.4-0.4,0.6c-0.1,0.1-0.1,0.2,0,0.2c0.1,0.1,0.1,0.1,0.2,0c0.2-0.1,0.3-0.2,0.5-0.3c0.2-0.1,0.3-0.2,0.6-0.4
		c0,0.2,0.1,0.3,0.1,0.4c0,0.3,0.1,0.5,0.1,0.8c0,0.1,0,0.2,0.2,0.2c0.1,0,0.2-0.1,0.2-0.2c0-0.1,0.1-0.2,0.1-0.3
		c0-0.2,0.1-0.5,0.1-0.7c0-0.1,0.1-0.2,0.2-0.1c0.2,0.1,0.3,0.2,0.5,0.3c0.2,0.1,0.3,0.2,0.5,0.3c0,0,0.1,0,0.2,0c0,0,0-0.1,0-0.2
		c0-0.1-0.1-0.1-0.1-0.2c-0.2-0.3-0.4-0.5-0.5-0.8c0-0.2,0.1-0.2,0.2-0.2c0.2-0.1,0.5-0.1,0.7-0.1c0.1,0,0.2-0.1,0.3-0.1
		c0.1,0,0.1-0.1,0.1-0.2c0-0.1-0.1-0.1-0.1-0.1c-0.3-0.1-0.5-0.1-0.8-0.2c-0.2,0-0.3-0.1-0.5-0.1c0.1-0.2,0.2-0.3,0.3-0.5
		c0.1-0.2,0.2-0.4,0.4-0.6c0-0.1,0.1-0.2,0-0.2c-0.1-0.1-0.1,0-0.2,0c0,0-0.1,0-0.1,0c-0.2,0.1-0.4,0.3-0.6,0.4
		c-0.1,0.1-0.2,0.1-0.3,0.2c-0.1-0.1-0.1-0.2-0.1-0.2c-0.1-0.3-0.1-0.6-0.2-0.9c0-0.1,0-0.1-0.1-0.1c-0.1,0-0.1,0-0.2,0.1
		c0,0,0,0.1-0.1,0.1c-0.1,0.3-0.1,0.6-0.2,0.9c0,0.1-0.1,0.2-0.1,0.3c-0.1-0.1-0.2-0.1-0.2-0.2c-0.2-0.2-0.5-0.3-0.7-0.5
		c-0.1-0.1-0.2-0.1-0.3,0c-0.1,0.1,0,0.2,0,0.3c0.1,0.2,0.3,0.4,0.4,0.6c0.1,0.1,0.1,0.2,0.2,0.3c-0.1,0-0.1,0-0.1,0
		c-0.3,0.1-0.7,0.1-1,0.2c-0.1,0-0.2,0.1-0.3,0.2C211.5,27.3,211.6,27.4,211.7,27.4z M213.8,26.7c0.3,0,0.5,0.2,0.5,0.5
		c0,0.2-0.2,0.4-0.4,0.4c-0.3,0-0.4-0.2-0.5-0.5C213.3,26.9,213.6,26.7,213.8,26.7z"/>
	<path class="st0" d="M210.5,47.4c-0.1,0-0.2-0.1-0.2-0.1c-0.1-0.1-0.2-0.2-0.2-0.3c-0.2-0.2-0.4-0.4-0.5-0.7
		c-0.1-0.1-0.1-0.2-0.2-0.2c0.2-0.1,0.3-0.1,0.4-0.2c0.1-0.1,0.2-0.2,0.3-0.3c0.1-0.3,0.1-0.5,0.1-0.8c0-0.2-0.2-0.4-0.4-0.5
		c-0.2-0.1-0.4-0.1-0.6-0.1c-0.2,0-0.3,0-0.5,0c-0.2,0-0.5,0-0.7,0c-0.1,0-0.2,0-0.3,0.1c-0.1,0.1-0.2,0.3-0.1,0.4
		c0.2,0.1,0.2,0.2,0.2,0.4c0,0.2,0,0.5-0.1,0.7c0,0.3,0,0.6-0.1,0.9c0,0.3,0,0.6-0.1,0.9c0,0.2-0.1,0.4-0.3,0.5
		c-0.1,0.1-0.2,0.2-0.1,0.3c0.1,0.1,0.2,0.1,0.3,0c0.3-0.1,0.6-0.2,0.9-0.2c0.1,0,0.2,0,0.2-0.1c0-0.1,0-0.2-0.1-0.2
		c-0.2-0.1-0.2-0.3-0.2-0.5c0-0.2,0-0.4,0.1-0.6c0-0.1,0-0.2,0-0.4c0-0.1,0.1-0.1,0.2-0.1c0,0,0,0.1,0.1,0.1
		c0.2,0.3,0.4,0.6,0.7,0.9c0.1,0.1,0.2,0.2,0.1,0.4c0,0.1,0,0.2,0.2,0.2c0.1,0,0.1,0,0.2,0c0.2-0.1,0.5-0.1,0.7-0.1
		c0.1,0,0.2,0,0.2-0.2C210.7,47.5,210.7,47.4,210.5,47.4z M209.3,45.6c-0.1,0.1-0.2,0.2-0.3,0.2c-0.2,0-0.2,0-0.5,0
		c0-0.2,0-0.4,0.1-0.7c0-0.1,0-0.2,0-0.3c0-0.1,0-0.2,0.2-0.2c0.1,0,0.3,0,0.4-0.1c0.1,0,0.2,0,0.3,0.1
		C209.5,45,209.6,45.3,209.3,45.6z"/>
	<path class="st0" d="M212.3,43.5c-0.1,0-0.2,0-0.3,0c-0.4,0-0.8,0.2-1,0.6c-0.2,0.3-0.4,0.6-0.4,0.9c0,0.2,0,0.4-0.1,0.6
		c0,0.3,0,0.5,0.1,0.8c0.1,0.4,0.3,0.8,0.6,1.1c0.4,0.4,0.9,0.4,1.3,0.1c0.4-0.3,0.6-0.7,0.8-1.1c0.1-0.3,0.1-0.6,0.1-1
		c0-0.3-0.1-0.7-0.2-1.1C213,43.9,212.7,43.6,212.3,43.5z M212.5,46.5c-0.1,0.2-0.2,0.4-0.3,0.5c-0.2,0.2-0.5,0.2-0.7-0.1
		c-0.2-0.3-0.2-0.6-0.3-0.8c0-0.3,0-0.5,0-0.8c0-0.1,0-0.1,0-0.2c0.1-0.4,0.2-0.7,0.5-1c0.2-0.2,0.4-0.2,0.5,0
		c0.1,0.1,0.2,0.2,0.2,0.4c0.1,0.3,0.1,0.6,0.2,0.9C212.6,45.8,212.6,46.2,212.5,46.5z"/>
	<path class="st0" d="M14.5,28.4c0.5-0.2,0.8-0.5,1.1-0.9s0.4-0.8,0.4-1.3c0-0.9-0.3-1.6-1-2.1c-0.7-0.5-1.6-0.7-2.9-0.7H8.5v10.4h4
		c1.2,0,2.1-0.3,2.7-0.8c0.6-0.5,1-1.3,1-2.3c0-0.6-0.2-1.1-0.5-1.5S15,28.6,14.5,28.4z M10.6,25.1h1.5c0.6,0,1,0.1,1.3,0.3
		c0.3,0.2,0.4,0.5,0.4,1c0,0.8-0.5,1.3-1.6,1.3h-1.6V25.1z M13.6,31.7c-0.3,0.2-0.7,0.4-1.2,0.4h-1.8v-2.8h2c1,0,1.5,0.5,1.5,1.4
		C14,31.1,13.9,31.4,13.6,31.7z"/>
	<rect x="18.1" y="23.4" class="st0" width="2.1" height="10.4"/>
	<path class="st0" d="M28.3,28.4c0.5-0.2,0.8-0.5,1.1-0.9s0.4-0.8,0.4-1.3c0-0.9-0.3-1.6-1-2.1c-0.7-0.5-1.6-0.7-2.9-0.7h-3.6v10.4
		h4c1.2,0,2.1-0.3,2.7-0.8c0.6-0.5,1-1.3,1-2.3c0-0.6-0.2-1.1-0.5-1.5S28.9,28.6,28.3,28.4z M24.5,25.1H26c0.6,0,1,0.1,1.3,0.3
		c0.3,0.2,0.4,0.5,0.4,1c0,0.8-0.5,1.3-1.6,1.3h-1.6V25.1z M27.5,31.7c-0.3,0.2-0.7,0.4-1.2,0.4h-1.8v-2.8h2c1,0,1.5,0.5,1.5,1.4
		C27.9,31.1,27.8,31.4,27.5,31.7z"/>
	<polygon class="st0" points="34,23.4 31.8,23.4 31.8,33.8 38.5,33.8 38.5,32 34,32 	"/>
	<rect x="40" y="23.4" class="st0" width="2.1" height="10.4"/>
	<path class="st0" d="M50.7,23.9c-0.7-0.4-1.4-0.6-2.3-0.6s-1.6,0.2-2.3,0.6s-1.2,1-1.6,1.8c-0.4,0.8-0.6,1.7-0.6,2.7v0.5
		c0,1,0.2,1.9,0.6,2.7s0.9,1.4,1.6,1.8c0.7,0.4,1.4,0.6,2.3,0.6c0.9,0,1.6-0.2,2.3-0.6c0.7-0.4,1.2-1,1.6-1.8
		c0.4-0.8,0.5-1.7,0.5-2.7v-0.5c0-1-0.2-1.9-0.6-2.7C51.9,24.9,51.4,24.3,50.7,23.9z M50.7,28.8c0,1.1-0.2,1.9-0.6,2.5
		c-0.4,0.6-0.9,0.8-1.7,0.8c-0.7,0-1.3-0.3-1.7-0.9c-0.4-0.6-0.6-1.4-0.6-2.5v-0.5c0-1.1,0.2-1.9,0.6-2.5s0.9-0.8,1.7-0.8
		c0.7,0,1.3,0.3,1.7,0.8c0.4,0.6,0.6,1.4,0.6,2.5V28.8z"/>
	<polygon class="st0" points="62.4,23.4 53.9,23.4 53.9,25.1 57,25.1 57,33.8 59.2,33.8 59.2,25.1 62.4,25.1 	"/>
	<polygon class="st0" points="65.9,29.3 70,29.3 70,33.8 72.2,33.8 72.2,23.4 70,23.4 70,27.6 65.9,27.6 65.9,23.4 63.7,23.4 
		63.7,33.8 65.9,33.8 	"/>
	<polygon class="st0" points="81.2,32 76.3,32 76.3,29.3 80.4,29.3 80.4,27.6 76.3,27.6 76.3,25.1 81.1,25.1 81.1,23.4 74.2,23.4 
		74.2,33.8 81.2,33.8 	"/>
	<path class="st0" d="M89.5,32.9c0.7-0.6,1.2-1.5,1.2-2.6h-2.1c0,0.6-0.2,1.1-0.6,1.4c-0.3,0.3-0.8,0.5-1.5,0.5
		c-0.7,0-1.3-0.3-1.6-0.8s-0.5-1.3-0.5-2.5v-0.8c0-1.1,0.2-1.9,0.5-2.4c0.4-0.5,0.9-0.8,1.6-0.8c0.7,0,1.1,0.2,1.5,0.5
		c0.3,0.3,0.5,0.8,0.6,1.5h2.1c-0.1-1.2-0.5-2.1-1.3-2.7s-1.7-1-2.9-1c-0.9,0-1.6,0.2-2.3,0.6c-0.7,0.4-1.2,1-1.5,1.8
		c-0.4,0.8-0.5,1.6-0.5,2.6v0.6c0,1.6,0.4,2.8,1.1,3.7c0.8,0.9,1.8,1.3,3.1,1.3C87.8,33.9,88.7,33.6,89.5,32.9z"/>
	<path class="st0" d="M94.4,31.6h3.8l0.7,2.1h2.3l-3.9-10.4h-2l-3.9,10.4h2.3L94.4,31.6z M96.3,26l1.3,3.9H95L96.3,26z"/>
	<polygon class="st0" points="112.4,27.6 108.2,27.6 108.2,23.4 106,23.4 106,33.8 108.2,33.8 108.2,29.3 112.4,29.3 112.4,33.8 
		114.5,33.8 114.5,23.4 112.4,23.4 	"/>
	<polygon class="st0" points="123.5,32 118.7,32 118.7,29.3 122.8,29.3 122.8,27.6 118.7,27.6 118.7,25.1 123.5,25.1 123.5,23.4 
		116.5,23.4 116.5,33.8 123.5,33.8 	"/>
	<path class="st0" d="M127,30h1.7l1.9,3.8h2.3v-0.1l-2.2-4.2c0.6-0.3,1.1-0.7,1.4-1.1c0.3-0.5,0.5-1.1,0.5-1.8c0-1-0.3-1.8-1-2.3
		s-1.6-0.8-2.8-0.8h-3.9v10.4h2.1V30z M127,25.1h1.7c0.6,0,1,0.1,1.3,0.4s0.4,0.7,0.4,1.2c0,0.5-0.1,0.9-0.4,1.1
		c-0.3,0.3-0.7,0.4-1.2,0.4H127V25.1z"/>
	<polygon class="st0" points="133.7,25.1 136.9,25.1 136.9,33.8 139,33.8 139,25.1 142.2,25.1 142.2,23.4 133.7,23.4 	"/>
	<polygon class="st0" points="151.1,32 145.8,32 151,24.6 151,23.4 143.2,23.4 143.2,25.1 148.3,25.1 143.2,32.5 143.2,33.8 
		151.1,33.8 	"/>
	<rect x="152.7" y="23.4" class="st0" width="2.1" height="10.4"/>
	<path class="st0" d="M163.6,33.8h2.3l-3.9-10.4h-2l-3.9,10.4h2.3l0.7-2.1h3.8L163.6,33.8z M159.7,29.9L161,26l1.3,3.9H159.7z"/>
	<polygon class="st0" points="175.4,23.4 173.3,23.4 173.3,30.2 169.1,23.4 167,23.4 167,33.8 169.1,33.8 169.1,26.9 173.3,33.8 
		175.4,33.8 	"/>
	<path class="st0" d="M179.5,31.6h3.8l0.7,2.1h2.3l-3.9-10.4h-2l-3.9,10.4h2.3L179.5,31.6z M181.4,26l1.3,3.9h-2.6L181.4,26z"/>
	<polygon class="st0" points="95.5,55.3 96.1,55.3 96.1,51.9 99.5,51.9 99.5,51.4 96.1,51.4 96.1,48.5 100,48.5 100,48 95.5,48 	"/>
	<path class="st0" d="M105.8,48.3c-0.4-0.3-0.9-0.4-1.5-0.4c-0.6,0-1.1,0.1-1.5,0.4s-0.8,0.7-1,1.2s-0.4,1.1-0.4,1.8V52
		c0,1,0.3,1.9,0.8,2.5c0.5,0.6,1.2,0.9,2.1,0.9c0.6,0,1.1-0.1,1.5-0.4c0.4-0.3,0.8-0.7,1-1.2c0.2-0.5,0.3-1.1,0.3-1.8v-0.9
		c0-0.7-0.1-1.2-0.4-1.7C106.6,49,106.3,48.6,105.8,48.3z M106.6,52c0,0.9-0.2,1.6-0.6,2.1s-0.9,0.7-1.6,0.7c-0.7,0-1.2-0.3-1.6-0.8
		c-0.4-0.5-0.6-1.2-0.6-2.1v-0.8c0-0.9,0.2-1.6,0.6-2.1s0.9-0.7,1.6-0.7c0.7,0,1.2,0.2,1.6,0.7c0.4,0.5,0.6,1.2,0.6,2.1V52z"/>
	<path class="st0" d="M113.7,51.4c0.3-0.4,0.4-0.8,0.4-1.2c0-0.7-0.2-1.2-0.7-1.6c-0.4-0.4-1-0.6-1.8-0.6h-2.4v7.3h0.6v-3h2.1l1.8,3
		h0.7v-0.1l-1.8-3.1C113,52,113.4,51.7,113.7,51.4z M111.7,51.7h-1.9v-3.2h1.7c0.6,0,1,0.1,1.4,0.4s0.5,0.7,0.5,1.2
		c0,0.5-0.2,0.8-0.5,1.1C112.7,51.6,112.3,51.7,111.7,51.7z"/>
	<path class="st0" d="M121.3,48l-2.8,7.3h0.6l0.8-2h3.3l0.8,2h0.6l-2.8-7.3H121.3z M120.1,52.7l1.5-4l1.5,4H120.1z"/>
	<path class="st0" d="M130.6,51.4c0.3-0.4,0.4-0.8,0.4-1.2c0-0.7-0.2-1.2-0.7-1.6c-0.4-0.4-1-0.6-1.8-0.6h-2.4v7.3h0.6v-3h2.1l1.8,3
		h0.7v-0.1l-1.8-3.1C130,52,130.3,51.7,130.6,51.4z M128.7,51.7h-1.9v-3.2h1.7c0.6,0,1,0.1,1.4,0.4s0.5,0.7,0.5,1.2
		c0,0.5-0.2,0.8-0.5,1.1C129.6,51.6,129.2,51.7,128.7,51.7z"/>
	<polygon class="st0" points="132.5,48.5 135,48.5 135,55.3 135.7,55.3 135.7,48.5 138.2,48.5 138.2,48 132.5,48 	"/>
	<polygon class="st0" points="147.6,51.3 143.5,51.3 143.5,48 142.9,48 142.9,55.3 143.5,55.3 143.5,51.8 147.6,51.8 147.6,55.3 
		148.3,55.3 148.3,48 147.6,48 	"/>
	<rect x="150.8" y="48" class="st0" width="0.6" height="7.3"/>
	<path class="st0" d="M157.6,51.9c-0.3-0.2-0.8-0.4-1.5-0.6s-1.1-0.4-1.4-0.6c-0.3-0.2-0.4-0.5-0.4-0.9c0-0.4,0.2-0.7,0.5-1
		c0.3-0.2,0.8-0.4,1.3-0.4c0.6,0,1,0.2,1.4,0.5s0.5,0.7,0.5,1.2h0.6c0-0.4-0.1-0.8-0.3-1.1c-0.2-0.3-0.5-0.6-0.9-0.8
		c-0.4-0.2-0.8-0.3-1.3-0.3c-0.7,0-1.3,0.2-1.8,0.5s-0.7,0.8-0.7,1.4c0,0.6,0.2,1,0.7,1.4c0.3,0.2,0.9,0.5,1.7,0.7
		c0.8,0.2,1.3,0.4,1.6,0.7c0.3,0.2,0.4,0.6,0.4,1c0,0.4-0.2,0.7-0.5,1s-0.8,0.4-1.4,0.4c-0.6,0-1.1-0.1-1.5-0.4
		c-0.4-0.3-0.6-0.7-0.6-1.2h-0.6c0,0.4,0.1,0.8,0.3,1.1c0.2,0.3,0.5,0.6,1,0.8s0.9,0.3,1.4,0.3c0.8,0,1.4-0.2,1.8-0.5
		c0.5-0.3,0.7-0.8,0.7-1.4c0-0.4-0.1-0.7-0.3-0.9C158.2,52.3,157.9,52.1,157.6,51.9z"/>
	<polygon class="st0" points="159.8,48.5 162.3,48.5 162.3,55.3 162.9,55.3 162.9,48.5 165.4,48.5 165.4,48 159.8,48 	"/>
	<path class="st0" d="M171.1,48.3c-0.4-0.3-0.9-0.4-1.5-0.4c-0.6,0-1.1,0.1-1.5,0.4s-0.8,0.7-1,1.2s-0.4,1.1-0.4,1.8V52
		c0,1,0.3,1.9,0.8,2.5c0.5,0.6,1.2,0.9,2.1,0.9c0.6,0,1.1-0.1,1.5-0.4c0.4-0.3,0.8-0.7,1-1.2c0.2-0.5,0.3-1.1,0.3-1.8v-0.9
		c0-0.7-0.1-1.2-0.4-1.7C171.9,49,171.5,48.6,171.1,48.3z M171.9,52c0,0.9-0.2,1.6-0.6,2.1s-0.9,0.7-1.6,0.7c-0.7,0-1.2-0.3-1.6-0.8
		c-0.4-0.5-0.6-1.2-0.6-2.1v-0.8c0-0.9,0.2-1.6,0.6-2.1s0.9-0.7,1.6-0.7c0.7,0,1.2,0.2,1.6,0.7c0.4,0.5,0.6,1.2,0.6,2.1V52z"/>
	<path class="st0" d="M179,51.4c0.3-0.4,0.4-0.8,0.4-1.2c0-0.7-0.2-1.2-0.7-1.6c-0.4-0.4-1-0.6-1.8-0.6h-2.4v7.3h0.6v-3h2.1l1.8,3
		h0.7v-0.1l-1.8-3.1C178.3,52,178.7,51.7,179,51.4z M177,51.7h-1.9v-3.2h1.7c0.6,0,1,0.1,1.4,0.4s0.5,0.7,0.5,1.2
		c0,0.5-0.2,0.8-0.5,1.1C178,51.6,177.5,51.7,177,51.7z"/>
	<polygon class="st0" points="183.7,52 181.5,48 180.8,48 183.4,52.6 183.4,55.3 184,55.3 184,52.6 186.6,48 185.9,48 	"/>
	<polygon class="st0" points="63.2,42.6 61.3,37.3 59.4,37.3 59.4,44.6 60.9,44.6 60.9,42.6 60.7,39.1 62.7,44.6 63.7,44.6 
		65.7,39.1 65.5,42.6 65.5,44.6 67,44.6 67,37.3 65.1,37.3 	"/>
	<path class="st0" d="M71,37.3l-2.7,7.3h1.6l0.5-1.5H73l0.5,1.5h1.6l-2.7-7.3H71z M70.8,41.8l0.9-2.7l0.9,2.7H70.8z"/>
	<polygon class="st0" points="82,37.3 80.3,37.3 78.9,39.8 77.5,37.3 75.8,37.3 77.9,40.9 75.7,44.6 77.5,44.6 78.9,42 80.3,44.6 
		82,44.6 79.9,40.9 	"/>
	<path class="st0" d="M90.7,37.6c-0.4-0.2-0.9-0.3-1.4-0.3h-2.8v7.3h1.5V42h1.3c0.9,0,1.5-0.2,2-0.6c0.5-0.4,0.7-1,0.7-1.7
		c0-0.5-0.1-0.9-0.3-1.3C91.4,38.1,91.1,37.8,90.7,37.6z M90.1,40.5c-0.2,0.2-0.5,0.3-0.9,0.3h-1.3v-2.3h1.4c0.4,0,0.7,0.1,0.9,0.3
		c0.2,0.2,0.3,0.5,0.3,0.9C90.4,40,90.3,40.3,90.1,40.5z"/>
	<polygon class="st0" points="98.2,43.4 95,43.4 95,37.3 93.5,37.3 93.5,44.6 98.2,44.6 	"/>
	<path class="st0" d="M104.2,44.6h1.6l-2.7-7.3h-1.4l-2.7,7.3h1.6l0.5-1.5h2.6L104.2,44.6z M101.5,41.8l0.9-2.7l0.9,2.7H101.5z"/>
	<polygon class="st0" points="112.9,44.6 112.9,37.3 111.4,37.3 111.4,42.1 108.5,37.3 107,37.3 107,44.6 108.5,44.6 108.5,39.8 
		111.4,44.6 	"/>
	<path class="st0" d="M120.4,42.1h-1.5c0,0.4-0.2,0.8-0.4,1c-0.2,0.2-0.6,0.3-1,0.3c-0.5,0-0.9-0.2-1.1-0.5
		c-0.2-0.4-0.4-0.9-0.4-1.7v-0.6c0-0.8,0.1-1.3,0.4-1.7c0.2-0.4,0.6-0.5,1.1-0.5c0.5,0,0.8,0.1,1,0.3c0.2,0.2,0.4,0.6,0.4,1h1.5
		c-0.1-0.8-0.4-1.4-0.9-1.9c-0.5-0.5-1.2-0.7-2-0.7c-0.6,0-1.1,0.1-1.6,0.4c-0.5,0.3-0.8,0.7-1.1,1.2s-0.4,1.2-0.4,1.9v0.4
		c0,1.1,0.3,2,0.8,2.6c0.5,0.6,1.3,0.9,2.2,0.9c0.9,0,1.5-0.2,2.1-0.7C120.1,43.5,120.4,42.9,120.4,42.1z"/>
	<polygon class="st0" points="125.2,40.5 127.8,37.3 126,37.3 124.1,39.7 123.5,40.6 123.5,37.3 121.9,37.3 121.9,44.6 123.5,44.6 
		123.5,42.5 124.2,41.6 126.1,44.6 127.9,44.6 	"/>
	<rect x="132.1" y="37.3" class="st0" width="1.5" height="7.3"/>
	<polygon class="st0" points="140,42.1 137,37.3 135.5,37.3 135.5,44.6 137,44.6 137,39.8 140,44.6 141.5,44.6 141.5,37.3 140,37.3 
			"/>
	<path class="st0" d="M145.9,38.4c0.4,0,0.7,0.1,0.9,0.3c0.2,0.2,0.3,0.4,0.3,0.8h1.5c0-0.4-0.1-0.8-0.3-1.2
		c-0.2-0.3-0.5-0.6-0.9-0.8c-0.4-0.2-0.9-0.3-1.4-0.3c-0.5,0-1,0.1-1.4,0.3c-0.4,0.2-0.7,0.4-1,0.7c-0.2,0.3-0.3,0.7-0.3,1.1
		c0,0.8,0.4,1.4,1.2,1.8c0.3,0.2,0.7,0.3,1.2,0.5c0.5,0.2,0.9,0.3,1.1,0.5c0.2,0.2,0.3,0.4,0.3,0.7c0,0.3-0.1,0.5-0.3,0.6
		c-0.2,0.1-0.5,0.2-0.8,0.2c-1,0-1.4-0.4-1.4-1.2H143c0,0.5,0.1,0.9,0.4,1.2c0.2,0.4,0.6,0.6,1.1,0.8c0.5,0.2,1,0.3,1.5,0.3
		c0.8,0,1.5-0.2,1.9-0.5c0.5-0.4,0.7-0.9,0.7-1.5c0-0.6-0.2-1-0.6-1.4c-0.4-0.4-1-0.7-1.9-1c-0.5-0.1-0.8-0.3-1.1-0.5
		c-0.2-0.2-0.4-0.4-0.4-0.6c0-0.3,0.1-0.5,0.3-0.6C145.2,38.4,145.5,38.4,145.9,38.4z"/>
	<polygon class="st0" points="155.6,37.3 149.7,37.3 149.7,38.5 151.9,38.5 151.9,44.6 153.4,44.6 153.4,38.5 155.6,38.5 	"/>
	<rect x="157.1" y="37.3" class="st0" width="1.5" height="7.3"/>
	<polygon class="st0" points="160,38.5 162.2,38.5 162.2,44.6 163.7,44.6 163.7,38.5 166,38.5 166,37.3 160,37.3 	"/>
	<path class="st0" d="M171.3,42.1c0,0.9-0.4,1.3-1.3,1.3c-0.4,0-0.7-0.1-0.9-0.3c-0.2-0.2-0.3-0.6-0.3-1v-4.8h-1.5v4.9
		c0,0.8,0.3,1.4,0.8,1.9c0.5,0.5,1.2,0.7,2,0.7c0.9,0,1.5-0.2,2-0.7s0.7-1.1,0.7-1.9v-4.8h-1.5V42.1z"/>
	<polygon class="st0" points="174.1,38.5 176.3,38.5 176.3,44.6 177.8,44.6 177.8,38.5 180.1,38.5 180.1,37.3 174.1,37.3 	"/>
	<polygon class="st0" points="186.3,38.5 186.3,37.3 181.4,37.3 181.4,44.6 186.3,44.6 186.3,43.4 182.9,43.4 182.9,41.4 
		185.8,41.4 185.8,40.2 182.9,40.2 182.9,38.5 	"/>
</g>
</svg>
