<?xml version="1.0" encoding="utf-8"?>
<!-- Generator: Adobe Illustrator 26.0.1, SVG Export Plug-In . SVG Version: 6.00 Build 0)  -->
<svg version="1.1" id="Livello_1" xmlns="http://www.w3.org/2000/svg" xmlns:xlink="http://www.w3.org/1999/xlink" x="0px" y="0px"
	 width="175.4px" height="102.6px" viewBox="0 0 175.4 102.6" style="enable-background:new 0 0 175.4 102.6;" xml:space="preserve"
	>
<style type="text/css">
	.st0{fill:#2F2A17;}
	.st1{fill:none;stroke:#2F2A17;stroke-width:0.3;stroke-miterlimit:10;}
	.st2{fill-rule:evenodd;clip-rule:evenodd;fill:#2F2A17;}
</style>
<g>
	<g>
		<g>
			<path class="st0" d="M7.9,77.8v-9.3h3.3c1.1,0,2,0.2,2.6,0.6c0.6,0.4,0.9,1.1,0.9,1.9c0,0.5-0.1,0.9-0.4,1.2
				c-0.2,0.3-0.6,0.6-1,0.8c0.5,0.1,0.9,0.4,1.1,0.7c0.3,0.4,0.4,0.8,0.4,1.3c0,0.9-0.3,1.6-0.9,2c-0.6,0.5-1.4,0.7-2.4,0.7H7.9z
				 M9.8,72.4h1.4c1,0,1.5-0.4,1.5-1.2c0-0.4-0.1-0.7-0.4-0.9C12,70.1,11.7,70,11.1,70H9.8V72.4z M9.8,73.7v2.5h1.6
				c0.5,0,0.8-0.1,1.1-0.3c0.3-0.2,0.4-0.5,0.4-0.9c0-0.9-0.4-1.3-1.3-1.3H9.8z"/>
			<path class="st0" d="M18.4,77.8h-1.9v-9.3h1.9V77.8z"/>
			<path class="st0" d="M20.3,77.8v-9.3h3.3c1.1,0,2,0.2,2.6,0.6c0.6,0.4,0.9,1.1,0.9,1.9c0,0.5-0.1,0.9-0.4,1.2
				c-0.2,0.3-0.6,0.6-1,0.8c0.5,0.1,0.9,0.4,1.1,0.7c0.3,0.4,0.4,0.8,0.4,1.3c0,0.9-0.3,1.6-0.9,2c-0.6,0.5-1.4,0.7-2.4,0.7H20.3z
				 M22.2,72.4h1.4c1,0,1.5-0.4,1.5-1.2c0-0.4-0.1-0.7-0.4-0.9c-0.2-0.2-0.6-0.3-1.2-0.3h-1.3V72.4z M22.2,73.7v2.5h1.6
				c0.5,0,0.8-0.1,1.1-0.3c0.3-0.2,0.4-0.5,0.4-0.9c0-0.9-0.4-1.3-1.3-1.3H22.2z"/>
			<path class="st0" d="M30.7,76.2h4.1v1.5h-6v-9.3h1.9V76.2z"/>
			<path class="st0" d="M38.1,77.8h-1.9v-9.3h1.9V77.8z"/>
			<path class="st0" d="M47.6,73.3c0,0.9-0.2,1.7-0.5,2.4s-0.8,1.2-1.4,1.6c-0.6,0.4-1.3,0.6-2.1,0.6c-0.8,0-1.5-0.2-2.1-0.6
				s-1.1-0.9-1.4-1.6c-0.3-0.7-0.5-1.5-0.5-2.4v-0.5c0-0.9,0.2-1.7,0.5-2.4c0.3-0.7,0.8-1.2,1.4-1.6s1.3-0.6,2.1-0.6
				s1.5,0.2,2.1,0.6s1.1,0.9,1.4,1.6s0.5,1.5,0.5,2.4V73.3z M45.7,72.9c0-1-0.2-1.7-0.5-2.2c-0.3-0.5-0.8-0.8-1.5-0.8
				c-0.6,0-1.1,0.2-1.5,0.8c-0.3,0.5-0.5,1.2-0.5,2.2v0.5c0,1,0.2,1.7,0.5,2.2s0.9,0.8,1.5,0.8c0.6,0,1.1-0.3,1.5-0.8
				c0.3-0.5,0.5-1.2,0.5-2.2V72.9z"/>
			<path class="st0" d="M56.2,70h-2.9v7.8h-1.9V70h-2.8v-1.6h7.6V70z"/>
			<path class="st0" d="M65,77.8H63v-4h-3.7v4h-1.9v-9.3h1.9v3.8H63v-3.8H65V77.8z"/>
			<path class="st0" d="M72.4,73.7h-3.7v2.5H73v1.5h-6.2v-9.3H73V70h-4.3v2.2h3.7V73.7z"/>
			<path class="st0" d="M81.6,74.7c-0.1,1-0.4,1.8-1.1,2.4c-0.7,0.6-1.5,0.9-2.6,0.9c-1.2,0-2.1-0.4-2.8-1.2c-0.7-0.8-1-1.9-1-3.3
				v-0.6c0-0.9,0.2-1.7,0.5-2.4c0.3-0.7,0.8-1.2,1.4-1.6c0.6-0.4,1.3-0.5,2-0.5c1.1,0,1.9,0.3,2.6,0.9c0.7,0.6,1,1.4,1.1,2.4h-1.9
				c0-0.6-0.2-1-0.5-1.3c-0.3-0.3-0.7-0.4-1.3-0.4c-0.6,0-1.1,0.2-1.4,0.7c-0.3,0.5-0.5,1.2-0.5,2.1v0.7c0,1,0.2,1.7,0.5,2.2
				c0.3,0.5,0.8,0.7,1.4,0.7c0.6,0,1-0.1,1.3-0.4c0.3-0.3,0.5-0.7,0.5-1.3H81.6z"/>
			<path class="st0" d="M88.2,75.8h-3.4l-0.6,1.9h-2l3.5-9.3h1.8l3.5,9.3h-2L88.2,75.8z M85.4,74.3h2.3l-1.2-3.5L85.4,74.3z"/>
			<path class="st0" d="M102.9,77.8H101v-4h-3.7v4h-1.9v-9.3h1.9v3.8h3.7v-3.8h1.9V77.8z"/>
			<path class="st0" d="M110.3,73.7h-3.7v2.5h4.3v1.5h-6.2v-9.3h6.2V70h-4.3v2.2h3.7V73.7z"/>
			<path class="st0" d="M115.6,74.4h-1.5v3.4h-1.9v-9.3h3.5c1.1,0,1.9,0.2,2.5,0.7c0.6,0.5,0.9,1.2,0.9,2.1c0,0.6-0.1,1.2-0.4,1.6
				s-0.7,0.8-1.2,1l2,3.8v0.1h-2.1L115.6,74.4z M114.1,72.8h1.5c0.5,0,0.9-0.1,1.1-0.4c0.3-0.2,0.4-0.6,0.4-1c0-0.4-0.1-0.8-0.4-1
				c-0.2-0.3-0.6-0.4-1.1-0.4h-1.5V72.8z"/>
			<path class="st0" d="M127.7,70h-2.9v7.8h-1.9V70h-2.8v-1.6h7.6V70z"/>
			<path class="st0" d="M131,76.2h4.7v1.5h-7.1v-1.1l4.6-6.6h-4.6v-1.6h7v1.1L131,76.2z"/>
			<path class="st0" d="M139,77.8h-1.9v-9.3h1.9V77.8z"/>
			<path class="st0" d="M146.2,75.8h-3.4l-0.6,1.9h-2l3.5-9.3h1.8l3.5,9.3h-2L146.2,75.8z M143.4,74.3h2.3l-1.2-3.5L143.4,74.3z"/>
			<path class="st0" d="M157.5,77.8h-1.9l-3.7-6.1v6.1h-1.9v-9.3h1.9l3.7,6.1v-6.1h1.9V77.8z"/>
			<path class="st0" d="M164.5,75.8h-3.4l-0.6,1.9h-2l3.5-9.3h1.8l3.5,9.3h-2L164.5,75.8z M161.7,74.3h2.3l-1.2-3.5L161.7,74.3z"/>
		</g>
	</g>
	<g>
		<g>
			<path class="st0" d="M55.2,80.9l1.7,4.7l1.7-4.7h1.8v6.5H59v-1.8l0.1-3.1l-1.8,4.9h-0.9l-1.8-4.9l0.1,3.1v1.8h-1.3v-6.5H55.2z"/>
			<path class="st0" d="M65.7,86.1h-2.4l-0.4,1.3h-1.4l2.4-6.5h1.2l2.4,6.5h-1.4L65.7,86.1z M63.7,85h1.6l-0.8-2.4L63.7,85z"/>
			<path class="st0" d="M71,83.2l1.2-2.3h1.5l-1.9,3.2l2,3.3h-1.6L71,85.2l-1.3,2.3h-1.6l2-3.3l-1.9-3.2h1.5L71,83.2z"/>
			<path class="st0" d="M79,85.1v2.3h-1.3v-6.5h2.5c0.5,0,0.9,0.1,1.3,0.3c0.4,0.2,0.7,0.4,0.9,0.8s0.3,0.7,0.3,1.1
				c0,0.6-0.2,1.1-0.7,1.5c-0.4,0.4-1,0.6-1.8,0.6H79z M79,84h1.2c0.4,0,0.6-0.1,0.8-0.3c0.2-0.2,0.3-0.4,0.3-0.7
				c0-0.3-0.1-0.6-0.3-0.8S80.6,82,80.3,82H79V84z"/>
			<path class="st0" d="M85.4,86.4h2.9v1.1h-4.2v-6.5h1.3V86.4z"/>
			<path class="st0" d="M93.2,86.1h-2.4l-0.4,1.3h-1.4l2.4-6.5h1.2l2.4,6.5h-1.4L93.2,86.1z M91.2,85h1.6L92,82.6L91.2,85z"/>
			<path class="st0" d="M101.5,87.4h-1.3l-2.6-4.3v4.3h-1.3v-6.5h1.3l2.6,4.3v-4.3h1.3V87.4z"/>
			<path class="st0" d="M108.2,85.3c-0.1,0.7-0.3,1.3-0.8,1.7c-0.5,0.4-1.1,0.6-1.9,0.6c-0.8,0-1.5-0.3-2-0.8
				c-0.5-0.6-0.7-1.3-0.7-2.3V84c0-0.6,0.1-1.2,0.3-1.7s0.5-0.8,0.9-1.1c0.4-0.3,0.9-0.4,1.4-0.4c0.8,0,1.4,0.2,1.8,0.6
				c0.5,0.4,0.7,1,0.8,1.7h-1.3c0-0.4-0.2-0.7-0.4-0.9c-0.2-0.2-0.5-0.3-0.9-0.3c-0.4,0-0.8,0.2-1,0.5s-0.3,0.8-0.3,1.5v0.5
				c0,0.7,0.1,1.2,0.3,1.5s0.6,0.5,1,0.5c0.4,0,0.7-0.1,0.9-0.3c0.2-0.2,0.3-0.5,0.4-0.9H108.2z"/>
			<path class="st0" d="M111.6,84.8l-0.7,0.8v1.9h-1.3v-6.5h1.3v3l0.6-0.8l1.7-2.1h1.7l-2.3,2.9l2.4,3.6h-1.6L111.6,84.8z"/>
			<path class="st0" d="M120,87.4h-1.3v-6.5h1.3V87.4z"/>
			<path class="st0" d="M127,87.4h-1.3l-2.6-4.3v4.3h-1.3v-6.5h1.3l2.6,4.3v-4.3h1.3V87.4z"/>
			<path class="st0" d="M132.1,85.7c0-0.3-0.1-0.5-0.3-0.6c-0.2-0.1-0.5-0.3-1-0.4c-0.5-0.2-0.8-0.3-1.1-0.4
				c-0.7-0.4-1.1-0.9-1.1-1.6c0-0.4,0.1-0.7,0.3-0.9s0.5-0.5,0.9-0.6c0.4-0.2,0.8-0.2,1.3-0.2c0.5,0,0.9,0.1,1.2,0.3
				c0.4,0.2,0.6,0.4,0.9,0.7c0.2,0.3,0.3,0.7,0.3,1h-1.3c0-0.3-0.1-0.5-0.3-0.7c-0.2-0.2-0.5-0.2-0.8-0.2c-0.3,0-0.6,0.1-0.8,0.2
				c-0.2,0.1-0.3,0.3-0.3,0.5c0,0.2,0.1,0.4,0.3,0.5s0.5,0.3,0.9,0.4c0.8,0.2,1.3,0.5,1.7,0.9c0.4,0.3,0.5,0.8,0.5,1.3
				c0,0.6-0.2,1-0.6,1.3c-0.4,0.3-1,0.5-1.7,0.5c-0.5,0-1-0.1-1.4-0.3c-0.4-0.2-0.7-0.4-0.9-0.8c-0.2-0.3-0.3-0.7-0.3-1.1h1.4
				c0,0.7,0.4,1.1,1.3,1.1c0.3,0,0.6-0.1,0.7-0.2C132,86.1,132.1,86,132.1,85.7z"/>
			<path class="st0" d="M139.7,82h-2v5.4h-1.3V82h-2v-1.1h5.3V82z"/>
			<path class="st0" d="M142.4,87.4H141v-6.5h1.3V87.4z"/>
			<path class="st0" d="M149,82h-2v5.4h-1.3V82h-2v-1.1h5.3V82z"/>
			<path class="st0" d="M155.2,80.9v4.3c0,0.7-0.2,1.3-0.7,1.7c-0.4,0.4-1.1,0.6-1.8,0.6c-0.8,0-1.4-0.2-1.8-0.6
				c-0.4-0.4-0.7-1-0.7-1.7v-4.4h1.3v4.3c0,0.4,0.1,0.7,0.3,0.9c0.2,0.2,0.5,0.3,0.8,0.3c0.8,0,1.1-0.4,1.2-1.2v-4.3H155.2z"/>
			<path class="st0" d="M161.6,82h-2v5.4h-1.3V82h-2v-1.1h5.3V82z"/>
			<path class="st0" d="M166.8,84.6h-2.6v1.7h3v1.1h-4.4v-6.5h4.4V82h-3v1.6h2.6V84.6z"/>
		</g>
	</g>
	<g>
		<path class="st0" d="M89.5,94h-3v3.1h-0.6v-6.5h4V91h-3.5v2.5h3V94z"/>
		<path class="st0" d="M96.3,94.1c0,0.6-0.1,1.1-0.3,1.6c-0.2,0.5-0.5,0.8-0.9,1c-0.4,0.2-0.8,0.4-1.3,0.4c-0.8,0-1.4-0.3-1.8-0.8
			c-0.5-0.5-0.7-1.3-0.7-2.2v-0.7c0-0.6,0.1-1.1,0.3-1.6s0.5-0.8,0.9-1.1c0.4-0.2,0.8-0.4,1.3-0.4c0.5,0,0.9,0.1,1.3,0.4
			c0.4,0.2,0.7,0.6,0.9,1c0.2,0.4,0.3,1,0.3,1.5V94.1z M95.8,93.4c0-0.8-0.2-1.4-0.5-1.8c-0.4-0.4-0.8-0.7-1.5-0.7
			c-0.6,0-1.1,0.2-1.5,0.7s-0.5,1.1-0.5,1.9v0.7c0,0.8,0.2,1.4,0.5,1.8c0.4,0.5,0.8,0.7,1.5,0.7c0.6,0,1.1-0.2,1.5-0.7
			c0.4-0.4,0.5-1.1,0.5-1.9V93.4z"/>
		<path class="st0" d="M100.6,94.3h-1.9v2.7h-0.6v-6.5h2.1c0.7,0,1.2,0.2,1.6,0.5c0.4,0.3,0.6,0.8,0.6,1.4c0,0.4-0.1,0.8-0.4,1.1
			c-0.2,0.3-0.6,0.5-1,0.7l1.6,2.8v0.1h-0.6L100.6,94.3z M98.7,93.9h1.7c0.5,0,0.8-0.1,1.1-0.4c0.3-0.3,0.4-0.6,0.4-1
			c0-0.5-0.1-0.8-0.4-1.1s-0.7-0.4-1.2-0.4h-1.6V93.9z"/>
		<path class="st0" d="M110.7,95.2h-3l-0.7,1.8h-0.6l2.5-6.5h0.5l2.5,6.5h-0.6L110.7,95.2z M107.9,94.8h2.6l-1.3-3.6L107.9,94.8z"/>
		<path class="st0" d="M115.8,94.3h-1.9v2.7h-0.6v-6.5h2.1c0.7,0,1.2,0.2,1.6,0.5c0.4,0.3,0.6,0.8,0.6,1.4c0,0.4-0.1,0.8-0.4,1.1
			c-0.2,0.3-0.6,0.5-1,0.7L118,97v0.1h-0.6L115.8,94.3z M113.9,93.9h1.7c0.5,0,0.8-0.1,1.1-0.4c0.3-0.3,0.4-0.6,0.4-1
			c0-0.5-0.1-0.8-0.4-1.1S116,91,115.5,91h-1.6V93.9z"/>
		<path class="st0" d="M124.1,91h-2.2v6.1h-0.6V91h-2.2v-0.5h5V91z"/>
		<path class="st0" d="M133.1,97.1h-0.6v-3.1h-3.7v3.1h-0.6v-6.5h0.6v2.9h3.7v-2.9h0.6V97.1z"/>
		<path class="st0" d="M135.9,97.1h-0.6v-6.5h0.6V97.1z"/>
		<path class="st0" d="M141.8,95.5c0-0.4-0.1-0.6-0.4-0.9c-0.3-0.2-0.7-0.4-1.4-0.6c-0.7-0.2-1.2-0.4-1.5-0.6
			c-0.4-0.3-0.7-0.7-0.7-1.2c0-0.5,0.2-0.9,0.6-1.2s0.9-0.5,1.6-0.5c0.4,0,0.8,0.1,1.2,0.3c0.3,0.2,0.6,0.4,0.8,0.7s0.3,0.6,0.3,1
			h-0.6c0-0.4-0.2-0.8-0.5-1.1c-0.3-0.3-0.7-0.4-1.2-0.4c-0.5,0-0.9,0.1-1.2,0.3c-0.3,0.2-0.4,0.5-0.4,0.9c0,0.3,0.1,0.6,0.4,0.8
			c0.3,0.2,0.7,0.4,1.3,0.6c0.6,0.2,1,0.3,1.3,0.5c0.3,0.2,0.5,0.4,0.7,0.6c0.2,0.2,0.2,0.5,0.2,0.8c0,0.5-0.2,0.9-0.6,1.2
			c-0.4,0.3-1,0.5-1.6,0.5c-0.5,0-0.9-0.1-1.3-0.2c-0.4-0.2-0.7-0.4-0.9-0.7c-0.2-0.3-0.3-0.6-0.3-1h0.6c0,0.5,0.2,0.8,0.5,1.1
			c0.3,0.3,0.8,0.4,1.4,0.4c0.5,0,0.9-0.1,1.2-0.3C141.7,96.1,141.8,95.8,141.8,95.5z"/>
		<path class="st0" d="M148.5,91h-2.2v6.1h-0.6V91h-2.2v-0.5h5V91z"/>
		<path class="st0" d="M154.8,94.1c0,0.6-0.1,1.1-0.3,1.6c-0.2,0.5-0.5,0.8-0.9,1c-0.4,0.2-0.8,0.4-1.3,0.4c-0.8,0-1.4-0.3-1.8-0.8
			c-0.5-0.5-0.7-1.3-0.7-2.2v-0.7c0-0.6,0.1-1.1,0.3-1.6s0.5-0.8,0.9-1.1c0.4-0.2,0.8-0.4,1.3-0.4c0.5,0,0.9,0.1,1.3,0.4
			c0.4,0.2,0.7,0.6,0.9,1c0.2,0.4,0.3,1,0.3,1.5V94.1z M154.3,93.4c0-0.8-0.2-1.4-0.5-1.8c-0.4-0.4-0.8-0.7-1.5-0.7
			c-0.6,0-1.1,0.2-1.5,0.7s-0.5,1.1-0.5,1.9v0.7c0,0.8,0.2,1.4,0.5,1.8c0.4,0.5,0.8,0.7,1.5,0.7c0.6,0,1.1-0.2,1.5-0.7
			c0.4-0.4,0.5-1.1,0.5-1.9V93.4z"/>
		<path class="st0" d="M159.1,94.3h-1.9v2.7h-0.6v-6.5h2.1c0.7,0,1.2,0.2,1.6,0.5c0.4,0.3,0.6,0.8,0.6,1.4c0,0.4-0.1,0.8-0.4,1.1
			c-0.2,0.3-0.6,0.5-1,0.7l1.6,2.8v0.1h-0.6L159.1,94.3z M157.2,93.9h1.7c0.5,0,0.8-0.1,1.1-0.4c0.3-0.3,0.4-0.6,0.4-1
			c0-0.5-0.1-0.8-0.4-1.1s-0.7-0.4-1.2-0.4h-1.6V93.9z"/>
		<path class="st0" d="M164.9,94.1l2-3.6h0.6l-2.4,4.1v2.5h-0.6v-2.5l-2.4-4.1h0.7L164.9,94.1z"/>
	</g>
	<g>
		<g>
			<g>
				<path class="st0" d="M142.9,5.4c-13,0-23.7,10.6-23.7,23.6c0,13,10.6,23.7,23.7,23.7c13,0,23.6-10.6,23.6-23.7
					C166.6,16,156,5.4,142.9,5.4 M142.9,52.1c-12.7,0-23-10.3-23-23c0-12.7,10.3-23,23-23c12.7,0,23,10.3,23,23
					C165.9,41.8,155.6,52.1,142.9,52.1"/>
				<path class="st0" d="M156.8,27.3c-0.3-0.7-0.1-1.1-0.2-1.6c-0.1-0.4-0.6-1.6-1-2.4c-0.2-0.4,0.8-0.3,0.1-1.7c0,0,1-0.4,0-1.2
					c-0.6-0.5-1-1-1.3-1.5c0-0.1-0.1-0.2,0-0.3c0.6-0.5,0.6-1.3,0-1.7c-0.5-0.3-1,0-1.5,0.3c-0.2,0.1-0.2,0.2-0.4,0.1
					c-0.1,0-0.3-0.2-0.4-0.3c0.6-0.6,0.7-1.2,0.7-1.3c0-0.1-1-0.3-2.3,0.2c0,0-0.1,0-0.1,0c0.5-0.9,0.2-1.5,0.2-1.6c0,0,0,0,0,0
					c0.9-1.3,1.9-2.2,2.8-3l0,0c0.1-0.1,0.1-0.1,0-0.2c-0.1-0.1-0.1-0.1-0.2-0.1c-3.1-1.7-6.6-2.6-10.1-2.6
					c-11.5,0-20.8,9.3-20.8,20.8c0,6.6,3.4,13,8.9,17c0.4,0.3,0.6,0.4,0.6,0.4c0.1,0,0.2,0,0.2,0l0.1-0.1c0.1-0.1,0.1-0.1,0.1-0.2
					c0-0.2-0.2-0.3-0.5-0.7c-0.7-1.1-1.1-2.4-1.1-3.4c0-1.1,0.4-2.2,1-3.1c0.8,0.9,2.6,2.5,2.6,3.9c0,1.6-1.6,1.5-1.2,2.8
					c0.2,0.8,0.8,0.4,0.9,1c0.2,1,1.5,1.6,2.1,1.6c0.1,0,0.3,0.1,0.5,0.4c0.4,0.4,1.4,0.4,1.8,0.3c0.4-0.1,0.9,0.3,1.8,0.2
					c1.1-0.1,1.4-0.2,1.8-0.2c0.8,0,5.1-0.1,8.1,0.4c0.5,0.1,0.7-0.2,0.5-0.6c-1.1-1.9-1.3-3.6-0.6-5.6c1.1,0.1,2.7,0.4,4.9-0.9
					c0.8-0.5,1.2-1.4,1.1-2.1c0-0.5-0.2-1.1-0.1-1.5c0.2-0.6,0.3-0.6,0.5-0.7c0.8-0.6,0.2-1,0.1-1.1c0.2-0.1,0.5-0.6,0.2-1
					c-0.1-0.2-0.6-1.4-0.1-1.7c0.6-0.3,1.2-0.4,1.8-0.7c0.4-0.2,0.8-0.7,0.5-1.4C158.5,31.2,156.9,27.4,156.8,27.3 M133.9,45.8
					c-0.2,0-0.7,0.1-0.6-0.6c0.1-0.4,0.5-0.6,0.7-0.4C134,45.1,133.9,45.4,133.9,45.8 M153.5,17.4c0.3-0.2,0.6-0.2,0.7-0.1
					c0.6,0.6-0.6,0.9-0.4,1.4c0.4,0.7,1.1,1.4,1.7,1.9c0.3,0.2,0.3,0.7-0.7,0.9c-1.1,0.2-5.3,1.3-7.6,3.7c-2.8,3-4.6,6.8-4.8,6.3
					c-0.2-0.5-0.8-0.6-0.7-0.8C145.6,23.8,152,18.3,153.5,17.4 M155.3,22.3c-0.2,0.7-2.1,1.3-2,0.8c0-0.2,0-0.5,0.1-0.5
					c0.2,0,0.8-0.2,1.7-0.5C155.2,22.1,155.4,22.1,155.3,22.3 M150.7,23.5c0-0.3,1.9-0.9,2-0.7c0.1,0.4-0.4,1.3-1.1,1.6
					c-0.7,0.3-1.1,0.2-1,0.1C150.6,24.2,150.7,23.7,150.7,23.5 M146.1,33.8c-0.9,0.6-1.4-0.5-1.5-0.7c-0.1-0.1-0.2-0.3-0.1-0.7
					c0.1-0.3,0.1-0.7-0.1-2.1c-0.1-0.6,1.1-2.1,1.4-2.3c0.3-0.3,0.7,0.1,0.7,0.6c0.1,0.8-0.4,1.3-0.9,1.6c-0.6,0.4-0.7,1-0.6,1.2
					c0,0.1,0.3,0.1,0.4-0.2c0.4-0.7,1.4-1.1,1.5-1.5c0.3-0.6,0.1-1,0-1.3c0-0.2,0.2-0.3,0.4-0.3c0.2,0,0.3,0.3,0.4,0.6
					c0.6,1.7-1,2.7-1.2,3.1C146.4,32,146.8,33.3,146.1,33.8 M147.5,27.2c-0.5,0.3-1.2-0.1-1-0.3c0.9-1.3,2.1-2.2,2.6-2.5
					c0.8-0.5,0.9-0.5,0.9-0.2c0,0.2,0,1-0.6,1.7c-0.5,0.6-1,0.5-1.3,0.6C147.8,26.5,147.8,27,147.5,27.2 M143.1,33
					c-0.2,0-0.3-0.5-0.3-0.7c0.1-0.4,0.7-1.2,0.9-1.5c0.1-0.1,0.2,0,0.2,0.1C144.1,31.9,143.9,33.2,143.1,33 M150.4,16.3
					c0.8-0.4,1.6-0.4,1.7-0.4c0.2,0-0.4,1.1-1.5,1.5c-1.1,0.5-1.9,0.6-2,0.5C148.4,17.9,149.5,16.7,150.4,16.3 M131.6,33.9
					c-0.3-0.4-0.6-0.6-0.7-0.6c-0.1,0.1-0.6,1-0.8,2c-1-2-1.6-3.9-1.7-6.3c-0.3-8,6.4-14.4,14.5-14.4c1.9,0,3.4,0.3,5.1,1
					c-0.4,0.5-0.6,1-0.8,1.5c0-0.4-0.1-0.8-0.1-1c0-0.2-1.2,0.2-2.2,1.9c-0.2,0.4-0.4,0.8-0.5,1.2c0-0.6-0.2-1.1-0.2-1.1
					c-0.1,0-1.3,0.5-1.9,2c-0.1,0.3-0.2,0.5-0.2,0.8c-0.1-0.4-0.2-0.7-0.2-0.7c-0.1,0-1.3,0.5-1.9,2c-0.1,0.3-0.2,0.7-0.3,1
					c-0.1-0.5-0.3-0.8-0.4-0.8c-0.4,0.5-1.3,0.8-1.7,2.2c-0.1,0.3-0.1,0.6-0.2,0.9c-0.2-0.5-0.4-0.7-0.5-0.7c-0.1,0-1.4,1.2-1.6,2.5
					c-0.1,0.5,0,0.9,0,1.3c-0.2-0.4-0.6-0.7-0.7-1.1c-0.2,0.1-1.3,1.1-1.3,2.4c0,0.5,0.1,1,0.2,1.4c-0.4-0.7-0.9-1-0.9-0.9
					c-0.1,0.1-0.9,0.9-1.1,2.5C131.5,33.2,131.5,33.6,131.6,33.9 M148.3,16c0.6-0.8,1.7-1.4,1.9-1.3c0.1,0.1-0.2,1.3-0.9,1.9
					c-0.7,0.7-1.8,1.4-1.9,1.4C147.2,18,147.7,16.6,148.3,16 M146.2,18.9c-0.6,0.5-0.9,0.8-1.3,1.4c-0.1,0.2-0.4-1.1,0.4-2.4
					c0.5-0.8,1.5-1.5,1.5-1.4C146.7,16.9,147.3,18,146.2,18.9 M143.9,20.6c-0.8,1.1-0.8,0.7-1.6,1.9c0,0.1-0.1-1.4,0.2-2.1
					c0.5-1,1.3-1.7,1.4-1.7C144,18.6,144.3,20,143.9,20.6 M141.4,22.9c-0.4,0.7-0.7,0.5-1.4,1.5c-0.1,0.1-0.2-0.8,0.1-2
					c0.3-0.9,1.2-1.5,1.3-1.6C141.7,20.7,141.9,22,141.4,22.9 M139.1,25.3c-0.4,0.9-0.7,0.9-1.1,1.4c-0.1,0.1-0.4-0.8-0.1-2
					c0.3-0.9,0.9-1.3,1.2-1.6C139.2,23,139.5,24.3,139.1,25.3 M137.2,26.8c0,0.3,0,0.4-0.1,0.7c-0.3,1-0.9,1.4-1.2,1.8
					c-0.1-0.3-0.4-0.7-0.4-1.3c0-1.2,0.7-2.2,1.2-2.5C136.9,25.4,137.2,26.1,137.2,26.8 M135.3,29.6c0,1.4-0.9,2.2-1.1,2.4
					c-0.2-0.3-0.5-1-0.5-1.7c0-1.4,0.5-1.9,0.8-2.2C134.6,28.6,135.3,28.9,135.3,29.6 M132.6,31.1c0.4,0.2,0.9,0.8,0.9,1.8
					c0,1.1-0.7,2-1,2.1c-0.2-0.8-0.6-1-0.6-1.8C131.9,32.3,132.3,31.3,132.6,31.1 M134.2,33.9c1-0.4,2.2-0.4,2.2-0.3
					c0,0-0.3,1.3-1.3,1.9c-1,0.5-2.1,0.6-2.2,0.5C132.8,35.8,133.2,34.3,134.2,33.9 M134.1,33.1c0.1-0.3,0.7-1.5,1.6-1.9
					c0.9-0.4,2-0.4,2.1-0.3c0.1,0-0.4,1.3-1.3,1.7C135.5,33.1,135.1,32.8,134.1,33.1 M135.7,30.5c0-0.1,0.8-1.5,1.7-1.9
					c0.9-0.4,1.9-0.3,2-0.3c0.1,0-0.4,1.2-1.4,1.7C137,30.5,135.6,30.6,135.7,30.5 M137.7,27.8c-0.1-0.1,1-1.4,1.9-1.9
					c0.8-0.4,1.8-0.3,1.9-0.2c0.1,0.1-0.4,1.2-1.4,1.7C139,27.8,137.8,27.8,137.7,27.8 M140.1,25.1c-0.1,0,0.8-1.4,1.7-1.8
					c0.9-0.3,1.7,0,2,0c0.2,0-0.3,1-1.5,1.5C141.3,25.2,140.2,25.2,140.1,25.1 M142.8,22.5c0-0.1,0.9-1.3,1.8-1.6
					c0.9-0.3,1.9-0.1,2.1-0.1c0.1,0-0.6,1.1-1.7,1.5C143.9,22.6,142.8,22.6,142.8,22.5 M145.5,20.3c-0.1-0.1,1-1.3,1.8-1.6
					c0.9-0.3,1.8-0.3,1.9-0.2c0.1,0-0.6,1.1-1.6,1.5C146.7,20.4,145.6,20.4,145.5,20.3 M130.6,44.9c-4.9-3.9-7.8-9.7-7.8-15.8
					c0-11.1,9-20.1,20.1-20.1c3.2,0,6.5,0.8,9.3,2.3c0.1,0,0.1,0.1,0,0.2c-0.8,0.7-2,2.2-2.3,2.6c-2.2-1-4.6-1.6-7.1-1.6
					c-9.2,0-16.7,7.5-16.7,16.7c0,4.1,1.4,7.8,4,10.9c-0.2,0.3-0.4,1.1-0.4,2.1C129.8,42.9,130,43.9,130.6,44.9 M130.6,39.3
					C130.6,39.3,130.6,39.3,130.6,39.3c-2.4-2.8-3.7-6.4-3.7-10.2c0-8.8,7.2-16,16-16c2.3,0,4.6,0.5,6.7,1.4
					c-0.3,0.1-0.6,0.3-0.9,0.6c-1.8-0.8-3.7-1.1-5.7-1.1c-8.3,0-15.1,6.8-15.1,15.1c0,3.6,1.1,6.8,3.3,9.5
					C131,38.7,130.8,39,130.6,39.3 M131.4,38.1c-0.3-0.3-0.9-1-1-1.9c0,0,0-0.1,0-0.1c0-1,0.4-1.9,0.5-2c0.1-0.1,1.2,0.7,1.2,2
					C132.2,37,131.7,37.7,131.4,38.1 M133.2,36.4c0.9-0.4,2.2-0.3,2.1-0.3c-0.1,0.1-0.4,1.3-1.4,1.8c-1,0.5-1.6,0.4-2,0.3
					C132.5,37.7,132.4,36.9,133.2,36.4 M134.4,46.9c-0.1-0.6-0.1-1.4,0.1-1.6c0.4-0.2,1.1-0.3,1.1,0c0,0.4-0.2,1.2,0.1,2.3
					C135.6,47.7,134.7,47.6,134.4,46.9 M134.5,44.4c-0.1-0.4,0.4-0.9,0.3-1.9c0-1.2-1.5-2.8-2.5-3.9c0.5,0,1.1-0.1,1.8-0.4
					c1.5-0.7,1.8-2.3,1.8-2.3c0,0-0.3-0.1-0.8-0.1c0.1,0,0.1-0.1,0.2-0.1c1.5-0.8,1.8-2.5,1.8-2.5c0,0-0.4-0.1-0.9-0.1
					c0.1,0,0.3-0.1,0.4-0.2c1.5-0.6,2-2.3,1.9-2.4c0,0-0.3-0.1-0.8-0.1c0.1-0.1,0.3-0.1,0.4-0.2c1.4-0.7,1.9-2.3,1.8-2.3
					c0,0-0.3-0.1-0.7-0.1c0.3-0.1,0.7-0.2,1-0.3c1.5-0.7,2-2.1,1.9-2.2c0,0-0.3-0.1-0.7-0.1c0.3-0.1,0.6-0.2,1-0.3
					c1.5-0.5,2.1-1.9,2-1.9c-0.2,0-0.5-0.1-0.8-0.2c0.4,0,0.9-0.1,1.5-0.3c1.6-0.5,2.2-1.5,2.2-1.9c0,0-0.2-0.1-0.5-0.2
					c0.4-0.1,0.7-0.2,1-0.3c1.5-0.6,2.1-2.1,2.2-2.2c0.3-0.1,0.6-0.2,0.9-0.3c0.2-0.1,0.3-0.1,0.4-0.2c0.1,0.1,0.2,0.1,0.4,0.3
					c0.2,0.1,0.3,0.2,0.2,0.3c-5.1,4.4-8.9,9.9-10.6,12.5c0,0.1-0.1,0.1-0.3,0.1c-1.8-0.1-2.8,2-2,4c-0.1,0.4-1,1.2-1,1.2
					c-0.1,0.1-0.2,0.3,0.1,0.3c0.4,0,1-0.7,1.2-1c0.1,0.1,0.5,0.5,0.3,0.6c-1.5,1.5-3,2.3-3.1,2.4c-0.6,0.3,1,0.5,3.5-1.9
					c0.2-0.1,0.3,0.5,0.6,0.8c-0.4,1.5,0.7,4.3,0.5,5.2c0,0.2-0.1,0.6-0.6,0.6c-2.6,0.1-2.8-0.1-4.1,0.3c-0.6,0.2-0.4,0.6,0,0.5
					c0.5-0.1,1-0.3,3.8-0.2c0.7,0,1.5-0.1,1.5-1.3c0-1-0.8-4.1-0.5-4.6c0.4,0.3,0.6,0.3,0.8,0.3c0,1,1.6,4.3,0.9,6.1
					c-0.3,0.7-1.5,0.6-3.5,0.4C135.7,44.1,134.5,44.8,134.5,44.4 M142.4,46.6c-1.3,0.5-1.9-1.1-1.6-1.4c0.1-0.2,1,0.2,1.6-0.2
					C142.9,44.7,143.1,46.4,142.4,46.6 M136.3,47.6c-0.2-0.8-0.3-2.3,0.1-2.6c0.1-0.1,1.1-0.2,1.1,0c-0.1,1-0.5,2.1,0.3,3.2
					C138,48.7,136.5,48.7,136.3,47.6 M138.8,48.6c-0.4-0.1-1.4-1.7-0.5-3.6c0.1-0.2,1.3-0.1,1.5,0c0.2,0.1-0.2,1.5,1.5,2.2
					C141.5,47.3,141.4,49.2,138.8,48.6 M149.5,43.3c-0.6,2-0.9,2.8,0,4.9c0.1,0.3,0.2,0.5-0.1,0.5c-1.7-0.3-2.1-0.6-7.6-0.1
					c-0.4,0,0.1-0.8,0.1-1.3c0.5-0.1,1.3-0.3,1.5-1.1c0.2-1-0.5-1.7-0.4-1.9c0.8-1.5-0.1-3.2-0.7-6c-0.1-0.3,0.1-0.4,0.2-0.3
					c3.5,3.8,5.7,4.6,7,4.9C149.6,43,149.5,43.2,149.5,43.3 M158.5,32.9c-0.7,0.6-1.9,0.7-2.3,1.1c-0.2,0.2-0.3,0.6-0.1,1.2
					c0.1,0.3,0.2,0.4-0.3,0.5c-0.8,0.2-0.9,1.3-2,1.1c-0.4-0.1-0.1,0.2,0,0.2c0.6,0.1,0.8-0.1,1-0.3c0.2-0.2,0.5-0.5,0.8-0.7
					c0.3-0.1,0.7-0.1,0.7,0.1c0,0.2-0.4,0.5-0.6,0.6c0.2,0.1,0.9,0.4,0.3,0.8c-0.4,0.3-1-0.1-1.1-0.2c-0.1-0.1-0.4,0-0.3,0.1
					c0.3,0.4,1.2,0.3,1,0.5c-0.8,1.1-0.1,1.7-0.4,2.8c-0.2,1.1-1.7,1.7-2.9,1.9c-3.9,0.7-7.7-2.6-9.9-5.1c0.2-0.5,0.2-1.1,0-0.9
					c-0.2,0.2-0.2,0.6-0.6,0.7c-0.9,0.2-1.3-1.3-1.6-1.6c-1.1-1.1-1.5-2.6-0.9-3.9c0.7-1.3,2-1.1,2.6-0.3c0.7,1,0.4,1.6,0.7,1.9
					c0.5,0.4,1.1,0,1.2,0c0.4-0.1,0.4,1,1.8,0.9c1.5-0.1,1.3-2.4,1.6-2.6c1.9-1.9,0.9-3.6,0.6-4c-0.1-0.1,0.2-0.8,0.3-0.8
					c1.1-0.3,1.8-1,2.1-1.7c0,0,1.9,0,2.6-1.4c0.2-0.4,0.7,0.4,2-0.6c0.1-0.1,0.3-0.1,0.3,0.1c0.8,2,1.2,2.5,1.1,3.6
					c0,0.7,2,4.8,2.1,5.2C158.6,32.4,158.7,32.8,158.5,32.9"/>
				<path class="st0" d="M153.9,25.7c-1.1,0-2.4,1.4-2.8,1.6c-0.4,0.2-0.3,0.3,0,0.2c0.5-0.2,1.3-1,2.4-1.4c0.9-0.3,0.8,0.4,1.1,0.4
					C154.8,26.4,154.6,25.7,153.9,25.7"/>
				<path class="st0" d="M154.2,26.8c-0.1,0,0.1,0.5-0.4,0.5c-1,0.1-1.9,1-2.5,1.3c-0.6,0.3-0.8,0.3-0.9,0.3c-0.1,0-0.1,0.1,0,0.1
					c2.6,0.4,3.7,0.3,3.7,0.2c0-0.2-0.1-0.3-0.1-0.4c0.1-0.3,0.2-0.9,0-1.2c0-0.2,0.4-0.1,0.4-0.3C154.5,27.2,154.3,26.7,154.2,26.8
					 M153.8,28.9c-0.1,0.2-1.2,0.1-1.9,0.1c-0.2,0-0.4,0,0.1-0.3c0.4-0.2,0.9-0.6,1.6-0.8c0.1,0,0.2,0,0.2,0.1
					C153.8,28.3,153.8,28.7,153.8,28.9"/>
				<path class="st0" d="M157.2,32.6c-0.2,0-1,0.4-1.3,0.6c-0.2,0.1-1,0.6-0.9-0.2c0-0.3,0.2-1,0.2-1.2c0-0.3-0.2-0.2-0.2,0
					c0,0.4-0.1,0.7-0.2,1.2c-0.1,0.4,0.3,0.9,0.8,0.6c0.5-0.2,1.1-0.7,1.6-0.8C157.3,32.8,157.3,32.6,157.2,32.6"/>
				<path class="st0" d="M141.9,35.5c-0.2-0.1-0.1,0.3-0.3,0.2c-0.3,0,0-0.3-0.4-0.7c-0.2-0.2-0.6-0.3-1-0.8
					c-0.5-0.8-0.1-2.7,0.7-2.4c0.4,0.1,0.4,1.1,0.2,1.8c-0.1,0.4,0.6,0.6,0.6,0.5c0.1-0.2-0.2-0.2-0.3-0.4c-0.1-0.3,0.8-1.7-0.4-2.1
					c-0.9-0.3-1.4,0.8-1.3,2c0.1,1,0.8,1.4,1.2,1.6c0.5,0.2,0.1,0.9,0.8,0.9C142,36.1,142.1,35.6,141.9,35.5"/>
				<path class="st0" d="M148.9,12.9c0,0,0.1,0,0.1,0l1.5-1.9c0,0,0-0.1,0-0.1c-0.1,0-0.2-0.1-0.2-0.1c0,0-0.1,0-0.1,0l-1.5,1.9
					c0,0,0,0.1,0,0.1C148.7,12.9,148.8,12.9,148.9,12.9"/>
				<path class="st0" d="M146.1,12.2c0.1,0,0.2,0,0.3,0.1c0,0,0.1,0,0.1-0.1l0.9-2.1c0-0.1,0-0.1-0.1-0.1c-0.1,0-0.2,0-0.3-0.1
					c0,0-0.1,0-0.1,0c-0.1,0.3-0.7,1.7-0.9,2.2C146,12.1,146.1,12.2,146.1,12.2"/>
				<path class="st0" d="M143.1,11.9c0.1,0,0.2,0,0.3,0c0,0,0.1,0,0.1-0.1l0.2-2.3c0-0.1,0-0.1-0.1-0.1l-0.3,0c0,0-0.1,0-0.1,0.1
					l-0.2,2.3C143,11.9,143.1,11.9,143.1,11.9"/>
				<path class="st0" d="M140.2,12.1c0.1,0,0.2,0,0.3,0c0.1,0,0.1-0.1,0.1-0.1l-0.4-2.2c0,0-0.1-0.1-0.1-0.1c-0.1,0-0.2,0-0.3,0
					c-0.1,0-0.1,0.1-0.1,0.1l0.4,2.2C140.1,12.1,140.1,12.1,140.2,12.1"/>
				<path class="st0" d="M137.2,12.8c0,0,0.1,0.1,0.1,0c0.1,0,0.2-0.1,0.2-0.1c0.1,0,0.1-0.1,0.1-0.1l-1-2c0,0-0.1-0.1-0.1,0
					c-0.1,0-0.2,0.1-0.2,0.1c-0.1,0-0.1,0.1-0.1,0.1L137.2,12.8z"/>
				<path class="st0" d="M134.4,14.1c0,0,0.1,0,0.1,0c0.1,0,0.2-0.1,0.2-0.1c0.1,0,0.1-0.1,0-0.1l-1.5-1.7c0,0-0.1,0-0.1,0
					c-0.1,0-0.2,0.1-0.2,0.1c0,0-0.1,0.1,0,0.1L134.4,14.1z"/>
				<path class="st0" d="M131.8,15.9c0,0,0.1,0,0.1,0c0.1-0.1,0.1-0.1,0.2-0.2c0,0,0-0.1,0-0.1l-1.9-1.3c0,0-0.1,0-0.1,0
					c-0.1,0.1-0.1,0.1-0.2,0.2c0,0,0,0.1,0,0.1L131.8,15.9z"/>
				<path class="st0" d="M129.5,18.3c0,0,0.1,0,0.1,0c0.1-0.1,0.1-0.1,0.2-0.2c0,0,0-0.1,0-0.1l-2.2-0.9c0,0-0.1,0-0.1,0
					c-0.1,0.1-0.1,0.1-0.2,0.2c0,0,0,0.1,0,0.1L129.5,18.3z"/>
				<path class="st0" d="M125.3,20.7l2.4,0.3c0,0,0.1,0,0.1,0c0-0.1,0.1-0.2,0.1-0.2c0-0.1,0-0.1-0.1-0.1l-2.4-0.3c0,0-0.1,0-0.1,0
					c0,0.1-0.1,0.2-0.1,0.2C125.2,20.6,125.3,20.7,125.3,20.7"/>
				<path class="st0" d="M124,24.3l2.4-0.2c0,0,0.1,0,0.1-0.1c0-0.1,0.1-0.2,0.1-0.3c0-0.1,0-0.1-0.1-0.1l-2.4,0.2
					c0,0-0.1,0-0.1,0.1c0,0.1,0,0.2-0.1,0.3C123.9,24.2,124,24.3,124,24.3"/>
				<path class="st0" d="M125.9,27.2c0-0.1,0-0.2,0-0.3c0-0.1-0.1-0.1-0.1-0.1l-2.4,0.8c0,0-0.1,0-0.1,0.1c0,0.1,0,0.2,0,0.3
					c0,0.1,0.1,0.1,0.1,0.1L125.9,27.2C125.8,27.2,125.9,27.2,125.9,27.2"/>
				<path class="st0" d="M125.8,30.4c0-0.1,0-0.2,0-0.3c0-0.1-0.1-0.1-0.1-0.1l-2.1,1.4c0,0,0,0.1,0,0.1c0,0.1,0,0.2,0,0.3
					c0,0.1,0.1,0.1,0.1,0.1L125.8,30.4C125.8,30.4,125.8,30.4,125.8,30.4"/>
				<path class="st0" d="M126.3,33.6c0-0.1-0.1-0.2-0.1-0.3c0-0.1-0.1-0.1-0.2,0l-1.7,1.9c0,0,0,0.1,0,0.1c0,0.1,0.1,0.2,0.1,0.3
					c0,0.1,0.1,0.1,0.2,0L126.3,33.6C126.3,33.6,126.3,33.6,126.3,33.6"/>
				<path class="st0" d="M127.2,36.4l-1.2,2.3c0,0,0,0.1,0,0.1c0.1,0.1,0.1,0.2,0.2,0.3c0,0.1,0.1,0.1,0.2,0l1.2-2.3
					c0,0,0-0.1,0-0.1c0-0.1-0.1-0.2-0.1-0.3C127.3,36.4,127.3,36.4,127.2,36.4"/>
				<path class="st0" d="M128.9,39.1c0-0.1-0.1,0-0.2,0l-0.7,2.7c0,0,0,0.1,0,0.1c0.1,0.1,0.1,0.2,0.2,0.2c0,0.1,0.1,0,0.2,0
					l0.6-2.7c0,0,0-0.1,0-0.1C129.1,39.2,129,39.1,128.9,39.1"/>
			</g>
			<line class="st1" x1="111.3" y1="5.4" x2="111.3" y2="52.8"/>
			<g>
				<path class="st2" d="M85.7,52.7c-0.3,0-0.6,0-0.8,0c-0.1,0-0.3,0-0.4,0c-0.4-0.1-0.9-0.1-1.3-0.2c-0.6-0.1-1.2-0.3-1.7-0.5
					c-0.4-0.1-0.7-0.3-1.1-0.4c-0.3-0.1-0.6-0.3-0.8-0.4c-0.4-0.2-0.8-0.4-1.2-0.7c-0.4-0.3-0.9-0.6-1.3-0.9
					c-0.4-0.3-0.8-0.7-1.2-1.1c-0.4-0.3-0.7-0.7-1-1c-0.2-0.2-0.5-0.5-0.7-0.8c-0.2-0.3-0.4-0.5-0.6-0.8c-0.5-0.6-0.9-1.2-1.3-1.9
					c-0.2-0.4-0.4-0.8-0.7-1.2c-0.3-0.5-0.5-1-0.7-1.5c-0.2-0.4-0.3-0.8-0.5-1.2c-0.2-0.6-0.5-1.2-0.7-1.9c-0.2-0.7-0.4-1.3-0.5-2
					c-0.1-0.3-0.1-0.6-0.2-0.8c-0.1-0.4-0.2-0.9-0.2-1.3c-0.1-0.7-0.2-1.3-0.2-2c-0.1-0.6-0.1-1.2-0.1-1.7c0-0.3,0-0.7,0-1
					c0-0.3,0-0.7,0-1c0-0.4,0-0.7,0-1.1c0-0.3,0-0.6,0.1-0.9c0-0.3,0-0.6,0.1-0.9c0-0.4,0.1-0.8,0.2-1.2c0-0.3,0.1-0.6,0.2-0.9
					c0.1-0.5,0.2-1,0.3-1.5c0.1-0.7,0.3-1.4,0.6-2.1c0.2-0.7,0.5-1.4,0.7-2.1c0.2-0.5,0.4-1,0.7-1.5c0.1-0.1,0.1-0.3,0.2-0.4
					c0.2-0.4,0.4-0.8,0.6-1.2c0.2-0.3,0.3-0.6,0.5-0.8c0.2-0.3,0.5-0.7,0.7-1c0.3-0.5,0.7-0.9,1-1.3c0.2-0.2,0.4-0.4,0.6-0.6
					c0.3-0.3,0.6-0.6,0.9-0.9c0.2-0.2,0.4-0.4,0.6-0.6c0.3-0.2,0.5-0.5,0.8-0.7c0.3-0.2,0.5-0.4,0.8-0.6c0.3-0.2,0.7-0.5,1-0.7
					c0.4-0.2,0.7-0.4,1.1-0.6c0.5-0.3,1-0.5,1.6-0.7c0.6-0.2,1.3-0.4,1.9-0.5c0.4-0.1,0.8-0.1,1.2-0.2c0.4,0,0.9,0,1.3-0.1
					c0.4,0,0.7,0,1.1,0c0.2,0,0.5,0.1,0.7,0.1c0.5,0.1,1.1,0.2,1.6,0.3C89.8,6,90.4,6.2,91,6.5c0.4,0.2,0.9,0.4,1.3,0.6
					c0.2,0.1,0.3,0.2,0.5,0.3c0.4,0.3,0.8,0.5,1.2,0.8c0.3,0.2,0.7,0.5,1,0.8c0.3,0.3,0.7,0.5,1,0.9c0.3,0.3,0.7,0.6,1,0.9
					c0.3,0.4,0.7,0.8,1,1.2c0.3,0.4,0.6,0.8,0.9,1.3c0.2,0.3,0.4,0.6,0.6,1c0.2,0.3,0.4,0.7,0.6,1c0.2,0.5,0.5,1,0.8,1.5
					c0.1,0.2,0.2,0.5,0.3,0.7c0.1,0.2,0.2,0.5,0.3,0.7c0.2,0.4,0.3,0.9,0.4,1.3c0.2,0.7,0.4,1.4,0.6,2.1c0.2,0.8,0.3,1.5,0.5,2.3
					c0.1,0.5,0.2,1.1,0.2,1.6c0.1,0.4,0.1,0.9,0.1,1.3c0.1,1,0.1,2.1,0.1,3.1c0,0.4,0,0.9-0.1,1.3c0,0.6-0.1,1.2-0.2,1.7
					c-0.1,0.9-0.2,1.8-0.4,2.6c-0.1,0.5-0.2,1-0.3,1.5c-0.2,0.8-0.5,1.6-0.7,2.4c-0.1,0.3-0.3,0.7-0.4,1c-0.1,0.3-0.3,0.7-0.4,1
					c-0.2,0.4-0.3,0.7-0.5,1.1c-0.2,0.3-0.3,0.6-0.5,0.9c0,0.1-0.1,0.1-0.1,0.2c-0.3,0.5-0.6,0.9-0.9,1.4c-0.3,0.5-0.7,1-1.1,1.4
					c-0.3,0.3-0.5,0.6-0.8,0.9c-0.2,0.2-0.3,0.4-0.5,0.5c-0.2,0.2-0.4,0.4-0.7,0.6c-0.3,0.3-0.7,0.6-1,0.9c-0.2,0.2-0.4,0.3-0.6,0.5
					c-0.1,0.1-0.2,0.2-0.4,0.2c-0.4,0.3-0.9,0.6-1.4,0.8c-0.5,0.3-0.9,0.5-1.4,0.7c-0.7,0.3-1.3,0.5-2,0.7c-0.6,0.1-1.1,0.3-1.7,0.3
					c-0.2,0-0.5,0.1-0.7,0.1C86.2,52.7,85.9,52.7,85.7,52.7L85.7,52.7z M85.6,52.4C85.6,52.4,85.6,52.4,85.6,52.4c0.3,0,0.7,0,1,0
					c0.3,0,0.5,0,0.8-0.1c0.7-0.1,1.4-0.3,2.1-0.5c0.4-0.2,0.9-0.3,1.3-0.5c0.5-0.2,1-0.5,1.5-0.8c0.5-0.3,1-0.6,1.4-0.9
					c0.4-0.3,0.7-0.5,1.1-0.8c0.2-0.2,0.5-0.4,0.8-0.6c0.3-0.2,0.5-0.5,0.7-0.7c0.3-0.3,0.6-0.7,0.9-1c0.4-0.5,0.8-1,1.1-1.5
					c0.4-0.6,0.9-1.3,1.2-2c0.2-0.4,0.4-0.8,0.6-1.2c0.2-0.4,0.4-0.9,0.6-1.3c0.1-0.3,0.3-0.6,0.4-0.9c0.2-0.5,0.3-1,0.5-1.4
					c0.2-0.5,0.3-1,0.4-1.6c0.1-0.5,0.2-1.1,0.3-1.6c0.1-0.4,0.2-0.7,0.2-1.1c0.1-0.7,0.2-1.4,0.2-2.1c0-0.2,0.1-0.5,0.1-0.7
					c0-0.1,0-0.3,0-0.4c0.1-0.3,0-0.6,0-0.9c0-0.6,0-1.2,0-1.9c0-0.3,0-0.6,0-0.9c0-0.3,0-0.6-0.1-0.9c0-0.4-0.1-0.8-0.1-1.2
					c0-0.3-0.1-0.6-0.1-0.8c0-0.3-0.1-0.5-0.1-0.8c-0.1-0.4-0.2-0.7-0.2-1.1c-0.1-0.2-0.1-0.5-0.2-0.7c-0.1-0.4-0.2-0.9-0.4-1.3
					c-0.2-0.5-0.3-1.1-0.5-1.6c-0.2-0.6-0.5-1.1-0.7-1.7c-0.4-0.7-0.7-1.5-1.2-2.2c-0.3-0.5-0.6-0.9-0.9-1.4
					c-0.1-0.2-0.3-0.5-0.4-0.7c-0.3-0.3-0.5-0.7-0.8-1c-0.2-0.3-0.4-0.5-0.7-0.8c-0.3-0.3-0.6-0.6-0.9-0.9c-0.1-0.1-0.1-0.1-0.2-0.2
					c-0.4-0.3-0.8-0.7-1.2-1c-0.3-0.2-0.5-0.4-0.8-0.6C93.2,8.1,93.1,8,92.9,8c-0.4-0.2-0.8-0.5-1.2-0.7c-0.7-0.4-1.4-0.6-2.1-0.9
					c-0.7-0.2-1.3-0.4-2.1-0.5c-0.6-0.1-1.1-0.1-1.7-0.1c-0.4,0-0.8,0-1.2,0c-0.5,0-0.9,0.1-1.4,0.2c-0.5,0.1-1,0.2-1.5,0.4
					c-0.3,0.1-0.5,0.2-0.8,0.3c-0.5,0.2-1,0.4-1.5,0.7C79,7.7,78.6,8,78.1,8.3c-0.3,0.2-0.6,0.4-0.8,0.6c-0.3,0.3-0.6,0.5-1,0.8
					c-0.3,0.3-0.7,0.6-1,0.9c-0.3,0.4-0.7,0.7-1,1.1c-0.2,0.2-0.4,0.5-0.6,0.8c-0.3,0.4-0.5,0.8-0.8,1.2c-0.2,0.4-0.5,0.7-0.7,1.1
					c-0.3,0.5-0.5,0.9-0.8,1.4c-0.2,0.4-0.4,0.7-0.5,1.1c-0.2,0.6-0.5,1.2-0.7,1.8c-0.2,0.6-0.4,1.2-0.6,1.9
					c-0.2,0.8-0.4,1.6-0.5,2.4c-0.1,0.9-0.3,1.8-0.4,2.7c-0.1,0.4-0.1,0.7-0.1,1.1c0,0.2,0,0.4,0,0.6c0,0.3,0,0.7,0,1
					c0,0.2,0,0.3,0,0.5c0,0.3,0,0.6,0,0.9c0,0.6,0,1.2,0.1,1.8c0.1,0.7,0.1,1.4,0.3,2c0.1,0.7,0.3,1.4,0.4,2.1
					c0.1,0.6,0.3,1.2,0.5,1.9c0.1,0.3,0.2,0.7,0.3,1c0.1,0.3,0.2,0.6,0.3,0.9c0.3,0.7,0.6,1.4,0.9,2.2c0.2,0.5,0.5,1,0.8,1.5
					c0.4,0.6,0.7,1.2,1.1,1.7c0.2,0.3,0.4,0.7,0.7,1c0.2,0.2,0.3,0.4,0.5,0.6c0.2,0.2,0.4,0.5,0.7,0.7c0.2,0.2,0.5,0.5,0.7,0.7
					c0.3,0.3,0.7,0.6,1,0.9c0.3,0.2,0.6,0.5,0.9,0.7c0.5,0.4,1.1,0.7,1.6,1c0.4,0.2,0.9,0.5,1.3,0.7c0.3,0.1,0.6,0.3,1,0.4
					c0.5,0.1,1,0.3,1.5,0.4c0.7,0.1,1.5,0.2,2.2,0.2C85.5,52.4,85.5,52.4,85.6,52.4z"/>
				<path class="st2" d="M74.2,33c0-0.1,0-0.1,0-0.2c0-0.2,0.1-0.4,0.2-0.6c0.2-0.2,0.4-0.3,0.7-0.4c0,0,0.1,0,0.1,0c0,0,0,0,0,0
					c0-0.1,0-0.1-0.1-0.2c-0.1-0.2-0.1-0.4,0-0.7c0.1-0.2,0.2-0.4,0.4-0.6c0.1-0.1,0.1-0.1,0.1-0.2c0-0.4,0.2-0.7,0.5-0.9
					c0.1-0.1,0.2-0.1,0.3-0.1c0.2-0.1,0.5-0.1,0.7-0.1c0.1,0,0.1,0.1,0.1,0.2c0,0.1,0,0.1-0.1,0.2c-0.2,0.2-0.2,0.5-0.3,0.8
					c-0.2,0.6,0,1.1,0.2,1.6c0.2,0.3,0.4,0.6,0.7,0.9c0.4,0.3,0.5,0.8,0.4,1.2c0,0.1,0,0.2-0.1,0.3c0.2,0,0.3,0.1,0.5,0.1
					c0.3,0.1,0.6,0.3,0.7,0.6c0.2,0.3,0.3,0.6,0.3,0.9c0,0.1,0,0.1,0.1,0.2c0.1-0.1,0.1-0.2,0.1-0.3c0.1-0.4,0.2-0.8,0.2-1.2
					c0.1-0.5,0.2-0.9,0.2-1.4c0.1-0.4,0.2-0.9,0.3-1.3c0.1-0.4,0.2-0.9,0.3-1.3c0-0.1,0-0.2,0.1-0.2c0.1-0.3,0.1-0.7,0-1
					c-0.1-0.3-0.2-0.5-0.4-0.8c0,0-0.1-0.1-0.1-0.1c-0.2,0.1-0.5,0.1-0.7,0.1c-0.2,0-0.4-0.2-0.5-0.4c0-0.1-0.1-0.3-0.1-0.4
					c0,0,0,0-0.1,0c-0.2,0.1-0.4,0.1-0.6,0.1c-0.2,0-0.4-0.1-0.6-0.2c-0.2-0.2-0.4-0.3-0.7-0.4c-0.3-0.1-0.7-0.2-1-0.1
					c-0.4,0.1-0.7,0.2-1,0.4c0,0-0.1,0-0.1,0.1c-0.1,0.1-0.2,0-0.2-0.1c0-0.4,0.1-0.8,0.3-1.1c0.1-0.1,0.3-0.2,0.4-0.3
					c0.1-0.1,0.1-0.1,0.1-0.3c0-0.6,0.6-1,1-0.9c0,0,0.1,0,0.1,0c0-0.2,0-0.3,0.1-0.5c0.1-0.3,0.2-0.6,0.4-0.9
					c0.2-0.4,0.6-0.6,1-0.8c0.1-0.1,0.3-0.1,0.5-0.1c0.1,0,0.2,0.1,0.1,0.2c-0.1,0.2-0.2,0.3-0.2,0.5c-0.2,0.6-0.2,1.1,0,1.7
					c0.1,0.2,0.2,0.4,0.3,0.6c0.1,0.1,0.2,0.2,0.3,0.4c0.2,0.2,0.4,0.5,0.3,0.8c0,0.1,0,0.2,0,0.2c0.1,0,0.1,0,0.1,0
					c0.4-0.1,0.8,0.1,1,0.4c0.1,0.2,0.2,0.4,0.3,0.6c0.1,0.1,0.1,0.3,0.1,0.5c0,0.1,0,0.1,0,0.2c0,0,0,0,0,0c0-0.1,0.1-0.1,0.1-0.2
					c0.1-0.4,0.2-0.8,0.3-1.3c0.1-0.6,0.3-1.1,0.4-1.7c0.1-0.4,0.2-0.9,0.3-1.3c0.1-0.2,0.1-0.4,0.2-0.6c0.1-0.3,0-0.5-0.1-0.7
					c0-0.1-0.1-0.2-0.2-0.4c0-0.1-0.1-0.1-0.2-0.1c-0.2,0-0.4,0-0.5-0.1c-0.1,0-0.1-0.1-0.2-0.1c-0.1-0.1-0.2-0.2-0.3-0.3
					C81,21.7,81,21.5,81,21.3c0,0,0-0.1,0-0.2c-0.1,0-0.1,0-0.2,0c-0.3,0-0.6-0.1-0.8-0.3c-0.2-0.2-0.4-0.4-0.6-0.5
					c-0.2-0.1-0.3-0.2-0.5-0.2c-0.4-0.1-0.7-0.1-1,0.1c-0.2,0.1-0.4,0.2-0.5,0.3c0,0-0.1,0.1-0.1,0.1c-0.1,0.1-0.2,0-0.2-0.1
					c0-0.4,0.1-0.8,0.4-1.2c0.1-0.2,0.3-0.3,0.5-0.3c0.1,0,0.2-0.1,0.2-0.2c0-0.1,0.1-0.2,0.3-0.3c0.4-0.2,0.8-0.2,1.2-0.1
					c0,0,0.1,0,0.1,0c0-0.1,0-0.1,0-0.2c0-0.1,0-0.2-0.1-0.3c-0.1-0.4,0-0.8,0.4-0.9c0.1,0,0.1-0.1,0.2-0.1c0.1,0,0.2-0.1,0.2-0.2
					c0.1-0.5,0.5-0.6,0.9-0.7c0.1,0,0.2,0,0.3,0.2c-0.1,0.1-0.1,0.2-0.2,0.3c-0.2,0.3-0.3,0.7-0.3,1.1c0,0.3,0.1,0.6,0.2,0.9
					c0.2,0.3,0.3,0.7,0.4,1c0.1,0.3,0.1,0.6,0,0.9c0,0,0,0.1,0,0.2c0,0,0.1,0,0.1,0c0.4,0,0.6,0.2,0.7,0.5c0.2,0.4,0.4,0.8,0.4,1.2
					c0,0,0,0.1,0,0.1c0.1-0.1,0.2-0.2,0.2-0.3c0.2-0.3,0.3-0.7,0.5-1c0.2-0.4,0.5-0.8,0.8-1.1c0.2-0.2,0.3-0.4,0.5-0.6
					c0.2-0.1,0.2-0.3,0.2-0.5c0-0.4,0-0.7,0-1.1c0-0.1,0-0.1,0-0.2c-0.1,0-0.2-0.1-0.3-0.1c-0.2,0-0.4-0.2-0.6-0.3
					c-0.2-0.2-0.2-0.7,0-0.8c0.2-0.1,0.3-0.2,0.5-0.3c0.1,0,0.2-0.1,0.3-0.1c0,0-0.1-0.1-0.1-0.1c-0.2-0.2-0.5-0.4-0.6-0.7
					c-0.1-0.2-0.1-0.4-0.1-0.6c-0.1-0.6-0.4-1-0.8-1.3c-0.5-0.3-1-0.4-1.5-0.3c-0.1,0-0.1,0-0.2,0c-0.1,0-0.2-0.1-0.1-0.2
					c0.1-0.1,0.2-0.2,0.4-0.3c0.2-0.2,0.5-0.3,0.8-0.4c0,0,0.1,0,0.1-0.1c0.2-0.2,0.5-0.2,0.7-0.3c0.2,0,0.2,0,0.2-0.2
					c0-0.3,0.2-0.5,0.4-0.8c0.1-0.1,0.1-0.1,0.2-0.2c0.1-0.1,0.2-0.2,0.3-0.4c0-0.1,0.1-0.2,0.1-0.4c0.1-0.3,0.5-0.5,0.9-0.5
					c0.1,0,0.3,0.1,0.4,0.2c0.4,0.3,0.6,0.7,0.5,1.2c0,0.1,0,0.2,0.2,0.3c0.3,0.1,0.5,0.4,0.6,0.7c0,0.1,0,0.2,0.1,0.3
					c0.1,0,0.1,0,0.2,0c0.3-0.1,0.6-0.1,0.9,0c0.4,0.1,0.6,0.4,0.8,0.7c0.1,0.1,0,0.2-0.1,0.2c-0.1,0-0.3,0-0.4,0.1
					c-0.4,0.1-0.8,0.3-1.1,0.6c-0.4,0.4-0.6,0.9-0.6,1.4c0,0.4-0.2,0.7-0.5,0.9c-0.1,0.1-0.2,0.1-0.3,0.2c0.1,0.1,0.2,0.1,0.4,0.2
					c0.2,0.1,0.3,0.2,0.4,0.3c0.2,0.3,0.1,0.6-0.2,0.7c-0.2,0.1-0.4,0.2-0.6,0.3c-0.2,0-0.2,0.1-0.2,0.3c0,0.4,0,0.7,0,1.1
					c0,0.1,0,0.1,0,0.2c0,0.2,0,0.3,0.2,0.4c0,0,0.1,0,0.1,0.1c0.5,0.6,1,1.2,1.4,1.9c0.1,0.2,0.3,0.5,0.4,0.7
					c0,0.1,0.1,0.1,0.1,0.2c0-0.1,0.1-0.1,0.1-0.1c0-0.1,0.1-0.2,0.1-0.3c0.1-0.3,0.2-0.5,0.4-0.7c0.2-0.2,0.4-0.4,0.7-0.4
					c0,0,0,0,0.1,0c0,0,0,0,0,0c0-0.1-0.1-0.2-0.1-0.4c0-0.2,0-0.4,0.1-0.6c0.1-0.3,0.2-0.5,0.3-0.8c0.2-0.4,0.3-0.8,0.3-1.2
					c0-0.4-0.1-0.7-0.3-1c0-0.1-0.1-0.1-0.1-0.2c0-0.1,0-0.2,0.1-0.2c0.3,0,0.5,0.1,0.7,0.3c0.1,0.1,0.3,0.3,0.3,0.5
					c0,0,0.1,0.1,0.1,0.1c0.2,0,0.4,0.1,0.5,0.3c0.1,0.2,0.2,0.4,0.1,0.7c0,0.1-0.1,0.2-0.1,0.3c0,0,0,0.1,0,0.1c0.1,0,0.1,0,0.2,0
					c0.4-0.1,0.7,0,1,0.1c0.1,0,0.3,0.2,0.3,0.3c0,0.1,0.1,0.1,0.1,0.2c0.3,0.1,0.5,0.3,0.7,0.5c0.1,0.2,0.2,0.4,0.3,0.6
					c0,0.1,0,0.3,0,0.4c0,0,0,0.1-0.1,0.1c0,0-0.1,0-0.1,0c-0.1,0-0.1-0.1-0.2-0.1c-0.4-0.4-0.9-0.5-1.4-0.4c-0.3,0-0.6,0.1-0.9,0.4
					c-0.1,0.1-0.2,0.2-0.2,0.3c-0.3,0.4-0.7,0.6-1.2,0.5c0,0,0,0,0,0c0,0.1,0,0.3,0,0.4c-0.1,0.4-0.4,0.6-0.8,0.5
					c-0.1,0-0.3-0.1-0.4-0.1c-0.1,0.1-0.2,0.3-0.2,0.5c-0.1,0.5,0,0.9,0.1,1.3c0.2,0.6,0.3,1.2,0.4,1.8c0.1,0.4,0.2,0.8,0.3,1.2
					c0.1,0.4,0.1,0.8,0.2,1.2c0,0.2,0,0.3,0.2,0.5c0.1-0.3,0.2-0.6,0.3-0.9c0.1-0.2,0.2-0.3,0.3-0.5c0.1-0.1,0.2-0.2,0.4-0.3
					c0.2,0,0.4-0.1,0.6-0.1c0,0,0,0,0-0.1c-0.1-0.5,0-1,0.4-1.3c0.3-0.2,0.5-0.5,0.6-0.8c0.2-0.4,0.3-0.9,0.2-1.3
					c0-0.3-0.2-0.6-0.3-0.9c-0.1-0.2,0-0.2,0.2-0.2c0.3,0,0.6,0.1,0.8,0.3c0.3,0.2,0.5,0.5,0.7,0.8c0.1,0.2,0.2,0.4,0.2,0.7
					c0,0.1,0,0.3,0,0.4c0,0,0,0,0,0c0.3,0,0.5,0.2,0.6,0.4c0.1,0.1,0.1,0.2,0.1,0.3c0,0,0,0.1,0,0.1c0,0.2,0.1,0.3,0.3,0.4
					c0.4,0.2,0.7,0.6,0.8,1.1c0,0.2,0,0.3,0,0.5c0,0.2-0.1,0.2-0.2,0.1c-0.1-0.1-0.3-0.2-0.4-0.3c-0.5-0.3-0.9-0.3-1.5-0.2
					c-0.3,0.1-0.5,0.2-0.8,0.3c-0.3,0.2-0.6,0.3-1,0.3c0,0-0.1,0-0.1,0c0,0,0,0-0.1,0c0.1,0.4,0,0.8-0.4,1c-0.4,0.2-0.7,0.1-1.1-0.2
					c0,0,0,0-0.1,0c-0.1,0.2-0.2,0.4-0.3,0.7c0,0.2-0.1,0.4-0.1,0.6c-0.1,0.3,0,0.6,0.1,0.9c0.1,0.4,0.1,0.8,0.2,1.2
					c0.1,0.3,0.1,0.7,0.2,1c0.1,0.5,0.2,1,0.3,1.5c0.1,0.4,0.2,0.9,0.2,1.3c0,0.1,0.1,0.2,0.1,0.3c0,0,0,0,0,0
					c0-0.1,0.1-0.2,0.1-0.3c0.2-0.6,0.5-0.9,1-1.2c0.1-0.1,0.3,0,0.5,0c0.1,0,0.1,0,0.2,0c0-0.1,0-0.1-0.1-0.1
					c-0.2-0.3-0.3-0.7-0.2-1.1c0.1-0.2,0.1-0.3,0.1-0.5c0.1-0.2,0.2-0.4,0.4-0.6c0.3-0.4,0.5-0.8,0.6-1.2c0.1-0.3,0.2-0.6,0.1-0.9
					c-0.1-0.3-0.2-0.6-0.2-0.9c0-0.2,0-0.2,0.2-0.2c0.1,0,0.3,0,0.4,0.1c0.7,0.2,1.1,0.7,1.2,1.4c0.1,0.3,0,0.5,0,0.8
					c0,0.3-0.1,0.5-0.2,0.7c0,0,0,0,0,0.1c0.1,0,0.1,0,0.2,0c0.2,0,0.4,0,0.6,0.1c0.3,0.1,0.5,0.4,0.5,0.7c0,0,0,0.1,0,0.1
					c0,0,0.1,0,0.1,0.1c0.2,0.1,0.3,0.2,0.5,0.3c0.2,0.2,0.3,0.4,0.4,0.7c0.1,0.2,0.1,0.5,0,0.7c-0.1,0.2-0.2,0.2-0.3,0.1
					c-0.2-0.2-0.3-0.3-0.5-0.4c-0.4-0.2-0.9-0.3-1.4-0.1c-0.3,0.1-0.5,0.3-0.7,0.4c-0.4,0.3-0.8,0.3-1.3,0.2c0,0,0,0-0.1,0
					c0,0.1,0,0.1,0.1,0.2c0.2,0.4,0,0.8-0.2,1c-0.3,0.2-0.7,0.2-0.9-0.2c0,0,0-0.1,0-0.1c-0.1,0-0.1,0-0.2,0.1
					c-0.2,0.2-0.4,0.5-0.5,0.8c-0.1,0.3-0.1,0.6-0.2,0.9c0,0.3,0,0.5,0.1,0.8c0.1,0.4,0.2,0.9,0.2,1.3c0.1,0.6,0.2,1.2,0.3,1.8
					c0.1,0.4,0.1,0.7,0.1,1.1c0.1,0.6,0.2,1.2,0.3,1.8c0,0.2,0,0.3,0,0.5c0,0.2-0.2,0.4-0.4,0.4c-0.2,0-0.4,0-0.6,0.1
					c-0.2,0-0.4,0-0.6,0.1c-0.5,0.1-1,0.1-1.5,0.2c-0.1,0-0.3,0-0.4,0c-0.5,0-1,0.1-1.5,0.1c-0.5,0-0.9,0-1.4,0c-0.4,0-0.9,0-1.3,0
					c-0.2,0-0.3,0-0.5,0c-0.5,0-0.9,0-1.4-0.1c-0.6,0-1.1-0.1-1.7-0.1c-0.4,0-0.9-0.1-1.3-0.1c-0.5-0.1-1-0.1-1.5-0.2
					c-0.1,0-0.1,0-0.2,0c-0.1,0-0.2-0.1-0.2-0.3c0-0.1,0-0.2,0-0.2c0.1-0.5,0.1-1,0.2-1.5c0.1-0.6,0.2-1.2,0.3-1.8
					c0-0.3,0.1-0.6,0.1-0.9c0.1-0.4,0.1-0.8,0.2-1.2c0-0.2,0-0.3,0.1-0.5c0-0.4,0-0.8-0.1-1.2c0-0.2-0.1-0.5-0.1-0.7
					c0-0.2-0.1-0.3-0.2-0.5c-0.1,0-0.1,0.1-0.2,0.1c-0.3,0.1-0.6,0.1-0.9-0.1c-0.3-0.2-0.4-0.5-0.4-0.8c0-0.1,0-0.2,0-0.3
					c0,0-0.1,0-0.1,0c-0.3,0.1-0.6,0-0.9-0.2c-0.4-0.2-0.8-0.4-1.2-0.4c-0.3,0-0.6,0-0.9,0.1c-0.4,0.1-0.8,0.4-1.1,0.7
					c-0.1,0.1-0.2,0.1-0.3,0.1c-0.1-0.5,0-1,0.2-1.4C73.3,33.4,73.7,33.1,74.2,33z M92.2,44c0-0.1,0-0.2,0-0.2
					c0-0.4-0.1-0.8-0.1-1.2c0-0.3-0.1-0.5-0.1-0.8c0-0.3-0.1-0.6-0.1-0.9c0-0.3-0.1-0.6-0.1-0.9c0-0.3-0.1-0.6-0.1-0.9
					c-0.1-0.6-0.2-1.3-0.3-1.9c-0.1-0.3-0.1-0.7-0.2-1c-0.1-0.3-0.1-0.6-0.2-0.9c-0.1-0.3-0.1-0.7-0.2-1c-0.1-0.3-0.1-0.6-0.2-0.9
					c0-0.3-0.1-0.5-0.2-0.8c-0.1-0.4-0.1-0.8-0.2-1.2c-0.1-0.6-0.2-1.3-0.4-1.9c0-0.2-0.1-0.3-0.1-0.5c0-0.2-0.1-0.4-0.1-0.6
					c-0.1-0.3-0.1-0.5-0.2-0.8c-0.1-0.4-0.1-0.8-0.2-1.2c-0.1-0.5-0.2-1-0.3-1.5c-0.1-0.5-0.3-1-0.5-1.5c-0.3-0.7-0.6-1.5-1-2.1
					c-0.2-0.3-0.3-0.5-0.5-0.7c-0.2-0.3-0.4-0.5-0.6-0.8c-0.1-0.1-0.2-0.2-0.3-0.3c-0.1-0.1-0.1-0.1-0.1-0.2c0-0.5,0-0.9,0-1.4
					c0-0.1,0-0.1,0-0.2c0-0.1,0-0.1-0.2-0.1c-0.1,0-0.1,0-0.1,0.1c0,0.2,0,0.3,0,0.5c0,0.3,0,0.7,0,1c0,0.1,0,0.2-0.2,0.3
					c-0.1,0-0.2,0.1-0.2,0.2c-0.3,0.4-0.6,0.8-0.9,1.2c-0.1,0.2-0.3,0.4-0.4,0.6c-0.1,0.1-0.2,0.3-0.3,0.5c-0.3,0.5-0.5,1-0.7,1.5
					c-0.2,0.5-0.4,1-0.5,1.6c-0.2,0.7-0.4,1.5-0.5,2.2c-0.2,0.8-0.4,1.7-0.6,2.5c-0.1,0.3-0.1,0.6-0.2,1c-0.1,0.4-0.1,0.8-0.2,1.1
					c-0.1,0.5-0.2,1-0.3,1.6c-0.1,0.3-0.1,0.7-0.2,1c-0.1,0.7-0.3,1.3-0.4,2c-0.1,0.4-0.2,0.9-0.2,1.3c-0.1,0.3-0.1,0.6-0.2,0.9
					c-0.1,0.5-0.2,1-0.3,1.6c-0.1,0.3-0.1,0.7-0.2,1c-0.1,0.5-0.1,1-0.2,1.5c-0.1,0.4-0.1,0.8-0.2,1.2c0,0.2,0,0.2,0.2,0.2
					c0.7-0.1,1.4-0.2,2.2-0.3c0.6-0.1,1.2-0.1,1.8-0.2c0.2,0,0.5,0,0.7,0c0.3,0,0.6-0.1,1-0.1c0.5,0,1.1,0,1.6,0c0.5,0,1.1,0,1.6,0
					c0.4,0,0.8,0,1.2,0c0.3,0,0.5,0,0.8,0.1c0.1,0,0.2,0,0.2,0c0.1,0,0.1,0,0.2,0c0.1,0,0.3,0,0.4,0.1c0.4,0.1,0.8,0.1,1.2,0.1
					C91.9,44,92,44,92.2,44z M89.1,12.4C89,12.4,89,12.4,89.1,12.4c-0.4-0.4-0.9-0.5-1.4-0.2c-0.2,0.1-0.4,0.2-0.6,0.1
					c0,0-0.1,0-0.1,0c-0.5,0.1-0.9,0.3-1.1,0.7c-0.1,0.1-0.1,0.2,0,0.3c0.1,0.1,0.1,0.3,0.2,0.4c0,0.3,0,0.6-0.2,0.8
					c-0.1,0.1-0.2,0.1-0.3,0c-0.1-0.1-0.1-0.2-0.1-0.4c-0.1-0.2,0-0.5,0-0.7c0.1-0.2,0-0.3-0.1-0.5c0,0-0.1-0.1-0.1-0.1
					c-0.2-0.2-0.4-0.4-0.6-0.5C84.4,12.1,84,12,83.5,12c-0.4,0-0.8,0.2-1.2,0.4c-0.1,0.1-0.2,0.1-0.2,0.2c0.1,0,0.2,0.1,0.3,0.1
					c0.6,0,1,0.3,1.5,0.7c0.4,0.3,0.5,0.8,0.6,1.3c0,0.2,0.1,0.5,0.2,0.7c0.3,0.5,0.9,0.8,1.4,0.5c0.2-0.1,0.4-0.3,0.5-0.5
					c0.1-0.2,0.1-0.4,0.1-0.6c0-0.4,0.1-0.8,0.3-1.1c0.2-0.2,0.4-0.5,0.6-0.6c0.2-0.1,0.3-0.2,0.5-0.3
					C88.5,12.5,88.8,12.5,89.1,12.4z M94.5,29.1c0,0.1,0.1,0.3,0.1,0.4c0.1,0.3,0.1,0.5,0.1,0.8c0,0.1,0,0.2,0,0.3
					c0,0.1,0,0.2-0.1,0.3c-0.1,0.2-0.2,0.4-0.3,0.7c-0.1,0.3-0.3,0.6-0.5,0.8c-0.4,0.4-0.4,0.9-0.2,1.3c0.2,0.4,0.8,0.6,1.1,0.5
					c0.2-0.1,0.4-0.2,0.6-0.3c0.2-0.1,0.3-0.2,0.5-0.3c0.3-0.1,0.6-0.1,0.9,0c0.3,0.1,0.6,0.2,0.9,0.5c0.1,0.1,0.2,0.1,0.3,0.2
					c0-0.1,0-0.2,0-0.2c0-0.2-0.1-0.4-0.2-0.5c-0.2-0.3-0.4-0.5-0.7-0.6c-0.2-0.1-0.2-0.1-0.1-0.3c0.1-0.2,0-0.4-0.2-0.5
					c-0.1,0-0.1,0-0.2-0.1c-0.4-0.1-0.8-0.1-1.2,0.2c-0.4,0.2-0.6,0.6-0.7,1c0,0.1,0,0.1-0.1,0.2c-0.1,0.1-0.2,0.2-0.4,0.1
					c-0.1,0-0.2-0.1-0.2-0.3c0-0.1,0-0.1,0.1-0.1c0.2-0.4,0.5-0.7,0.9-1c0.2-0.2,0.4-0.3,0.6-0.5c0.3-0.5,0.4-1.1,0.2-1.6
					c0-0.1-0.1-0.1-0.1-0.2c-0.2-0.4-0.4-0.6-0.8-0.8C94.8,29.1,94.7,29.1,94.5,29.1z M75.7,30.6c-0.2,0.2-0.3,0.4-0.3,0.7
					c0,0,0,0,0,0.1c0,0.3,0.2,0.6,0.5,0.7c0.2,0.1,0.4,0.3,0.5,0.4c0.3,0.3,0.5,0.6,0.7,1c0.1,0.2,0.1,0.3,0.1,0.5
					c0,0.1,0,0.3-0.1,0.3c-0.2,0.1-0.4,0-0.4-0.2c0-0.1,0-0.2,0-0.3c0-0.2-0.1-0.4-0.1-0.6c-0.1-0.2-0.1-0.4-0.3-0.5
					c-0.2-0.1-0.3-0.3-0.5-0.4c-0.1-0.1-0.3-0.2-0.5-0.2c-0.2,0-0.4,0-0.6,0.2c-0.2,0.2-0.4,0.4-0.3,0.7c0,0,0,0,0,0.1
					c0,0.2,0,0.2-0.2,0.3c-0.1,0-0.2,0.1-0.4,0.1c-0.4,0.2-0.6,0.4-0.8,0.8C73,34.3,73,34.6,73,34.8c0.1-0.1,0.2-0.2,0.3-0.3
					c0.4-0.4,0.9-0.6,1.5-0.6c0.7-0.1,1.3,0.1,1.9,0.6c0.2,0.2,0.4,0.3,0.7,0.1c0.1,0,0.1-0.1,0.2-0.2c0.2-0.3,0.3-0.7,0.2-1
					c-0.1-0.3-0.2-0.5-0.4-0.7c-0.4-0.4-0.7-0.8-0.8-1.3c0-0.2-0.1-0.4-0.1-0.6c0-0.3,0-0.7,0.1-1c0.1-0.2,0.1-0.4,0.2-0.6
					c-0.3,0-0.5,0.1-0.7,0.2c-0.3,0.3-0.4,0.7-0.3,1.2C75.8,30.7,75.7,30.7,75.7,30.6z M94.7,24.7c0,0.1-0.1,0.2-0.1,0.2
					c0,0.1,0,0.1-0.1,0.2c-0.2,0.4-0.5,0.8-1,0.9c-0.1,0-0.1,0-0.2,0c-0.1-0.1,0-0.1,0-0.2c0.2-0.3,0.4-0.6,0.6-0.9
					c0.1-0.1,0.3-0.3,0.4-0.4c0,0,0.1-0.1,0.1-0.2c0-0.4-0.1-0.7-0.3-1c-0.2-0.4-0.5-0.6-0.9-0.8c-0.1,0-0.2-0.1-0.3-0.1
					c0.2,0.4,0.2,0.8,0.2,1.3c0,0.7-0.3,1.4-0.8,1.9c-0.4,0.4-0.4,0.6-0.2,1c0.1,0.2,0.3,0.4,0.6,0.4c0.2,0,0.4-0.1,0.6-0.2
					c0.2-0.1,0.3-0.2,0.5-0.3c0.3-0.1,0.6-0.2,1-0.2c0.4,0,0.8,0.1,1.2,0.2c0.1,0,0.1,0,0.2,0.1c-0.1-0.3-0.3-0.7-0.6-0.8
					c-0.2-0.1-0.3-0.2-0.3-0.4c0,0,0,0,0,0C95.4,25.1,95.2,24.9,94.7,24.7z M94.4,20.1c0,0,0-0.1,0-0.1c-0.2-0.3-0.4-0.5-0.8-0.7
					c-0.1,0-0.2-0.1-0.2-0.2c-0.1-0.2-0.2-0.3-0.3-0.3c-0.4-0.1-0.7-0.1-1,0c-0.1,0-0.1,0.1-0.2,0.2c-0.2,0.4-0.5,0.8-0.8,1.1
					c0,0.1-0.1,0.1-0.2,0.1c-0.1,0-0.1-0.1-0.1-0.2c0.1-0.4,0.3-0.8,0.7-1.1c0.1-0.1,0.3-0.2,0.3-0.3c0-0.2,0.1-0.4,0.1-0.6
					c0-0.3-0.1-0.5-0.4-0.6c-0.1,0-0.1,0-0.2-0.1c-0.1,0-0.1-0.1-0.1-0.1c-0.1-0.3-0.3-0.4-0.4-0.5c-0.1,0-0.1,0-0.2-0.1
					c0,0.1,0,0.1,0,0.1c0.1,0.3,0.2,0.7,0.2,1c0,0.5-0.1,1-0.4,1.5c-0.2,0.3-0.2,0.6-0.3,1c-0.1,0.3,0.1,0.7,0.4,0.8
					c0.4,0.2,0.9,0.1,1.1-0.3c0.2-0.2,0.3-0.3,0.5-0.5c0.4-0.2,0.7-0.4,1.2-0.4c0.3,0,0.6,0,0.9,0.1C94.2,20.1,94.3,20.1,94.4,20.1z
					 M78.5,22.7c-0.4,0.1-0.8,0.3-1,0.6c-0.3,0.3-0.5,0.8-0.5,1.2c0,0.2,0,0.3,0.2,0.4c0.3,0.2,0.5,0.4,0.8,0.6
					c0.3,0.3,0.5,0.6,0.7,0.9c0,0.1,0.1,0.1,0,0.2c-0.1,0.1-0.1,0-0.2,0c-0.1,0-0.1-0.1-0.2-0.1c-0.3-0.2-0.6-0.4-0.9-0.8
					c-0.2-0.2-0.3-0.4-0.4-0.7c-0.1-0.1-0.2-0.2-0.3-0.2c-0.2,0-0.3,0.1-0.4,0.2c-0.2,0.2-0.4,0.4-0.3,0.7c0,0.1,0,0.2-0.1,0.2
					c-0.2,0.1-0.3,0.2-0.4,0.3c-0.2,0.1-0.2,0.3-0.3,0.5c0,0,0.1,0,0.1,0c0,0,0,0,0.1,0c0.3-0.2,0.6-0.2,0.9-0.3
					c0.3,0,0.6,0,0.9,0.1c0.4,0.1,0.7,0.3,1,0.5c0.4,0.3,0.9,0.3,1.2-0.2c0.2-0.3,0.2-0.6,0-0.9c-0.3-0.3-0.5-0.6-0.6-1
					c-0.2-0.4-0.2-0.7-0.2-1.1c0-0.1,0-0.2,0-0.3c0-0.2,0.1-0.4,0.1-0.6C78.5,22.9,78.5,22.8,78.5,22.7z M77.2,19.8
					C77.2,19.8,77.3,19.8,77.2,19.8c0.1,0,0.2,0,0.2,0c0.1,0,0.3-0.1,0.4-0.1c0.2,0,0.4,0,0.7,0c0.3,0,0.7,0.1,0.9,0.3
					c0.2,0.1,0.4,0.3,0.5,0.5c0.2,0.3,0.5,0.4,0.9,0.4c0.2,0,0.4-0.1,0.6-0.3c0.1-0.2,0.2-0.5,0.1-0.8c-0.2-0.5-0.4-0.9-0.5-1.4
					c-0.1-0.3-0.1-0.6-0.1-0.9c0-0.3,0.1-0.7,0.3-1c0,0,0-0.1,0-0.1c0,0-0.1,0-0.1,0c-0.3,0.1-0.5,0.2-0.6,0.5
					c0,0.2-0.1,0.3-0.3,0.3c-0.1,0-0.1,0-0.2,0.1c0,0-0.1,0-0.1,0.1c-0.1,0.2-0.2,0.4-0.1,0.6c0,0.1,0.1,0.2,0.1,0.4
					c0,0.2,0.1,0.3,0.3,0.4c0.4,0.3,0.6,0.7,0.7,1.1c0,0.1,0,0.1-0.1,0.2c-0.1,0-0.1,0-0.2,0c-0.3-0.3-0.6-0.7-0.7-1.1
					c0-0.1-0.1-0.1-0.1-0.2c-0.4-0.2-0.8-0.2-1.2-0.1c-0.1,0.1-0.3,0.2-0.3,0.3c0,0.1-0.1,0.2-0.2,0.2
					C77.7,19.2,77.4,19.5,77.2,19.8z M85.7,12.9c0,0,0.1-0.1,0.1-0.1c0.2-0.3,0.4-0.5,0.7-0.6c0.2-0.1,0.4-0.1,0.6-0.1
					c0.2,0,0.2-0.1,0.2-0.2c0-0.4-0.2-0.6-0.5-0.8c0,0-0.1,0-0.1,0c0,0-0.1-0.1-0.1-0.1c0-0.1-0.1-0.2-0.1-0.4
					c0-0.4-0.2-0.7-0.5-0.9c-0.2-0.2-0.5-0.2-0.7,0c-0.1,0.1-0.2,0.3-0.2,0.4c0,0.3-0.2,0.5-0.4,0.6c-0.3,0.2-0.4,0.4-0.5,0.7
					c0,0.1,0,0.2,0.1,0.2c0.3,0.1,0.5,0.3,0.7,0.5c0.1,0.1,0.2,0.3,0.3,0.5C85.5,12.7,85.5,12.9,85.7,12.9z M87.2,16.8
					c0-0.1,0-0.2-0.1-0.2c-0.2-0.2-0.5-0.3-0.8-0.4c-0.3-0.1-0.7,0-1,0c-0.3,0-0.5,0.1-0.7,0.3c-0.1,0.1-0.1,0.1-0.2,0.2
					C85.1,17.4,86.3,17.4,87.2,16.8z M79.4,37.2C79.4,37.2,79.5,37.2,79.4,37.2c0.1-0.1,0.1-0.2,0.1-0.3c0-0.3,0-0.6-0.1-0.9
					c-0.1-0.4-0.2-0.7-0.4-1c-0.2-0.3-0.4-0.5-0.8-0.5c-0.4,0-0.6,0.1-0.7,0.5c0,0.2,0,0.3,0.2,0.4c0.2,0.2,0.4,0.2,0.6,0.1
					c0.1-0.1,0.2,0,0.3,0c0.2,0.2,0.3,0.4,0.4,0.6c0.1,0.3,0.2,0.6,0.2,0.8C79.4,37,79.4,37.1,79.4,37.2z M82.7,22.5
					c0-0.1,0-0.1,0-0.2c-0.1-0.5-0.2-0.9-0.5-1.3c-0.1-0.2-0.3-0.2-0.5-0.2c-0.3,0-0.6,0.2-0.6,0.5c0,0.3,0.2,0.6,0.5,0.6
					c0.1,0,0.2,0,0.2,0c0.2-0.1,0.3,0,0.3,0.1C82.4,22.2,82.5,22.3,82.7,22.5z M80.9,28.8c0-0.1,0-0.1,0-0.1
					c-0.1-0.4-0.2-0.8-0.4-1.2c-0.1-0.1-0.2-0.3-0.4-0.3c-0.3-0.2-0.7,0-0.8,0.3c-0.1,0.3,0.2,0.7,0.5,0.6c0.1,0,0.2-0.1,0.3-0.2
					c0.1-0.1,0.2-0.1,0.3,0c0.1,0.2,0.2,0.4,0.4,0.6C80.8,28.6,80.9,28.7,80.9,28.8z M91.9,36c0.1-0.2,0.2-0.3,0.4-0.5
					c0.2-0.2,0.4-0.3,0.6-0.3c0.2-0.1,0.2-0.1,0.4,0.2c0,0,0,0,0,0c0.1,0.1,0.2,0.1,0.3,0.1c0.1,0,0.1-0.1,0.2-0.2
					c0.1-0.2,0-0.5-0.2-0.6c-0.2-0.2-0.4-0.2-0.7-0.1C92.4,34.8,91.9,35.3,91.9,36z M90.6,28.5c0-0.1,0.1-0.2,0.1-0.2
					c0.1-0.3,0.5-0.3,0.7-0.1c0,0,0.1,0.1,0.2,0.1c0.2,0,0.4-0.1,0.5-0.3c0.1-0.3,0.1-0.5-0.1-0.7c0,0-0.1-0.1-0.2-0.1
					c-0.2,0-0.4,0.1-0.6,0.1c-0.1,0.1-0.2,0.2-0.3,0.3C90.8,27.9,90.7,28.2,90.6,28.5z M88.9,22.3c0.2-0.3,0.4-0.5,0.6-0.7
					c0.1,0.1,0.2,0.2,0.2,0.3c0.1,0.1,0.1,0.1,0.2,0.1c0.3,0,0.4-0.3,0.3-0.5c-0.1-0.3-0.5-0.4-0.8-0.3c-0.2,0.1-0.3,0.3-0.4,0.5
					C89,21.8,88.9,22,88.9,22.3z M94.4,24.9c-0.2,0.2-0.4,0.4-0.6,0.7C94,25.6,94.3,25.2,94.4,24.9z M94.5,33.3
					c-0.1,0.2-0.1,0.2,0,0.2C94.5,33.4,94.5,33.4,94.5,33.3z"/>
				<path class="st2" d="M99,19.5c0-0.1,0-0.1,0-0.2c0-0.2-0.1-0.3-0.2-0.3c-0.1,0-0.3,0-0.4,0.1c-0.2,0.2-0.2,0.5-0.1,0.8
					c0.1,0.3,0.4,0.4,0.7,0.4c0.3,0,0.5-0.1,0.7-0.3c0.1-0.1,0.2-0.2,0.2-0.4c0.1-0.4,0.2-0.8,0-1.2c-0.1-0.2-0.2-0.4-0.3-0.6
					c-0.1-0.3-0.3-0.6-0.4-0.8c-0.1-0.3-0.3-0.6-0.5-0.9c-0.1-0.3-0.3-0.5-0.4-0.8c-0.3-0.4-0.5-0.8-0.8-1.2
					c-0.2-0.3-0.4-0.5-0.6-0.8c-0.2-0.3-0.5-0.6-0.7-0.9c-0.1-0.1-0.2-0.2-0.2-0.2c-0.2-0.2-0.4-0.5-0.6-0.7
					c-0.2-0.2-0.4-0.4-0.6-0.6c-0.7-0.6-1.4-1.1-2.1-1.7C92.4,9,92.2,8.9,92,8.7c-0.4-0.2-0.8-0.5-1.2-0.6c-0.7-0.3-1.4-0.6-2.1-0.8
					c-0.3-0.1-0.6-0.1-0.9-0.2c-0.3-0.1-0.7-0.1-1-0.1c-0.3,0-0.7,0-1-0.1c-0.2,0-0.3,0-0.5,0c-0.2,0-0.4,0-0.6,0.1
					c-0.3,0-0.7,0.1-1,0.1c-0.8,0.1-1.5,0.4-2.2,0.6C81,8,80.5,8.2,80,8.5c-0.2,0.1-0.5,0.3-0.7,0.4c-0.4,0.3-0.8,0.5-1.2,0.8
					c-0.3,0.2-0.5,0.4-0.8,0.6c-0.2,0.2-0.4,0.4-0.6,0.5c-0.3,0.3-0.6,0.5-0.9,0.8c-0.2,0.2-0.3,0.3-0.5,0.5
					c-0.3,0.4-0.6,0.8-0.9,1.2c-0.3,0.4-0.6,0.8-0.8,1.2c-0.2,0.3-0.3,0.6-0.5,0.8c-0.1,0.1-0.2,0.3-0.3,0.4c-0.3,0.5-0.5,1-0.8,1.6
					c-0.1,0.1-0.1,0.3-0.2,0.5c-0.2,0.4-0.2,0.9-0.3,1.3c-0.1,0.6,0.5,1.2,1.2,1c0.5-0.2,0.6-0.9,0.3-1.2c0,0-0.1-0.1-0.1-0.1
					c-0.1-0.1-0.2-0.1-0.3,0c-0.1,0.1-0.1,0.2-0.1,0.3c0,0.2,0,0.3-0.2,0.3c-0.1,0-0.1-0.1-0.2-0.1c-0.1-0.5,0.1-1,0.8-1
					c0.4,0,0.7,0.3,0.7,0.7c0,0.3,0,0.6-0.1,0.9c-0.1,0.2-0.2,0.3-0.3,0.4c-0.1,0.1-0.2,0.1-0.3,0.2c-0.1,0-0.2,0.1-0.3,0
					c0,0-0.1,0-0.1,0c-0.2,0.1-0.4,0-0.5-0.1c-0.1,0-0.2-0.1-0.3-0.2c0,0-0.1-0.1-0.1-0.1c-0.2-0.2-0.3-0.5-0.3-0.7
					c0-0.3,0.1-0.7,0.1-1c0.1-0.6,0.4-1.2,0.6-1.7c0.2-0.4,0.4-0.8,0.7-1.2c0.3-0.5,0.6-1,0.9-1.5c0.3-0.5,0.6-1,1-1.4
					c0.2-0.2,0.3-0.4,0.5-0.6c0.3-0.3,0.6-0.6,0.9-0.9c0.2-0.2,0.4-0.4,0.6-0.6c0.2-0.2,0.4-0.4,0.6-0.5c0.2-0.1,0.3-0.3,0.5-0.4
					c0.3-0.2,0.6-0.5,0.9-0.7c0.3-0.2,0.6-0.4,0.9-0.5c0.5-0.3,1.1-0.6,1.7-0.8c0.5-0.2,0.9-0.3,1.4-0.5c0.5-0.1,1-0.2,1.5-0.3
					c0.5-0.1,0.9-0.1,1.4-0.1c0.2,0,0.5,0,0.7,0c0.1,0,0.2,0,0.2,0c0.6,0,1.2,0.1,1.8,0.2C88.7,7,89,7.1,89.3,7.2
					c0.5,0.1,0.9,0.3,1.4,0.5c0.3,0.1,0.6,0.3,0.9,0.4c0.3,0.2,0.6,0.3,0.9,0.5c0.3,0.2,0.5,0.4,0.8,0.5c0.4,0.3,0.9,0.6,1.3,1
					c0.5,0.4,0.9,0.8,1.4,1.2c0.3,0.3,0.7,0.7,1,1.1c0.3,0.3,0.5,0.7,0.7,1c0.5,0.6,0.9,1.3,1.3,2c0.1,0.2,0.3,0.5,0.4,0.7
					c0.3,0.5,0.5,1.1,0.8,1.6c0.1,0.2,0.2,0.5,0.3,0.8c0,0.1,0,0.2,0,0.3c0,0.1,0,0.1,0,0.2c0.1,0.4-0.1,0.7-0.3,1
					c-0.2,0.3-0.5,0.4-0.8,0.5c-0.2,0-0.4,0.1-0.6,0c-0.2-0.1-0.4-0.3-0.6-0.4c-0.2-0.3-0.3-0.7-0.2-1.1c0.1-0.3,0.5-0.6,0.8-0.6
					c0.4,0,0.7,0.4,0.7,0.7C99.4,19.4,99.3,19.5,99,19.5z"/>
				<path class="st2" d="M83.6,49.5c0-0.1,0-0.1,0-0.2c0-0.1,0-0.2,0.1-0.2c0.1,0,0.2,0,0.3,0.1c0.2,0.2,0.1,0.4,0,0.6
					C84,49.9,83.8,50,83.6,50c-0.3,0-0.5-0.1-0.5-0.5c-0.1-0.5,0.1-0.9,0.5-1.1c0.4-0.3,0.8-0.2,1.2,0c0.2,0.1,0.4,0.4,0.4,0.6
					c0.1,0.4,0,0.8-0.2,1.2c-0.1,0.2-0.3,0.3-0.5,0.4C84,50.9,83.5,51,83,51c-0.3,0-0.5,0-0.8,0c-0.3,0-0.5-0.1-0.8-0.2
					c-0.4-0.2-0.8-0.3-1.3-0.5c-0.4-0.2-0.8-0.4-1.2-0.7c-0.4-0.3-0.8-0.5-1.2-0.8c-0.2-0.2-0.4-0.4-0.7-0.5
					c-0.3-0.2-0.5-0.4-0.7-0.7c-0.2-0.2-0.4-0.4-0.7-0.6c-0.3-0.3-0.6-0.6-0.8-1c-0.1-0.2-0.3-0.3-0.4-0.5c-0.2-0.3-0.5-0.7-0.7-1
					c-0.3-0.4-0.5-0.9-0.8-1.3c-0.3-0.5-0.6-0.9-0.8-1.4c0-0.1-0.1-0.2-0.1-0.2c-0.3-0.6-0.5-1.2-0.8-1.7c-0.2-0.5-0.4-1-0.5-1.5
					c-0.2-0.7-0.4-1.5-0.6-2.2c-0.2-0.7-0.3-1.4-0.4-2.1c0-0.3-0.1-0.6-0.1-0.9c0-0.2,0-0.5-0.1-0.7c0-0.3-0.1-0.6-0.1-0.9
					c0-0.2,0-0.5,0-0.7c0-0.5,0-0.9,0-1.4c0-0.6,0-1.3,0-1.9c0-0.6,0.1-1.2,0.2-1.9c0-0.3,0-0.6,0.1-0.9c0.1-0.5,0.2-0.9,0.3-1.4
					c0.1-0.3,0.2-0.7,0.4-1c0.1-0.1,0.1-0.3,0.3-0.4c0.2-0.2,0.4-0.3,0.6-0.4c0.2-0.1,0.4-0.1,0.6-0.1c0.3,0.1,0.6,0.2,0.8,0.5
					c0.1,0.1,0.1,0.3,0.2,0.4c0.1,0.3,0.1,0.5,0,0.8c-0.1,0.2-0.1,0.3-0.3,0.4c-0.3,0.3-0.7,0.3-1,0.1c-0.2-0.1-0.4-0.3-0.4-0.6
					c0-0.1,0-0.2,0-0.3c0-0.1,0.1-0.3,0.2-0.4c0,0,0,0,0,0c0.1-0.1,0.3,0,0.3,0c0,0.1,0,0.2-0.1,0.3c-0.1,0.1-0.1,0.2-0.1,0.3
					c0.1,0.2,0.4,0.3,0.6,0.2c0.3-0.2,0.4-0.5,0.3-0.9c0-0.1-0.1-0.2-0.2-0.3c-0.3-0.3-0.7-0.2-1,0c-0.3,0.2-0.5,0.5-0.6,0.8
					c-0.2,0.4-0.3,0.9-0.4,1.3c-0.2,0.6-0.2,1.1-0.3,1.7c0,0.2-0.1,0.3-0.1,0.5c0,0.1,0,0.2,0,0.4c0,0.2,0,0.3-0.1,0.5
					c0,0.1,0,0.3,0,0.4c0,0.5-0.1,0.9-0.1,1.4c0,0.2,0,0.5,0,0.7c0,0.3,0,0.6,0,0.8c0,0.5,0.1,1,0.1,1.5c0,0.4,0.1,0.8,0.1,1.2
					c0.1,0.5,0.1,0.9,0.2,1.4c0.1,0.6,0.2,1.2,0.3,1.7c0.1,0.4,0.2,0.8,0.3,1.2c0.1,0.3,0.2,0.7,0.3,1c0.1,0.4,0.3,0.8,0.4,1.2
					c0.2,0.5,0.4,1,0.6,1.4c0.2,0.4,0.4,0.7,0.5,1c0.3,0.6,0.6,1.1,0.9,1.6c0.3,0.5,0.7,1,1,1.5c0.3,0.4,0.7,0.8,1,1.2
					c0.1,0.1,0.2,0.3,0.4,0.4c0.2,0.2,0.4,0.3,0.5,0.5c0.2,0.2,0.4,0.4,0.6,0.6c0.5,0.4,0.9,0.8,1.5,1.1c0.4,0.2,0.7,0.5,1.1,0.7
					c0.2,0.1,0.4,0.2,0.7,0.3c0.4,0.2,0.9,0.4,1.3,0.6c0.3,0.1,0.6,0.1,0.9,0.1c0.4,0,0.8,0,1.1-0.1c0.2-0.1,0.4-0.1,0.6-0.2
					c0.2-0.1,0.3-0.3,0.4-0.5c0.2-0.4-0.1-0.9-0.3-1.1c-0.2-0.1-0.4-0.1-0.6,0c-0.2,0.1-0.3,0.3-0.3,0.6
					C83.5,49.4,83.5,49.4,83.6,49.5z"/>
				<path class="st2" d="M87.5,49.5c0.1,0,0.1,0,0.2-0.1c0-0.2,0-0.3-0.1-0.5c-0.2-0.3-0.6-0.4-0.8-0.2c-0.3,0.2-0.6,0.7-0.3,1.1
					c0.1,0.3,0.3,0.5,0.6,0.6c0.3,0.1,0.6,0.2,0.9,0.2c0.4,0,0.7,0,1.1-0.1c0.3-0.1,0.5-0.1,0.8-0.2c0.2,0,0.3-0.1,0.4-0.2
					c0.4-0.2,0.8-0.4,1.1-0.6c0.4-0.2,0.8-0.5,1.2-0.7c0.5-0.4,1-0.8,1.5-1.1c0.3-0.3,0.7-0.5,1-0.8c0.2-0.2,0.4-0.4,0.6-0.7
					c0.4-0.5,0.8-0.9,1.2-1.4c0.2-0.3,0.4-0.6,0.7-0.9c0.2-0.2,0.3-0.5,0.5-0.7c0.3-0.5,0.5-1,0.8-1.4c0.1-0.3,0.3-0.5,0.4-0.8
					c0.2-0.4,0.3-0.7,0.5-1.1c0.2-0.6,0.5-1.2,0.7-1.8c0-0.1,0-0.1,0.1-0.2c0.1-0.5,0.3-1,0.4-1.4c0.1-0.4,0.2-0.8,0.3-1.2
					c0.1-0.4,0.2-0.8,0.2-1.2c0.1-0.6,0.2-1.2,0.2-1.9c0-0.4,0.1-0.8,0.1-1.2c0-0.4,0-0.9,0-1.3c0-0.2,0-0.5,0.1-0.7
					c0-0.1,0-0.3,0-0.4c0-0.2,0-0.5,0-0.7c0-0.3,0-0.6,0-1c0-0.3,0-0.6-0.1-0.8c-0.1-0.6-0.1-1.2-0.2-1.8c-0.1-0.5-0.2-0.9-0.3-1.4
					c0-0.3-0.1-0.5-0.3-0.8c-0.2-0.3-0.5-0.6-1-0.6c-0.2,0-0.3,0-0.5,0.1c-0.2,0.1-0.4,0.3-0.5,0.5c-0.1,0.1-0.1,0.2,0,0.3
					c0.1,0.3,0.2,0.5,0.5,0.6c0.3,0.1,0.5-0.1,0.5-0.4c0,0,0-0.1,0-0.1c0,0,0,0,0,0c-0.1-0.1-0.2-0.2-0.1-0.3c0.1-0.1,0.3-0.1,0.4,0
					c0,0,0.1,0.1,0.1,0.2c0.2,0.5,0.1,0.9-0.4,1.1c-0.3,0.2-0.7,0-0.9-0.2c-0.3-0.3-0.4-0.7-0.3-1.2c0.1-0.5,0.4-0.7,0.9-0.9
					c0.1,0,0.2,0,0.2-0.1c0.3-0.1,0.6,0.1,0.9,0.3c0.3,0.2,0.5,0.4,0.6,0.7c0,0.1,0.1,0.1,0.1,0.2c0.1,0.5,0.2,1,0.3,1.5
					c0.1,0.6,0.2,1.3,0.3,2c0.1,0.5,0.1,1,0.1,1.5c0,0.8,0,1.7,0,2.5c0,0.4,0,0.8,0,1.2c0,0.4-0.1,0.7-0.1,1.1c0,0.3,0,0.5-0.1,0.8
					c0,0.3-0.1,0.6-0.1,1c0,0.2,0,0.4-0.1,0.6c-0.1,0.4-0.2,0.9-0.3,1.3c-0.1,0.4-0.2,0.8-0.3,1.3c-0.1,0.4-0.2,0.8-0.3,1.1
					c-0.2,0.6-0.4,1.2-0.7,1.8c-0.2,0.5-0.5,1.1-0.7,1.6c-0.2,0.5-0.5,1-0.8,1.5c-0.1,0.2-0.2,0.5-0.4,0.7c-0.1,0.2-0.2,0.3-0.3,0.4
					c-0.2,0.3-0.4,0.5-0.6,0.8c-0.2,0.2-0.4,0.4-0.5,0.6c-0.2,0.3-0.4,0.5-0.7,0.8c-0.3,0.3-0.6,0.7-1,1c-0.2,0.1-0.4,0.3-0.5,0.5
					c-0.4,0.3-0.8,0.7-1.3,1c-0.3,0.2-0.5,0.4-0.8,0.6c-0.5,0.3-1,0.6-1.5,0.8c-0.3,0.1-0.6,0.3-0.8,0.4c-0.1,0.1-0.3,0.1-0.4,0.1
					c-0.4,0.1-0.8,0.2-1.2,0.2c-0.4,0.1-0.8,0-1.2-0.1c-0.2,0-0.3-0.1-0.5-0.1c-0.4-0.1-0.7-0.4-0.9-0.8c0-0.1,0-0.2-0.1-0.3
					c-0.1-0.4,0-0.8,0.3-1.1c0.2-0.3,0.6-0.4,1-0.3c0.2,0,0.3,0.1,0.5,0.2c0.2,0.2,0.3,0.4,0.4,0.7c0,0.1,0,0.2,0,0.4
					c0,0.3-0.2,0.4-0.4,0.5c-0.2,0.1-0.4,0-0.5-0.2c-0.1-0.1-0.1-0.5,0-0.6c0.1-0.1,0.2-0.1,0.3,0c0.1,0.1,0.1,0.1,0.1,0.2
					C87.5,49.4,87.5,49.4,87.5,49.5z"/>
				<path class="st2" d="M82.9,27.8c0-0.1,0.1-0.1,0.1-0.2c0.1-0.2,0.3-0.4,0.5-0.6c0.2-0.1,0.4-0.2,0.6-0.1
					c0.2,0.1,0.2,0.3,0.1,0.4c-0.3,0.2-0.4,0.5-0.6,0.8c0,0,0,0.1-0.1,0.1c-0.1,0.4-0.2,0.7-0.2,1.1c0,0.6,0,1.2,0,1.8
					c0,0.1,0,0.3,0,0.4c0,0.2,0.1,0.2,0.3,0.2c0.3,0,0.5,0,0.8,0c0-0.1,0-0.1,0-0.2c0-0.6,0-1.2,0-1.8c0-0.4,0-0.7,0-1.1
					c0-0.1-0.1-0.3-0.1-0.4c0-0.1,0-0.1,0-0.2c0-0.1,0-0.2,0.2-0.2c0.1,0,0.2,0,0.3,0c0.4,0,0.7,0,1.1,0c0.2,0,0.4,0.1,0.6,0.2
					c0.1,0.1,0.3,0.3,0.4,0.4c0,0,0.1,0.1,0.1,0.2c0.1,0.4,0.2,0.9,0,1.3c-0.1,0.3-0.3,0.4-0.6,0.6c0,0.1,0,0.2,0.1,0.2
					c0.2,0.2,0.4,0.5,0.5,0.8c0,0.1,0.1,0.1,0.2,0.1c0.2,0,0.4,0,0.6,0c0.1,0,0.2,0,0.2-0.2c0-0.1,0-0.2,0-0.3c0-0.5,0-1,0-1.5
					c0-0.3,0-0.6,0-0.9c0-0.2,0-0.5-0.1-0.7c-0.1-0.2-0.2-0.4-0.3-0.6c-0.1-0.1-0.1-0.2-0.3-0.1c-0.1,0-0.3,0-0.3-0.1
					c-0.1-0.1,0-0.3,0-0.4c0.1-0.1,0.2-0.2,0.3-0.1c0.2,0,0.3,0.1,0.4,0.2c0.3,0.2,0.5,0.4,0.7,0.6c0,0,0,0,0.1,0.1
					c0,0,0.1-0.1,0.1-0.1c0.1-0.1,0.3-0.1,0.5-0.1c0.2,0,0.2,0.1,0.1,0.2c0,0-0.1,0.1-0.1,0.1c-0.2,0.1-0.3,0.3-0.3,0.5
					c0,0.6,0,1.3,0,1.9c0,0.7,0,1.4,0,2.2c0,0.7,0,1.3,0,2c0,0.3,0.1,0.6,0.2,0.8c0.1,0.3,0.4,0.6,0.7,0.7c0.1,0,0.2,0,0.3,0.1
					c0.1,0,0.2,0,0.3,0.1c0.1,0,0.2,0.2,0.1,0.3c0,0.1-0.1,0.2-0.2,0.2c-0.4,0.1-0.8,0.1-1.1-0.1c-0.3-0.2-0.5-0.4-0.7-0.7
					c-0.1,0.1-0.1,0.1-0.2,0.2c-0.2,0.1-0.4,0.3-0.6,0.4c-0.1,0.1-0.2,0-0.3,0c-0.1-0.1-0.1-0.2,0-0.3c0.2-0.1,0.3-0.3,0.4-0.5
					c0.2-0.3,0.3-0.6,0.3-0.9c0-0.5,0-1.1,0-1.6c0-0.2,0-0.5,0-0.7c0-0.2,0-0.2-0.2-0.2c-0.1,0-0.3,0-0.4,0
					c-0.1,0.1-0.1,0.1-0.1,0.2c0.1,0.5,0.1,1.1-0.1,1.6c-0.1,0.3-0.2,0.5-0.4,0.7c-0.2,0.2-0.4,0.5-0.6,0.6
					c-0.2,0.1-0.4,0.2-0.6,0.3c-0.3,0.1-0.6,0-1-0.1c0,0-0.1,0-0.1-0.1c-0.2-0.1-0.3-0.3-0.1-0.4c0.2-0.2,0.2-0.4,0.2-0.7
					c0-0.6,0-1.2,0-1.8c0,0,0-0.1,0-0.1c0-0.2,0-0.3-0.3-0.3c-0.1,0-0.3,0-0.4,0c-0.1,0-0.1,0-0.2,0c-0.2,0-0.3,0.2-0.3,0.3
					c0,0.4,0,0.9,0,1.3c0,0.3,0,0.5,0,0.8c0,0.5,0.2,0.9,0.5,1.3c0,0.1,0.1,0.1,0.1,0.2c0,0.1,0.1,0.2,0,0.2
					c-0.1,0.1-0.1,0.1-0.2,0.1c-0.1,0-0.1,0-0.2-0.1c-0.1-0.1-0.3-0.2-0.4-0.2c0,0-0.1,0-0.1-0.1c-0.2,0.2-0.3,0.3-0.5,0.4
					c-0.2,0.2-0.4,0.3-0.7,0.4c-0.1,0-0.1,0-0.2,0c-0.1,0-0.2,0-0.2-0.1c0-0.1,0-0.2,0.1-0.3c0.2-0.1,0.3-0.2,0.5-0.3
					c0.4-0.3,0.6-0.7,0.6-1.2c0-0.3,0.1-0.6,0.1-0.9c0-0.2,0-0.4,0-0.6c0-0.2,0-0.4,0-0.5c0-1.3,0-2.6,0-3.9c0-0.2,0-0.3-0.1-0.5
					c0-0.2-0.2-0.2-0.3-0.3c0,0,0,0,0,0c-0.1,0-0.2-0.1-0.2-0.2c0-0.1,0.1-0.2,0.3-0.2C82.5,27.7,82.7,27.7,82.9,27.8z M85.7,32.2
					C85.7,32.2,85.7,32.2,85.7,32.2c-0.2,0-0.4,0-0.5,0c-0.2,0-0.2,0-0.2,0.2c0,0.3,0,0.7,0,1c0,0.4,0.1,0.7,0.1,1.1
					c0,0.2,0.2,0.4,0.4,0.4c0.2,0,0.4,0,0.5-0.2c0.2-0.3,0.3-0.7,0.4-1c0.1-0.4,0.1-0.9,0-1.3c0-0.1,0-0.1-0.2-0.1
					C86.1,32.2,85.9,32.2,85.7,32.2z M85,30.3c0.3,0,0.5,0,0.8,0c0.1,0,0.1,0,0.2-0.1c0.1-0.1,0.2-0.3,0.3-0.5
					c0.2-0.4,0-0.8-0.2-1.2c-0.1-0.1-0.2-0.2-0.3-0.2c-0.1,0-0.2,0-0.3,0c-0.3,0-0.5,0.2-0.5,0.6c0,0.3,0,0.6,0,0.9
					C85,30,85,30.1,85,30.3z M85,31.7c0.4,0,0.9,0,1.3,0c0-0.1,0-0.1,0-0.1c-0.1-0.2-0.2-0.4-0.3-0.5c0,0-0.1-0.1-0.1-0.1
					c-0.2-0.1-0.4-0.2-0.7-0.1c-0.1,0-0.3,0.1-0.3,0.2C84.9,31.3,85,31.5,85,31.7z"/>
				<path class="st2" d="M89.7,41.4c0,0.2-0.1,0.3-0.1,0.5c0,0.2,0,0.3,0.2,0.3c0.1,0,0.1,0.2,0.1,0.2c0,0.1-0.1,0.1-0.2,0.1
					c-0.1,0-0.2,0-0.3,0c-0.1,0-0.2,0-0.3,0c-0.1,0-0.2,0-0.3-0.1c-0.1,0-0.2,0-0.4,0c-0.2,0-0.4,0-0.7,0c-0.2,0-0.2-0.1-0.2-0.2
					c0-0.1,0-0.2,0.1-0.2c0.2-0.1,0.3-0.2,0.3-0.4c0-0.5,0-1,0-1.5c0-0.1,0-0.1,0-0.2c-0.1,0.1-0.1,0.1-0.1,0.1
					c-0.2,0.4-0.3,0.8-0.5,1.2c-0.1,0.2-0.1,0.3-0.3,0.3c-0.1-0.2-0.2-0.5-0.4-0.7c-0.1-0.2-0.2-0.5-0.4-0.7c0,0.1,0,0.2,0,0.3
					c0,0.4,0,0.8,0,1.1c0,0.1,0,0.2,0.1,0.2c0,0.1,0.1,0.2,0.2,0.2c0.1,0,0.2,0.1,0.2,0.2c0,0.1,0,0.2-0.2,0.2c-0.3,0-0.6,0-0.9,0
					c0,0-0.1,0-0.1,0c0-0.2,0-0.2,0.1-0.3c0.1-0.1,0.2-0.1,0.2-0.2c0-0.7,0-1.5,0-2.2c0-0.2,0-0.3-0.2-0.4c0,0-0.1-0.1-0.1-0.1
					c-0.1-0.1,0-0.2,0.1-0.2c0,0,0,0,0,0c0.3,0,0.5,0,0.8,0.1c0.1,0,0.1,0,0.2,0.1c0.2,0.4,0.4,0.8,0.6,1.2c0,0,0.1,0.1,0.1,0.1
					c0.1-0.2,0.2-0.4,0.3-0.6c0.1-0.2,0.2-0.5,0.3-0.7c0,0,0.1-0.1,0.1-0.1c0.1,0,0.2,0,0.2,0c0.2,0,0.4,0,0.6,0
					c0.2,0,0.2,0.1,0.1,0.3c-0.1,0.1-0.1,0.1-0.2,0.2c-0.2,0.2-0.2,0.5-0.2,0.8c0,0.3,0,0.6,0,1c0,0.2,0,0.4,0,0.6
					c0,0.2,0.1,0.3,0.2,0.4c0.2,0.2,0.3,0.1,0.5-0.1c0.1-0.1,0.1-0.2,0.1-0.3c0.1-0.6,0.3-1.1,0.4-1.7c0.1-0.3,0.1-0.5,0.2-0.8
					c0-0.1,0-0.1,0.1-0.1c0.1,0,0.2,0,0.3,0c0,0.1,0.1,0.2,0.1,0.3c0.3,0.8,0.5,1.6,0.8,2.4c0,0.2,0.1,0.3,0.1,0.5
					c0,0.1,0.1,0.3,0.2,0.4c0.1,0,0.1,0.3,0.1,0.4c0,0-0.1,0.1-0.2,0.1c-0.1,0-0.1,0-0.2-0.1c-0.3-0.1-0.5-0.2-0.8-0.2
					c-0.1,0-0.2,0-0.2-0.1c0-0.1,0-0.2,0.1-0.3c0.3-0.2,0.3-0.2,0.2-0.5c0-0.1-0.1-0.2-0.1-0.3c0,0,0-0.1-0.1-0.1
					C90.3,41.4,89.9,41.4,89.7,41.4z M90.1,40.3c-0.1,0.1-0.2,0.4-0.2,0.6c0.2,0,0.2,0,0.4,0C90.2,40.7,90.2,40.5,90.1,40.3z"/>
				<path class="st2" d="M85.3,24.3c-0.2,0.1-0.4,0.3-0.5,0.4c-0.1,0.1-0.3,0.2-0.4,0.3c-0.1,0-0.1,0.1-0.2,0c-0.1-0.1,0-0.1,0-0.2
					c0.1-0.2,0.3-0.4,0.4-0.6c0.1-0.1,0.1-0.2,0.2-0.3c-0.1,0-0.1-0.1-0.2-0.1c-0.3-0.1-0.5-0.1-0.8-0.2c-0.1,0-0.2,0-0.3-0.2
					c0-0.1,0.1-0.1,0.2-0.2c0.3-0.1,0.6-0.1,0.9-0.2c0,0,0.1,0,0.1,0c-0.1-0.1-0.1-0.2-0.2-0.3c-0.1-0.2-0.3-0.4-0.4-0.6
					c-0.1-0.1-0.1-0.2,0-0.2c0-0.1,0.2-0.1,0.3,0c0.2,0.1,0.5,0.3,0.7,0.5c0.1,0,0.1,0.1,0.2,0.1c0-0.1,0.1-0.2,0.1-0.2
					c0.1-0.3,0.1-0.5,0.1-0.8c0,0,0-0.1,0-0.1c0,0,0.1-0.1,0.2-0.1c0.1,0,0.1,0.1,0.1,0.1c0.1,0.3,0.1,0.6,0.2,0.9
					c0,0.1,0,0.2,0.1,0.2c0.1-0.1,0.2-0.1,0.3-0.2c0.2-0.1,0.4-0.3,0.6-0.4c0,0,0,0,0.1,0c0.1,0,0.1,0,0.2,0c0.1,0.1,0,0.1,0,0.2
					c-0.1,0.2-0.2,0.3-0.3,0.5c-0.1,0.1-0.2,0.3-0.3,0.4c0.2,0,0.3,0.1,0.5,0.1c0.2,0.1,0.5,0.1,0.7,0.2c0.1,0,0.1,0,0.1,0.1
					c0,0.1,0,0.1-0.1,0.1c-0.1,0-0.2,0.1-0.2,0.1c-0.2,0-0.4,0.1-0.7,0.1c-0.1,0-0.2,0-0.2,0.2c0.2,0.2,0.3,0.5,0.5,0.7
					c0,0.1,0.1,0.1,0.1,0.2c0,0,0,0.1,0,0.2c0,0-0.1,0-0.2,0c-0.2-0.1-0.3-0.2-0.4-0.3c-0.1-0.1-0.3-0.2-0.4-0.3
					c-0.1-0.1-0.2,0-0.2,0.1c0,0.2-0.1,0.4-0.1,0.7c0,0.1,0,0.2-0.1,0.3c0,0.1-0.1,0.2-0.2,0.2c-0.1,0-0.1-0.1-0.1-0.2
					c0-0.2-0.1-0.5-0.1-0.7C85.4,24.6,85.4,24.5,85.3,24.3z M86.1,23.4c0-0.2-0.2-0.4-0.4-0.4c-0.2,0-0.4,0.2-0.4,0.4
					c0,0.2,0.1,0.4,0.4,0.4C86,23.8,86.1,23.6,86.1,23.4z"/>
				<path class="st2" d="M81.7,41c0.1,0.1,0.1,0.2,0.2,0.2c0.2,0.2,0.3,0.4,0.5,0.6c0.1,0.1,0.1,0.2,0.2,0.3c0,0,0.1,0.1,0.2,0.1
					c0.1,0.1,0.2,0.1,0.1,0.2c0,0.1-0.1,0.1-0.2,0.1c-0.2,0-0.5,0.1-0.7,0.1c0,0-0.1,0-0.2,0c-0.1,0-0.2-0.1-0.1-0.2
					c0.1-0.2,0-0.3-0.1-0.4c-0.2-0.3-0.4-0.6-0.6-0.8c0,0,0-0.1-0.1-0.1c-0.1-0.1-0.2-0.1-0.2,0.1c0,0.1,0,0.2,0,0.3
					c0,0.2,0,0.4-0.1,0.5c0,0.2,0,0.3,0.2,0.4c0.1,0,0.1,0.1,0.1,0.2c0,0.1-0.1,0.1-0.2,0.1c-0.3,0-0.5,0.1-0.8,0.2
					c-0.2,0.1-0.3,0.1-0.3,0c-0.1-0.1,0-0.2,0.1-0.3c0.2-0.1,0.2-0.3,0.3-0.5c0.1-0.3,0-0.6,0.1-0.8c0-0.3,0.1-0.5,0.1-0.8
					c0-0.2,0-0.5,0.1-0.7c0-0.1,0-0.3-0.2-0.4c-0.1-0.1-0.1-0.3,0.1-0.4c0.1,0,0.2,0,0.3-0.1c0.2,0,0.4,0,0.6,0c0.1,0,0.3,0,0.4,0
					c0.2,0,0.4,0,0.6,0.1c0.2,0.1,0.3,0.3,0.3,0.5c0,0.3,0,0.5-0.1,0.7c-0.1,0.1-0.1,0.2-0.2,0.3C81.9,40.8,81.8,40.9,81.7,41z
					 M80.8,40.7c0.3,0.1,0.3,0.1,0.5,0c0.1,0,0.2-0.1,0.3-0.2c0.3-0.3,0.2-0.5,0.1-0.8c0-0.1-0.1-0.1-0.2-0.1c-0.1,0-0.2,0-0.4,0
					c-0.1,0-0.1,0.1-0.2,0.2c0,0.1,0,0.2,0,0.3C80.8,40.3,80.8,40.5,80.8,40.7z"/>
				<path class="st2" d="M85.3,40.3c0,0.3,0,0.6-0.1,0.9c-0.1,0.4-0.4,0.8-0.7,1c-0.4,0.2-0.8,0.2-1.2-0.1c-0.3-0.3-0.4-0.6-0.5-1
					c-0.1-0.2-0.1-0.5,0-0.7c0-0.2,0-0.3,0.1-0.5c0.1-0.3,0.2-0.6,0.4-0.8c0.2-0.3,0.5-0.5,0.9-0.5c0.1,0,0.2,0,0.3,0
					c0.4,0.1,0.7,0.4,0.8,0.8C85.3,39.7,85.3,40,85.3,40.3z M84.7,40.4c0-0.3-0.1-0.6-0.1-0.9c0-0.1-0.1-0.2-0.2-0.3
					c-0.1-0.2-0.3-0.2-0.5,0c-0.3,0.2-0.4,0.6-0.5,0.9c0,0.1,0,0.1,0,0.2c-0.1,0.2-0.1,0.5,0,0.7c0,0.3,0.1,0.5,0.3,0.8
					c0.2,0.2,0.4,0.3,0.6,0c0.1-0.1,0.2-0.3,0.3-0.5C84.6,41.1,84.6,40.7,84.7,40.4z"/>
			</g>
		</g>
		<g>
			<path class="st0" d="M103.3,26.8c0-0.2,0-0.4-0.1-0.6c0-0.2,0-0.4-0.1-0.7l0-0.1c-0.1-0.5-0.1-1-0.2-1.6
				c-0.1-0.7-0.3-1.4-0.5-2.3c-0.2-0.7-0.4-1.4-0.6-2.1c-0.1-0.2-0.1-0.3-0.2-0.5c-0.1-0.3-0.2-0.5-0.3-0.8
				c-0.1-0.2-0.2-0.4-0.3-0.6l-0.1-0.2c-0.1-0.2-0.2-0.4-0.3-0.6c-0.1-0.2-0.2-0.4-0.3-0.6c-0.2-0.3-0.3-0.6-0.5-0.9
				c-0.2-0.3-0.3-0.6-0.5-0.9l-0.1-0.1c-0.2-0.3-0.3-0.5-0.5-0.8l-0.1-0.2c-0.3-0.4-0.6-0.9-0.9-1.3c-0.1-0.1-0.2-0.2-0.3-0.3
				c-0.2-0.3-0.5-0.6-0.7-0.8c-0.2-0.2-0.4-0.4-0.5-0.5c-0.1-0.1-0.3-0.3-0.4-0.4c-0.2-0.2-0.5-0.5-0.8-0.7L95,9
				c-0.3-0.3-0.7-0.5-1-0.8c-0.3-0.2-0.6-0.4-0.9-0.6l-0.4-0.2c-0.1-0.1-0.3-0.2-0.4-0.2c-0.4-0.2-0.8-0.4-1.3-0.6
				c-0.6-0.3-1.2-0.5-1.9-0.7c-0.6-0.2-1.1-0.3-1.6-0.3c-0.1,0-0.2,0-0.3,0c-0.1,0-0.3,0-0.4,0c-0.4,0-0.7,0-1.1,0
				c-0.5,0-0.9,0-1.4,0.1c-0.4,0-0.7,0.1-1.1,0.2l-0.1,0c-0.6,0.1-1.3,0.3-2,0.5c-0.5,0.2-1.1,0.4-1.6,0.7c-0.4,0.2-0.7,0.4-1.1,0.6
				c-0.3,0.2-0.6,0.4-1,0.7c-0.2,0.2-0.5,0.4-0.8,0.6C76.5,9,76.2,9.2,76,9.5l-0.1,0.1c-0.2,0.2-0.4,0.3-0.5,0.5
				c-0.1,0.1-0.2,0.2-0.4,0.4c-0.2,0.2-0.3,0.3-0.5,0.5c-0.1,0.1-0.2,0.2-0.3,0.3c-0.1,0.1-0.2,0.2-0.3,0.3l-0.1,0.2
				c-0.3,0.4-0.6,0.8-0.9,1.2l-0.2,0.3c-0.2,0.2-0.3,0.5-0.5,0.7c-0.2,0.3-0.4,0.6-0.5,0.9c-0.2,0.3-0.4,0.7-0.5,1L71,16
				c0,0.1-0.1,0.1-0.1,0.2c0,0.1-0.1,0.1-0.1,0.2c-0.2,0.5-0.5,1-0.7,1.6c-0.3,0.7-0.5,1.4-0.7,2.1c-0.2,0.8-0.4,1.4-0.6,2.1
				c-0.1,0.5-0.2,0.9-0.3,1.4l0,0.1c-0.1,0.3-0.1,0.6-0.2,0.9c-0.1,0.4-0.1,0.8-0.2,1.2c0,0.3,0,0.5-0.1,0.8l0,0.3
				c0,0.2,0,0.5,0,0.7c0,0.2,0,0.5,0,0.7c0,0.1,0,0.3,0,0.4l0,0.4c0,0.2,0,0.4,0,0.6l0,0.2c0,0.3,0,0.5,0,0.8c0,0.6,0.1,1.2,0.1,1.7
				c0.1,0.7,0.2,1.4,0.2,2c0.1,0.4,0.1,0.8,0.2,1.2l0,0.1c0.1,0.3,0.1,0.6,0.2,0.8l0.1,0.3c0.1,0.6,0.3,1.1,0.5,1.7
				c0.2,0.7,0.4,1.3,0.7,1.9c0.2,0.4,0.3,0.8,0.5,1.2c0.1,0.1,0.1,0.2,0.2,0.4c0.2,0.4,0.3,0.7,0.6,1.1c0.1,0.2,0.2,0.4,0.3,0.5
				c0.1,0.2,0.2,0.4,0.4,0.6c0.5,0.8,0.9,1.4,1.3,1.9c0.1,0.1,0.1,0.2,0.2,0.3c0.1,0.2,0.3,0.4,0.4,0.5c0.2,0.2,0.4,0.5,0.7,0.8
				c0.3,0.3,0.6,0.6,1,1l0.1,0.1c0.4,0.3,0.7,0.7,1.1,1c0.4,0.3,0.9,0.6,1.3,0.9c0.4,0.3,0.8,0.5,1.2,0.7c0.2,0.1,0.5,0.3,0.8,0.4
				c0.4,0.1,0.7,0.3,1.1,0.4c0.6,0.2,1.2,0.4,1.7,0.5c0.3,0.1,0.6,0.1,0.9,0.1l0.3,0c0.1,0,0.3,0,0.4,0c0.2,0,0.4,0,0.6,0l0.5,0
				c0.1,0,0.2,0,0.3,0c0.1,0,0.2,0,0.3,0c0.1,0,0.3,0,0.4,0c0.1,0,0.2,0,0.3,0c0.6,0,1.2-0.2,1.7-0.3c0.6-0.2,1.3-0.4,2-0.7
				c0.5-0.2,0.9-0.4,1.4-0.7c0.5-0.3,0.9-0.5,1.4-0.8c0.1,0,0.1-0.1,0.2-0.1c0.1,0,0.1-0.1,0.2-0.1l0.1-0.1c0.2-0.1,0.4-0.3,0.6-0.4
				c0.2-0.2,0.5-0.4,0.7-0.6l0.3-0.3c0.1-0.1,0.1-0.1,0.2-0.2c0.2-0.1,0.3-0.3,0.5-0.4c0.2-0.2,0.3-0.3,0.4-0.5l0.1-0.1
				c0.1-0.1,0.2-0.3,0.4-0.4c0.1-0.2,0.3-0.3,0.5-0.5c0.4-0.4,0.7-0.9,1-1.4l0.1-0.1c0.2-0.3,0.5-0.7,0.7-1l0.2-0.3
				c0,0,0.1-0.1,0.1-0.2l0.1-0.3c0.1-0.2,0.2-0.4,0.3-0.6c0.2-0.4,0.4-0.7,0.5-1.1c0.2-0.3,0.3-0.7,0.4-1l0.1-0.2
				c0.1-0.3,0.2-0.5,0.3-0.8c0.2-0.7,0.5-1.5,0.7-2.4c0.1-0.3,0.2-0.7,0.2-1c0-0.2,0.1-0.3,0.1-0.5c0.2-0.8,0.3-1.6,0.4-2.6
				c0.1-0.6,0.1-1.2,0.2-1.7c0-0.4,0.1-0.9,0.1-1.3c0-0.2,0-0.4,0-0.6C103.4,28.5,103.4,27.7,103.3,26.8z M102.7,30.8
				c0,0,0,0.1,0,0.1c0,0.2,0,0.5-0.1,0.7l-0.1,0.5c-0.1,0.5-0.1,1.1-0.2,1.6c0,0.3-0.1,0.7-0.2,1l-0.1,0.3c-0.1,0.4-0.2,0.9-0.3,1.4
				c-0.1,0.5-0.3,1-0.4,1.6c-0.1,0.4-0.3,0.9-0.4,1.4c-0.1,0.3-0.2,0.6-0.3,0.8l0,0.1c-0.2,0.4-0.4,0.9-0.6,1.3
				c-0.1,0.2-0.2,0.4-0.3,0.7c-0.1,0.2-0.2,0.4-0.3,0.5c-0.3,0.5-0.6,1-0.9,1.5c-0.1,0.1-0.2,0.3-0.3,0.4c-0.3,0.5-0.7,1-1.1,1.5
				c-0.1,0.1-0.2,0.3-0.4,0.4c-0.2,0.2-0.4,0.4-0.5,0.6c-0.2,0.3-0.5,0.5-0.7,0.7c-0.1,0.1-0.2,0.2-0.4,0.3
				c-0.1,0.1-0.3,0.2-0.4,0.3c-0.3,0.3-0.7,0.5-1,0.8l0,0c-0.5,0.3-1,0.6-1.4,0.9c-0.6,0.3-1.1,0.6-1.5,0.8
				c-0.4,0.2-0.9,0.3-1.3,0.5c-0.6,0.2-1.3,0.4-2.1,0.5c-0.2,0-0.4,0-0.6,0.1l-0.2,0c-0.2,0-0.5,0-0.7,0l-0.2,0h-0.3
				c-0.8,0-1.6-0.1-2.2-0.2c-0.5-0.1-0.9-0.2-1.3-0.3l-0.1,0c-0.3-0.1-0.6-0.2-0.9-0.4c-0.4-0.2-0.9-0.4-1.3-0.7l-0.1-0.1
				c-0.5-0.3-1-0.6-1.5-0.9c-0.3-0.2-0.6-0.5-0.9-0.7c-0.4-0.3-0.7-0.6-1-0.9c-0.2-0.2-0.4-0.4-0.6-0.6l-0.1-0.1
				c-0.2-0.2-0.5-0.5-0.7-0.7c-0.1-0.1-0.1-0.2-0.2-0.3c-0.1-0.1-0.2-0.2-0.3-0.3c-0.3-0.3-0.5-0.6-0.7-0.9l-0.1-0.1
				c-0.4-0.5-0.7-1.1-1.1-1.6c-0.3-0.4-0.5-0.9-0.8-1.5c-0.3-0.7-0.6-1.4-0.9-2.1c-0.1-0.2-0.2-0.5-0.3-0.7l0-0.1
				c-0.1-0.3-0.2-0.7-0.3-1l0-0.1c-0.2-0.6-0.3-1.2-0.5-1.8c0-0.2-0.1-0.4-0.1-0.6c-0.1-0.5-0.2-1-0.3-1.5c-0.1-0.7-0.2-1.4-0.3-2
				c-0.1-0.6-0.1-1.1-0.1-1.7c0-0.1,0-0.2,0-0.3c0-0.2,0-0.4,0-0.6c0-0.1,0-0.2,0-0.3c0-0.1,0-0.1,0-0.2c0-0.2,0-0.3,0-0.5
				c0-0.2,0-0.3,0-0.5c0-0.2,0-0.4,0-0.6l0-0.3c0-0.3,0-0.6,0.1-0.8c0.1-0.9,0.3-1.7,0.4-2.7c0.1-0.8,0.3-1.6,0.5-2.3
				c0.2-0.7,0.4-1.3,0.6-1.8c0.2-0.5,0.4-1.1,0.7-1.7c0.2-0.4,0.4-0.8,0.5-1.1c0.3-0.5,0.5-1,0.8-1.4c0.2-0.4,0.5-0.8,0.7-1.1
				c0.3-0.4,0.5-0.8,0.8-1.1c0.2-0.2,0.4-0.5,0.6-0.7l0.2-0.2c0.3-0.3,0.5-0.6,0.8-0.9c0.3-0.3,0.6-0.5,0.8-0.8l0.2-0.1
				c0.3-0.3,0.6-0.6,0.9-0.8c0.3-0.2,0.5-0.4,0.8-0.6l0.3-0.2c0.3-0.2,0.7-0.5,1.1-0.7C80,7.4,80.5,7.2,81,7l0.8-0.3
				c0.6-0.2,1-0.3,1.5-0.4c0.4-0.1,0.9-0.2,1.4-0.2c0.4,0,0.8,0,1.2,0c0,0,0,0,0,0c0.5,0,1,0.1,1.5,0.1l0.1,0c0.7,0.1,1.3,0.2,2,0.5
				c0.6,0.2,1.4,0.5,2.1,0.9c0.3,0.2,0.6,0.4,0.9,0.5l0.3,0.2c0.2,0.1,0.3,0.2,0.5,0.3l0.1,0.1C93.6,8.7,93.8,8.9,94,9
				c0.4,0.3,0.7,0.6,1.1,0.8l0.2,0.1c0,0,0.1,0.1,0.1,0.1c0,0,0.1,0.1,0.1,0.1c0.1,0.1,0.2,0.2,0.3,0.3c0.2,0.2,0.4,0.4,0.6,0.6
				c0.2,0.3,0.5,0.5,0.7,0.7c0.3,0.4,0.6,0.7,0.8,1c0.1,0.2,0.3,0.4,0.4,0.6l0.1,0.1c0.1,0.2,0.3,0.4,0.4,0.6
				c0.2,0.2,0.3,0.5,0.5,0.7c0.4,0.6,0.7,1.2,1,1.8l0.2,0.4c0.3,0.5,0.5,1.1,0.7,1.7c0.2,0.5,0.3,0.9,0.5,1.4l0.1,0.2
				c0.1,0.4,0.2,0.8,0.4,1.3c0,0.2,0.1,0.3,0.1,0.5l0.1,0.5c0.1,0.3,0.1,0.5,0.2,0.8c0,0.2,0.1,0.3,0.1,0.5l0.1,0.5
				c0,0.2,0.1,0.4,0.1,0.6c0.1,0.4,0.1,0.8,0.1,1.2c0,0.3,0.1,0.6,0.1,0.9c0,0.3,0,0.6,0,0.9c0,0.3,0,0.6,0,0.9c0,0.3,0,0.6,0,0.9
				c0,0.3,0,0.6,0,0.8C102.7,30.6,102.7,30.7,102.7,30.8z"/>
			<path class="st0" d="M86.8,7.2c0.3,0,0.7,0.1,1,0.1c0.2,0,0.5,0.1,0.8,0.2c0.6,0.2,1.3,0.4,2.1,0.8c0.3,0.2,0.7,0.3,1,0.5
				l0.2,0.1c0.2,0.1,0.5,0.3,0.7,0.4c0.7,0.5,1.4,1.1,2.1,1.6c0.2,0.2,0.4,0.4,0.6,0.6c0.1,0.1,0.3,0.3,0.4,0.4
				c0.1,0.1,0.1,0.2,0.2,0.2c0,0,0.1,0.1,0.1,0.1c0,0,0.1,0.1,0.1,0.1c0.2,0.3,0.5,0.6,0.7,0.9l0.1,0.1c0.2,0.2,0.4,0.5,0.5,0.7
				c0.3,0.4,0.5,0.8,0.8,1.2l0,0c0.1,0.2,0.3,0.5,0.4,0.7c0.1,0.2,0.2,0.4,0.3,0.5c0.1,0.1,0.1,0.2,0.2,0.3c0.1,0.2,0.2,0.5,0.3,0.7
				l0.1,0.3c0.1,0.2,0.1,0.3,0.2,0.5c0.1,0.4,0.1,0.8,0,1.1c0,0.1-0.1,0.3-0.2,0.4c-0.2,0.2-0.4,0.3-0.6,0.3c-0.3,0-0.5-0.1-0.6-0.3
				c-0.1-0.2-0.1-0.5,0.1-0.7c0.1-0.1,0.2-0.1,0.3-0.1c0.1,0.1,0.2,0.1,0.2,0.2c0,0,0,0.1,0,0.1l0,0.1l0.1,0c0.2,0,0.3,0,0.4-0.1
				c0.1-0.1,0.1-0.2,0.1-0.3c0-0.4-0.4-0.8-0.8-0.8c0,0,0,0,0,0c-0.4,0-0.8,0.3-0.9,0.6c-0.1,0.4,0,0.8,0.2,1.1
				c0.2,0.2,0.4,0.4,0.6,0.5c0.2,0.1,0.4,0,0.6,0l0.1,0c0.4,0,0.7-0.2,0.9-0.5c0.2-0.3,0.3-0.6,0.3-1.1c0-0.1,0-0.2,0-0.5
				c0-0.3-0.2-0.5-0.3-0.7l0-0.1c-0.2-0.5-0.5-1-0.7-1.5l-0.1-0.2c-0.1-0.2-0.2-0.4-0.3-0.6c-0.1-0.1-0.2-0.3-0.3-0.4
				c-0.3-0.5-0.7-1.1-1-1.6c-0.1-0.1-0.2-0.3-0.3-0.4c-0.1-0.2-0.3-0.4-0.4-0.5c-0.3-0.3-0.6-0.7-1-1.1c-0.4-0.4-0.9-0.8-1.4-1.2
				c-0.4-0.3-0.8-0.6-1.1-0.9l-0.1-0.1c-0.3-0.2-0.5-0.4-0.8-0.6c-0.3-0.2-0.6-0.3-0.9-0.5c-0.3-0.1-0.6-0.3-0.9-0.4
				c-0.4-0.2-0.9-0.4-1.4-0.5C89,7.1,88.7,7,88.3,7l-0.1,0c-0.6-0.1-1.1-0.2-1.7-0.2c-0.1,0-0.2,0-0.2,0c-0.1,0-0.1,0-0.2,0
				c-0.2,0-0.3,0-0.5,0c-0.1,0-0.3,0-0.4,0c-0.3,0-0.7,0-1,0.1c-0.2,0-0.4,0.1-0.5,0.1C83.3,7,83,7,82.7,7.1
				c-0.4,0.1-0.9,0.3-1.4,0.5c-0.6,0.3-1.2,0.5-1.7,0.8l-0.2,0.1c-0.2,0.1-0.5,0.3-0.7,0.4c-0.3,0.2-0.6,0.4-0.8,0.6l-0.1,0.1
				c-0.2,0.1-0.3,0.3-0.5,0.4c-0.1,0.1-0.2,0.2-0.3,0.3c-0.1,0.1-0.2,0.2-0.3,0.2c-0.1,0.1-0.2,0.1-0.2,0.2
				c-0.1,0.1-0.3,0.2-0.4,0.4c-0.3,0.3-0.6,0.6-0.9,0.9c-0.1,0.1-0.2,0.2-0.3,0.3c-0.1,0.1-0.2,0.2-0.2,0.3c-0.3,0.3-0.5,0.7-0.7,1
				c-0.1,0.1-0.2,0.2-0.2,0.4c-0.2,0.2-0.3,0.5-0.5,0.8c-0.1,0.2-0.3,0.5-0.4,0.7c-0.2,0.3-0.4,0.6-0.5,0.9c0,0.1-0.1,0.2-0.1,0.3
				c-0.3,0.7-0.5,1.2-0.6,1.7c-0.1,0.3-0.1,0.6-0.1,1c0,0.3,0.1,0.6,0.3,0.8c0,0,0,0,0,0c0,0,0.1,0.1,0.1,0.1c0,0,0,0,0.1,0.1
				c0.1,0.1,0.2,0.1,0.2,0.2c0,0,0.1,0,0.1,0c0.1,0,0.2,0.1,0.3,0.1c0.1,0,0.1,0,0.2,0c0,0,0,0,0.1,0c0.1,0,0.2,0,0.3,0l0,0
				c0.1-0.1,0.2-0.1,0.3-0.2c0.1-0.1,0.3-0.2,0.4-0.4c0.2-0.3,0.1-0.6,0.1-0.9l0,0c0-0.5-0.4-0.8-0.8-0.8c-0.3,0-0.5,0.1-0.7,0.3
				c-0.2,0.2-0.2,0.5-0.2,0.8c0,0.1,0.1,0.2,0.2,0.2c0.1,0,0.2,0,0.3-0.1c0.1-0.1,0.1-0.2,0-0.3c0-0.1,0-0.1,0.1-0.2
				c0.1-0.1,0.1-0.1,0.2,0c0,0,0.1,0,0.1,0.1c0.1,0.1,0.2,0.3,0.2,0.5c0,0.2-0.2,0.4-0.4,0.5c-0.3,0.1-0.6,0.1-0.8-0.1
				c-0.2-0.2-0.4-0.5-0.3-0.8l0,0c0.1-0.4,0.1-0.9,0.3-1.3c0-0.1,0.1-0.1,0.1-0.2c0-0.1,0-0.2,0.1-0.2c0.3-0.5,0.5-1.1,0.8-1.6
				c0-0.1,0.1-0.2,0.2-0.3c0-0.1,0.1-0.1,0.1-0.2c0.1-0.1,0.1-0.2,0.2-0.3c0.1-0.2,0.2-0.4,0.3-0.5c0.2-0.4,0.5-0.8,0.8-1.2
				c0.3-0.4,0.6-0.8,0.9-1.2c0.1-0.2,0.3-0.3,0.4-0.5c0.3-0.3,0.5-0.5,0.8-0.8c0.2-0.2,0.4-0.4,0.6-0.5l0.2-0.1
				c0.2-0.2,0.4-0.3,0.6-0.5c0.3-0.2,0.7-0.5,1-0.7l0.2-0.1c0.2-0.1,0.4-0.3,0.7-0.4c0.5-0.3,1-0.5,1.5-0.7c0.8-0.3,1.5-0.5,2.2-0.6
				c0.3,0,0.6-0.1,0.9-0.1l0.2,0c0.2,0,0.4,0,0.6-0.1c0.1,0,0.3,0,0.4,0l0.3,0C86.3,7.2,86.6,7.2,86.8,7.2z"/>
			<path class="st0" d="M84.8,48.3c-0.4-0.3-0.9-0.3-1.3,0c-0.4,0.3-0.6,0.7-0.5,1.2c0.1,0.4,0.3,0.5,0.6,0.5c0.2,0,0.4-0.1,0.5-0.3
				c0.1-0.3,0.1-0.5,0-0.7c-0.1-0.1-0.2-0.2-0.4-0.1c-0.1,0-0.1,0.1-0.1,0.1c0-0.1,0.1-0.2,0.2-0.3c0.2-0.1,0.4-0.1,0.6,0
				c0.2,0.1,0.5,0.6,0.3,1l0,0.1c-0.1,0.2-0.1,0.3-0.3,0.4l-0.1,0c-0.2,0.1-0.3,0.1-0.5,0.2c-0.4,0.1-0.7,0.1-1.1,0.1l-0.1,0
				c-0.3,0-0.5-0.1-0.8-0.1c-0.4-0.1-0.8-0.3-1.1-0.5l-0.2-0.1c-0.3-0.1-0.5-0.2-0.7-0.3c-0.2-0.1-0.4-0.3-0.6-0.4
				c-0.2-0.1-0.3-0.2-0.5-0.3c-0.4-0.3-0.9-0.6-1.4-1.1c-0.2-0.1-0.3-0.3-0.5-0.4l-0.2-0.1c-0.1,0-0.1-0.1-0.2-0.1
				c-0.1-0.1-0.3-0.2-0.4-0.4c-0.1-0.1-0.2-0.2-0.2-0.3c0-0.1-0.1-0.1-0.1-0.2c-0.1-0.1-0.2-0.3-0.3-0.4c-0.2-0.3-0.5-0.5-0.7-0.8
				c-0.4-0.5-0.7-1-1-1.4l0,0c-0.3-0.5-0.6-1-0.9-1.5c-0.1-0.2-0.2-0.3-0.2-0.5c-0.1-0.2-0.2-0.4-0.3-0.6c-0.3-0.6-0.5-1-0.6-1.4
				c-0.2-0.4-0.3-0.8-0.4-1.2C71.1,38,71,37.8,71,37.5L70.8,37c-0.1-0.3-0.2-0.6-0.2-0.9c-0.1-0.5-0.2-1.1-0.3-1.7
				C70.2,34,70.1,33.6,70,33c0-0.4-0.1-0.8-0.1-1.2c0-0.5-0.1-1-0.1-1.5c0-0.2,0-0.4,0-0.6l0-0.3c0-0.2,0-0.3,0-0.5
				c0-0.4,0-0.7,0.1-1.1l0-0.3c0-0.1,0-0.3,0-0.4c0-0.1,0-0.1,0-0.2c0-0.1,0-0.2,0-0.3c0-0.1,0-0.1,0-0.2c0-0.1,0-0.1,0-0.2
				c0-0.1,0-0.2,0-0.3c0-0.1,0-0.2,0-0.3c0-0.5,0.1-1.1,0.3-1.7c0.1-0.4,0.2-0.9,0.4-1.3c0.1-0.3,0.3-0.5,0.6-0.8
				c0.3-0.2,0.6-0.2,0.9,0c0.1,0.1,0.2,0.2,0.2,0.3c0.1,0.4-0.1,0.7-0.3,0.8C72.1,23,72,23,71.9,23c-0.1,0-0.2-0.1-0.2-0.2
				c0-0.1,0-0.1,0-0.2c0.1-0.1,0.2-0.3,0.1-0.4c-0.1-0.1-0.3-0.1-0.4-0.1c0,0,0,0-0.1,0c-0.1,0.1-0.2,0.2-0.2,0.4c0,0.1,0,0.1,0,0.2
				c0,0,0,0.1,0,0.1c0,0.3,0.1,0.5,0.4,0.7c0.3,0.2,0.8,0.2,1.1-0.1c0.1-0.1,0.2-0.3,0.3-0.4c0.1-0.2,0.1-0.5,0-0.8
				c0-0.1-0.1-0.3-0.2-0.4c-0.2-0.3-0.5-0.4-0.8-0.5c-0.2,0-0.4,0-0.6,0.1c-0.2,0.1-0.4,0.3-0.6,0.5c-0.1,0.1-0.2,0.3-0.3,0.4
				c-0.2,0.4-0.3,0.7-0.4,1c-0.1,0.5-0.2,0.9-0.3,1.4c0,0.2-0.1,0.5-0.1,0.7l0,0.2c0,0.2,0,0.3,0,0.5c0,0.5-0.1,0.9-0.1,1.4
				c0,0.6,0,1.3,0,1.9c0,0.4,0,0.8,0,1.1l0,0.3c0,0.2,0,0.4,0,0.7c0,0.2,0,0.3,0,0.5c0,0.1,0,0.3,0,0.4c0,0.1,0,0.2,0,0.3
				c0,0.1,0,0.3,0,0.5c0,0.1,0,0.3,0.1,0.4c0,0.2,0.1,0.3,0.1,0.5c0.1,0.7,0.2,1.5,0.4,2.1c0.2,0.8,0.4,1.5,0.6,2.2
				c0.2,0.6,0.3,1.1,0.5,1.5c0.2,0.4,0.4,0.8,0.5,1.2c0.1,0.2,0.2,0.3,0.2,0.5c0,0,0,0.1,0.1,0.1c0,0,0,0.1,0,0.1
				c0.3,0.6,0.5,1,0.8,1.4c0.1,0.2,0.2,0.3,0.3,0.5c0.2,0.3,0.3,0.5,0.5,0.8c0.2,0.3,0.5,0.6,0.7,0.9l0,0.1c0.1,0.2,0.3,0.3,0.4,0.5
				l0.2,0.2c0.2,0.3,0.4,0.5,0.7,0.8c0.2,0.2,0.3,0.3,0.5,0.5l0.1,0.1c0.2,0.2,0.5,0.4,0.7,0.7l0.1,0.1c0.2,0.2,0.4,0.3,0.6,0.5
				c0.3,0.2,0.8,0.5,1.2,0.8c0.4,0.3,0.8,0.5,1.2,0.7c0.4,0.2,0.8,0.4,1.3,0.5c0.3,0.1,0.5,0.2,0.8,0.2c0.3,0,0.5,0,0.8,0
				c0,0,0,0,0.1,0c0.5,0,0.9-0.1,1.4-0.3c0.2-0.1,0.4-0.2,0.5-0.4c0.3-0.4,0.4-0.8,0.3-1.3C85.2,48.7,85,48.4,84.8,48.3z"/>
			<path class="st0" d="M101.9,25.8c-0.1-0.6-0.2-1.3-0.3-1.9c-0.1-0.4-0.1-0.7-0.2-1.1l-0.1-0.4c0-0.1,0-0.1-0.1-0.2
				c-0.2-0.3-0.4-0.5-0.6-0.7c-0.3-0.2-0.6-0.3-0.9-0.3c-0.1,0-0.1,0-0.2,0c0,0-0.1,0-0.1,0c-0.5,0.1-0.8,0.4-0.9,0.9
				c-0.1,0.5,0,0.9,0.3,1.2c0.2,0.2,0.7,0.3,1,0.2c0.5-0.3,0.6-0.7,0.4-1.2c0-0.1-0.1-0.1-0.1-0.2c-0.1-0.1-0.2-0.1-0.3-0.1
				c-0.1,0-0.2,0-0.2,0.1c0,0.1-0.1,0.2,0.1,0.4l0,0l0,0.1c0,0.1,0,0.2-0.1,0.3c-0.1,0.1-0.2,0.1-0.3,0.1c-0.2-0.1-0.4-0.2-0.4-0.5
				c0-0.1,0-0.2,0-0.3c0.1-0.2,0.3-0.3,0.4-0.4c0.2-0.1,0.3-0.1,0.4-0.1c0.4,0,0.6,0.2,0.9,0.6c0.2,0.2,0.2,0.5,0.3,0.7
				c0,0.2,0.1,0.4,0.1,0.6c0.1,0.2,0.1,0.5,0.1,0.7c0.1,0.5,0.1,1,0.2,1.5l0,0.3c0,0.3,0.1,0.5,0.1,0.8c0,0.1,0,0.2,0,0.3
				c0,0.2,0,0.4,0,0.7c0,0.2,0,0.4,0,0.5c0,0.1,0,0.1,0,0.2c0,0.1,0,0.1,0,0.2c0,0.1,0,0.2,0,0.3c0,0.1,0,0.2,0,0.4
				c0,0.1,0,0.2,0,0.4c0,0.2,0,0.4,0,0.5c0,0.3,0,0.5,0,0.8c0,0.2,0,0.4-0.1,0.5c0,0.2,0,0.4-0.1,0.6c0,0.4-0.1,0.8-0.1,1.2
				c0,0.2-0.1,0.4-0.1,0.6c0,0.3-0.1,0.6-0.2,0.9c0,0.1,0,0.2-0.1,0.3l0,0.2c-0.1,0.4-0.2,0.7-0.2,1.1c-0.1,0.3-0.2,0.7-0.3,1
				l-0.1,0.4c0,0.1,0,0.1-0.1,0.2l-0.2,0.5c-0.2,0.4-0.3,0.9-0.5,1.3c-0.1,0.4-0.3,0.7-0.5,1.1c-0.1,0.2-0.3,0.5-0.4,0.7l-0.1,0.2
				c-0.2,0.4-0.5,0.8-0.7,1.2c-0.1,0.2-0.3,0.5-0.4,0.7L97.4,44c-0.2,0.3-0.4,0.5-0.6,0.8c-0.4,0.5-0.8,1-1.1,1.4
				c-0.2,0.3-0.4,0.5-0.6,0.7c-0.3,0.3-0.6,0.6-1,0.8l-0.1,0.1c-0.4,0.4-0.9,0.7-1.4,1.1c-0.4,0.3-0.8,0.5-1.2,0.7
				c-0.3,0.2-0.7,0.3-1,0.5l-0.1,0c-0.1,0.1-0.3,0.1-0.4,0.1c-0.2,0-0.3,0.1-0.5,0.1c-0.1,0-0.2,0-0.3,0.1c-0.3,0.1-0.7,0.1-1.1,0.1
				c-0.3,0-0.6-0.1-0.9-0.2c-0.3-0.1-0.4-0.2-0.6-0.5c-0.2-0.4,0.1-0.9,0.3-1c0.1-0.1,0.2-0.1,0.3-0.1c0.1,0,0.3,0.1,0.4,0.2
				c0,0,0,0.1,0.1,0.1c0,0,0,0-0.1-0.1c-0.1-0.1-0.3-0.1-0.4,0.1c-0.2,0.2-0.2,0.5,0,0.7c0.2,0.2,0.4,0.3,0.6,0.2
				c0.2-0.1,0.5-0.2,0.5-0.6c0-0.1,0-0.2,0-0.4c-0.1-0.3-0.2-0.5-0.4-0.7c-0.1-0.1-0.3-0.2-0.5-0.2c-0.5-0.1-0.8,0.1-1.1,0.4
				c-0.2,0.3-0.3,0.7-0.3,1.2c0,0,0,0,0,0.1c0,0.1,0,0.2,0.1,0.2c0.2,0.4,0.5,0.7,0.9,0.8l0.1,0c0.1,0,0.2,0.1,0.3,0.1
				c0.3,0.1,0.5,0.1,0.9,0.1c0.1,0,0.2,0,0.4,0c0.4-0.1,0.8-0.2,1.2-0.2c0.1,0,0.3-0.1,0.4-0.1c0.1-0.1,0.3-0.1,0.4-0.2
				c0.1-0.1,0.3-0.1,0.4-0.2c0.6-0.2,1.1-0.6,1.5-0.8c0.3-0.2,0.5-0.4,0.8-0.6c0.4-0.3,0.9-0.7,1.3-1c0.1-0.1,0.2-0.2,0.2-0.2
				c0.1-0.1,0.2-0.2,0.3-0.3c0.3-0.2,0.5-0.4,0.7-0.7c0.1-0.1,0.2-0.2,0.3-0.3c0.2-0.2,0.3-0.4,0.5-0.5c0.1-0.1,0.1-0.2,0.2-0.2
				c0.1-0.1,0.1-0.1,0.2-0.2c0.1-0.1,0.2-0.3,0.4-0.4c0.2-0.2,0.3-0.4,0.5-0.7l0.1-0.1c0.1-0.1,0.2-0.3,0.3-0.4
				c0.1-0.2,0.2-0.4,0.3-0.5l0.1-0.1c0.1-0.1,0.2-0.3,0.2-0.4c0.2-0.3,0.4-0.7,0.6-1c0.3-0.5,0.5-1,0.7-1.6c0.2-0.5,0.4-1.1,0.7-1.8
				c0.1-0.3,0.2-0.7,0.3-1l0-0.1c0.1-0.4,0.2-0.8,0.3-1.2c0.1-0.5,0.2-0.9,0.3-1.3c0-0.1,0-0.3,0.1-0.4c0-0.1,0-0.1,0-0.2l0-0.3
				c0-0.2,0.1-0.4,0.1-0.7c0-0.2,0-0.3,0-0.5c0-0.1,0-0.2,0-0.3c0-0.1,0-0.2,0-0.4c0-0.2,0.1-0.5,0.1-0.7c0-0.4,0-0.8,0-1.2v-0.1
				c0-0.8,0-1.6,0-2.4C102.1,26.7,102,26.2,101.9,25.8z M99.9,22.5C99.9,22.5,99.9,22.5,99.9,22.5L99.9,22.5L99.9,22.5L99.9,22.5z"
				/>
		</g>
		<g>
			<path class="st2" d="M74.1,33.1c0-0.1,0-0.1,0-0.2c0-0.2,0.1-0.4,0.2-0.6c0.2-0.2,0.4-0.3,0.7-0.4c0,0,0.1,0,0.1,0c0,0,0,0,0,0
				c0-0.1,0-0.1-0.1-0.2c-0.1-0.2-0.1-0.4,0-0.7c0.1-0.2,0.2-0.4,0.4-0.6c0.1-0.1,0.1-0.1,0.1-0.2c0-0.4,0.2-0.7,0.5-0.9
				c0.1-0.1,0.2-0.1,0.3-0.1C76.6,29,76.8,29,77,29c0.1,0,0.1,0.1,0.1,0.2c0,0.1,0,0.1-0.1,0.2c-0.2,0.2-0.2,0.5-0.3,0.8
				c-0.2,0.6,0,1.1,0.2,1.6c0.2,0.3,0.4,0.6,0.7,0.9c0.4,0.3,0.5,0.8,0.4,1.3c0,0.1,0,0.2-0.1,0.3c0.2,0,0.3,0.1,0.5,0.1
				c0.3,0.1,0.6,0.3,0.7,0.6c0.2,0.3,0.3,0.6,0.3,0.9c0,0.1,0,0.1,0.1,0.2c0.1-0.1,0.1-0.2,0.1-0.3c0.1-0.4,0.2-0.8,0.2-1.2
				c0.1-0.5,0.2-0.9,0.2-1.4c0.1-0.4,0.2-0.9,0.3-1.3c0.1-0.4,0.2-0.9,0.3-1.3c0-0.1,0-0.2,0.1-0.2c0.1-0.3,0.1-0.7,0-1
				c-0.1-0.3-0.2-0.5-0.4-0.8c0,0-0.1-0.1-0.1-0.1c-0.2,0.1-0.5,0.1-0.7,0.1c-0.2,0-0.4-0.2-0.5-0.4c0-0.1-0.1-0.3-0.1-0.4
				c0,0,0,0-0.1,0c-0.2,0.1-0.4,0.1-0.6,0.1c-0.2,0-0.4-0.1-0.6-0.2c-0.2-0.2-0.4-0.3-0.7-0.4c-0.3-0.1-0.7-0.2-1-0.1
				c-0.4,0.1-0.7,0.2-1,0.4c0,0-0.1,0-0.1,0.1c-0.1,0.1-0.2,0-0.2-0.1c0-0.4,0.1-0.8,0.3-1.1c0.1-0.1,0.3-0.2,0.4-0.3
				c0.1-0.1,0.1-0.1,0.1-0.3c0-0.6,0.6-1,1-0.9c0,0,0.1,0,0.1,0c0-0.2,0-0.3,0.1-0.5c0.1-0.3,0.2-0.6,0.4-0.9c0.2-0.4,0.6-0.6,1-0.8
				c0.1-0.1,0.3-0.1,0.5-0.1c0.1,0,0.2,0.1,0.1,0.2c-0.1,0.2-0.2,0.3-0.2,0.5c-0.2,0.6-0.2,1.1,0,1.7c0.1,0.2,0.2,0.4,0.3,0.6
				c0.1,0.1,0.2,0.2,0.3,0.4c0.2,0.2,0.4,0.5,0.3,0.8c0,0.1,0,0.2,0,0.2c0.1,0,0.1,0,0.1,0c0.4-0.1,0.8,0.1,1,0.5
				c0.1,0.2,0.2,0.4,0.3,0.6c0.1,0.1,0.1,0.3,0.1,0.5c0,0.1,0,0.1,0,0.2c0,0,0,0,0,0c0-0.1,0.1-0.1,0.1-0.2c0.1-0.4,0.2-0.8,0.3-1.3
				c0.1-0.6,0.3-1.1,0.4-1.7c0.1-0.4,0.2-0.9,0.3-1.3c0.1-0.2,0.1-0.4,0.2-0.6c0.1-0.3,0-0.5-0.1-0.7c0-0.1-0.1-0.2-0.2-0.4
				c0-0.1-0.1-0.1-0.2-0.1c-0.2,0-0.4,0-0.5-0.1c-0.1,0-0.1-0.1-0.2-0.1c-0.1-0.1-0.2-0.2-0.3-0.3c-0.1-0.2-0.1-0.4-0.1-0.6
				c0,0,0-0.1,0-0.2c-0.1,0-0.1,0-0.2,0c-0.3,0-0.6-0.1-0.8-0.3c-0.2-0.2-0.4-0.4-0.6-0.5c-0.2-0.1-0.3-0.2-0.5-0.2
				c-0.4-0.1-0.7-0.1-1.1,0.1c-0.2,0.1-0.4,0.2-0.5,0.3c0,0-0.1,0.1-0.1,0.1c-0.1,0.1-0.2,0-0.2-0.1c0-0.4,0.1-0.8,0.4-1.2
				c0.1-0.2,0.3-0.3,0.5-0.4c0.1,0,0.2-0.1,0.2-0.2c0-0.1,0.1-0.2,0.3-0.3c0.4-0.2,0.8-0.2,1.2-0.1c0,0,0.1,0,0.1,0
				c0-0.1,0-0.1,0-0.2c0-0.1,0-0.2-0.1-0.3c-0.1-0.4,0-0.8,0.4-0.9c0.1,0,0.1-0.1,0.2-0.1c0.1,0,0.2-0.1,0.2-0.2
				c0.1-0.5,0.5-0.6,0.9-0.7c0.1,0,0.2,0,0.3,0.2c-0.1,0.1-0.1,0.2-0.2,0.3c-0.2,0.3-0.3,0.7-0.3,1.1c0,0.3,0.1,0.6,0.2,0.9
				c0.2,0.3,0.3,0.7,0.4,1c0.1,0.3,0.1,0.6,0,0.9c0,0,0,0.1,0,0.2c0,0,0.1,0,0.1,0c0.4,0,0.6,0.2,0.7,0.5c0.2,0.4,0.4,0.8,0.4,1.2
				c0,0,0,0.1,0,0.1c0.1-0.1,0.2-0.2,0.2-0.3c0.2-0.3,0.3-0.7,0.5-1c0.2-0.4,0.5-0.8,0.8-1.1c0.2-0.2,0.3-0.4,0.5-0.6
				c0.2-0.1,0.2-0.3,0.2-0.5c0-0.4,0-0.7,0-1.1c0-0.1,0-0.1,0-0.2c-0.1,0-0.2-0.1-0.3-0.1c-0.2,0-0.4-0.2-0.6-0.3
				c-0.2-0.2-0.2-0.7,0-0.8c0.2-0.1,0.3-0.2,0.5-0.3c0.1,0,0.2-0.1,0.3-0.1c0,0-0.1-0.1-0.1-0.1c-0.2-0.2-0.5-0.4-0.6-0.7
				c-0.1-0.2-0.1-0.4-0.1-0.6c-0.1-0.6-0.4-1-0.8-1.3c-0.5-0.3-1-0.4-1.5-0.3c-0.1,0-0.1,0-0.2,0c-0.1,0-0.2-0.1-0.1-0.2
				c0.1-0.1,0.2-0.2,0.4-0.3c0.2-0.2,0.5-0.3,0.8-0.4c0,0,0.1,0,0.1-0.1c0.2-0.2,0.5-0.2,0.7-0.3c0.2,0,0.2,0,0.2-0.2
				c0-0.3,0.2-0.5,0.4-0.8c0.1-0.1,0.1-0.1,0.2-0.2c0.1-0.1,0.2-0.2,0.3-0.4c0-0.1,0.1-0.2,0.1-0.4c0.1-0.3,0.5-0.5,0.9-0.5
				c0.1,0,0.3,0.1,0.4,0.2c0.4,0.3,0.6,0.7,0.5,1.2c0,0.1,0,0.2,0.2,0.3c0.3,0.1,0.5,0.4,0.6,0.7c0,0.1,0,0.2,0.1,0.3
				c0.1,0,0.1,0,0.2,0c0.3-0.1,0.6-0.1,0.9,0c0.4,0.1,0.6,0.4,0.8,0.7c0.1,0.1,0,0.2-0.1,0.2c-0.1,0-0.3,0-0.4,0.1
				c-0.4,0.1-0.8,0.3-1.1,0.6c-0.4,0.4-0.6,0.9-0.6,1.4c0,0.4-0.2,0.7-0.5,0.9c-0.1,0.1-0.2,0.1-0.3,0.2c0.1,0.1,0.2,0.1,0.4,0.2
				c0.2,0.1,0.3,0.2,0.4,0.3c0.2,0.3,0.1,0.6-0.2,0.8c-0.2,0.1-0.4,0.2-0.6,0.3c-0.2,0-0.2,0.1-0.2,0.3c0,0.4,0,0.8,0,1.1
				c0,0.1,0,0.1,0,0.2c0,0.2,0,0.3,0.2,0.4c0,0,0.1,0,0.1,0.1c0.5,0.6,1,1.2,1.4,1.9c0.1,0.2,0.3,0.5,0.4,0.7c0,0.1,0.1,0.1,0.1,0.2
				c0-0.1,0.1-0.1,0.1-0.1c0-0.1,0.1-0.2,0.1-0.3c0.1-0.3,0.2-0.5,0.4-0.7c0.2-0.2,0.4-0.4,0.7-0.4c0,0,0,0,0.1,0c0,0,0,0,0,0
				c0-0.1-0.1-0.2-0.1-0.4c0-0.2,0-0.4,0.1-0.6c0.1-0.3,0.2-0.5,0.3-0.8c0.2-0.4,0.3-0.8,0.3-1.2c0-0.4-0.1-0.7-0.3-1
				c0-0.1-0.1-0.1-0.1-0.2c0-0.1,0-0.2,0.1-0.2c0.3,0,0.5,0.1,0.7,0.3c0.1,0.1,0.3,0.3,0.4,0.5c0,0,0.1,0.1,0.1,0.1
				c0.2,0,0.4,0.1,0.5,0.3c0.1,0.2,0.2,0.4,0.1,0.7c0,0.1-0.1,0.2-0.1,0.3c0,0,0,0.1,0,0.1c0.1,0,0.1,0,0.2,0c0.4-0.1,0.7,0,1,0.1
				c0.1,0.1,0.3,0.2,0.3,0.3c0,0.1,0.1,0.1,0.1,0.2c0.3,0.1,0.5,0.3,0.7,0.5c0.1,0.2,0.2,0.4,0.3,0.6c0,0.1,0,0.3,0,0.4
				c0,0,0,0.1-0.1,0.1c0,0-0.1,0-0.1,0c-0.1,0-0.1-0.1-0.2-0.1c-0.4-0.4-0.9-0.5-1.4-0.4c-0.3,0-0.6,0.1-0.9,0.4
				c-0.1,0.1-0.2,0.2-0.2,0.3c-0.3,0.4-0.7,0.6-1.2,0.5c0,0,0,0,0,0c0,0.1,0,0.3-0.1,0.4c-0.1,0.4-0.4,0.6-0.8,0.5
				c-0.1,0-0.3-0.1-0.4-0.1c-0.1,0.1-0.2,0.3-0.2,0.5c-0.1,0.5,0,0.9,0.1,1.3c0.2,0.6,0.3,1.2,0.4,1.8c0.1,0.4,0.2,0.8,0.3,1.2
				c0.1,0.4,0.1,0.8,0.2,1.2c0,0.2,0,0.3,0.2,0.5c0.1-0.3,0.2-0.6,0.4-0.9c0.1-0.2,0.2-0.3,0.3-0.5c0.1-0.1,0.2-0.2,0.4-0.3
				c0.2,0,0.4-0.1,0.6-0.1c0,0,0,0,0-0.1c-0.1-0.5,0-1,0.4-1.3c0.3-0.2,0.5-0.5,0.6-0.8c0.2-0.4,0.3-0.9,0.2-1.3
				c0-0.3-0.2-0.6-0.3-0.9c-0.1-0.2,0-0.2,0.2-0.2c0.3,0,0.6,0.1,0.8,0.3c0.3,0.2,0.5,0.5,0.7,0.8c0.1,0.2,0.2,0.4,0.2,0.7
				c0,0.1,0,0.3,0,0.4c0,0,0,0,0,0c0.3,0,0.5,0.2,0.6,0.4c0.1,0.1,0.1,0.2,0.1,0.3c0,0,0,0.1,0,0.1c0,0.2,0.1,0.3,0.3,0.4
				c0.4,0.2,0.7,0.6,0.8,1.1c0,0.2,0,0.3,0,0.5c0,0.2-0.1,0.2-0.3,0.1c-0.1-0.1-0.3-0.2-0.4-0.3c-0.5-0.3-0.9-0.3-1.5-0.2
				c-0.3,0.1-0.5,0.2-0.8,0.3c-0.3,0.2-0.7,0.3-1,0.3c0,0-0.1,0-0.1,0c0,0,0,0-0.1,0c0.1,0.4,0,0.8-0.4,1c-0.4,0.2-0.7,0.1-1.1-0.2
				c0,0,0,0-0.1,0c-0.1,0.2-0.2,0.4-0.3,0.7c0,0.2-0.1,0.4-0.1,0.6c-0.1,0.3,0,0.6,0.1,0.9c0.1,0.4,0.1,0.8,0.2,1.3
				c0.1,0.3,0.1,0.7,0.2,1c0.1,0.5,0.2,1,0.3,1.5c0.1,0.4,0.2,0.9,0.2,1.3c0,0.1,0.1,0.2,0.1,0.3c0,0,0,0,0,0c0-0.1,0.1-0.2,0.1-0.3
				c0.2-0.6,0.5-0.9,1-1.2c0.1-0.1,0.3,0,0.5,0c0.1,0,0.1,0,0.2,0c0-0.1,0-0.1-0.1-0.1c-0.2-0.3-0.3-0.7-0.2-1.1
				c0.1-0.2,0.1-0.3,0.1-0.5c0.1-0.2,0.2-0.4,0.4-0.6c0.3-0.4,0.5-0.8,0.6-1.2c0.1-0.3,0.2-0.6,0.1-0.9c-0.1-0.3-0.2-0.6-0.2-0.9
				c0-0.2,0-0.2,0.2-0.2c0.1,0,0.3,0,0.4,0.1c0.7,0.2,1.1,0.7,1.2,1.4c0.1,0.3,0,0.5,0,0.8c0,0.3-0.1,0.5-0.2,0.7c0,0,0,0,0,0.1
				c0.1,0,0.1,0,0.2,0c0.2,0,0.4,0,0.6,0.1c0.3,0.1,0.5,0.4,0.5,0.7c0,0,0,0.1,0,0.1c0,0,0.1,0,0.1,0.1c0.2,0.1,0.3,0.2,0.5,0.3
				c0.2,0.2,0.3,0.4,0.4,0.7c0.1,0.2,0.1,0.5,0,0.7c-0.1,0.2-0.2,0.2-0.3,0.1c-0.2-0.2-0.3-0.3-0.5-0.4c-0.4-0.2-0.9-0.3-1.4-0.1
				c-0.3,0.1-0.5,0.3-0.7,0.4c-0.4,0.3-0.8,0.3-1.3,0.2c0,0,0,0-0.1,0c0,0.1,0,0.1,0.1,0.2c0.2,0.4,0,0.8-0.2,1
				c-0.3,0.2-0.7,0.2-0.9-0.2c0,0,0-0.1,0-0.1c-0.1,0-0.1,0-0.2,0.1c-0.2,0.2-0.4,0.5-0.5,0.8C92,36.7,92,37,91.9,37.3
				c0,0.3,0,0.5,0.1,0.8c0.1,0.4,0.2,0.9,0.2,1.3c0.1,0.6,0.2,1.2,0.3,1.8c0.1,0.4,0.1,0.7,0.1,1.1c0.1,0.6,0.2,1.2,0.3,1.8
				c0,0.2,0,0.3,0,0.5c0,0.2-0.2,0.4-0.4,0.4c-0.2,0-0.4,0-0.6,0.1c-0.2,0-0.4,0-0.6,0.1c-0.5,0.1-1,0.1-1.5,0.2c-0.1,0-0.3,0-0.5,0
				c-0.5,0-1,0.1-1.5,0.1c-0.5,0-0.9,0-1.4,0c-0.5,0-0.9,0-1.4,0c-0.2,0-0.3,0-0.5,0c-0.5,0-0.9,0-1.4-0.1c-0.6,0-1.1-0.1-1.7-0.1
				c-0.4,0-0.9-0.1-1.3-0.1c-0.5-0.1-1-0.1-1.5-0.2c-0.1,0-0.1,0-0.2,0c-0.1,0-0.2-0.1-0.2-0.3c0-0.1,0-0.2,0-0.2
				c0.1-0.5,0.1-1,0.2-1.6c0.1-0.6,0.2-1.2,0.3-1.8c0-0.3,0.1-0.6,0.1-0.9c0.1-0.4,0.1-0.8,0.2-1.2c0-0.2,0-0.3,0.1-0.5
				c0-0.4,0-0.8-0.1-1.3c0-0.2-0.1-0.5-0.1-0.7c0-0.2-0.1-0.3-0.2-0.5c-0.1,0-0.2,0.1-0.2,0.1c-0.3,0.1-0.6,0.1-0.9-0.1
				c-0.3-0.2-0.4-0.5-0.4-0.8c0-0.1,0-0.2,0-0.3c0,0-0.1,0-0.1,0c-0.3,0.1-0.6,0-0.9-0.2c-0.4-0.2-0.8-0.4-1.2-0.4
				c-0.3,0-0.6,0-0.9,0.1c-0.4,0.1-0.8,0.4-1.1,0.7c-0.1,0.1-0.2,0.1-0.3,0.1c-0.1-0.5,0-1,0.2-1.4C73.3,33.4,73.6,33.1,74.1,33.1z
				 M92.2,44.1c0-0.1,0-0.2,0-0.2c0-0.4-0.1-0.8-0.1-1.2c0-0.3-0.1-0.5-0.1-0.8c0-0.3-0.1-0.6-0.1-0.9c0-0.3-0.1-0.6-0.1-1
				c0-0.3-0.1-0.6-0.1-0.9c-0.1-0.7-0.2-1.3-0.3-2c-0.1-0.3-0.1-0.7-0.2-1c-0.1-0.3-0.1-0.6-0.2-0.9c-0.1-0.3-0.1-0.7-0.2-1
				c-0.1-0.3-0.1-0.6-0.2-0.9c0-0.3-0.1-0.5-0.2-0.8c-0.1-0.4-0.1-0.8-0.2-1.2c-0.1-0.6-0.2-1.3-0.4-1.9c0-0.2-0.1-0.3-0.1-0.5
				c0-0.2-0.1-0.4-0.1-0.6c-0.1-0.3-0.1-0.5-0.2-0.8c-0.1-0.4-0.1-0.8-0.2-1.2c-0.1-0.5-0.2-1-0.3-1.6c-0.1-0.5-0.3-1-0.5-1.5
				c-0.3-0.7-0.6-1.5-1-2.1c-0.2-0.3-0.3-0.5-0.5-0.7c-0.2-0.3-0.4-0.5-0.6-0.8c-0.1-0.1-0.2-0.2-0.3-0.3c-0.1-0.1-0.1-0.1-0.1-0.2
				c0-0.5,0-0.9,0-1.4c0-0.1,0-0.1,0-0.2c0-0.1,0-0.1-0.2-0.1c-0.1,0-0.1,0-0.2,0.1c0,0.2,0,0.3,0,0.5c0,0.3,0,0.7,0,1
				c0,0.1,0,0.2-0.2,0.3c-0.1,0-0.2,0.1-0.2,0.2c-0.3,0.4-0.6,0.8-0.9,1.2c-0.1,0.2-0.3,0.4-0.4,0.6c-0.1,0.1-0.2,0.3-0.3,0.5
				c-0.3,0.5-0.5,1-0.7,1.5c-0.2,0.5-0.4,1.1-0.5,1.6c-0.2,0.8-0.4,1.5-0.5,2.2c-0.2,0.9-0.4,1.7-0.6,2.6c-0.1,0.3-0.1,0.7-0.2,1
				c-0.1,0.4-0.1,0.8-0.2,1.1c-0.1,0.5-0.2,1-0.3,1.6c-0.1,0.3-0.1,0.7-0.2,1c-0.1,0.7-0.3,1.4-0.4,2c-0.1,0.4-0.2,0.9-0.2,1.3
				c-0.1,0.3-0.1,0.6-0.2,0.9c-0.1,0.5-0.2,1.1-0.3,1.6c-0.1,0.3-0.1,0.7-0.2,1c-0.1,0.5-0.1,1-0.2,1.5c-0.1,0.4-0.1,0.8-0.2,1.2
				c0,0.2,0,0.2,0.2,0.2c0.7-0.1,1.4-0.2,2.2-0.3c0.6-0.1,1.2-0.1,1.8-0.2c0.2,0,0.5,0,0.7,0c0.3,0,0.6-0.1,1-0.1c0.5,0,1.1,0,1.6,0
				c0.5,0,1.1,0,1.6,0c0.4,0,0.8,0,1.2,0c0.3,0,0.5,0,0.8,0.1c0.1,0,0.2,0,0.2,0c0.1,0,0.1,0,0.2,0c0.1,0,0.3,0,0.4,0.1
				c0.4,0.1,0.8,0.1,1.2,0.2C91.9,44.1,92,44.1,92.2,44.1z M89,12.4C89,12.3,89,12.3,89,12.4c-0.4-0.4-0.9-0.5-1.4-0.2
				c-0.2,0.1-0.4,0.2-0.6,0.1c0,0-0.1,0-0.1,0c-0.5,0.1-0.9,0.3-1.1,0.8c-0.1,0.1-0.1,0.2,0,0.3c0.1,0.1,0.1,0.3,0.2,0.4
				c0,0.3,0,0.6-0.2,0.8c-0.1,0.1-0.2,0.1-0.3,0c-0.1-0.1-0.1-0.2-0.1-0.4c-0.1-0.2,0-0.5,0-0.7c0.1-0.2,0-0.3-0.1-0.5
				c0,0-0.1-0.1-0.1-0.1c-0.2-0.2-0.4-0.4-0.6-0.5c-0.4-0.3-0.8-0.4-1.2-0.4c-0.4,0-0.8,0.2-1.2,0.4c-0.1,0.1-0.2,0.1-0.2,0.2
				c0.1,0,0.2,0.1,0.3,0.1c0.6,0,1,0.3,1.5,0.7c0.4,0.3,0.5,0.8,0.6,1.3c0,0.2,0.1,0.5,0.2,0.7c0.3,0.5,0.9,0.8,1.5,0.5
				c0.2-0.1,0.4-0.3,0.5-0.5c0.1-0.2,0.1-0.4,0.1-0.6c0-0.4,0.1-0.8,0.3-1.1c0.2-0.2,0.4-0.5,0.6-0.6c0.2-0.1,0.3-0.2,0.5-0.3
				C88.5,12.5,88.8,12.4,89,12.4z M94.5,29.1c0,0.1,0.1,0.3,0.1,0.4c0.1,0.3,0.1,0.5,0.1,0.8c0,0.1,0,0.2,0,0.3c0,0.1,0,0.2-0.1,0.3
				c-0.1,0.2-0.2,0.4-0.3,0.7c-0.1,0.3-0.3,0.6-0.5,0.8c-0.4,0.4-0.4,0.9-0.2,1.3c0.2,0.4,0.8,0.6,1.1,0.5c0.2-0.1,0.4-0.2,0.6-0.3
				c0.2-0.1,0.3-0.2,0.5-0.3c0.3-0.1,0.6-0.1,1,0c0.3,0.1,0.6,0.2,0.9,0.5c0.1,0.1,0.2,0.1,0.3,0.2c0-0.1,0-0.2,0-0.2
				c0-0.2-0.1-0.4-0.2-0.5c-0.2-0.3-0.4-0.5-0.7-0.6C96.9,33,96.9,33,97,32.8c0.1-0.2,0-0.4-0.2-0.5c-0.1,0-0.1,0-0.2-0.1
				c-0.4-0.1-0.8-0.1-1.2,0.2c-0.4,0.2-0.6,0.6-0.7,1c0,0.1,0,0.1-0.1,0.2c-0.1,0.1-0.2,0.2-0.4,0.1c-0.1,0-0.2-0.1-0.2-0.3
				c0-0.1,0-0.1,0.1-0.1c0.2-0.4,0.5-0.7,0.9-1c0.2-0.2,0.4-0.3,0.6-0.5c0.3-0.5,0.4-1.1,0.2-1.6c0-0.1-0.1-0.1-0.1-0.2
				c-0.2-0.4-0.5-0.6-0.8-0.8C94.8,29.1,94.7,29.1,94.5,29.1z M75.6,30.6c-0.2,0.2-0.3,0.4-0.3,0.7c0,0,0,0,0,0.1
				c0,0.3,0.2,0.6,0.5,0.7c0.2,0.1,0.4,0.3,0.5,0.4c0.3,0.3,0.5,0.6,0.7,1c0.1,0.2,0.1,0.3,0.1,0.5c0,0.1,0,0.3-0.1,0.3
				c-0.2,0.1-0.4,0-0.4-0.2c0-0.1,0-0.2-0.1-0.3c0-0.2-0.1-0.4-0.1-0.6c-0.1-0.2-0.1-0.4-0.3-0.5c-0.2-0.1-0.3-0.3-0.5-0.4
				c-0.1-0.1-0.3-0.2-0.5-0.2c-0.2,0-0.4,0-0.6,0.2c-0.2,0.2-0.4,0.4-0.3,0.7c0,0,0,0,0,0.1c0,0.2,0,0.2-0.2,0.3
				c-0.1,0-0.2,0.1-0.4,0.1c-0.4,0.2-0.6,0.4-0.8,0.8c-0.1,0.2-0.1,0.4-0.1,0.7c0.1-0.1,0.2-0.2,0.3-0.3c0.4-0.4,1-0.6,1.5-0.6
				c0.7-0.1,1.3,0.1,1.9,0.6c0.2,0.2,0.4,0.3,0.7,0.1c0.1,0,0.1-0.1,0.2-0.2c0.2-0.3,0.3-0.7,0.2-1.1c-0.1-0.3-0.2-0.5-0.4-0.7
				c-0.4-0.4-0.7-0.8-0.8-1.3c0-0.2-0.1-0.4-0.1-0.6c0-0.3,0-0.7,0.1-1c0.1-0.2,0.1-0.4,0.2-0.6c-0.3,0-0.5,0.1-0.7,0.2
				c-0.3,0.3-0.4,0.7-0.3,1.2C75.8,30.7,75.7,30.7,75.6,30.6z M94.7,24.7c0,0.1-0.1,0.2-0.1,0.2c0,0.1,0,0.1-0.1,0.2
				c-0.2,0.4-0.5,0.8-1,0.9c-0.1,0-0.1,0-0.2,0c-0.1-0.1,0-0.1,0-0.2c0.2-0.3,0.4-0.6,0.6-0.9c0.1-0.1,0.3-0.3,0.4-0.4
				c0,0,0.1-0.1,0.1-0.2c0-0.4-0.1-0.7-0.3-1c-0.2-0.4-0.5-0.6-0.9-0.8c-0.1,0-0.2-0.1-0.3-0.1c0.2,0.4,0.2,0.8,0.2,1.3
				c0,0.7-0.3,1.4-0.8,1.9c-0.4,0.4-0.4,0.6-0.2,1c0.1,0.2,0.3,0.4,0.6,0.4c0.2,0,0.4-0.1,0.6-0.2c0.2-0.1,0.3-0.2,0.5-0.3
				c0.3-0.1,0.6-0.2,1-0.2c0.4,0,0.8,0.1,1.2,0.2c0.1,0,0.1,0,0.2,0.1c-0.1-0.3-0.3-0.7-0.6-0.8c-0.2-0.1-0.3-0.2-0.3-0.4
				c0,0,0,0,0,0C95.4,25.1,95.2,24.8,94.7,24.7z M94.4,20.1c0,0,0-0.1,0-0.1c-0.2-0.3-0.4-0.5-0.8-0.7c-0.1,0-0.2-0.1-0.2-0.2
				c-0.1-0.2-0.2-0.3-0.3-0.3c-0.4-0.1-0.7-0.1-1.1,0c-0.1,0-0.1,0.1-0.2,0.2c-0.2,0.4-0.5,0.8-0.8,1.1c0,0.1-0.1,0.1-0.2,0.1
				c-0.1,0-0.1-0.1-0.1-0.2c0.1-0.5,0.3-0.8,0.7-1.1c0.1-0.1,0.3-0.2,0.3-0.3c0-0.2,0.1-0.4,0.1-0.6c0-0.3-0.1-0.5-0.4-0.6
				c-0.1,0-0.1,0-0.2-0.1c-0.1,0-0.1-0.1-0.1-0.1c-0.1-0.3-0.3-0.4-0.4-0.5c-0.1,0-0.1,0-0.2-0.1c0,0.1,0,0.1,0,0.1
				c0.1,0.3,0.2,0.7,0.2,1c0,0.5-0.1,1-0.4,1.5c-0.2,0.3-0.2,0.6-0.3,1c-0.1,0.3,0.1,0.7,0.4,0.8c0.4,0.2,0.9,0.1,1.1-0.3
				c0.2-0.2,0.3-0.4,0.5-0.5c0.4-0.2,0.7-0.4,1.2-0.4c0.3,0,0.6,0,0.9,0.1C94.2,20.1,94.3,20.1,94.4,20.1z M78.5,22.7
				c-0.4,0.1-0.8,0.3-1,0.6C77.2,23.6,77,24,77,24.5c0,0.2,0,0.3,0.2,0.4c0.3,0.2,0.5,0.4,0.8,0.6c0.3,0.3,0.5,0.6,0.7,0.9
				c0,0.1,0.1,0.1,0,0.2c-0.1,0.1-0.1,0-0.2,0c-0.1,0-0.1-0.1-0.2-0.1c-0.3-0.2-0.6-0.5-0.9-0.8c-0.2-0.2-0.3-0.4-0.4-0.7
				c-0.1-0.1-0.2-0.2-0.3-0.2c-0.2,0-0.3,0.1-0.4,0.2c-0.2,0.2-0.4,0.4-0.3,0.7c0,0.1,0,0.2-0.1,0.2c-0.2,0.1-0.3,0.2-0.4,0.3
				c-0.2,0.1-0.2,0.3-0.3,0.5c0,0,0.1,0,0.1,0c0,0,0,0,0.1,0c0.3-0.2,0.6-0.2,0.9-0.3c0.3,0,0.6,0,0.9,0.1c0.4,0.1,0.7,0.3,1,0.5
				c0.4,0.3,0.9,0.3,1.2-0.2c0.2-0.3,0.2-0.6,0-0.9c-0.3-0.3-0.5-0.6-0.6-1c-0.2-0.4-0.2-0.7-0.2-1.1c0-0.1,0-0.2,0-0.3
				c0-0.2,0.1-0.4,0.1-0.6C78.4,22.9,78.4,22.8,78.5,22.7z M77.2,19.8C77.2,19.8,77.2,19.8,77.2,19.8c0.1,0,0.2,0,0.2,0
				c0.1,0,0.3-0.1,0.4-0.1c0.2,0,0.4,0,0.7,0c0.3,0,0.7,0.1,0.9,0.3c0.2,0.1,0.4,0.3,0.5,0.5c0.2,0.3,0.5,0.4,0.9,0.4
				c0.2,0,0.4-0.1,0.6-0.3c0.1-0.2,0.2-0.5,0.1-0.8c-0.2-0.5-0.4-0.9-0.5-1.4c-0.1-0.3-0.1-0.6-0.1-0.9c0-0.3,0.1-0.7,0.3-1
				c0,0,0-0.1,0-0.1c0,0-0.1,0-0.1,0c-0.3,0.1-0.5,0.2-0.6,0.5c0,0.2-0.1,0.3-0.3,0.3c-0.1,0-0.1,0-0.2,0.1c0,0-0.1,0-0.1,0.1
				c-0.1,0.2-0.2,0.4-0.1,0.6c0,0.1,0.1,0.3,0.1,0.4c0,0.2,0.1,0.3,0.3,0.4c0.4,0.3,0.6,0.7,0.7,1.2c0,0.1,0,0.1-0.1,0.2
				c-0.1,0-0.1,0-0.2,0c-0.3-0.3-0.6-0.7-0.7-1.1c0-0.1-0.1-0.1-0.1-0.2c-0.4-0.2-0.8-0.2-1.2-0.1c-0.1,0.1-0.3,0.2-0.3,0.3
				c0,0.1-0.1,0.2-0.2,0.2C77.6,19.2,77.4,19.4,77.2,19.8z M85.7,12.9c0,0,0.1-0.1,0.1-0.1c0.2-0.3,0.4-0.5,0.7-0.6
				c0.2-0.1,0.4-0.1,0.6-0.1c0.2,0,0.2-0.1,0.2-0.2c0-0.4-0.2-0.6-0.5-0.8c0,0-0.1,0-0.1,0c0,0-0.1-0.1-0.1-0.2
				c0-0.1-0.1-0.2-0.1-0.4c0-0.4-0.2-0.7-0.5-0.9c-0.2-0.2-0.5-0.2-0.7,0c-0.1,0.1-0.2,0.3-0.2,0.4c0,0.3-0.2,0.5-0.4,0.6
				c-0.3,0.2-0.4,0.4-0.5,0.7c0,0.1,0,0.2,0.1,0.2c0.3,0.1,0.5,0.3,0.8,0.5c0.1,0.1,0.2,0.3,0.3,0.5C85.4,12.7,85.5,12.8,85.7,12.9z
				 M87.1,16.8c0-0.1,0-0.2-0.1-0.2c-0.2-0.2-0.5-0.3-0.8-0.4c-0.3-0.1-0.7,0-1,0c-0.3,0-0.5,0.1-0.7,0.3c-0.1,0.1-0.2,0.1-0.2,0.2
				C85,17.3,86.3,17.4,87.1,16.8z M79.4,37.3C79.4,37.3,79.4,37.3,79.4,37.3c0.1-0.1,0.1-0.2,0.1-0.4c0-0.3,0-0.6-0.1-0.9
				c-0.1-0.4-0.2-0.7-0.4-1c-0.2-0.3-0.4-0.5-0.8-0.5c-0.4,0-0.6,0.1-0.7,0.5c0,0.2,0,0.3,0.2,0.4c0.2,0.2,0.4,0.2,0.6,0.1
				c0.1-0.1,0.2,0,0.3,0c0.2,0.2,0.3,0.4,0.4,0.6c0.1,0.3,0.2,0.6,0.2,0.9C79.3,37.1,79.4,37.2,79.4,37.3z M82.7,22.5
				c0-0.1,0-0.1,0-0.2c-0.1-0.5-0.2-0.9-0.5-1.3c-0.1-0.2-0.3-0.2-0.5-0.2c-0.3,0-0.6,0.2-0.6,0.5c0,0.3,0.2,0.6,0.5,0.6
				c0.1,0,0.2,0,0.2,0c0.2-0.1,0.3,0,0.3,0.1C82.4,22.1,82.5,22.3,82.7,22.5z M80.9,28.8c0-0.1,0-0.1,0-0.1
				c-0.1-0.4-0.2-0.8-0.4-1.2c-0.1-0.1-0.2-0.3-0.4-0.3c-0.3-0.2-0.7,0-0.8,0.3c-0.1,0.3,0.2,0.7,0.5,0.6c0.1,0,0.2-0.1,0.3-0.2
				c0.1-0.1,0.2-0.1,0.3,0c0.1,0.2,0.2,0.4,0.4,0.6C80.8,28.6,80.8,28.7,80.9,28.8z M91.9,36.1c0.1-0.2,0.2-0.3,0.4-0.5
				c0.2-0.2,0.4-0.3,0.6-0.3c0.2-0.1,0.2-0.1,0.4,0.2c0,0,0,0,0,0c0.1,0.1,0.2,0.1,0.3,0.1c0.1,0,0.2-0.1,0.2-0.2
				c0.1-0.2,0-0.5-0.2-0.6c-0.2-0.2-0.4-0.2-0.7-0.1C92.4,34.9,92,35.4,91.9,36.1z M90.6,28.5c0-0.1,0.1-0.2,0.1-0.2
				c0.1-0.3,0.5-0.3,0.7-0.1c0,0,0.1,0.1,0.2,0.1c0.2,0,0.4-0.1,0.5-0.3c0.1-0.3,0.1-0.5-0.1-0.7c0,0-0.1-0.1-0.2-0.1
				c-0.2,0-0.4,0.1-0.6,0.1c-0.1,0.1-0.2,0.2-0.3,0.3C90.8,27.9,90.7,28.2,90.6,28.5z M88.9,22.2c0.2-0.3,0.4-0.5,0.6-0.7
				c0.1,0.1,0.2,0.2,0.2,0.3c0.1,0.1,0.1,0.1,0.2,0.1c0.3,0,0.4-0.3,0.3-0.5c-0.1-0.3-0.5-0.4-0.8-0.3c-0.2,0.1-0.3,0.3-0.4,0.5
				C89,21.8,88.9,22,88.9,22.2z M94.4,24.9c-0.2,0.2-0.4,0.4-0.6,0.8C94,25.6,94.3,25.2,94.4,24.9z M94.5,33.3
				c-0.1,0.2-0.1,0.2,0,0.2C94.5,33.4,94.5,33.4,94.5,33.3z"/>
			<path class="st2" d="M82.8,27.8c0.1-0.1,0.1-0.1,0.1-0.2c0.1-0.2,0.3-0.4,0.5-0.6c0.2-0.1,0.4-0.2,0.6-0.1
				c0.2,0.1,0.2,0.3,0.1,0.4c-0.3,0.2-0.4,0.5-0.6,0.8c0,0,0,0.1-0.1,0.1c-0.1,0.4-0.2,0.7-0.2,1.1c0,0.6,0,1.2,0,1.8
				c0,0.1,0,0.3,0,0.4c0,0.2,0.1,0.2,0.3,0.2c0.3,0,0.5,0,0.8,0c0-0.1,0-0.1,0-0.2c0-0.6,0-1.2,0-1.8c0-0.4,0-0.7,0-1.1
				c0-0.1-0.1-0.3-0.1-0.4c0-0.1,0-0.1,0-0.2c0-0.1,0-0.2,0.2-0.2c0.1,0,0.2,0,0.3,0c0.4,0,0.7,0,1.1,0c0.2,0,0.4,0.1,0.6,0.2
				c0.2,0.1,0.3,0.3,0.4,0.4c0,0,0.1,0.1,0.1,0.2c0.1,0.5,0.2,0.9,0,1.3c-0.1,0.3-0.3,0.4-0.6,0.6c0,0.1,0,0.2,0.1,0.2
				c0.2,0.2,0.4,0.5,0.6,0.8c0,0.1,0.1,0.1,0.2,0.1c0.2,0,0.4,0,0.6,0c0.1,0,0.2,0,0.2-0.2c0-0.1,0-0.2,0-0.3c0-0.5,0-1,0-1.5
				c0-0.3,0-0.6,0-0.9c0-0.2-0.1-0.5-0.1-0.7c-0.1-0.2-0.2-0.4-0.3-0.6c-0.1-0.1-0.1-0.2-0.3-0.1c-0.1,0-0.3,0-0.3-0.1
				c-0.1-0.1,0-0.3,0-0.4c0.1-0.1,0.2-0.2,0.3-0.1c0.2,0,0.3,0.1,0.4,0.2c0.3,0.2,0.5,0.4,0.7,0.6c0,0,0,0,0.1,0.1
				c0,0,0.1-0.1,0.1-0.1c0.1-0.1,0.3-0.1,0.5-0.1c0.2,0,0.2,0.1,0.1,0.2c0,0-0.1,0.1-0.1,0.1c-0.2,0.1-0.3,0.3-0.3,0.5
				c0,0.6,0,1.3,0,1.9c0,0.7,0,1.5,0,2.2c0,0.7,0,1.4,0,2c0,0.3,0.1,0.6,0.2,0.8c0.1,0.4,0.4,0.6,0.7,0.7c0.1,0,0.2,0,0.3,0.1
				c0.1,0,0.2,0,0.3,0.1c0.1,0,0.2,0.2,0.1,0.3c0,0.1-0.1,0.2-0.2,0.2c-0.4,0.1-0.8,0.1-1.1-0.1c-0.3-0.2-0.5-0.4-0.7-0.7
				C88.2,35.9,88.1,36,88,36c-0.2,0.1-0.4,0.3-0.6,0.4c-0.1,0.1-0.2,0-0.3,0c-0.1-0.1-0.1-0.2,0-0.3c0.2-0.1,0.3-0.3,0.4-0.5
				c0.2-0.3,0.3-0.6,0.3-0.9c0-0.5,0-1.1,0-1.6c0-0.2,0-0.5,0-0.7c0-0.2,0-0.2-0.2-0.2c-0.1,0-0.3,0-0.4,0c-0.1,0.1-0.1,0.1-0.1,0.2
				c0.1,0.5,0.1,1.1-0.1,1.6c-0.1,0.3-0.2,0.5-0.4,0.7c-0.2,0.2-0.4,0.5-0.6,0.6c-0.2,0.1-0.4,0.2-0.6,0.3c-0.3,0.1-0.6,0-1-0.1
				c0,0-0.1,0-0.1-0.1c-0.2-0.1-0.3-0.3-0.1-0.4c0.2-0.2,0.2-0.4,0.2-0.7c0-0.6,0-1.2,0-1.8c0,0,0-0.1,0-0.1c0-0.2,0-0.3-0.3-0.3
				c-0.1,0-0.3,0-0.4,0c-0.1,0-0.1,0-0.2,0c-0.2,0-0.3,0.2-0.3,0.3c0,0.4,0,0.9,0,1.3c0,0.3,0,0.5,0,0.8c0,0.5,0.2,0.9,0.5,1.3
				c0,0.1,0.1,0.1,0.1,0.2c0,0.1,0.1,0.2,0,0.2c-0.1,0.1-0.2,0.1-0.2,0.1c-0.1,0-0.1,0-0.2-0.1c-0.1-0.1-0.3-0.2-0.4-0.2
				c0,0-0.1,0-0.1-0.1c-0.2,0.2-0.3,0.3-0.5,0.4c-0.2,0.2-0.5,0.3-0.7,0.4c-0.1,0-0.1,0-0.2,0c-0.1,0-0.2,0-0.2-0.1
				c0-0.1,0-0.2,0.1-0.3c0.2-0.1,0.3-0.2,0.5-0.3c0.4-0.3,0.6-0.7,0.7-1.2c0-0.3,0.1-0.6,0.1-0.9c0-0.2,0-0.4,0-0.6
				c0-0.2,0-0.4,0-0.5c0-1.3,0-2.6,0-4c0-0.2,0-0.3-0.1-0.5c0-0.2-0.2-0.2-0.3-0.3c0,0,0,0,0,0c-0.1,0-0.2-0.1-0.2-0.2
				c0-0.1,0.1-0.2,0.3-0.2C82.5,27.7,82.6,27.7,82.8,27.8z M85.7,32.2C85.7,32.2,85.7,32.2,85.7,32.2c-0.2,0-0.4,0-0.5,0
				c-0.2,0-0.2,0-0.2,0.2c0,0.3,0,0.7,0,1c0,0.4,0.1,0.7,0.1,1.1c0,0.2,0.2,0.4,0.4,0.4c0.2,0,0.4,0,0.5-0.3c0.2-0.3,0.3-0.7,0.4-1
				c0.1-0.4,0.1-0.9,0-1.3c0-0.1,0-0.1-0.2-0.1C86.1,32.2,85.9,32.2,85.7,32.2z M84.9,30.3c0.3,0,0.5,0,0.8,0c0.1,0,0.1,0,0.2-0.1
				c0.1-0.1,0.2-0.3,0.3-0.5c0.2-0.4,0-0.8-0.2-1.2c-0.1-0.1-0.2-0.2-0.3-0.2c-0.1,0-0.2,0-0.3,0c-0.3,0-0.5,0.2-0.5,0.6
				c0,0.3,0,0.6,0,0.9C84.9,30,84.9,30.1,84.9,30.3z M84.9,31.7c0.4,0,0.9,0,1.3,0c0-0.1,0-0.1,0-0.1c-0.1-0.2-0.2-0.4-0.3-0.5
				c0,0-0.1-0.1-0.1-0.1c-0.2-0.1-0.4-0.2-0.7-0.1c-0.1,0-0.3,0.1-0.3,0.2C84.9,31.3,84.9,31.5,84.9,31.7z"/>
			<path class="st2" d="M89.7,41.4c0,0.2-0.1,0.3-0.1,0.5c0,0.2,0,0.3,0.2,0.3c0.1,0,0.1,0.2,0.1,0.2c0,0.1-0.1,0.1-0.2,0.1
				c-0.1,0-0.2,0-0.3,0c-0.1,0-0.2,0-0.3,0c-0.1,0-0.2,0-0.3-0.1c-0.1,0-0.2,0-0.4,0c-0.2,0-0.4,0-0.7,0c-0.2,0-0.2-0.1-0.2-0.2
				c0-0.1,0-0.2,0.1-0.2c0.2-0.1,0.3-0.2,0.3-0.4c0-0.5,0-1,0-1.5c0-0.1,0-0.1,0-0.2c-0.1,0.1-0.1,0.1-0.1,0.1
				c-0.2,0.4-0.3,0.8-0.5,1.2c-0.1,0.2-0.1,0.3-0.3,0.3c-0.1-0.2-0.2-0.5-0.4-0.7c-0.1-0.2-0.2-0.5-0.4-0.7c0,0.1,0,0.2,0,0.3
				c0,0.4,0,0.8,0,1.1c0,0.1,0,0.2,0.1,0.2c0,0.1,0.1,0.2,0.2,0.2c0.1,0,0.2,0.1,0.2,0.2c0,0.1,0,0.2-0.2,0.2c-0.3,0-0.6,0-0.9,0
				c0,0-0.1,0-0.1,0c0-0.2,0-0.2,0.1-0.3c0.1-0.1,0.2-0.1,0.2-0.2c0-0.8,0-1.5,0-2.3c0-0.2,0-0.3-0.2-0.4c0,0-0.1-0.1-0.1-0.1
				c-0.1-0.1,0-0.2,0.1-0.2c0,0,0,0,0,0c0.3,0,0.5,0,0.8,0.1c0.1,0,0.1,0,0.2,0.1c0.2,0.4,0.4,0.8,0.6,1.2c0,0,0.1,0.1,0.1,0.1
				c0.1-0.2,0.2-0.4,0.3-0.6c0.1-0.2,0.2-0.5,0.3-0.7c0,0,0.1-0.1,0.1-0.1c0.1,0,0.2,0,0.2,0c0.2,0,0.4,0,0.6,0
				c0.2,0,0.2,0.1,0.1,0.3c-0.1,0.1-0.1,0.1-0.2,0.2c-0.2,0.2-0.2,0.5-0.2,0.8c0,0.3,0,0.6,0,1c0,0.2,0,0.4,0,0.6
				c0,0.2,0.1,0.3,0.2,0.4c0.2,0.2,0.3,0.1,0.5-0.1c0.1-0.1,0.1-0.2,0.1-0.3c0.1-0.6,0.3-1.2,0.4-1.7c0.1-0.3,0.1-0.5,0.2-0.8
				c0-0.1,0.1-0.1,0.1-0.1c0.1,0,0.2,0,0.3,0c0,0.1,0.1,0.2,0.1,0.3c0.3,0.8,0.5,1.6,0.8,2.4c0,0.2,0.1,0.3,0.1,0.5
				c0,0.1,0.1,0.3,0.2,0.4c0.1,0,0.1,0.3,0.1,0.4c0,0-0.1,0.1-0.2,0.1c-0.1,0-0.1,0-0.2-0.1c-0.3-0.1-0.5-0.2-0.8-0.2
				c-0.1,0-0.2,0-0.2-0.1c0-0.1,0-0.2,0.1-0.3c0.3-0.2,0.3-0.2,0.2-0.5c0-0.1-0.1-0.2-0.1-0.3c0,0,0-0.1-0.1-0.1
				C90.3,41.4,89.9,41.4,89.7,41.4z M90.1,40.4c-0.1,0.1-0.2,0.4-0.2,0.6c0.2,0,0.2,0,0.4,0C90.2,40.8,90.2,40.6,90.1,40.4z"/>
			<path class="st2" d="M85.3,24.3c-0.2,0.1-0.4,0.3-0.5,0.4c-0.1,0.1-0.3,0.2-0.5,0.3c-0.1,0-0.1,0.1-0.2,0c-0.1-0.1,0-0.1,0-0.2
				c0.1-0.2,0.3-0.4,0.4-0.6c0.1-0.1,0.1-0.2,0.2-0.3c-0.1,0-0.1-0.1-0.2-0.1c-0.3-0.1-0.5-0.1-0.8-0.2c-0.1,0-0.2,0-0.3-0.2
				c0-0.1,0.1-0.1,0.2-0.2c0.3-0.1,0.6-0.1,0.9-0.2c0,0,0.1,0,0.1,0c-0.1-0.1-0.1-0.2-0.2-0.3c-0.1-0.2-0.3-0.4-0.4-0.6
				c-0.1-0.1-0.1-0.2,0-0.2c0-0.1,0.2-0.1,0.3,0c0.2,0.1,0.5,0.3,0.7,0.5c0.1,0,0.1,0.1,0.2,0.1c0-0.1,0.1-0.2,0.1-0.2
				c0.1-0.3,0.1-0.5,0.1-0.8c0,0,0-0.1,0-0.1c0,0,0.1-0.1,0.2-0.1c0.1,0,0.1,0.1,0.1,0.1c0.1,0.3,0.1,0.6,0.2,0.9
				c0,0.1,0,0.2,0.1,0.2c0.1-0.1,0.2-0.1,0.3-0.2c0.2-0.1,0.4-0.3,0.6-0.4c0,0,0,0,0.1,0c0.1,0,0.1,0,0.2,0c0.1,0.1,0,0.1,0,0.2
				c-0.1,0.2-0.2,0.3-0.3,0.5c-0.1,0.1-0.2,0.3-0.3,0.4c0.2,0,0.3,0.1,0.5,0.1c0.2,0.1,0.5,0.1,0.7,0.2c0.1,0,0.1,0,0.1,0.1
				c0,0.1,0,0.1-0.1,0.1c-0.1,0-0.2,0.1-0.2,0.1c-0.2,0-0.4,0.1-0.7,0.1c-0.1,0-0.2,0-0.2,0.2c0.2,0.2,0.3,0.5,0.5,0.7
				c0,0.1,0.1,0.1,0.1,0.2c0,0,0,0.1,0,0.2c0,0-0.1,0-0.2,0c-0.2-0.1-0.3-0.2-0.5-0.3c-0.1-0.1-0.3-0.2-0.4-0.3
				c-0.1-0.1-0.2,0-0.2,0.1c0,0.2-0.1,0.4-0.1,0.7c0,0.1,0,0.2-0.1,0.3c0,0.1-0.1,0.2-0.2,0.2c-0.1,0-0.1-0.1-0.1-0.2
				c0-0.2-0.1-0.5-0.1-0.7C85.4,24.6,85.4,24.4,85.3,24.3z M86.1,23.4c0-0.2-0.2-0.4-0.4-0.4c-0.2,0-0.4,0.2-0.4,0.4
				c0,0.2,0.1,0.4,0.4,0.4C86,23.8,86.1,23.6,86.1,23.4z"/>
			<path class="st2" d="M81.6,41c0.1,0.1,0.1,0.2,0.2,0.2c0.2,0.2,0.3,0.4,0.5,0.6c0.1,0.1,0.1,0.2,0.2,0.3c0,0,0.1,0.1,0.2,0.1
				c0.1,0.1,0.2,0.1,0.1,0.2c0,0.1-0.1,0.1-0.2,0.1c-0.2,0-0.5,0.1-0.7,0.1c-0.1,0-0.1,0-0.2,0c-0.1,0-0.2-0.1-0.1-0.2
				c0.1-0.2,0-0.3-0.1-0.4c-0.2-0.3-0.4-0.6-0.6-0.8c0,0,0-0.1-0.1-0.1c-0.1-0.1-0.2-0.1-0.2,0.1c0,0.1,0,0.2,0,0.3
				c0,0.2,0,0.4-0.1,0.5c0,0.2,0,0.3,0.2,0.4c0.1,0,0.1,0.1,0.1,0.2c0,0.1-0.1,0.1-0.2,0.1c-0.3,0-0.5,0.1-0.8,0.2
				c-0.2,0.1-0.3,0.1-0.3,0c-0.1-0.1,0-0.2,0.1-0.3c0.2-0.1,0.3-0.3,0.3-0.5c0.1-0.3,0-0.6,0.1-0.8c0-0.3,0.1-0.5,0.1-0.8
				c0-0.2,0-0.5,0.1-0.7c0-0.1,0-0.3-0.2-0.4c-0.1-0.1-0.1-0.3,0.1-0.4c0.1,0,0.2,0,0.3-0.1c0.2,0,0.4,0,0.6,0c0.1,0,0.3,0,0.4,0
				c0.2,0,0.4,0,0.6,0.1c0.2,0.1,0.3,0.3,0.3,0.5c0,0.3,0,0.5-0.1,0.7c-0.1,0.1-0.1,0.2-0.2,0.3C81.9,40.9,81.8,40.9,81.6,41z
				 M80.7,40.7c0.3,0.1,0.3,0.1,0.5,0c0.1,0,0.2-0.1,0.3-0.2c0.3-0.3,0.2-0.5,0.1-0.8c0-0.1-0.1-0.1-0.3-0.1c-0.1,0-0.2,0-0.4,0
				c-0.1,0-0.1,0.1-0.2,0.2c0,0.1,0,0.2,0,0.3C80.8,40.3,80.7,40.5,80.7,40.7z"/>
			<path class="st2" d="M85.3,40.4c0,0.3,0,0.6-0.1,0.9c-0.1,0.4-0.4,0.8-0.8,1c-0.4,0.2-0.8,0.2-1.2-0.1c-0.3-0.3-0.4-0.6-0.5-1
				c-0.1-0.2-0.1-0.5,0-0.7c0-0.2,0-0.4,0.1-0.5c0.1-0.3,0.2-0.6,0.4-0.8c0.2-0.3,0.5-0.5,0.9-0.5c0.1,0,0.2,0,0.3,0
				c0.4,0.1,0.7,0.4,0.8,0.8C85.2,39.7,85.3,40.1,85.3,40.4z M84.7,40.5c0-0.3-0.1-0.6-0.1-0.9c0-0.1-0.1-0.2-0.2-0.3
				c-0.1-0.2-0.3-0.2-0.5,0c-0.3,0.2-0.4,0.6-0.5,0.9c0,0.1,0,0.1,0,0.2c-0.1,0.2-0.1,0.5,0,0.7c0,0.3,0.1,0.5,0.3,0.8
				c0.2,0.2,0.4,0.3,0.6,0c0.1-0.1,0.2-0.3,0.3-0.5C84.6,41.1,84.6,40.8,84.7,40.5z"/>
		</g>
	</g>
</g>
</svg>
